<svg width="1458" height="1450" xmlns="http://www.w3.org/2000/svg">
    <path d="M546 1418 537 1450 581 1450 547 1418" style="fill:none; stroke:black; stroke-width:5"/>
    <path d="M1458 1301 1329 1371 1458 1450 1458 1302" style="fill:none; stroke:black; stroke-width:5"/>
    <path d="M849 1288 739 1357 850 1288" style="fill:none; stroke:black; stroke-width:5"/>
    <path d="M1166 1236 1124 1291 1282 1354 1366 1299 1167 1236" style="fill:none; stroke:black; stroke-width:5"/>
    <path d="M634 1179 579 1191 605 1239 635 1179" style="fill:none; stroke:black; stroke-width:5"/>
    <path d="M82 1099 92 1160 83 1099" style="fill:none; stroke:black; stroke-width:5"/>
    <path d="M1384 991 1211 1081 1455 1156 1458 1020 1385 991" style="fill:none; stroke:black; stroke-width:5"/>
    <path d="M541 940 594 979 535 974 540 940" style="fill:none; stroke:black; stroke-width:5"/>
    <path d="M685 863 688 898 684 863" style="fill:none; stroke:black; stroke-width:5"/>
    <path d="M330 857 341 888 331 857" style="fill:none; stroke:black; stroke-width:5"/>
    <path d="M883 818 896 854 882 818" style="fill:none; stroke:black; stroke-width:5"/>
    <path d="M1355 777 1374 848 1354 778" style="fill:none; stroke:black; stroke-width:5"/>
    <path d="M118 775 128 826 204 855 119 775" style="fill:none; stroke:black; stroke-width:5"/>
    <path d="M316 750 343 818 406 796 317 750" style="fill:none; stroke:black; stroke-width:5"/>
    <path d="M11 728 19 769 12 728" style="fill:none; stroke:black; stroke-width:5"/>
    <path d="M930 667 944 723 931 667" style="fill:none; stroke:black; stroke-width:5"/>
    <path d="M696 665 786 721 775 673 860 668 806 734 861 707 859 785 613 820 604 684 682 679 687 748 695 665" style="fill:none; stroke:black; stroke-width:5"/>
    <path d="M1269 659 1279 718 1348 733 1339 843 1259 833 1268 660" style="fill:none; stroke:black; stroke-width:5"/>
    <path d="M1212 657 1217 799 1157 792 1211 658" style="fill:none; stroke:black; stroke-width:5"/>
    <path d="M1047 649 1032 765 1083 784 999 775 1047 650" style="fill:none; stroke:black; stroke-width:5"/>
    <path d="M600 644 654 648 599 645" style="fill:none; stroke:black; stroke-width:5"/>
    <path d="M0 599 0 684 42 686 84 614 1 599" style="fill:none; stroke:black; stroke-width:5"/>
    <path d="M1064 593 1056 675 1063 594" style="fill:none; stroke:black; stroke-width:5"/>
    <path d="M598 572 646 600 599 623 597 573" style="fill:none; stroke:black; stroke-width:5"/>
    <path d="M1220 556 1217 610 1165 600 1150 793 1227 815 1173 865 1054 841 1075 794 1141 803 1156 584 1219 556" style="fill:none; stroke:black; stroke-width:5"/>
    <path d="M1087 526 1172 532 1097 533 1071 587 1086 526" style="fill:none; stroke:black; stroke-width:5"/>
    <path d="M198 427 163 481 216 472 199 427" style="fill:none; stroke:black; stroke-width:5"/>
    <path d="M1291 384 1291 603 1290 385" style="fill:none; stroke:black; stroke-width:5"/>
    <path d="M1215 369 1262 371 1225 419 1253 503 1193 471 1214 370" style="fill:none; stroke:black; stroke-width:5"/>
    <path d="M949 362 864 430 891 710 981 505 947 624 1033 636 952 647 1023 674 964 682 993 774 939 747 885 781 871 653 673 648 831 590 834 524 787 523 824 507 780 503 753 427 694 430 684 480 675 405 608 421 594 379 948 362" style="fill:none; stroke:black; stroke-width:5"/>
    <path d="M1413 262 1414 305 1412 263" style="fill:none; stroke:black; stroke-width:5"/>
    <path d="M536 72 629 83 617 135 537 73" style="fill:none; stroke:black; stroke-width:5"/>
    <path d="M20 0 4 79 855 149 690 192 759 192 822 257 834 216 901 310 999 312 603 328 642 284 553 307 436 206 284 161 263 250 235 120 103 112 97 210 82 164 0 158 0 551 67 541 66 368 253 363 324 467 309 560 384 604 430 438 429 506 546 513 508 554 550 574 489 602 455 532 477 598 417 623 545 637 512 678 543 744 500 747 536 861 364 822 409 901 268 931 137 856 7 863 0 959 312 1183 1022 1050 1005 1406 1040 1422 1122 1207 1083 1255 1086 1103 1039 1285 1075 968 958 943 929 989 927 947 847 935 826 989 774 931 671 917 728 900 721 842 1190 983 1458 924 1458 472 1356 462 1351 553 1345 471 1304 473 1315 353 1458 353 1458 0 21 0" style="fill:none; stroke:black; stroke-width:5"/>
</svg>