<svg width="1623" height="2653" xmlns="http://www.w3.org/2000/svg"><path d="M1437 2196 1304 2173 1437 2198 1406 2309 1284 2343 763 2320 826 2339 815 2384 537 2413 425 2340 717 2323 427 2330 537 2413 818 2383 826 2338 764 2320 1284 2343 1407 2309 " style="stroke:black"/><path d="M1625 2140 1739 2229 1738 2339 1526 2301 " style="stroke:black"/><path d="M1621 2142 1526 2302 1739 2339 1739 2228 " style="stroke:black"/><path d="M846 1784 856 1882 1171 2115 856 1881 847 1784 994 1812 " style="stroke:black"/><path d="M456 1921 478 2161 663 2303 509 2204 441 2010 508 1812 662 1667 741 1874 911 1943 1145 2136 1302 2175 1146 2136 898 1934 742 1874 673 1777 664 1667 532 1775 " style="stroke:black"/><path d="M831 1487 844 1774 986 1716 838 1772 " style="stroke:black"/><path d="M1244 1033 1209 1276 1283 1349 1429 1324 1385 1441 1401 1854 1263 1972 1210 1959 1314 1955 1401 1854 1385 1441 1429 1324 1283 1349 1209 1275 1241 1036 1291 1040 " style="stroke:black"/><path d="M649 954 604 1021 598 1237 716 1815 828 1847 793 1350 825 1859 703 1787 611 1373 604 1021 692 944 918 1094 1319 1476 1393 1628 1377 1860 1322 1940 1212 1956 1324 1939 1377 1860 1395 1680 1313 1466 787 985 " style="stroke:black"/><path d="M1518 798 1656 876 1732 1076 1635 2034 1504 2359 1417 2359 1523 1965 1592 1382 1586 1097 1504 1018 1418 1065 1544 1325 1420 1916 1364 2048 1173 2116 1361 2051 1544 1341 1418 1066 1542 1026 1590 1126 1589 1416 1523 1965 1418 2361 1504 2360 1635 2034 1734 1174 1672 897 " style="stroke:black"/><path d="M1427 395 1402 545 1191 353 648 492 1009 602 1074 751 1201 819 1061 702 1020 525 1064 426 1155 374 1244 381 1355 492 1245 381 1104 388 1020 525 1061 703 1201 819 1074 750 1010 602 647 495 1191 353 1400 546 1427 395 1382 316 649 341 449 403 409 513 439 594 593 670 1114 811 1288 1033 1125 817 435 589 409 488 460 397 744 326 1359 312 " style="stroke:black"/></svg>