<svg width="1458" height="1450" xmlns="http://www.w3.org/2000/svg">
    <path d="M367 1439 447 1450" style="fill:none; stroke:black; stroke-width:5"/>
    <path d="M539 1422 581 1450" style="fill:none; stroke:black; stroke-width:5"/>
    <path d="M1458 1301 1336 1389 1458 1450" style="fill:none; stroke:black; stroke-width:5"/>
    <path d="M876 1296 738 1358" style="fill:none; stroke:black; stroke-width:5"/>
    <path d="M1124 1280 1286 1354 1369 1314 1222 1237" style="fill:none; stroke:black; stroke-width:5"/>
    <path d="M433 1206 379 1222" style="fill:none; stroke:black; stroke-width:5"/>
    <path d="M640 1181 579 1190 573 1233 639 1235" style="fill:none; stroke:black; stroke-width:5"/>
    <path d="M64 1103 93 1161 99 1103" style="fill:none; stroke:black; stroke-width:5"/>
    <path d="M1458 1157 1458 1020 1391 991 1211 1079" style="fill:none; stroke:black; stroke-width:5"/>
    <path d="M1421 987 1457 979" style="fill:none; stroke:black; stroke-width:5"/>
    <path d="M527 963 596 978" style="fill:none; stroke:black; stroke-width:5"/>
    <path d="M637 869 604 879" style="fill:none; stroke:black; stroke-width:5"/>
    <path d="M321 885 279 878" style="fill:none; stroke:black; stroke-width:5"/>
    <path d="M686 862 689 898" style="fill:none; stroke:black; stroke-width:5"/>
    <path d="M329 857 355 887" style="fill:none; stroke:black; stroke-width:5"/>
    <path d="M685 849 715 858" style="fill:none; stroke:black; stroke-width:5"/>
    <path d="M876 819 898 854" style="fill:none; stroke:black; stroke-width:5"/>
    <path d="M1376 805 1406 807" style="fill:none; stroke:black; stroke-width:5"/>
    <path d="M1355 774 1373 850" style="fill:none; stroke:black; stroke-width:5"/>
    <path d="M111 780 223 852" style="fill:none; stroke:black; stroke-width:5"/>
    <path d="M311 754 336 816 407 797" style="fill:none; stroke:black; stroke-width:5"/>
    <path d="M10 728 19 772" style="fill:none; stroke:black; stroke-width:5"/>
    <path d="M912 712 910 743" style="fill:none; stroke:black; stroke-width:5"/>
    <path d="M929 667 947 723" style="fill:none; stroke:black; stroke-width:5"/>
    <path d="M604 683 683 679 686 750 696 664 785 721 774 673 860 667 806 733 863 708 860 784 603 820" style="fill:none; stroke:black; stroke-width:5"/>
    <path d="M1270 655 1279 719 1348 732 1336 846 1259 835" style="fill:none; stroke:black; stroke-width:5"/>
    <path d="M1213 648 1219 795 1160 796" style="fill:none; stroke:black; stroke-width:5"/>
    <path d="M598 645 657 647" style="fill:none; stroke:black; stroke-width:5"/>
    <path d="M0 599 0 684 48 686 85 614" style="fill:none; stroke:black; stroke-width:5"/>
    <path d="M1067 591 1031 762 1084 782 1018 785" style="fill:none; stroke:black; stroke-width:5"/>
    <path d="M1123 580 1078 598" style="fill:none; stroke:black; stroke-width:5"/>
    <path d="M426 573 447 611" style="fill:none; stroke:black; stroke-width:5"/>
    <path d="M596 573 646 601 598 624" style="fill:none; stroke:black; stroke-width:5"/>
    <path d="M1236 554 1215 614 1212 581 1165 597 1149 791 1227 821 1175 865 1059 853 1071 796 1150 803 1156 583" style="fill:none; stroke:black; stroke-width:5"/>
    <path d="M684 549 686 581" style="fill:none; stroke:black; stroke-width:5"/>
    <path d="M1326 532 1304 565" style="fill:none; stroke:black; stroke-width:5"/>
    <path d="M1068 588 1083 526 1171 528 1097 533" style="fill:none; stroke:black; stroke-width:5"/>
    <path d="M1330 491 1318 527" style="fill:none; stroke:black; stroke-width:5"/>
    <path d="M1019 450 1013 501" style="fill:none; stroke:black; stroke-width:5"/>
    <path d="M234 436 164 431 162 482" style="fill:none; stroke:black; stroke-width:5"/>
    <path d="M414 415 415 450" style="fill:none; stroke:black; stroke-width:5"/>
    <path d="M792 416 828 403" style="fill:none; stroke:black; stroke-width:5"/>
    <path d="M1293 382 1289 608" style="fill:none; stroke:black; stroke-width:5"/>
    <path d="M1183 380 1184 418" style="fill:none; stroke:black; stroke-width:5"/>
    <path d="M1216 367 1262 370 1224 418 1252 521 1193 472" style="fill:none; stroke:black; stroke-width:5"/>
    <path d="M1024 367 1022 399" style="fill:none; stroke:black; stroke-width:5"/>
    <path d="M597 375 981 373 864 462 891 712 989 506 947 624 1036 635 952 646 1024 674 963 685 994 775 939 747 875 782 872 653 674 650 830 591 835 525 786 523 826 506 779 503 754 427 692 431 685 499 675 404 608 421" style="fill:none; stroke:black; stroke-width:5"/>
    <path d="M668 320 708 321" style="fill:none; stroke:black; stroke-width:5"/>
    <path d="M1432 261 1409 308" style="fill:none; stroke:black; stroke-width:5"/>
    <path d="M905 172 863 185" style="fill:none; stroke:black; stroke-width:5"/>
    <path d="M949 132 912 140" style="fill:none; stroke:black; stroke-width:5"/>
    <path d="M768 120 722 127" style="fill:none; stroke:black; stroke-width:5"/>
    <path d="M747 86 674 91" style="fill:none; stroke:black; stroke-width:5"/>
    <path d="M534 72 632 83 643 128" style="fill:none; stroke:black; stroke-width:5"/>
    <path d="M20 0 5 79 857 149 692 195 760 192 822 259 833 215 900 310 1033 308 603 329 643 284 551 307 268 163 263 251 222 114 106 108 97 222 83 164 0 158 0 551 68 541 99 351 253 362 324 467 309 561 390 607 429 438 429 507 545 512 508 555 550 573 490 603 455 532 478 598 417 622 545 636 511 678 543 747 500 746 537 861 364 822 351 860 410 900 267 931 138 856 7 863 0 958 312 1183 1023 1050 1005 1407 1051 1420 1123 1204 1082 1254 1083 1106 1038 1294 1076 968 959 942 931 990 927 946 846 935 831 990 775 931 671 917 728 901 725 842 1189 983 1458 923 1458 472 1354 463 1351 556 1345 470 1305 482 1314 353 1458 353 1458 0" style="fill:none; stroke:black; stroke-width:5"/>
</svg>