<?xml version="1.0" encoding="UTF-8" standalone="no"?>
<!-- Created with Inkscape (http://www.inkscape.org/) -->

<svg
   xmlns:dc="http://purl.org/dc/elements/1.1/"
   xmlns:cc="http://creativecommons.org/ns#"
   xmlns:rdf="http://www.w3.org/1999/02/22-rdf-syntax-ns#"
   xmlns:svg="http://www.w3.org/2000/svg"
   xmlns="http://www.w3.org/2000/svg"
   xmlns:sodipodi="http://sodipodi.sourceforge.net/DTD/sodipodi-0.dtd"
   xmlns:inkscape="http://www.inkscape.org/namespaces/inkscape"
   version="1.1"
   id="svg2"
   xml:space="preserve"
   width="149.08379"
   height="45.035084"
   viewBox="0 0 149.08379 45.035082"
   sodipodi:docname="logos.svg"
   inkscape:version="0.92.3 (2405546, 2018-03-11)"
   inkscape:export-filename="/home/lluj/atelier/base/research/interaction/teaching/workshop_post/logos.png"
   inkscape:export-xdpi="600"
   inkscape:export-ydpi="600"><metadata
     id="metadata8"><rdf:RDF><cc:Work
         rdf:about=""><dc:format>image/svg+xml</dc:format><dc:type
           rdf:resource="http://purl.org/dc/dcmitype/StillImage" /><dc:title></dc:title></cc:Work></rdf:RDF></metadata><defs
     id="defs6"><clipPath
       clipPathUnits="userSpaceOnUse"
       id="clipPath20"><path
         d="M 0,170.079 H 255.118 V 0 H 0 Z"
         id="path18"
         inkscape:connector-curvature="0" /></clipPath><clipPath
       id="clipPath960"
       clipPathUnits="userSpaceOnUse"><path
         inkscape:connector-curvature="0"
         id="path958"
         d="M 0,68.997 H 98.995 V 0 H 0 Z" /></clipPath><clipPath
       id="clipPath1229"
       clipPathUnits="userSpaceOnUse"><path
         inkscape:connector-curvature="0"
         id="path1227"
         d="M 0,49.52 H 48.67 V 0 H 0 Z" /></clipPath></defs><sodipodi:namedview
     pagecolor="#ffffff"
     bordercolor="#666666"
     borderopacity="1"
     objecttolerance="10"
     gridtolerance="10"
     guidetolerance="10"
     inkscape:pageopacity="0"
     inkscape:pageshadow="2"
     inkscape:window-width="1645"
     inkscape:window-height="995"
     id="namedview4"
     showgrid="false"
     inkscape:pagecheckerboard="false"
     fit-margin-top="0"
     fit-margin-left="0"
     fit-margin-right="0"
     fit-margin-bottom="0"
     inkscape:zoom="1.4717619"
     inkscape:cx="127.54996"
     inkscape:cy="116.07345"
     inkscape:window-x="35"
     inkscape:window-y="27"
     inkscape:window-maximized="1"
     inkscape:current-layer="g10" /><g
     id="g10"
     inkscape:groupmode="layer"
     inkscape:label="LOGOHUMANIST"
     transform="matrix(1.3333333,0,0,-1.3333333,-43.901945,102.18222)"><g
       id="g14"
       transform="matrix(0.29849634,0,0,0.29849634,23.850947,36.303362)"><g
         id="g16"
         clip-path="url(#clipPath20)"><g
           id="g22"
           transform="translate(137.0212,81.3419)"><path
             d="M 0,0 C 0,0.081 0.072,0.154 0.153,0.154 H 0.47 C 0.559,0.154 0.624,0.081 0.624,0 V -2.366 H 3.913 V 0 c 0,0.081 0.066,0.154 0.154,0.154 H 4.383 C 4.464,0.154 4.537,0.081 4.537,0 v -5.364 c 0,-0.081 -0.073,-0.154 -0.154,-0.154 H 4.067 c -0.088,0 -0.154,0.073 -0.154,0.154 v 2.455 H 0.624 v -2.455 c 0,-0.081 -0.065,-0.154 -0.154,-0.154 H 0.153 C 0.072,-5.518 0,-5.445 0,-5.364 Z"
             style="fill:#231f20;fill-opacity:1;fill-rule:nonzero;stroke:none"
             id="path24"
             inkscape:connector-curvature="0" /></g><g
           id="g26"
           transform="translate(143.1365,81.3419)"><path
             d="M 0,0 C 0,0.081 0.072,0.154 0.153,0.154 H 0.462 C 0.551,0.154 0.615,0.081 0.615,0 v -3.378 c 0,-0.924 0.575,-1.645 1.524,-1.645 0.956,0 1.539,0.705 1.539,1.628 V 0 c 0,0.081 0.065,0.154 0.154,0.154 H 4.14 C 4.221,0.154 4.294,0.081 4.294,0 V -3.427 C 4.294,-4.659 3.419,-5.599 2.139,-5.599 0.866,-5.599 0,-4.659 0,-3.427 Z"
             style="fill:#231f20;fill-opacity:1;fill-rule:nonzero;stroke:none"
             id="path28"
             inkscape:connector-curvature="0" /></g><g
           id="g30"
           transform="translate(149.6492,81.4634)"><path
             d="m 0,0 c 0.016,0.065 0.081,0.114 0.146,0.114 h 0.129 c 0.057,0 0.121,-0.041 0.138,-0.09 L 2.018,-4.44 h 0.04 l 1.58,4.464 c 0.016,0.049 0.081,0.09 0.137,0.09 h 0.13 C 3.97,0.114 4.035,0.065 4.051,0 L 5.096,-5.445 C 5.12,-5.558 5.072,-5.639 4.95,-5.639 H 4.626 c -0.064,0 -0.129,0.056 -0.146,0.113 L 3.759,-1.353 H 3.727 L 2.236,-5.631 C 2.22,-5.68 2.146,-5.72 2.099,-5.72 H 1.952 c -0.049,0 -0.121,0.04 -0.138,0.089 L 0.308,-1.353 H 0.275 L -0.43,-5.526 c -0.007,-0.057 -0.081,-0.113 -0.145,-0.113 h -0.324 c -0.122,0 -0.17,0.081 -0.147,0.194 z"
             style="fill:#231f20;fill-opacity:1;fill-rule:nonzero;stroke:none"
             id="path32"
             inkscape:connector-curvature="0" /></g><g
           id="g34"
           transform="translate(159.0623,77.7525)"><path
             d="M 0,0 C -0.397,0.883 -0.786,1.774 -1.184,2.658 H -1.248 L -2.431,0 Z m -3.849,-1.718 2.463,5.453 c 0.025,0.049 0.065,0.09 0.138,0.09 h 0.081 c 0.073,0 0.113,-0.041 0.138,-0.09 L 1.418,-1.718 C 1.467,-1.823 1.401,-1.928 1.28,-1.928 H 0.956 c -0.073,0 -0.122,0.049 -0.138,0.089 l -0.599,1.337 h -2.877 l -0.591,-1.337 c -0.017,-0.04 -0.065,-0.089 -0.138,-0.089 h -0.324 c -0.122,0 -0.186,0.105 -0.138,0.21"
             style="fill:#231f20;fill-opacity:1;fill-rule:nonzero;stroke:none"
             id="path36"
             inkscape:connector-curvature="0" /></g><g
           id="g38"
           transform="translate(161.3611,81.4312)"><path
             d="m 0,0 c 0,0.081 0.073,0.146 0.154,0.146 h 0.202 l 3.655,-4.554 h 0.016 v 4.319 c 0,0.081 0.065,0.154 0.154,0.154 h 0.284 c 0.081,0 0.154,-0.073 0.154,-0.154 v -5.453 c 0,-0.081 -0.073,-0.146 -0.154,-0.146 H 4.319 L 0.6,-1.045 H 0.592 v -4.408 c 0,-0.081 -0.065,-0.154 -0.155,-0.154 H 0.154 C 0.073,-5.607 0,-5.534 0,-5.453 Z"
             style="fill:#231f20;fill-opacity:1;fill-rule:nonzero;stroke:none"
             id="path40"
             inkscape:connector-curvature="0" /></g><g
           id="g42"
           transform="translate(171.9402,81.5772)"><path
             d="M 0,0 C 0.818,0 1.41,-0.284 1.961,-0.754 2.026,-0.818 2.034,-0.916 1.969,-0.98 L 1.75,-1.199 C 1.686,-1.28 1.621,-1.272 1.54,-1.191 c -0.422,0.364 -0.997,0.608 -1.548,0.608 -1.28,0 -2.261,-1.078 -2.261,-2.334 0,-1.248 0.981,-2.326 2.261,-2.326 0.705,0 1.118,0.284 1.548,0.608 0.081,0.065 0.146,0.057 0.194,0.025 L 1.978,-4.829 C 2.042,-4.878 2.026,-4.991 1.969,-5.048 1.418,-5.583 0.722,-5.834 0,-5.834 c -1.62,0 -2.925,1.288 -2.925,2.909 C -2.925,-1.305 -1.62,0 0,0"
             style="fill:#231f20;fill-opacity:1;fill-rule:nonzero;stroke:none"
             id="path44"
             inkscape:connector-curvature="0" /></g><g
           id="g46"
           transform="translate(175.155,81.3419)"><path
             d="M 0,0 C 0,0.081 0.065,0.154 0.154,0.154 H 3.347 C 3.436,0.154 3.501,0.081 3.501,0 v -0.235 c 0,-0.081 -0.065,-0.154 -0.154,-0.154 H 0.624 v -1.977 h 2.325 c 0.081,0 0.155,-0.072 0.155,-0.154 v -0.235 c 0,-0.089 -0.074,-0.154 -0.155,-0.154 H 0.624 v -2.066 h 2.723 c 0.089,0 0.154,-0.073 0.154,-0.153 v -0.236 c 0,-0.081 -0.065,-0.154 -0.154,-0.154 H 0.154 C 0.065,-5.518 0,-5.445 0,-5.364 Z"
             style="fill:#231f20;fill-opacity:1;fill-rule:nonzero;stroke:none"
             id="path48"
             inkscape:connector-curvature="0" /></g><g
           id="g50"
           transform="translate(179.95,81.4312)"><path
             d="m 0,0 c 0,0.081 0.073,0.146 0.154,0.146 h 0.202 l 3.655,-4.554 h 0.016 v 4.319 c 0,0.081 0.065,0.154 0.154,0.154 h 0.284 c 0.081,0 0.153,-0.073 0.153,-0.154 v -5.453 c 0,-0.081 -0.072,-0.146 -0.153,-0.146 H 4.319 L 0.6,-1.045 H 0.592 v -4.408 c 0,-0.081 -0.065,-0.154 -0.155,-0.154 H 0.154 C 0.073,-5.607 0,-5.534 0,-5.453 Z"
             style="fill:#231f20;fill-opacity:1;fill-rule:nonzero;stroke:none"
             id="path52"
             inkscape:connector-curvature="0" /></g><g
           id="g54"
           transform="translate(187.0222,80.9532)"><path
             d="m 0,0 h -1.41 c -0.089,0 -0.154,0.073 -0.154,0.154 v 0.235 c 0,0.081 0.065,0.154 0.154,0.154 H 2.025 C 2.114,0.543 2.18,0.47 2.18,0.389 V 0.154 C 2.18,0.073 2.114,0 2.025,0 h -1.41 v -4.975 c 0,-0.081 -0.072,-0.154 -0.153,-0.154 H 0.153 C 0.072,-5.129 0,-5.056 0,-4.975 Z"
             style="fill:#231f20;fill-opacity:1;fill-rule:nonzero;stroke:none"
             id="path56"
             inkscape:connector-curvature="0" /></g><g
           id="g58"
           transform="translate(190.0916,81.3419)"><path
             d="M 0,0 C 0,0.081 0.065,0.154 0.154,0.154 H 3.347 C 3.436,0.154 3.501,0.081 3.501,0 v -0.235 c 0,-0.081 -0.065,-0.154 -0.154,-0.154 H 0.624 v -1.977 h 2.325 c 0.081,0 0.155,-0.072 0.155,-0.154 v -0.235 c 0,-0.089 -0.074,-0.154 -0.155,-0.154 H 0.624 v -2.066 h 2.723 c 0.089,0 0.154,-0.073 0.154,-0.153 v -0.236 c 0,-0.081 -0.065,-0.154 -0.154,-0.154 H 0.154 C 0.065,-5.518 0,-5.445 0,-5.364 Z"
             style="fill:#231f20;fill-opacity:1;fill-rule:nonzero;stroke:none"
             id="path60"
             inkscape:connector-curvature="0" /></g><g
           id="g62"
           transform="translate(197.0984,78.5792)"><path
             d="M 0,0 C 0.624,0 1.167,0.519 1.167,1.183 1.167,1.799 0.624,2.325 0,2.325 H -1.571 V 0 Z m -2.212,2.763 c 0,0.081 0.066,0.154 0.154,0.154 h 2.099 c 0.972,0 1.767,-0.762 1.767,-1.726 0,-0.745 -0.496,-1.369 -1.2,-1.653 l 1.11,-2.058 c 0.056,-0.105 0,-0.235 -0.138,-0.235 H 1.167 c -0.073,0 -0.113,0.041 -0.13,0.073 l -1.077,2.147 h -1.548 v -2.066 c 0,-0.081 -0.073,-0.154 -0.153,-0.154 h -0.317 c -0.088,0 -0.154,0.073 -0.154,0.154 z"
             style="fill:#231f20;fill-opacity:1;fill-rule:nonzero;stroke:none"
             id="path64"
             inkscape:connector-curvature="0" /></g><g
           id="g66"
           transform="translate(200.24,81.3419)"><path
             d="M 0,0 C 0,0.081 0.065,0.154 0.154,0.154 H 3.347 C 3.436,0.154 3.501,0.081 3.501,0 v -0.235 c 0,-0.081 -0.065,-0.154 -0.154,-0.154 H 0.624 v -1.977 h 2.325 c 0.081,0 0.155,-0.072 0.155,-0.154 v -0.235 c 0,-0.089 -0.074,-0.154 -0.155,-0.154 H 0.624 v -2.066 h 2.723 c 0.089,0 0.154,-0.073 0.154,-0.153 v -0.236 c 0,-0.081 -0.065,-0.154 -0.154,-0.154 H 0.154 C 0.065,-5.518 0,-5.445 0,-5.364 Z"
             style="fill:#231f20;fill-opacity:1;fill-rule:nonzero;stroke:none"
             id="path68"
             inkscape:connector-curvature="0" /></g><g
           id="g70"
           transform="translate(206.8669,76.3834)"><path
             d="M 0,0 C 1.329,0 2.293,0.948 2.293,2.285 2.293,3.614 1.329,4.562 0,4.562 H -1.215 V 0 Z m -1.831,4.958 c 0,0.082 0.065,0.155 0.146,0.155 H 0.13 c 1.563,0 2.844,-1.273 2.844,-2.828 0,-1.572 -1.281,-2.844 -2.844,-2.844 h -1.815 c -0.081,0 -0.146,0.073 -0.146,0.154 z"
             style="fill:#231f20;fill-opacity:1;fill-rule:nonzero;stroke:none"
             id="path72"
             inkscape:connector-curvature="0" /></g><g
           id="g74"
           transform="translate(137.0212,72.8428)"><path
             d="M 0,0 C 0,0.081 0.072,0.154 0.153,0.154 H 0.478 C 0.559,0.154 0.632,0.081 0.632,0 v -5.363 c 0,-0.081 -0.073,-0.155 -0.154,-0.155 H 0.153 C 0.072,-5.518 0,-5.444 0,-5.363 Z"
             style="fill:#231f20;fill-opacity:1;fill-rule:nonzero;stroke:none"
             id="path76"
             inkscape:connector-curvature="0" /></g><g
           id="g78"
           transform="translate(139.3044,72.9317)"><path
             d="m 0,0 c 0,0.081 0.073,0.146 0.154,0.146 h 0.202 l 3.655,-4.553 h 0.016 v 4.318 c 0,0.081 0.065,0.154 0.154,0.154 h 0.284 c 0.081,0 0.154,-0.073 0.154,-0.154 v -5.453 c 0,-0.081 -0.073,-0.145 -0.154,-0.145 H 4.319 L 0.6,-1.045 H 0.592 v -4.407 c 0,-0.081 -0.065,-0.154 -0.155,-0.154 H 0.154 C 0.073,-5.606 0,-5.533 0,-5.452 Z"
             style="fill:#231f20;fill-opacity:1;fill-rule:nonzero;stroke:none"
             id="path80"
             inkscape:connector-curvature="0" /></g><g
           id="g82"
           transform="translate(146.3767,72.4542)"><path
             d="m 0,0 h -1.41 c -0.089,0 -0.154,0.073 -0.154,0.154 v 0.235 c 0,0.081 0.065,0.154 0.154,0.154 H 2.025 C 2.114,0.543 2.18,0.47 2.18,0.389 V 0.154 C 2.18,0.073 2.114,0 2.025,0 h -1.41 v -4.975 c 0,-0.081 -0.072,-0.154 -0.153,-0.154 H 0.153 C 0.072,-5.129 0,-5.056 0,-4.975 Z"
             style="fill:#231f20;fill-opacity:1;fill-rule:nonzero;stroke:none"
             id="path84"
             inkscape:connector-curvature="0" /></g><g
           id="g86"
           transform="translate(149.446,72.8428)"><path
             d="M 0,0 C 0,0.081 0.065,0.154 0.154,0.154 H 3.347 C 3.436,0.154 3.501,0.081 3.501,0 v -0.234 c 0,-0.081 -0.065,-0.155 -0.154,-0.155 H 0.624 v -1.977 h 2.325 c 0.081,0 0.155,-0.072 0.155,-0.154 v -0.235 c 0,-0.089 -0.074,-0.153 -0.155,-0.153 H 0.624 v -2.067 h 2.723 c 0.089,0 0.154,-0.073 0.154,-0.154 v -0.234 c 0,-0.081 -0.065,-0.155 -0.154,-0.155 H 0.154 C 0.065,-5.518 0,-5.444 0,-5.363 Z"
             style="fill:#231f20;fill-opacity:1;fill-rule:nonzero;stroke:none"
             id="path88"
             inkscape:connector-curvature="0" /></g><g
           id="g90"
           transform="translate(156.4529,70.0801)"><path
             d="M 0,0 C 0.624,0 1.167,0.519 1.167,1.183 1.167,1.799 0.624,2.325 0,2.325 H -1.571 V 0 Z m -2.212,2.763 c 0,0.081 0.066,0.154 0.154,0.154 h 2.099 c 0.972,0 1.767,-0.762 1.767,-1.726 0,-0.746 -0.496,-1.37 -1.2,-1.653 l 1.11,-2.058 c 0.056,-0.105 0,-0.235 -0.138,-0.235 H 1.167 c -0.073,0 -0.113,0.04 -0.13,0.073 l -1.077,2.147 h -1.548 v -2.066 c 0,-0.081 -0.073,-0.154 -0.154,-0.154 h -0.316 c -0.088,0 -0.154,0.073 -0.154,0.154 z"
             style="fill:#231f20;fill-opacity:1;fill-rule:nonzero;stroke:none"
             id="path92"
             inkscape:connector-curvature="0" /></g><g
           id="g94"
           transform="translate(162.6667,69.254)"><path
             d="M 0,0 C -0.397,0.883 -0.786,1.774 -1.184,2.657 H -1.248 L -2.431,0 Z m -3.849,-1.718 2.463,5.453 c 0.025,0.048 0.065,0.089 0.138,0.089 h 0.081 c 0.073,0 0.113,-0.041 0.138,-0.089 L 1.418,-1.718 C 1.467,-1.823 1.401,-1.929 1.28,-1.929 H 0.956 c -0.073,0 -0.122,0.049 -0.138,0.089 L 0.219,-0.503 H -2.658 L -3.249,-1.84 c -0.017,-0.04 -0.065,-0.089 -0.138,-0.089 h -0.324 c -0.122,0 -0.186,0.106 -0.138,0.211"
             style="fill:#231f20;fill-opacity:1;fill-rule:nonzero;stroke:none"
             id="path96"
             inkscape:connector-curvature="0" /></g><g
           id="g98"
           transform="translate(167.4451,73.0782)"><path
             d="M 0,0 C 0.818,0 1.41,-0.284 1.961,-0.754 2.026,-0.818 2.034,-0.916 1.969,-0.98 L 1.75,-1.199 C 1.686,-1.28 1.621,-1.272 1.54,-1.191 c -0.422,0.364 -0.997,0.607 -1.548,0.607 -1.28,0 -2.261,-1.077 -2.261,-2.333 0,-1.248 0.981,-2.325 2.261,-2.325 0.705,0 1.118,0.283 1.548,0.607 0.081,0.065 0.146,0.057 0.194,0.025 L 1.978,-4.829 C 2.042,-4.878 2.026,-4.991 1.969,-5.048 1.418,-5.583 0.722,-5.834 0,-5.834 c -1.62,0 -2.925,1.288 -2.925,2.909 C -2.925,-1.305 -1.62,0 0,0"
             style="fill:#231f20;fill-opacity:1;fill-rule:nonzero;stroke:none"
             id="path100"
             inkscape:connector-curvature="0" /></g><g
           id="g102"
           transform="translate(171.4626,72.4542)"><path
             d="m 0,0 h -1.41 c -0.089,0 -0.154,0.073 -0.154,0.154 v 0.235 c 0,0.081 0.065,0.154 0.154,0.154 H 2.025 C 2.114,0.543 2.18,0.47 2.18,0.389 V 0.154 C 2.18,0.073 2.114,0 2.025,0 h -1.41 v -4.975 c 0,-0.081 -0.072,-0.154 -0.153,-0.154 H 0.153 C 0.072,-5.129 0,-5.056 0,-4.975 Z"
             style="fill:#231f20;fill-opacity:1;fill-rule:nonzero;stroke:none"
             id="path104"
             inkscape:connector-curvature="0" /></g><g
           id="g106"
           transform="translate(174.531,72.8428)"><path
             d="M 0,0 C 0,0.081 0.073,0.154 0.154,0.154 H 0.479 C 0.56,0.154 0.632,0.081 0.632,0 v -5.363 c 0,-0.081 -0.072,-0.155 -0.153,-0.155 H 0.154 C 0.073,-5.518 0,-5.444 0,-5.363 Z"
             style="fill:#231f20;fill-opacity:1;fill-rule:nonzero;stroke:none"
             id="path108"
             inkscape:connector-curvature="0" /></g><g
           id="g110"
           transform="translate(179.3113,67.8116)"><path
             d="M 0,0 C 1.288,0 2.35,1.053 2.35,2.342 2.35,3.63 1.288,4.699 0,4.699 -1.288,4.699 -2.342,3.63 -2.342,2.342 -2.342,1.053 -1.288,0 0,0 m 0,5.267 c 1.62,0 2.917,-1.305 2.917,-2.925 0,-1.621 -1.297,-2.909 -2.917,-2.909 -1.621,0 -2.909,1.288 -2.909,2.909 0,1.62 1.288,2.925 2.909,2.925"
             style="fill:#231f20;fill-opacity:1;fill-rule:nonzero;stroke:none"
             id="path112"
             inkscape:connector-curvature="0" /></g><g
           id="g114"
           transform="translate(183.4656,72.9317)"><path
             d="m 0,0 c 0,0.081 0.073,0.146 0.154,0.146 h 0.202 l 3.655,-4.553 h 0.016 v 4.318 c 0,0.081 0.065,0.154 0.154,0.154 h 0.284 c 0.081,0 0.153,-0.073 0.153,-0.154 v -5.453 c 0,-0.081 -0.072,-0.145 -0.153,-0.145 H 4.319 L 0.6,-1.045 H 0.592 v -4.407 c 0,-0.081 -0.065,-0.154 -0.155,-0.154 H 0.154 C 0.073,-5.606 0,-5.533 0,-5.452 Z"
             style="fill:#231f20;fill-opacity:1;fill-rule:nonzero;stroke:none"
             id="path116"
             inkscape:connector-curvature="0" /></g><g
           id="g118"
           transform="translate(136.656,59.6758)"><path
             d="m 0,0 c 0.041,0.049 0.081,0.105 0.122,0.154 0.081,0.106 0.17,0.17 0.283,0.073 0.057,-0.048 0.649,-0.616 1.369,-0.616 0.657,0 1.086,0.413 1.086,0.892 0,0.559 -0.486,0.891 -1.418,1.279 -0.89,0.39 -1.425,0.754 -1.425,1.678 0,0.551 0.437,1.442 1.725,1.442 0.794,0 1.386,-0.413 1.386,-0.413 C 3.177,4.465 3.273,4.367 3.177,4.214 3.145,4.165 3.111,4.108 3.079,4.06 3.007,3.946 2.926,3.914 2.796,3.986 2.739,4.019 2.229,4.359 1.734,4.359 0.875,4.359 0.616,3.809 0.616,3.468 0.616,2.925 1.029,2.609 1.71,2.325 2.804,1.88 3.509,1.467 3.509,0.526 c 0,-0.841 -0.802,-1.458 -1.75,-1.458 -0.956,0 -1.605,0.56 -1.71,0.657 C -0.016,-0.219 -0.097,-0.153 0,0"
             style="fill:#231f20;fill-opacity:1;fill-rule:nonzero;stroke:none"
             id="path120"
             inkscape:connector-curvature="0" /></g><g
           id="g122"
           transform="translate(143.8494,64.5782)"><path
             d="M 0,0 C 0.818,0 1.41,-0.284 1.961,-0.754 2.026,-0.818 2.034,-0.916 1.969,-0.98 L 1.75,-1.199 C 1.686,-1.28 1.621,-1.272 1.54,-1.191 c -0.422,0.364 -0.997,0.607 -1.548,0.607 -1.28,0 -2.261,-1.077 -2.261,-2.333 0,-1.248 0.981,-2.325 2.261,-2.325 0.705,0 1.118,0.283 1.548,0.607 0.081,0.065 0.146,0.057 0.194,0.025 L 1.978,-4.829 C 2.042,-4.878 2.026,-4.991 1.969,-5.048 1.418,-5.583 0.722,-5.834 0,-5.834 c -1.62,0 -2.925,1.288 -2.925,2.909 C -2.925,-1.305 -1.62,0 0,0"
             style="fill:#231f20;fill-opacity:1;fill-rule:nonzero;stroke:none"
             id="path124"
             inkscape:connector-curvature="0" /></g><g
           id="g126"
           transform="translate(147.0642,64.3428)"><path
             d="M 0,0 C 0,0.081 0.073,0.154 0.154,0.154 H 0.479 C 0.56,0.154 0.632,0.081 0.632,0 v -5.363 c 0,-0.081 -0.072,-0.155 -0.153,-0.155 H 0.154 C 0.073,-5.518 0,-5.444 0,-5.363 Z"
             style="fill:#231f20;fill-opacity:1;fill-rule:nonzero;stroke:none"
             id="path128"
             inkscape:connector-curvature="0" /></g><g
           id="g130"
           transform="translate(149.3484,64.3428)"><path
             d="M 0,0 C 0,0.081 0.065,0.154 0.154,0.154 H 3.347 C 3.436,0.154 3.501,0.081 3.501,0 v -0.234 c 0,-0.081 -0.065,-0.155 -0.154,-0.155 H 0.624 v -1.977 h 2.325 c 0.081,0 0.155,-0.072 0.155,-0.154 v -0.235 c 0,-0.089 -0.074,-0.153 -0.155,-0.153 H 0.624 v -2.067 h 2.723 c 0.089,0 0.154,-0.073 0.154,-0.154 v -0.234 c 0,-0.081 -0.065,-0.155 -0.154,-0.155 H 0.154 C 0.065,-5.518 0,-5.444 0,-5.363 Z"
             style="fill:#231f20;fill-opacity:1;fill-rule:nonzero;stroke:none"
             id="path132"
             inkscape:connector-curvature="0" /></g><g
           id="g134"
           transform="translate(154.1443,64.4317)"><path
             d="m 0,0 c 0,0.081 0.073,0.146 0.154,0.146 h 0.202 l 3.655,-4.553 h 0.016 v 4.318 c 0,0.081 0.065,0.154 0.154,0.154 h 0.284 c 0.081,0 0.154,-0.073 0.154,-0.154 v -5.453 c 0,-0.081 -0.073,-0.145 -0.154,-0.145 H 4.319 L 0.6,-1.045 H 0.592 v -4.407 c 0,-0.081 -0.065,-0.154 -0.155,-0.154 H 0.154 C 0.073,-5.606 0,-5.533 0,-5.452 Z"
             style="fill:#231f20;fill-opacity:1;fill-rule:nonzero;stroke:none"
             id="path136"
             inkscape:connector-curvature="0" /></g><g
           id="g138"
           transform="translate(162.9246,64.5782)"><path
             d="M 0,0 C 0.818,0 1.41,-0.284 1.961,-0.754 2.026,-0.818 2.034,-0.916 1.969,-0.98 L 1.75,-1.199 C 1.686,-1.28 1.621,-1.272 1.54,-1.191 c -0.422,0.364 -0.997,0.607 -1.548,0.607 -1.28,0 -2.261,-1.077 -2.261,-2.333 0,-1.248 0.981,-2.325 2.261,-2.325 0.705,0 1.118,0.283 1.548,0.607 0.081,0.065 0.146,0.057 0.194,0.025 L 1.978,-4.829 C 2.042,-4.878 2.026,-4.991 1.969,-5.048 1.418,-5.583 0.722,-5.834 0,-5.834 c -1.62,0 -2.925,1.288 -2.925,2.909 C -2.925,-1.305 -1.62,0 0,0"
             style="fill:#231f20;fill-opacity:1;fill-rule:nonzero;stroke:none"
             id="path140"
             inkscape:connector-curvature="0" /></g><g
           id="g142"
           transform="translate(166.1394,64.3428)"><path
             d="M 0,0 C 0,0.081 0.065,0.154 0.154,0.154 H 3.347 C 3.436,0.154 3.501,0.081 3.501,0 v -0.234 c 0,-0.081 -0.065,-0.155 -0.154,-0.155 H 0.624 v -1.977 h 2.325 c 0.081,0 0.155,-0.072 0.155,-0.154 v -0.235 c 0,-0.089 -0.074,-0.153 -0.155,-0.153 H 0.624 v -2.067 h 2.723 c 0.089,0 0.154,-0.073 0.154,-0.154 v -0.234 c 0,-0.081 -0.065,-0.155 -0.154,-0.155 H 0.154 C 0.065,-5.518 0,-5.444 0,-5.363 Z"
             style="fill:#231f20;fill-opacity:1;fill-rule:nonzero;stroke:none"
             id="path144"
             inkscape:connector-curvature="0" /></g><g
           id="g146"
           transform="translate(139.4597,54.8135)"><path
             d="m 0,0 c 0,0.39 -0.3,0.786 -0.851,0.786 -0.535,0 -0.842,-0.381 -0.842,-0.85 -0.017,-0.349 0.211,-0.624 0.518,-0.924 l 0.179,-0.178 C -0.632,-0.947 0,-0.583 0,0 m -1.013,-4.067 c 0.56,0 1.037,0.267 1.386,0.689 l -1.499,1.571 c -0.373,-0.226 -0.907,-0.639 -0.907,-1.28 0,-0.566 0.453,-0.98 1.02,-0.98 m -0.462,2.609 v 0.017 l -0.194,0.21 c -0.316,0.333 -0.583,0.697 -0.567,1.183 0,0.615 0.454,1.313 1.434,1.313 0.875,0 1.369,-0.576 1.369,-1.248 0,-0.721 -0.729,-1.264 -1.199,-1.556 l 1.337,-1.337 c 0.211,0.43 0.324,0.924 0.324,1.442 0,0.178 0.065,0.187 0.187,0.187 H 1.41 c 0.17,0 0.153,-0.122 0.153,-0.187 0,-0.624 -0.177,-1.288 -0.477,-1.823 L 1.863,-4.034 C 1.961,-4.14 2.025,-4.221 1.855,-4.407 L 1.759,-4.496 C 1.661,-4.586 1.54,-4.602 1.418,-4.472 l -0.689,0.713 c -0.437,-0.494 -1.037,-0.81 -1.766,-0.81 -1.021,0 -1.564,0.697 -1.564,1.491 0,0.875 0.689,1.361 1.126,1.62"
             style="fill:#231f20;fill-opacity:1;fill-rule:nonzero;stroke:none"
             id="path148"
             inkscape:connector-curvature="0" /></g><g
           id="g150"
           transform="translate(145.0164,55.4542)"><path
             d="m 0,0 h -1.41 c -0.089,0 -0.154,0.073 -0.154,0.154 v 0.235 c 0,0.081 0.065,0.154 0.154,0.154 H 2.025 C 2.114,0.543 2.18,0.47 2.18,0.389 V 0.154 C 2.18,0.073 2.114,0 2.025,0 h -1.41 v -4.975 c 0,-0.081 -0.072,-0.154 -0.153,-0.154 H 0.153 C 0.072,-5.129 0,-5.056 0,-4.975 Z"
             style="fill:#231f20;fill-opacity:1;fill-rule:nonzero;stroke:none"
             id="path152"
             inkscape:connector-curvature="0" /></g><g
           id="g154"
           transform="translate(148.0847,55.8428)"><path
             d="M 0,0 C 0,0.081 0.065,0.154 0.154,0.154 H 3.347 C 3.436,0.154 3.501,0.081 3.501,0 v -0.234 c 0,-0.081 -0.065,-0.155 -0.154,-0.155 H 0.624 v -1.977 h 2.325 c 0.081,0 0.155,-0.072 0.155,-0.154 v -0.235 c 0,-0.089 -0.074,-0.153 -0.155,-0.153 H 0.624 v -2.067 h 2.723 c 0.089,0 0.154,-0.073 0.154,-0.154 v -0.234 c 0,-0.081 -0.065,-0.155 -0.154,-0.155 H 0.154 C 0.065,-5.518 0,-5.444 0,-5.363 Z"
             style="fill:#231f20;fill-opacity:1;fill-rule:nonzero;stroke:none"
             id="path156"
             inkscape:connector-curvature="0" /></g><g
           id="g158"
           transform="translate(155.3679,56.0782)"><path
             d="M 0,0 C 0.818,0 1.41,-0.284 1.961,-0.754 2.026,-0.818 2.034,-0.916 1.969,-0.98 L 1.75,-1.199 C 1.686,-1.28 1.621,-1.272 1.54,-1.191 c -0.422,0.364 -0.997,0.607 -1.548,0.607 -1.28,0 -2.261,-1.077 -2.261,-2.333 0,-1.248 0.981,-2.325 2.261,-2.325 0.705,0 1.118,0.283 1.548,0.607 0.081,0.065 0.146,0.057 0.194,0.025 L 1.978,-4.829 C 2.042,-4.878 2.026,-4.991 1.969,-5.048 1.418,-5.583 0.722,-5.834 0,-5.834 c -1.62,0 -2.925,1.288 -2.925,2.909 C -2.925,-1.305 -1.62,0 0,0"
             style="fill:#231f20;fill-opacity:1;fill-rule:nonzero;stroke:none"
             id="path160"
             inkscape:connector-curvature="0" /></g><g
           id="g162"
           transform="translate(158.5828,55.8428)"><path
             d="M 0,0 C 0,0.081 0.073,0.154 0.154,0.154 H 0.47 C 0.56,0.154 0.624,0.081 0.624,0 v -2.366 h 3.29 V 0 c 0,0.081 0.065,0.154 0.153,0.154 H 4.384 C 4.465,0.154 4.538,0.081 4.538,0 v -5.363 c 0,-0.081 -0.073,-0.155 -0.154,-0.155 H 4.067 c -0.088,0 -0.153,0.074 -0.153,0.155 v 2.455 H 0.624 V -5.363 C 0.624,-5.444 0.56,-5.518 0.47,-5.518 H 0.154 C 0.073,-5.518 0,-5.444 0,-5.363 Z"
             style="fill:#231f20;fill-opacity:1;fill-rule:nonzero;stroke:none"
             id="path164"
             inkscape:connector-curvature="0" /></g><g
           id="g166"
           transform="translate(164.7712,55.9317)"><path
             d="m 0,0 c 0,0.081 0.073,0.146 0.154,0.146 h 0.202 l 3.655,-4.553 h 0.016 v 4.318 c 0,0.081 0.065,0.154 0.154,0.154 h 0.284 c 0.081,0 0.154,-0.073 0.154,-0.154 v -5.453 c 0,-0.081 -0.073,-0.145 -0.154,-0.145 H 4.319 L 0.6,-1.045 H 0.592 v -4.407 c 0,-0.081 -0.065,-0.154 -0.155,-0.154 H 0.154 C 0.073,-5.606 0,-5.533 0,-5.452 Z"
             style="fill:#231f20;fill-opacity:1;fill-rule:nonzero;stroke:none"
             id="path168"
             inkscape:connector-curvature="0" /></g><g
           id="g170"
           transform="translate(173.5359,50.8116)"><path
             d="M 0,0 C 1.288,0 2.35,1.053 2.35,2.342 2.35,3.63 1.288,4.699 0,4.699 -1.288,4.699 -2.342,3.63 -2.342,2.342 -2.342,1.053 -1.288,0 0,0 m 0,5.267 c 1.62,0 2.917,-1.305 2.917,-2.925 0,-1.621 -1.297,-2.909 -2.917,-2.909 -1.621,0 -2.909,1.288 -2.909,2.909 0,1.62 1.288,2.925 2.909,2.925"
             style="fill:#231f20;fill-opacity:1;fill-rule:nonzero;stroke:none"
             id="path172"
             inkscape:connector-curvature="0" /></g><g
           id="g174"
           transform="translate(177.6902,55.8428)"><path
             d="M 0,0 C 0,0.081 0.065,0.154 0.154,0.154 H 0.47 C 0.551,0.154 0.624,0.081 0.624,0 v -4.975 h 2.334 c 0.089,0 0.153,-0.073 0.153,-0.154 v -0.234 c 0,-0.081 -0.064,-0.155 -0.153,-0.155 H 0.154 C 0.065,-5.518 0,-5.444 0,-5.363 Z"
             style="fill:#231f20;fill-opacity:1;fill-rule:nonzero;stroke:none"
             id="path176"
             inkscape:connector-curvature="0" /></g><g
           id="g178"
           transform="translate(184.0828,50.8116)"><path
             d="M 0,0 C 1.288,0 2.35,1.053 2.35,2.342 2.35,3.63 1.288,4.699 0,4.699 -1.288,4.699 -2.342,3.63 -2.342,2.342 -2.342,1.053 -1.288,0 0,0 m 0,5.267 c 1.62,0 2.917,-1.305 2.917,-2.925 0,-1.621 -1.297,-2.909 -2.917,-2.909 -1.621,0 -2.909,1.288 -2.909,2.909 0,1.62 1.288,2.925 2.909,2.925"
             style="fill:#231f20;fill-opacity:1;fill-rule:nonzero;stroke:none"
             id="path180"
             inkscape:connector-curvature="0" /></g><g
           id="g182"
           transform="translate(190.7478,56.0782)"><path
             d="M 0,0 C 0.818,0 1.41,-0.284 1.961,-0.754 2.026,-0.818 2.034,-0.916 1.969,-0.98 1.896,-1.054 1.808,-1.135 1.742,-1.207 1.669,-1.288 1.621,-1.28 1.531,-1.199 c -0.413,0.364 -0.996,0.632 -1.539,0.632 -1.28,0 -2.253,-1.07 -2.253,-2.326 0,-1.248 0.973,-2.341 2.253,-2.341 0.892,0 1.458,0.339 1.458,0.339 V -3.76 H 0.519 c -0.089,0 -0.154,0.065 -0.154,0.146 v 0.3 c 0,0.089 0.065,0.154 0.154,0.154 h 1.402 c 0.081,0 0.145,-0.073 0.145,-0.154 V -5.17 c 0,-0.04 -0.032,-0.104 -0.064,-0.129 0,0 -0.827,-0.535 -2.002,-0.535 -1.62,0 -2.925,1.288 -2.925,2.909 C -2.925,-1.305 -1.62,0 0,0"
             style="fill:#231f20;fill-opacity:1;fill-rule:nonzero;stroke:none"
             id="path184"
             inkscape:connector-curvature="0" /></g><g
           id="g186"
           transform="translate(195.3083,53.0557)"><path
             d="m 0,0 -1.952,2.706 c -0.066,0.106 0,0.235 0.129,0.235 h 0.381 c 0.056,0 0.105,-0.041 0.13,-0.073 L 0.324,0.607 1.961,2.868 C 1.985,2.9 2.034,2.941 2.091,2.941 h 0.381 c 0.129,0 0.194,-0.129 0.129,-0.235 L 0.624,0.008 V -2.576 C 0.624,-2.657 0.551,-2.73 0.47,-2.73 H 0.154 C 0.065,-2.73 0,-2.657 0,-2.576 Z"
             style="fill:#231f20;fill-opacity:1;fill-rule:nonzero;stroke:none"
             id="path188"
             inkscape:connector-curvature="0" /></g><g
           id="g190"
           transform="translate(123.0319,120.0482)"><path
             d="M 0,0 H -6.778 C -4.218,-2.615 -1.943,-5.507 0,-8.628 Z"
             style="fill:#ed127b;fill-opacity:1;fill-rule:nonzero;stroke:none"
             id="path192"
             inkscape:connector-curvature="0" /></g><g
           id="g194"
           transform="translate(37.9408,120.0482)"><path
             d="M 0,0 V -8.629 C 1.943,-5.507 4.219,-2.615 6.779,0 Z"
             style="fill:#ed127b;fill-opacity:1;fill-rule:nonzero;stroke:none"
             id="path196"
             inkscape:connector-curvature="0" /></g><g
           id="g198"
           transform="translate(37.9408,58.66)"><path
             d="M 0,0 V -23.703 H 42.546 C 24.606,-23.703 8.846,-14.215 0,0"
             style="fill:#ed127b;fill-opacity:1;fill-rule:nonzero;stroke:none"
             id="path200"
             inkscape:connector-curvature="0" /></g><g
           id="g202"
           transform="translate(80.4866,119.6794)"><path
             d="m 0,0 c -19.101,0 -34.64,-15.539 -34.64,-34.64 0,-8.134 2.825,-15.617 7.536,-21.534 v 41.101 h 54.207 v -41.102 c 4.712,5.918 7.537,13.401 7.537,21.535 C 34.64,-15.539 19.101,0 0,0"
             style="fill:#ed127b;fill-opacity:1;fill-rule:nonzero;stroke:none"
             id="path204"
             inkscape:connector-curvature="0" /></g><g
           id="g206"
           transform="translate(80.4866,34.9571)"><path
             d="M 0,0 H 42.545 V 23.702 C 33.699,9.487 17.94,0 0,0"
             style="fill:#ed127b;fill-opacity:1;fill-rule:nonzero;stroke:none"
             id="path208"
             inkscape:connector-curvature="0" /></g><g
           id="g210"
           transform="translate(80.4866,135.1216)"><path
             d="M 0,0 C -14,0 -26.67,-5.781 -35.767,-15.073 H 35.767 C 26.67,-5.781 14,0 0,0"
             style="fill:#00adef;fill-opacity:1;fill-rule:nonzero;stroke:none"
             id="path212"
             inkscape:connector-curvature="0" /></g><g
           id="g214"
           transform="translate(30.4041,85.0396)"><path
             d="M 0,0 C 0,-9.675 2.766,-18.713 7.537,-26.38 V 26.379 C 2.766,18.713 0,9.675 0,0"
             style="fill:#00adef;fill-opacity:1;fill-rule:nonzero;stroke:none"
             id="path216"
             inkscape:connector-curvature="0" /></g><g
           id="g218"
           transform="translate(130.5691,85.0396)"><path
             d="M 0,0 C 0,9.676 -2.766,18.714 -7.537,26.38 V -26.381 C -2.766,-18.714 0,-9.676 0,0"
             style="fill:#00adef;fill-opacity:1;fill-rule:nonzero;stroke:none"
             id="path220"
             inkscape:connector-curvature="0" /></g><g
           id="g222"
           transform="translate(107.5897,50.3993)"><path
             d="m 0,0 h -27.103 -27.104 v 13.106 c -4.711,5.917 -7.536,13.4 -7.536,21.534 0,19.101 15.539,34.64 34.64,34.64 19.101,0 34.64,-15.539 34.64,-34.64 C 7.537,26.506 4.712,19.023 0,13.105 Z M 15.442,8.26 V 61.021 C 13.5,64.142 11.224,67.034 8.664,69.649 H -62.87 c -2.56,-2.615 -4.836,-5.507 -6.779,-8.629 V 8.261 c 8.846,-14.216 24.606,-23.703 42.546,-23.703 17.94,0 33.699,9.487 42.545,23.702"
             style="fill:#2c3792;fill-opacity:1;fill-rule:nonzero;stroke:none"
             id="path224"
             inkscape:connector-curvature="0" /></g><g
           id="g226"
           transform="translate(68.7332,89.8891)"><path
             d="m 0,0 c -2.674,0 -4.85,-2.175 -4.85,-4.85 0,-2.674 2.176,-4.85 4.85,-4.85 2.674,0 4.85,2.176 4.85,4.85 C 4.85,-2.175 2.674,0 0,0 m 0,-10.696 c -3.224,0 -5.846,2.623 -5.846,5.846 0,3.224 2.622,5.846 5.846,5.846 3.224,0 5.846,-2.622 5.846,-5.846 0,-3.223 -2.622,-5.846 -5.846,-5.846"
             style="fill:#231f20;fill-opacity:1;fill-rule:nonzero;stroke:none"
             id="path228"
             inkscape:connector-curvature="0" /></g><g
           id="g230"
           transform="translate(92.2526,89.8891)"><path
             d="m 0,0 c -2.675,0 -4.85,-2.175 -4.85,-4.85 0,-2.674 2.175,-4.85 4.85,-4.85 2.675,0 4.85,2.176 4.85,4.85 C 4.85,-2.175 2.675,0 0,0 m 0,-10.696 c -3.223,0 -5.846,2.623 -5.846,5.846 0,3.224 2.623,5.846 5.846,5.846 3.223,0 5.846,-2.622 5.846,-5.846 0,-3.223 -2.623,-5.846 -5.846,-5.846"
             style="fill:#231f20;fill-opacity:1;fill-rule:nonzero;stroke:none"
             id="path232"
             inkscape:connector-curvature="0" /></g><g
           id="g234"
           transform="translate(137.1839,98.2065)"><path
             d="M 0,0 C 0,0.161 0.146,0.307 0.307,0.307 H 2.231 C 2.408,0.307 2.538,0.161 2.538,0 V -4.073 H 7.161 V 0 c 0,0.161 0.129,0.307 0.306,0.307 H 9.391 C 9.552,0.307 9.698,0.161 9.698,0 v -10.701 c 0,-0.161 -0.146,-0.306 -0.307,-0.306 H 7.467 c -0.177,0 -0.306,0.145 -0.306,0.306 V -6.45 H 2.538 v -4.251 c 0,-0.161 -0.13,-0.306 -0.307,-0.306 H 0.307 C 0.146,-11.007 0,-10.862 0,-10.701 Z"
             style="fill:#231f20;fill-opacity:1;fill-rule:nonzero;stroke:none"
             id="path236"
             inkscape:connector-curvature="0" /></g><g
           id="g238"
           transform="translate(149.5012,98.2065)"><path
             d="M 0,0 C 0,0.161 0.146,0.307 0.307,0.307 H 2.295 C 2.473,0.307 2.603,0.161 2.603,0 v -6.546 c 0,-1.132 0.84,-2.037 1.987,-2.037 1.164,0 2.021,0.905 2.021,2.037 V 0 c 0,0.161 0.129,0.307 0.307,0.307 H 8.906 C 9.068,0.307 9.213,0.161 9.213,0 v -6.676 c 0,-2.456 -2.068,-4.493 -4.623,-4.493 -2.537,0 -4.59,2.037 -4.59,4.493 z"
             style="fill:#231f20;fill-opacity:1;fill-rule:nonzero;stroke:none"
             id="path240"
             inkscape:connector-curvature="0" /></g><g
           id="g242"
           transform="translate(162.4329,98.4164)"><path
             d="m 0,0 c 0.016,0.146 0.161,0.259 0.291,0.259 h 0.258 c 0.081,0 0.227,-0.065 0.275,-0.162 l 3.75,-6.983 h 0.032 l 3.75,6.983 C 8.405,0.194 8.55,0.259 8.631,0.259 H 8.89 C 9.019,0.259 9.164,0.146 9.18,0 l 1.827,-10.862 c 0.033,-0.21 -0.113,-0.355 -0.307,-0.355 H 8.793 c -0.146,0 -0.291,0.129 -0.308,0.258 L 7.758,-5.964 H 7.726 L 5.011,-11.201 C 4.962,-11.298 4.816,-11.379 4.736,-11.379 H 4.445 c -0.097,0 -0.227,0.081 -0.275,0.178 L 1.439,-5.964 H 1.406 L 0.695,-10.959 C 0.678,-11.088 0.549,-11.217 0.388,-11.217 H -1.52 c -0.193,0 -0.339,0.145 -0.307,0.355 z"
             style="fill:#231f20;fill-opacity:1;fill-rule:nonzero;stroke:none"
             id="path244"
             inkscape:connector-curvature="0" /></g><g
           id="g246"
           transform="translate(180.6981,91.0785)"><path
             d="M 0,0 -1.228,2.667 H -1.244 L -2.456,0 Z m -6.643,-3.459 5.059,10.878 c 0.049,0.097 0.162,0.178 0.275,0.178 h 0.161 c 0.114,0 0.227,-0.081 0.275,-0.178 l 5.06,-10.878 c 0.097,-0.21 -0.033,-0.42 -0.275,-0.42 H 2.118 c -0.291,0 -0.421,0.097 -0.566,0.404 L 0.97,-2.199 H -3.426 L -4.008,-3.491 C -4.089,-3.686 -4.267,-3.879 -4.59,-3.879 h -1.778 c -0.243,0 -0.372,0.21 -0.275,0.42"
             style="fill:#231f20;fill-opacity:1;fill-rule:nonzero;stroke:none"
             id="path248"
             inkscape:connector-curvature="0" /></g><g
           id="g250"
           transform="translate(186.1948,98.3843)"><path
             d="M 0,0 C 0,0.161 0.145,0.291 0.307,0.291 H 0.711 L 7.16,-5.916 h 0.016 v 5.738 c 0,0.161 0.13,0.307 0.308,0.307 h 1.939 c 0.161,0 0.308,-0.146 0.308,-0.307 v -10.878 c 0,-0.162 -0.147,-0.291 -0.308,-0.291 H 9.165 c -0.049,0 -0.178,0.049 -0.21,0.081 L 2.57,-4.849 H 2.554 v -6.029 c 0,-0.162 -0.13,-0.307 -0.308,-0.307 H 0.323 c -0.162,0 -0.307,0.145 -0.307,0.307 z"
             style="fill:#231f20;fill-opacity:1;fill-rule:nonzero;stroke:none"
             id="path252"
             inkscape:connector-curvature="0" /></g><g
           id="g254"
           transform="translate(197.7521,91.8216)"><path
             d="m 0,0 v 1.471 c 0,0.178 0.13,0.307 0.307,0.307 h 3.702 c 0.178,0 0.307,-0.129 0.307,-0.307 L 4.316,0 c 0,-0.161 -0.129,-0.291 -0.307,-0.291 H 0.307 C 0.13,-0.291 0,-0.161 0,0"
             style="fill:#231f20;fill-opacity:1;fill-rule:nonzero;stroke:none"
             id="path256"
             inkscape:connector-curvature="0" /></g><g
           id="g258"
           transform="translate(203.8948,98.2065)"><path
             d="m 0,0 c 0,0.161 0.145,0.307 0.307,0.307 h 1.94 C 2.408,0.307 2.554,0.161 2.554,0 v -10.701 c 0,-0.161 -0.146,-0.306 -0.307,-0.306 H 0.307 C 0.145,-11.007 0,-10.862 0,-10.701 Z"
             style="fill:#231f20;fill-opacity:1;fill-rule:nonzero;stroke:none"
             id="path260"
             inkscape:connector-curvature="0" /></g><g
           id="g262"
           transform="translate(208.5824,88.7347)"><path
             d="m 0,0 0.76,1.341 c 0.129,0.211 0.437,0.178 0.55,0.098 0.064,-0.033 1.229,-0.89 2.295,-0.89 0.646,0 1.116,0.404 1.116,0.97 0,0.679 -0.566,1.196 -1.666,1.633 -1.39,0.549 -3.135,1.632 -3.135,3.572 0,1.6 1.245,3.216 3.733,3.216 1.682,0 2.974,-0.856 3.459,-1.212 C 7.306,8.615 7.274,8.324 7.209,8.211 L 6.385,6.966 C 6.272,6.789 5.981,6.643 5.835,6.756 5.69,6.837 4.51,7.726 3.524,7.726 2.942,7.726 2.506,7.338 2.506,6.902 2.506,6.303 2.99,5.851 4.268,5.334 5.529,4.833 7.533,3.847 7.533,1.648 c 0,-1.665 -1.439,-3.345 -3.815,-3.345 -2.101,0 -3.265,0.872 -3.637,1.244 C -0.08,-0.291 -0.129,-0.226 0,0"
             style="fill:#231f20;fill-opacity:1;fill-rule:nonzero;stroke:none"
             id="path264"
             inkscape:connector-curvature="0" /></g><g
           id="g266"
           transform="translate(219.5418,96.1376)"><path
             d="M 0,0 H -2.311 C -2.49,0 -2.619,0.145 -2.619,0.307 v 1.762 c 0,0.161 0.129,0.307 0.308,0.307 h 7.176 c 0.178,0 0.307,-0.146 0.307,-0.307 V 0.307 C 5.172,0.145 5.043,0 4.865,0 H 2.554 v -8.632 c 0,-0.161 -0.146,-0.307 -0.308,-0.307 H 0.306 C 0.145,-8.939 0,-8.793 0,-8.632 Z"
             style="fill:#231f20;fill-opacity:1;fill-rule:nonzero;stroke:none"
             id="path268"
             inkscape:connector-curvature="0" /></g><g
           id="g270"
           transform="translate(80.4866,50.3993)"><path
             d="M 0,0 H 27.103 V 13.105 C 20.751,5.128 10.966,0 0,0"
             style="fill:#00adef;fill-opacity:1;fill-rule:nonzero;stroke:none"
             id="path272"
             inkscape:connector-curvature="0" /></g><g
           id="g274"
           transform="translate(53.383,63.5052)"><path
             d="M 0,0 V -13.106 H 27.104 C 16.137,-13.106 6.352,-7.978 0,0"
             style="fill:#00adef;fill-opacity:1;fill-rule:nonzero;stroke:none"
             id="path276"
             inkscape:connector-curvature="0" /></g></g></g><g
       transform="matrix(0.59561801,0,0,0.59561801,91.202894,38.234009)"
       inkscape:label="UNF_Logo_100pr_pos"
       id="g952"><g
         id="g954"><g
           clip-path="url(#clipPath960)"
           id="g956"><g
             transform="translate(13.564,19.4766)"
             id="g962"><path
               inkscape:connector-curvature="0"
               id="path964"
               style="fill:#231f20;fill-opacity:1;fill-rule:nonzero;stroke:none"
               d="m 0,0 v -2.752 c 0,-1.1 -0.785,-1.457 -1.66,-1.457 -0.883,0 -1.668,0.357 -1.668,1.457 V 0 h 0.848 v -2.521 c 0,-0.637 0.216,-0.981 0.82,-0.981 0.594,0 0.812,0.344 0.812,0.981 V 0 Z" /></g><g
             transform="translate(17.0913,17.3613)"
             id="g966"><path
               inkscape:connector-curvature="0"
               id="path968"
               style="fill:#231f20;fill-opacity:1;fill-rule:nonzero;stroke:none"
               d="m 0,0 c 0.23,-0.336 0.385,-0.63 0.385,-0.63 h 0.027 c 0,0 -0.027,0.378 -0.027,0.903 V 2.115 H 1.232 V -2.01 H 0.439 L -1.08,0.084 C -1.338,0.441 -1.5,0.757 -1.5,0.757 h -0.027 c 0,0 0.041,-0.371 0.041,-0.945 V -2.01 h -0.848 v 4.125 h 0.82 z" /></g><path
             inkscape:connector-curvature="0"
             id="path970"
             style="fill:#231f20;fill-opacity:1;fill-rule:nonzero;stroke:none"
             d="m 20.484,15.352 h -0.848 v 4.125 h 0.848 z" /><g
             transform="translate(22.9624,17.123)"
             id="g972"><path
               inkscape:connector-curvature="0"
               id="path974"
               style="fill:#231f20;fill-opacity:1;fill-rule:nonzero;stroke:none"
               d="m 0,0 c 0.189,-0.595 0.246,-1.078 0.246,-1.078 h 0.027 c 0,0 0.057,0.49 0.231,1.071 L 1.232,2.354 H 2.123 L 0.756,-1.771 h -1.043 l -1.359,4.125 h 0.912 z" /></g><g
             transform="translate(28.605,15.3516)"
             id="g976"><path
               inkscape:connector-curvature="0"
               id="path978"
               style="fill:#231f20;fill-opacity:1;fill-rule:nonzero;stroke:none"
               d="M 0,0 H -2.689 V 4.125 H 0 V 3.39 H -1.842 V 2.438 h 1.625 V 1.723 H -1.842 V 0.735 H 0 Z" /></g><g
             transform="translate(30.564,17.5859)"
             id="g980"><path
               inkscape:connector-curvature="0"
               id="path982"
               style="fill:#231f20;fill-opacity:1;fill-rule:nonzero;stroke:none"
               d="m 0,0 h 0.658 c 0.428,0 0.653,0.168 0.653,0.588 0,0.371 -0.217,0.589 -0.645,0.589 H 0 Z M 1.451,-2.234 C 1.338,-2.129 1.289,-1.989 1.248,-1.821 L 1.086,-1.17 c -0.09,0.393 -0.279,0.462 -0.631,0.462 H 0 V -2.234 H -0.848 V 1.891 H 0.715 C 1.646,1.891 2.18,1.533 2.18,0.658 2.18,0.014 1.787,-0.329 1.262,-0.371 V -0.393 C 1.646,-0.448 1.85,-0.609 1.955,-1.009 L 2.164,-1.793 C 2.213,-1.961 2.27,-2.102 2.396,-2.234 Z" /></g><g
             transform="translate(34.3081,16.6055)"
             id="g984"><path
               inkscape:connector-curvature="0"
               id="path986"
               style="fill:#231f20;fill-opacity:1;fill-rule:nonzero;stroke:none"
               d="m 0,0 c 0.086,-0.435 0.393,-0.687 0.807,-0.687 0.357,0 0.609,0.155 0.609,0.469 0,0.295 -0.162,0.442 -0.742,0.638 -0.848,0.273 -1.297,0.602 -1.297,1.324 0,0.91 0.715,1.218 1.408,1.218 0.82,0 1.43,-0.287 1.506,-1.078 L 1.451,1.688 C 1.416,2.08 1.129,2.269 0.799,2.269 0.498,2.269 0.26,2.115 0.26,1.813 0.26,1.484 0.52,1.358 1.037,1.19 1.822,0.932 2.291,0.651 2.291,-0.134 c 0,-0.868 -0.701,-1.204 -1.547,-1.204 -0.812,0 -1.338,0.287 -1.521,1.029 z" /></g><path
             inkscape:connector-curvature="0"
             id="path988"
             style="fill:#231f20;fill-opacity:1;fill-rule:nonzero;stroke:none"
             d="m 38.496,15.352 h -0.848 v 4.125 h 0.848 z" /><g
             transform="translate(40.4761,15.3516)"
             id="g990"><path
               inkscape:connector-curvature="0"
               id="path992"
               style="fill:#231f20;fill-opacity:1;fill-rule:nonzero;stroke:none"
               d="M 0,0 V 3.39 H -1.148 V 4.125 H 2.01 V 3.39 H 0.848 V 0 Z" /></g><g
             transform="translate(44.228,19.8975)"
             id="g994"><path
               inkscape:connector-curvature="0"
               id="path996"
               style="fill:#231f20;fill-opacity:1;fill-rule:nonzero;stroke:none"
               d="M 0,0 0.449,0.952 H 1.514 L 0.764,0 Z m 1.771,-4.546 h -2.689 v 4.125 H 1.771 V -1.156 H -0.07 V -2.108 H 1.555 V -2.823 H -0.07 v -0.988 h 1.841 z" /></g><g
             transform="translate(50.3315,16.0664)"
             id="g998"><path
               inkscape:connector-curvature="0"
               id="path1000"
               style="fill:#231f20;fill-opacity:1;fill-rule:nonzero;stroke:none"
               d="m 0,0 c 0.764,0 1.248,0.35 1.248,1.345 0,1.043 -0.49,1.351 -1.191,1.351 H -0.461 V 0 Z M -1.309,-0.715 V 3.41 h 1.444 c 1.14,0 2.001,-0.567 2.001,-2.016 0,-1.528 -0.896,-2.109 -2.05,-2.109 z" /></g><g
             transform="translate(56.2119,15.3516)"
             id="g1002"><path
               inkscape:connector-curvature="0"
               id="path1004"
               style="fill:#231f20;fill-opacity:1;fill-rule:nonzero;stroke:none"
               d="M 0,0 H -2.689 V 4.125 H 0 V 3.39 H -1.842 V 2.438 h 1.625 V 1.723 H -1.842 V 0.735 H 0 Z" /></g><g
             transform="translate(59.249,15.3516)"
             id="g1006"><path
               inkscape:connector-curvature="0"
               id="path1008"
               style="fill:#231f20;fill-opacity:1;fill-rule:nonzero;stroke:none"
               d="M 0,0 V 4.125 H 2.605 V 3.39 H 0.848 V 2.312 H 2.389 V 1.597 H 0.848 V 0 Z" /></g><g
             transform="translate(63.6885,17.5859)"
             id="g1010"><path
               inkscape:connector-curvature="0"
               id="path1012"
               style="fill:#231f20;fill-opacity:1;fill-rule:nonzero;stroke:none"
               d="m 0,0 h 0.658 c 0.428,0 0.651,0.168 0.651,0.588 0,0.371 -0.217,0.589 -0.645,0.589 H 0 Z m 1.449,-2.234 c -0.111,0.105 -0.16,0.245 -0.203,0.413 L 1.086,-1.17 C 0.994,-0.777 0.805,-0.708 0.455,-0.708 H 0 v -1.526 h -0.848 v 4.125 h 1.563 c 0.931,0 1.463,-0.358 1.463,-1.233 0,-0.644 -0.393,-0.987 -0.918,-1.029 V -0.393 C 1.646,-0.448 1.848,-0.609 1.953,-1.009 L 2.164,-1.793 C 2.213,-1.961 2.27,-2.102 2.395,-2.234 Z" /></g><path
             inkscape:connector-curvature="0"
             id="path1014"
             style="fill:#231f20;fill-opacity:1;fill-rule:nonzero;stroke:none"
             d="M 67.888,15.352 H 67.04 v 4.125 h 0.848 z" /><g
             transform="translate(70.0518,16.0664)"
             id="g1016"><path
               inkscape:connector-curvature="0"
               id="path1018"
               style="fill:#231f20;fill-opacity:1;fill-rule:nonzero;stroke:none"
               d="m 0,0 h 0.699 c 0.393,0 0.625,0.146 0.625,0.532 0,0.315 -0.197,0.497 -0.631,0.497 H 0 Z m 0.58,1.659 c 0.358,0 0.59,0.148 0.59,0.519 0,0.371 -0.232,0.518 -0.617,0.518 H 0 V 1.659 Z M 1.273,1.387 C 1.842,1.323 2.186,0.959 2.186,0.42 2.186,-0.267 1.73,-0.715 0.721,-0.715 H -0.848 V 3.41 h 1.582 c 0.834,0 1.284,-0.371 1.284,-1.043 0,-0.525 -0.303,-0.854 -0.745,-0.953 z" /></g><g
             transform="translate(73.9365,17.4033)"
             id="g1020"><path
               inkscape:connector-curvature="0"
               id="path1022"
               style="fill:#231f20;fill-opacity:1;fill-rule:nonzero;stroke:none"
               d="M 0,0 C 0,-0.875 0.35,-1.4 1.043,-1.4 1.736,-1.4 2.08,-0.875 2.08,0 2.08,0.869 1.73,1.401 1.043,1.401 0.35,1.401 0,0.869 0,0 m -0.883,0.008 c 0,1.387 0.737,2.149 1.926,2.149 1.191,0 1.926,-0.762 1.926,-2.149 0,-1.38 -0.735,-2.144 -1.926,-2.144 -1.189,0 -1.926,0.764 -1.926,2.144" /></g><g
             transform="translate(81.1689,19.4766)"
             id="g1024"><path
               inkscape:connector-curvature="0"
               id="path1026"
               style="fill:#231f20;fill-opacity:1;fill-rule:nonzero;stroke:none"
               d="m 0,0 v -2.752 c 0,-1.1 -0.785,-1.457 -1.66,-1.457 -0.883,0 -1.668,0.357 -1.668,1.457 V 0 h 0.848 v -2.521 c 0,-0.637 0.218,-0.981 0.82,-0.981 0.596,0 0.812,0.344 0.812,0.981 V 0 Z" /></g><g
             transform="translate(83.2041,17.5859)"
             id="g1028"><path
               inkscape:connector-curvature="0"
               id="path1030"
               style="fill:#231f20;fill-opacity:1;fill-rule:nonzero;stroke:none"
               d="m 0,0 h 0.658 c 0.428,0 0.653,0.168 0.653,0.588 0,0.371 -0.219,0.589 -0.645,0.589 H 0 Z m 1.449,-2.234 c -0.111,0.105 -0.16,0.245 -0.203,0.413 L 1.086,-1.17 C 0.994,-0.777 0.805,-0.708 0.455,-0.708 H 0 v -1.526 h -0.848 v 4.125 h 1.563 c 0.931,0 1.463,-0.358 1.463,-1.233 0,-0.644 -0.393,-0.987 -0.916,-1.029 V -0.393 C 1.646,-0.448 1.85,-0.609 1.955,-1.009 L 2.164,-1.793 C 2.213,-1.961 2.27,-2.102 2.395,-2.234 Z" /></g><g
             transform="translate(89.8838,17.5293)"
             id="g1032"><path
               inkscape:connector-curvature="0"
               id="path1034"
               style="fill:#231f20;fill-opacity:1;fill-rule:nonzero;stroke:none"
               d="m 0,0 v -2.178 h -0.568 l -0.125,0.484 c -0.198,-0.378 -0.645,-0.568 -1.135,-0.568 -1.072,0 -1.828,0.7 -1.828,2.129 0,1.38 0.763,2.164 1.988,2.164 0.813,0 1.367,-0.364 1.633,-1.029 L -0.848,0.609 c -0.14,0.456 -0.449,0.68 -0.855,0.68 -0.539,0 -1.078,-0.393 -1.078,-1.429 0,-0.805 0.308,-1.428 1.072,-1.428 0.553,0 0.889,0.258 0.889,0.679 v 0.196 H -1.736 V 0 Z" /></g><g
             transform="translate(13.564,11.9766)"
             id="g1036"><path
               inkscape:connector-curvature="0"
               id="path1038"
               style="fill:#231f20;fill-opacity:1;fill-rule:nonzero;stroke:none"
               d="m 0,0 v -2.752 c 0,-1.1 -0.785,-1.457 -1.66,-1.457 -0.883,0 -1.668,0.357 -1.668,1.457 V 0 h 0.848 v -2.521 c 0,-0.637 0.216,-0.981 0.82,-0.981 0.594,0 0.812,0.344 0.812,0.981 V 0 Z" /></g><g
             transform="translate(17.0913,9.8613)"
             id="g1040"><path
               inkscape:connector-curvature="0"
               id="path1042"
               style="fill:#231f20;fill-opacity:1;fill-rule:nonzero;stroke:none"
               d="m 0,0 c 0.23,-0.336 0.385,-0.63 0.385,-0.63 h 0.027 c 0,0 -0.027,0.378 -0.027,0.903 V 2.115 H 1.232 V -2.01 H 0.439 L -1.08,0.084 C -1.338,0.441 -1.5,0.757 -1.5,0.757 h -0.027 c 0,0 0.041,-0.371 0.041,-0.945 V -2.01 h -0.848 v 4.125 h 0.82 z" /></g><path
             inkscape:connector-curvature="0"
             id="path1044"
             style="fill:#231f20;fill-opacity:1;fill-rule:nonzero;stroke:none"
             d="m 20.484,7.852 h -0.848 v 4.125 h 0.848 z" /><g
             transform="translate(22.9624,9.623)"
             id="g1046"><path
               inkscape:connector-curvature="0"
               id="path1048"
               style="fill:#231f20;fill-opacity:1;fill-rule:nonzero;stroke:none"
               d="m 0,0 c 0.189,-0.595 0.246,-1.078 0.246,-1.078 h 0.027 c 0,0 0.057,0.49 0.231,1.071 L 1.232,2.354 H 2.123 L 0.756,-1.771 h -1.043 l -1.359,4.125 h 0.912 z" /></g><g
             transform="translate(28.605,7.8516)"
             id="g1050"><path
               inkscape:connector-curvature="0"
               id="path1052"
               style="fill:#231f20;fill-opacity:1;fill-rule:nonzero;stroke:none"
               d="M 0,0 H -2.689 V 4.125 H 0 V 3.39 H -1.842 V 2.438 h 1.625 V 1.723 H -1.842 V 0.735 H 0 Z" /></g><g
             transform="translate(30.564,10.0859)"
             id="g1054"><path
               inkscape:connector-curvature="0"
               id="path1056"
               style="fill:#231f20;fill-opacity:1;fill-rule:nonzero;stroke:none"
               d="m 0,0 h 0.658 c 0.428,0 0.653,0.168 0.653,0.588 0,0.371 -0.217,0.589 -0.645,0.589 H 0 Z M 1.451,-2.234 C 1.338,-2.129 1.289,-1.989 1.248,-1.821 L 1.086,-1.17 c -0.09,0.393 -0.279,0.462 -0.631,0.462 H 0 V -2.234 H -0.848 V 1.891 H 0.715 C 1.646,1.891 2.18,1.533 2.18,0.658 2.18,0.014 1.787,-0.329 1.262,-0.371 V -0.393 C 1.646,-0.448 1.85,-0.609 1.955,-1.009 L 2.164,-1.793 C 2.213,-1.961 2.27,-2.102 2.396,-2.234 Z" /></g><g
             transform="translate(34.3081,9.1055)"
             id="g1058"><path
               inkscape:connector-curvature="0"
               id="path1060"
               style="fill:#231f20;fill-opacity:1;fill-rule:nonzero;stroke:none"
               d="m 0,0 c 0.086,-0.435 0.393,-0.687 0.807,-0.687 0.357,0 0.609,0.155 0.609,0.469 0,0.295 -0.162,0.442 -0.742,0.638 -0.848,0.273 -1.297,0.602 -1.297,1.324 0,0.91 0.715,1.218 1.408,1.218 0.82,0 1.43,-0.287 1.506,-1.078 L 1.451,1.688 C 1.416,2.08 1.129,2.269 0.799,2.269 0.498,2.269 0.26,2.115 0.26,1.813 0.26,1.484 0.52,1.358 1.037,1.19 1.822,0.932 2.291,0.651 2.291,-0.134 c 0,-0.868 -0.701,-1.204 -1.547,-1.204 -0.812,0 -1.338,0.287 -1.521,1.029 z" /></g><path
             inkscape:connector-curvature="0"
             id="path1062"
             style="fill:#231f20;fill-opacity:1;fill-rule:nonzero;stroke:none"
             d="m 38.496,7.852 h -0.848 v 4.125 h 0.848 z" /><g
             transform="translate(40.4761,7.8516)"
             id="g1064"><path
               inkscape:connector-curvature="0"
               id="path1066"
               style="fill:#231f20;fill-opacity:1;fill-rule:nonzero;stroke:none"
               d="M 0,0 V 3.39 H -1.148 V 4.125 H 2.01 V 3.39 H 0.848 V 0 Z" /></g><g
             transform="translate(45.2378,13.3779)"
             id="g1068"><path
               inkscape:connector-curvature="0"
               id="path1070"
               style="fill:#231f20;fill-opacity:1;fill-rule:nonzero;stroke:none"
               d="m 0,0 c 0.279,0 0.49,-0.176 0.49,-0.49 0,-0.302 -0.211,-0.484 -0.49,-0.484 -0.268,0 -0.484,0.182 -0.484,0.484 C -0.484,-0.176 -0.268,0 0,0 m -1.303,-3.873 h 1.121 L -0.4,-3.257 c -0.239,0.672 -0.323,1.149 -0.323,1.149 H -0.75 c 0,0 -0.105,-0.484 -0.336,-1.142 z m -0.176,3.88 c 0.282,0 0.499,-0.176 0.499,-0.49 0,-0.309 -0.217,-0.491 -0.499,-0.491 -0.259,0 -0.482,0.182 -0.482,0.491 0,0.314 0.223,0.49 0.482,0.49 m 1.542,-4.581 h -1.604 l -0.322,-0.952 h -0.891 l 1.5,4.125 h 1.065 L 1.309,-5.526 H 0.398 Z" /></g><g
             transform="translate(47.7007,7.8516)"
             id="g1072"><path
               inkscape:connector-curvature="0"
               id="path1074"
               style="fill:#231f20;fill-opacity:1;fill-rule:nonzero;stroke:none"
               d="M 0,0 V 3.39 H -1.148 V 4.125 H 2.01 V 3.39 H 0.848 V 0 Z" /></g><g
             transform="translate(52.4443,7.8516)"
             id="g1076"><path
               inkscape:connector-curvature="0"
               id="path1078"
               style="fill:#231f20;fill-opacity:1;fill-rule:nonzero;stroke:none"
               d="M 0,0 V 4.125 H 2.605 V 3.39 H 0.848 V 2.312 H 2.389 V 1.597 H 0.848 V 0 Z" /></g><g
             transform="translate(56.8838,10.0859)"
             id="g1080"><path
               inkscape:connector-curvature="0"
               id="path1082"
               style="fill:#231f20;fill-opacity:1;fill-rule:nonzero;stroke:none"
               d="m 0,0 h 0.658 c 0.428,0 0.651,0.168 0.651,0.588 0,0.371 -0.217,0.589 -0.645,0.589 H 0 Z m 1.449,-2.234 c -0.111,0.105 -0.16,0.245 -0.203,0.413 L 1.086,-1.17 C 0.994,-0.777 0.805,-0.708 0.455,-0.708 H 0 v -1.526 h -0.848 v 4.125 h 1.563 c 0.931,0 1.463,-0.358 1.463,-1.233 0,-0.644 -0.393,-0.987 -0.918,-1.029 V -0.393 C 1.646,-0.448 1.848,-0.609 1.953,-1.009 L 2.164,-1.793 C 2.213,-1.961 2.27,-2.102 2.395,-2.234 Z" /></g><g
             transform="translate(62.9248,7.8516)"
             id="g1084"><path
               inkscape:connector-curvature="0"
               id="path1086"
               style="fill:#231f20;fill-opacity:1;fill-rule:nonzero;stroke:none"
               d="M 0,0 H -2.689 V 4.125 H 0 V 3.39 H -1.842 V 2.438 h 1.625 V 1.723 H -1.842 V 0.735 H 0 Z" /></g><path
             inkscape:connector-curvature="0"
             id="path1088"
             style="fill:#231f20;fill-opacity:1;fill-rule:nonzero;stroke:none"
             d="m 64.884,7.852 h -0.848 v 4.125 h 0.848 z" /><g
             transform="translate(67.0479,8.5664)"
             id="g1090"><path
               inkscape:connector-curvature="0"
               id="path1092"
               style="fill:#231f20;fill-opacity:1;fill-rule:nonzero;stroke:none"
               d="m 0,0 h 0.699 c 0.393,0 0.625,0.146 0.625,0.532 0,0.315 -0.197,0.497 -0.631,0.497 H 0 Z m 0.58,1.659 c 0.358,0 0.59,0.148 0.59,0.519 0,0.371 -0.232,0.518 -0.617,0.518 H 0 V 1.659 Z M 1.273,1.387 C 1.842,1.323 2.186,0.959 2.186,0.42 2.186,-0.267 1.73,-0.715 0.721,-0.715 H -0.848 V 3.41 h 1.582 c 0.834,0 1.284,-0.371 1.284,-1.043 0,-0.525 -0.303,-0.854 -0.745,-0.953 z" /></g><g
             transform="translate(73.5166,11.9766)"
             id="g1094"><path
               inkscape:connector-curvature="0"
               id="path1096"
               style="fill:#231f20;fill-opacity:1;fill-rule:nonzero;stroke:none"
               d="m 0,0 v -2.752 c 0,-1.1 -0.785,-1.457 -1.66,-1.457 -0.883,0 -1.666,0.357 -1.666,1.457 V 0 h 0.847 v -2.521 c 0,-0.637 0.217,-0.981 0.819,-0.981 0.596,0 0.812,0.344 0.812,0.981 V 0 Z" /></g><g
             transform="translate(75.5518,10.0859)"
             id="g1098"><path
               inkscape:connector-curvature="0"
               id="path1100"
               style="fill:#231f20;fill-opacity:1;fill-rule:nonzero;stroke:none"
               d="m 0,0 h 0.658 c 0.428,0 0.653,0.168 0.653,0.588 0,0.371 -0.217,0.589 -0.645,0.589 H 0 Z M 1.451,-2.234 C 1.338,-2.129 1.289,-1.989 1.248,-1.821 L 1.086,-1.17 c -0.09,0.393 -0.279,0.462 -0.631,0.462 H 0 V -2.234 H -0.848 V 1.891 H 0.715 C 1.646,1.891 2.18,1.533 2.18,0.658 2.18,0.014 1.787,-0.329 1.262,-0.371 V -0.393 C 1.646,-0.448 1.85,-0.609 1.955,-1.009 L 2.164,-1.793 C 2.213,-1.961 2.27,-2.102 2.396,-2.234 Z" /></g><g
             transform="translate(82.2314,10.0293)"
             id="g1102"><path
               inkscape:connector-curvature="0"
               id="path1104"
               style="fill:#231f20;fill-opacity:1;fill-rule:nonzero;stroke:none"
               d="m 0,0 v -2.178 h -0.566 l -0.127,0.484 c -0.196,-0.378 -0.645,-0.568 -1.135,-0.568 -1.07,0 -1.828,0.7 -1.828,2.129 0,1.38 0.763,2.164 1.99,2.164 0.812,0 1.365,-0.364 1.631,-1.029 L -0.848,0.609 c -0.14,0.456 -0.447,0.68 -0.853,0.68 -0.539,0 -1.08,-0.393 -1.08,-1.429 0,-0.805 0.308,-1.428 1.072,-1.428 0.553,0 0.891,0.258 0.891,0.679 v 0.196 H -1.736 V 0 Z" /></g><g
             transform="translate(10.0835,55.5601)"
             id="g1106"><path
               inkscape:connector-curvature="0"
               id="path1108"
               style="fill:#231f20;fill-opacity:1;fill-rule:nonzero;stroke:none"
               d="M 0,0 V 5.67 H 3.494 V 0.33 c 0,-0.738 0.17,-1.476 1.125,-1.476 0.957,0 1.125,0.738 1.125,1.476 V 5.67 H 9.238 V 0 C 9.238,-2.859 7.262,-3.768 4.619,-3.768 1.979,-3.768 0,-2.859 0,0" /></g><g
             transform="translate(27.353,58.5132)"
             id="g1110"><path
               inkscape:connector-curvature="0"
               id="path1112"
               style="fill:#231f20;fill-opacity:1;fill-rule:nonzero;stroke:none"
               d="m 0,0 c 0.664,-0.879 1.057,-1.508 1.057,-1.508 h 0.068 c 0,0 -0.035,0.754 -0.035,1.634 v 2.591 h 3.496 v -9.251 h -2.9 l -2.147,2.717 c -0.648,0.833 -1.09,1.492 -1.09,1.492 h -0.07 c 0,0 0.035,-0.722 0.035,-1.9 V -6.534 H -5.08 v 9.251 h 3.068 z" /></g><path
             inkscape:connector-curvature="0"
             id="path1114"
             style="fill:#231f20;fill-opacity:1;fill-rule:nonzero;stroke:none"
             d="M 38.58,51.979 H 35.084 V 61.23 H 38.58 Z" /><g
             transform="translate(10.3433,39.5806)"
             id="g1116"><path
               inkscape:connector-curvature="0"
               id="path1118"
               style="fill:#231f20;fill-opacity:1;fill-rule:nonzero;stroke:none"
               d="M 0,0 V 9.251 H 8.846 V 6.487 H 3.494 V 5.229 h 4.51 V 2.607 H 3.494 V 0 Z" /></g><path
             inkscape:connector-curvature="0"
             id="path1120"
             style="fill:#231f20;fill-opacity:1;fill-rule:nonzero;stroke:none"
             d="m 10.093,27.215 h 9.219 v 9.217 h -9.219 z" /><g
             transform="translate(25.6987,44.606)"
             id="g1122"><path
               inkscape:connector-curvature="0"
               id="path1124"
               style="fill:#231f20;fill-opacity:1;fill-rule:nonzero;stroke:none"
               d="m 0,0 h 0.91 c 0.578,0 0.965,0.251 0.965,0.872 0,0.533 -0.348,0.836 -0.928,0.836 H 0 Z M 2.232,-5.025 C 1.908,-4.712 1.807,-4.429 1.67,-3.88 L 1.5,-3.157 c -0.119,0.55 -0.375,0.722 -0.869,0.722 H 0 v -2.59 h -3.426 v 9.252 h 4.858 c 2.302,0 4.023,-0.772 4.023,-2.986 0,-1.539 -0.82,-2.216 -2.029,-2.402 v -0.064 c 0.887,-0.126 1.33,-0.534 1.586,-1.367 l 0.373,-1.223 c 0.172,-0.536 0.308,-0.866 0.683,-1.21 z" /></g></g></g></g></g></svg>