<svg width="1458" height="1450" xmlns="http://www.w3.org/2000/svg">
    <path d="M379 1431 380 1431" style="fill:none; stroke:black; stroke-width:5"/>
    <path d="M546 1418 537 1450 581 1450 547 1418" style="fill:none; stroke:black; stroke-width:5"/>
    <path d="M882 1416 883 1416" style="fill:none; stroke:black; stroke-width:5"/>
    <path d="M843 1382 844 1382" style="fill:none; stroke:black; stroke-width:5"/>
    <path d="M926 1376 927 1376" style="fill:none; stroke:black; stroke-width:5"/>
    <path d="M884 1365 885 1365" style="fill:none; stroke:black; stroke-width:5"/>
    <path d="M962 1342 963 1342" style="fill:none; stroke:black; stroke-width:5"/>
    <path d="M1458 1301 1329 1371 1458 1450 1458 1302" style="fill:none; stroke:black; stroke-width:5"/>
    <path d="M849 1288 739 1357 850 1288" style="fill:none; stroke:black; stroke-width:5"/>
    <path d="M548 1279 549 1279" style="fill:none; stroke:black; stroke-width:5"/>
    <path d="M1166 1236 1124 1291 1282 1354 1366 1299 1167 1236" style="fill:none; stroke:black; stroke-width:5"/>
    <path d="M419 1201 420 1201" style="fill:none; stroke:black; stroke-width:5"/>
    <path d="M95 1192 96 1192" style="fill:none; stroke:black; stroke-width:5"/>
    <path d="M634 1179 579 1191 605 1239 635 1179" style="fill:none; stroke:black; stroke-width:5"/>
    <path d="M1131 1175 1131 1176" style="fill:none; stroke:black; stroke-width:5"/>
    <path d="M1133 1169 1133 1170" style="fill:none; stroke:black; stroke-width:5"/>
    <path d="M1114 1140 1115 1140" style="fill:none; stroke:black; stroke-width:5"/>
    <path d="M1149 1131 1150 1131" style="fill:none; stroke:black; stroke-width:5"/>
    <path d="M82 1099 92 1160 83 1099" style="fill:none; stroke:black; stroke-width:5"/>
    <path d="M63 1086 64 1086" style="fill:none; stroke:black; stroke-width:5"/>
    <path d="M1336 1016 1335 1016" style="fill:none; stroke:black; stroke-width:5"/>
    <path d="M1105 993 1106 993" style="fill:none; stroke:black; stroke-width:5"/>
    <path d="M1384 991 1211 1081 1455 1156 1458 1020 1385 991" style="fill:none; stroke:black; stroke-width:5"/>
    <path d="M1431 968 1432 968" style="fill:none; stroke:black; stroke-width:5"/>
    <path d="M573 948 572 948" style="fill:none; stroke:black; stroke-width:5"/>
    <path d="M541 940 594 979 535 974 540 940" style="fill:none; stroke:black; stroke-width:5"/>
    <path d="M714 910 715 910" style="fill:none; stroke:black; stroke-width:5"/>
    <path d="M609 906 608 906" style="fill:none; stroke:black; stroke-width:5"/>
    <path d="M608 870 607 870" style="fill:none; stroke:black; stroke-width:5"/>
    <path d="M305 869 306 869" style="fill:none; stroke:black; stroke-width:5"/>
    <path d="M1258 866 1257 867" style="fill:none; stroke:black; stroke-width:5"/>
    <path d="M685 863 688 898 684 863" style="fill:none; stroke:black; stroke-width:5"/>
    <path d="M330 857 341 888 331 857" style="fill:none; stroke:black; stroke-width:5"/>
    <path d="M1428 848 1427 849" style="fill:none; stroke:black; stroke-width:5"/>
    <path d="M687 847 686 848" style="fill:none; stroke:black; stroke-width:5"/>
    <path d="M883 818 896 854 882 818" style="fill:none; stroke:black; stroke-width:5"/>
    <path d="M1434 816 1433 816" style="fill:none; stroke:black; stroke-width:5"/>
    <path d="M672 813 671 813" style="fill:none; stroke:black; stroke-width:5"/>
    <path d="M1375 811 1374 811" style="fill:none; stroke:black; stroke-width:5"/>
    <path d="M1394 802 1393 802" style="fill:none; stroke:black; stroke-width:5"/>
    <path d="M511 801 512 801" style="fill:none; stroke:black; stroke-width:5"/>
    <path d="M13 797 14 797" style="fill:none; stroke:black; stroke-width:5"/>
    <path d="M1289 796 1290 797" style="fill:none; stroke:black; stroke-width:5"/>
    <path d="M431 796 432 796" style="fill:none; stroke:black; stroke-width:5"/>
    <path d="M1098 788 1097 789" style="fill:none; stroke:black; stroke-width:5"/>
    <path d="M431 784 432 784" style="fill:none; stroke:black; stroke-width:5"/>
    <path d="M1355 777 1374 848 1354 778" style="fill:none; stroke:black; stroke-width:5"/>
    <path d="M118 775 128 826 204 855 119 775" style="fill:none; stroke:black; stroke-width:5"/>
    <path d="M1427 772 1426 772" style="fill:none; stroke:black; stroke-width:5"/>
    <path d="M1355 751 1355 752" style="fill:none; stroke:black; stroke-width:5"/>
    <path d="M316 750 343 818 406 796 317 750" style="fill:none; stroke:black; stroke-width:5"/>
    <path d="M1296 746 1297 747" style="fill:none; stroke:black; stroke-width:5"/>
    <path d="M436 740 437 740" style="fill:none; stroke:black; stroke-width:5"/>
    <path d="M616 733 617 733" style="fill:none; stroke:black; stroke-width:5"/>
    <path d="M490 729 490 730" style="fill:none; stroke:black; stroke-width:5"/>
    <path d="M11 728 19 769 12 728" style="fill:none; stroke:black; stroke-width:5"/>
    <path d="M911 715 911 716" style="fill:none; stroke:black; stroke-width:5"/>
    <path d="M421 711 422 711" style="fill:none; stroke:black; stroke-width:5"/>
    <path d="M0 707 1 707" style="fill:none; stroke:black; stroke-width:5"/>
    <path d="M414 675 415 675" style="fill:none; stroke:black; stroke-width:5"/>
    <path d="M930 667 944 723 931 667" style="fill:none; stroke:black; stroke-width:5"/>
    <path d="M696 665 786 721 775 673 860 668 806 734 861 707 859 785 613 820 604 684 682 679 687 748 695 665" style="fill:none; stroke:black; stroke-width:5"/>
    <path d="M1269 659 1279 718 1348 733 1339 843 1259 833 1268 660" style="fill:none; stroke:black; stroke-width:5"/>
    <path d="M1212 657 1217 799 1157 792 1211 658" style="fill:none; stroke:black; stroke-width:5"/>
    <path d="M1047 649 1032 765 1083 784 999 775 1047 650" style="fill:none; stroke:black; stroke-width:5"/>
    <path d="M600 644 654 648 599 645" style="fill:none; stroke:black; stroke-width:5"/>
    <path d="M406 644 407 645" style="fill:none; stroke:black; stroke-width:5"/>
    <path d="M943 636 944 637" style="fill:none; stroke:black; stroke-width:5"/>
    <path d="M400 628 401 629" style="fill:none; stroke:black; stroke-width:5"/>
    <path d="M800 626 801 626" style="fill:none; stroke:black; stroke-width:5"/>
    <path d="M1318 610 1317 610" style="fill:none; stroke:black; stroke-width:5"/>
    <path d="M0 599 0 684 42 686 84 614 1 599" style="fill:none; stroke:black; stroke-width:5"/>
    <path d="M58 595 59 595" style="fill:none; stroke:black; stroke-width:5"/>
    <path d="M1064 593 1056 675 1063 594" style="fill:none; stroke:black; stroke-width:5"/>
    <path d="M855 587 856 587" style="fill:none; stroke:black; stroke-width:5"/>
    <path d="M518 587 519 587" style="fill:none; stroke:black; stroke-width:5"/>
    <path d="M1116 581 1115 581" style="fill:none; stroke:black; stroke-width:5"/>
    <path d="M426 576 427 577" style="fill:none; stroke:black; stroke-width:5"/>
    <path d="M598 572 646 600 599 623 597 573" style="fill:none; stroke:black; stroke-width:5"/>
    <path d="M698 571 697 571" style="fill:none; stroke:black; stroke-width:5"/>
    <path d="M1165 565 1164 566" style="fill:none; stroke:black; stroke-width:5"/>
    <path d="M151 562 152 562" style="fill:none; stroke:black; stroke-width:5"/>
    <path d="M683 560 683 561" style="fill:none; stroke:black; stroke-width:5"/>
    <path d="M1220 556 1217 610 1165 600 1150 793 1227 815 1173 865 1054 841 1075 794 1141 803 1156 584 1219 556" style="fill:none; stroke:black; stroke-width:5"/>
    <path d="M427 553 428 553" style="fill:none; stroke:black; stroke-width:5"/>
    <path d="M441 551 442 551" style="fill:none; stroke:black; stroke-width:5"/>
    <path d="M1183 550 1182 551" style="fill:none; stroke:black; stroke-width:5"/>
    <path d="M1323 535 1322 536" style="fill:none; stroke:black; stroke-width:5"/>
    <path d="M275 530 276 530" style="fill:none; stroke:black; stroke-width:5"/>
    <path d="M1087 526 1172 532 1097 533 1071 587 1086 526" style="fill:none; stroke:black; stroke-width:5"/>
    <path d="M134 524 135 525" style="fill:none; stroke:black; stroke-width:5"/>
    <path d="M103 520 104 521" style="fill:none; stroke:black; stroke-width:5"/>
    <path d="M948 504 947 505" style="fill:none; stroke:black; stroke-width:5"/>
    <path d="M1327 492 1326 493" style="fill:none; stroke:black; stroke-width:5"/>
    <path d="M984 481 983 481" style="fill:none; stroke:black; stroke-width:5"/>
    <path d="M134 457 135 457" style="fill:none; stroke:black; stroke-width:5"/>
    <path d="M1018 453 1017 454" style="fill:none; stroke:black; stroke-width:5"/>
    <path d="M383 441 382 442" style="fill:none; stroke:black; stroke-width:5"/>
    <path d="M198 427 163 481 216 472 199 427" style="fill:none; stroke:black; stroke-width:5"/>
    <path d="M413 417 412 418" style="fill:none; stroke:black; stroke-width:5"/>
    <path d="M711 409 712 409" style="fill:none; stroke:black; stroke-width:5"/>
    <path d="M469 404 470 405" style="fill:none; stroke:black; stroke-width:5"/>
    <path d="M1020 403 1020 404" style="fill:none; stroke:black; stroke-width:5"/>
    <path d="M798 401 799 401" style="fill:none; stroke:black; stroke-width:5"/>
    <path d="M1182 392 1181 393" style="fill:none; stroke:black; stroke-width:5"/>
    <path d="M1291 384 1291 603 1290 385" style="fill:none; stroke:black; stroke-width:5"/>
    <path d="M1215 369 1262 371 1225 419 1253 503 1193 471 1214 370" style="fill:none; stroke:black; stroke-width:5"/>
    <path d="M1022 368 1021 368" style="fill:none; stroke:black; stroke-width:5"/>
    <path d="M1056 365 1056 366" style="fill:none; stroke:black; stroke-width:5"/>
    <path d="M949 362 864 430 891 710 981 505 947 624 1033 636 952 647 1023 674 964 682 993 774 939 747 885 781 871 653 673 648 831 590 834 524 787 523 824 507 780 503 753 427 694 430 684 480 675 405 608 421 594 379 948 362" style="fill:none; stroke:black; stroke-width:5"/>
    <path d="M700 320 701 320" style="fill:none; stroke:black; stroke-width:5"/>
    <path d="M672 319 673 319" style="fill:none; stroke:black; stroke-width:5"/>
    <path d="M1018 308 1017 308" style="fill:none; stroke:black; stroke-width:5"/>
    <path d="M781 301 782 301" style="fill:none; stroke:black; stroke-width:5"/>
    <path d="M249 297 249 298" style="fill:none; stroke:black; stroke-width:5"/>
    <path d="M705 288 706 288" style="fill:none; stroke:black; stroke-width:5"/>
    <path d="M1284 285 1283 285" style="fill:none; stroke:black; stroke-width:5"/>
    <path d="M259 284 258 284" style="fill:none; stroke:black; stroke-width:5"/>
    <path d="M453 276 452 277" style="fill:none; stroke:black; stroke-width:5"/>
    <path d="M1413 262 1414 305 1412 263" style="fill:none; stroke:black; stroke-width:5"/>
    <path d="M254 228 255 228" style="fill:none; stroke:black; stroke-width:5"/>
    <path d="M377 221 376 222" style="fill:none; stroke:black; stroke-width:5"/>
    <path d="M258 199 258 200" style="fill:none; stroke:black; stroke-width:5"/>
    <path d="M893 171 892 171" style="fill:none; stroke:black; stroke-width:5"/>
    <path d="M281 148 282 148" style="fill:none; stroke:black; stroke-width:5"/>
    <path d="M1073 139 1072 140" style="fill:none; stroke:black; stroke-width:5"/>
    <path d="M931 130 930 130" style="fill:none; stroke:black; stroke-width:5"/>
    <path d="M759 119 758 119" style="fill:none; stroke:black; stroke-width:5"/>
    <path d="M737 84 736 84" style="fill:none; stroke:black; stroke-width:5"/>
    <path d="M536 72 629 83 617 135 537 73" style="fill:none; stroke:black; stroke-width:5"/>
    <path d="M20 0 4 79 855 149 690 192 759 192 822 257 834 216 901 310 999 312 603 328 642 284 553 307 436 206 284 161 263 250 235 120 103 112 97 210 82 164 0 158 0 551 67 541 66 368 253 363 324 467 309 560 384 604 430 438 429 506 546 513 508 554 550 574 489 602 455 532 477 598 417 623 545 637 512 678 543 744 500 747 536 861 364 822 409 901 268 931 137 856 7 863 0 959 312 1183 1022 1050 1005 1406 1040 1422 1122 1207 1083 1255 1086 1103 1039 1285 1075 968 958 943 929 989 927 947 847 935 826 989 774 931 671 917 728 900 721 842 1190 983 1458 924 1458 472 1356 462 1351 553 1345 471 1304 473 1315 353 1458 353 1458 0 21 0" style="fill:none; stroke:black; stroke-width:5"/>
</svg>