<svg width="1742" height="2322" xmlns="http://www.w3.org/2000/svg">
    <path d="M0 0 0 1 0 2 0 3 0 4 0 5 0 6 0 7 0 8 0 9 0 10 0 11 0 12 0 13 0 14 0 15 0 16 0 17 0 18 0 19 0 20 0 21 0 22 0 23 0 24 0 25 0 26 0 27 0 28 0 29 0 30 0 31 0 32 0 33 0 34 0 35 0 36 0 37 0 38 0 39 0 40 0 41 0 42 0 43 0 44 0 45 0 46 0 47 0 48 0 49 0 50 0 51 0 52 0 53 0 54 0 55 0 56 0 57 0 58 0 59 0 60 0 61 0 62 0 63 0 64 0 65 0 66 0 67 0 68 0 69 0 70 0 71 0 72 0 73 0 74 0 75 0 76 0 77 0 78 0 79 0 80 0 81 0 82 0 83 0 84 0 85 0 86 0 87 0 88 0 89 0 90 0 91 0 92 0 93 0 94 0 95 0 96 0 97 0 98 0 99 0 100 0 101 0 102 0 103 0 104 0 105 0 106 0 107 0 108 0 109 0 110 0 111 0 112 0 113 0 114 0 115 0 116 0 117 0 118 0 119 0 120 0 121 0 122 0 123 0 124 0 125 0 126 0 127 0 128 0 129 0 130 0 131 0 132 0 133 0 134 0 135 0 136 0 137 0 138 0 139 0 140 0 141 0 142 0 143 0 144 0 145 0 146 0 147 0 148 0 149 0 150 0 151 0 152 0 153 0 154 0 155 0 156 0 157 0 158 0 159 0 160 0 161 0 162 0 163 0 164 0 165 0 166 0 167 0 168 0 169 0 170 0 171 0 172 0 173 0 174 0 175 0 176 0 177 0 178 0 179 0 180 0 181 0 182 0 183 0 184 0 185 0 186 0 187 0 188 0 189 0 190 0 191 0 192 0 193 0 194 0 195 0 196 0 197 0 198 0 199 0 200 0 201 0 202 0 203 0 204 0 205 0 206 0 207 0 208 0 209 0 210 0 211 0 212 0 213 0 214 0 215 0 216 0 217 0 218 0 219 0 220 0 221 0 222 0 223 0 224 0 225 0 226 0 227 0 228 0 229 0 230 0 231 0 232 0 233 0 234 0 235 0 236 0 237 0 238 0 239 0 240 0 241 0 242 0 243 0 244 0 245 0 246 0 247 0 248 0 249 0 250 0 251 0 252 0 253 0 254 0 255 0 256 0 257 0 258 0 259 0 260 0 261 0 262 0 263 0 264 0 265 0 266 0 267 0 268 0 269 0 270 0 271 0 272 0 273 0 274 0 275 0 276 0 277 0 278 0 279 0 280 0 281 0 282 0 283 0 284 0 285 0 286 0 287 0 288 0 289 0 290 0 291 0 292 0 293 0 294 0 295 0 296 0 297 0 298 0 299 0 300 0 301 0 302 0 303 0 304 0 305 0 306 0 307 0 308 0 309 0 310 0 311 0 312 0 313 0 314 0 315 0 316 0 317 0 318 0 319 0 320 0 321 0 322 0 323 0 324 0 325 0 326 0 327 0 328 0 329 0 330 0 331 0 332 0 333 0 334 0 335 0 336 0 337 0 338 0 339 0 340 0 341 0 342 0 343 0 344 0 345 0 346 0 347 0 348 0 349 0 350 0 351 0 352 0 353 0 354 0 355 0 356 0 357 0 358 0 359 0 360 0 361 0 362 0 363 0 364 0 365 0 366 0 367 0 368 0 369 0 370 0 371 0 372 0 373 0 374 0 375 0 376 0 377 0 378 0 379 0 380 0 381 0 382 0 383 0 384 0 385 0 386 0 387 0 388 0 389 0 390 0 391 0 392 0 393 0 394 0 395 0 396 0 397 0 398 0 399 0 400 0 401 0 402 0 403 0 404 0 405 0 406 0 407 0 408 0 409 0 410 0 411 0 412 0 413 0 414 0 415 0 416 0 417 0 418 0 419 0 420 0 421 0 422 0 423 0 424 0 425 0 426 0 427 0 428 0 429 0 430 0 431 0 432 0 433 0 434 0 435 0 436 0 437 0 438 0 439 0 440 0 441 0 442 0 443 0 444 0 445 0 446 0 447 0 448 0 449 0 450 0 451 0 452 0 453 0 454 0 455 0 456 0 457 0 458 0 459 0 460 0 461 0 462 0 463 0 464 0 465 0 466 0 467 0 468 0 469 0 470 0 471 0 472 0 473 0 474 0 475 0 476 0 477 0 478 0 479 0 480 0 481 0 482 0 483 0 484 0 485 0 486 0 487 0 488 0 489 0 490 0 491 0 492 0 493 0 494 0 495 0 496 0 497 0 498 0 499 0 500 0 501 0 502 0 503 0 504 0 505 0 506 0 507 0 508 0 509 0 510 0 511 0 512 0 513 0 514 0 515 0 516 0 517 0 518 0 519 0 520 0 521 0 522 0 523 0 524 0 525 0 526 0 527 0 528 0 529 0 530 0 531 0 532 0 533 0 534 0 535 0 536 0 537 0 538 0 539 0 540 0 541 0 542 0 543 0 544 0 545 0 546 0 547 0 548 0 549 0 550 0 551 0 552 0 553 0 554 0 555 0 556 0 557 0 558 0 559 0 560 0 561 0 562 0 563 0 564 0 565 0 566 0 567 0 568 0 569 0 570 0 571 0 572 0 573 0 574 0 575 0 576 0 577 0 578 0 579 0 580 0 581 0 582 0 583 0 584 0 585 0 586 0 587 0 588 0 589 0 590 0 591 0 592 0 593 0 594 0 595 0 596 0 597 0 598 0 599 0 600 0 601 0 602 0 603 0 604 0 605 0 606 0 607 0 608 0 609 0 610 0 611 0 612 0 613 0 614 0 615 0 616 0 617 0 618 0 619 0 620 0 621 0 622 0 623 0 624 0 625 0 626 0 627 0 628 0 629 0 630 0 631 0 632 0 633 0 634 0 635 0 636 0 637 0 638 0 639 0 640 0 641 0 642 0 643 0 644 0 645 0 646 0 647 0 648 0 649 0 650 0 651 0 652 0 653 0 654 0 655 0 656 0 657 0 658 0 659 0 660 0 661 0 662 0 663 0 664 0 665 0 666 0 667 0 668 0 669 0 670 0 671 0 672 0 673 0 674 0 675 0 676 0 677 0 678 0 679 0 680 0 681 0 682 0 683 0 684 0 685 0 686 0 687 0 688 0 689 0 690 0 691 0 692 0 693 0 694 0 695 0 696 0 697 0 698 0 699 0 700 0 701 0 702 0 703 0 704 0 705 0 706 0 707 0 708 0 709 0 710 0 711 0 712 0 713 0 714 0 715 0 716 0 717 0 718 0 719 0 720 0 721 0 722 0 723 0 724 0 725 0 726 0 727 0 728 0 729 0 730 0 731 0 732 0 733 0 734 0 735 0 736 0 737 0 738 0 739 0 740 0 741 0 742 0 743 0 744 0 745 0 746 0 747 0 748 0 749 0 750 0 751 0 752 0 753 0 754 0 755 0 756 0 757 0 758 0 759 0 760 0 761 0 762 0 763 0 764 0 765 0 766 0 767 0 768 0 769 0 770 0 771 0 772 0 773 0 774 0 775 0 776 0 777 0 778 0 779 0 780 0 781 0 782 0 783 0 784 0 785 0 786 0 787 0 788 0 789 0 790 0 791 0 792 0 793 0 794 0 795 0 796 0 797 0 798 0 799 0 800 0 801 0 802 0 803 0 804 0 805 0 806 0 807 0 808 0 809 0 810 0 811 0 812 0 813 0 814 0 815 0 816 0 817 0 818 0 819 0 820 0 821 0 822 0 823 0 824 0 825 0 826 0 827 0 828 0 829 0 830 0 831 0 832 0 833 0 834 0 835 0 836 0 837 0 838 0 839 0 840 0 841 0 842 0 843 0 844 0 845 0 846 0 847 0 848 0 849 0 850 0 851 0 852 0 853 0 854 0 855 0 856 0 857 0 858 0 859 0 860 0 861 0 862 0 863 0 864 0 865 0 866 0 867 0 868 0 869 0 870 0 871 0 872 0 873 0 874 0 875 0 876 0 877 0 878 0 879 0 880 0 881 0 882 0 883 0 884 0 885 0 886 0 887 0 888 0 889 0 890 0 891 0 892 0 893 0 894 0 895 0 896 0 897 0 898 0 899 0 900 0 901 0 902 0 903 0 904 0 905 0 906 0 907 0 908 0 909 0 910 0 911 0 912 0 913 0 914 0 915 0 916 0 917 0 918 0 919 0 920 0 921 0 922 0 923 0 924 0 925 0 926 0 927 0 928 0 929 0 930 0 931 0 932 0 933 0 934 0 935 0 936 0 937 0 938 0 939 0 940 0 941 0 942 0 943 0 944 0 945 0 946 0 947 0 948 0 949 0 950 0 951 0 952 0 953 0 954 0 955 0 956 0 957 0 958 0 959 0 960 0 961 0 962 0 963 0 964 0 965 0 966 0 967 0 968 0 969 0 970 0 971 0 972 0 973 0 974 0 975 0 976 0 977 0 978 0 979 0 980 0 981 0 982 0 983 0 984 0 985 0 986 0 987 0 988 0 989 0 990 0 991 0 992 0 993 0 994 0 995 0 996 0 997 0 998 0 999 0 1000 0 1001 0 1002 0 1003 0 1004 0 1005 0 1006 0 1007 0 1008 0 1009 0 1010 0 1011 0 1012 0 1013 0 1014 0 1015 0 1016 0 1017 0 1018 0 1019 0 1020 0 1021 0 1022 0 1023 0 1024 0 1025 0 1026 0 1027 0 1028 0 1029 0 1030 0 1031 0 1032 0 1033 0 1034 0 1035 0 1036 0 1037 0 1038 0 1039 0 1040 0 1041 0 1042 0 1043 0 1044 0 1045 0 1046 0 1047 0 1048 0 1049 0 1050 0 1051 0 1052 0 1053 0 1054 0 1055 0 1056 0 1057 0 1058 0 1059 0 1060 0 1061 0 1062 0 1063 0 1064 0 1065 0 1066 0 1067 0 1068 0 1069 0 1070 0 1071 0 1072 0 1073 0 1074 0 1075 0 1076 0 1077 0 1078 0 1079 0 1080 0 1081 0 1082 0 1083 0 1084 0 1085 0 1086 0 1087 0 1088 0 1089 0 1090 0 1091 0 1092 0 1093 0 1094 0 1095 0 1096 0 1097 0 1098 0 1099 0 1100 0 1101 0 1102 0 1103 0 1104 0 1105 0 1106 0 1107 0 1108 0 1109 0 1110 0 1111 0 1112 0 1113 0 1114 0 1115 0 1116 0 1117 0 1118 0 1119 0 1120 0 1121 0 1122 0 1123 0 1124 0 1125 0 1126 0 1127 0 1128 0 1129 0 1130 0 1131 0 1132 0 1133 0 1134 0 1135 0 1136 0 1137 0 1138 0 1139 0 1140 0 1141 0 1142 0 1143 0 1144 0 1145 0 1146 0 1147 0 1148 0 1149 0 1150 0 1151 0 1152 0 1153 0 1154 0 1155 0 1156 0 1157 0 1158 0 1159 0 1160 0 1161 0 1162 0 1163 0 1164 0 1165 0 1166 0 1167 0 1168 0 1169 0 1170 0 1171 0 1172 0 1173 0 1174 0 1175 0 1176 0 1177 0 1178 0 1179 0 1180 0 1181 0 1182 0 1183 0 1184 0 1185 0 1186 0 1187 0 1188 0 1189 0 1190 0 1191 0 1192 0 1193 0 1194 0 1195 0 1196 0 1197 0 1198 0 1199 0 1200 0 1201 0 1202 0 1203 0 1204 0 1205 0 1206 0 1207 0 1208 0 1209 0 1210 0 1211 0 1212 0 1213 0 1214 0 1215 0 1216 0 1217 0 1218 0 1219 0 1220 0 1221 0 1222 0 1223 0 1224 0 1225 0 1226 0 1227 0 1228 0 1229 0 1230 0 1231 0 1232 0 1233 0 1234 0 1235 0 1236 0 1237 0 1238 0 1239 0 1240 0 1241 0 1242 0 1243 0 1244 0 1245 0 1246 0 1247 0 1248 0 1249 0 1250 0 1251 0 1252 0 1253 0 1254 0 1255 0 1256 0 1257 0 1258 0 1259 0 1260 0 1261 0 1262 0 1263 0 1264 0 1265 0 1266 0 1267 0 1268 0 1269 0 1270 0 1271 0 1272 0 1273 0 1274 0 1275 0 1276 0 1277 0 1278 0 1279 0 1280 0 1281 0 1282 0 1283 0 1284 0 1285 0 1286 0 1287 0 1288 0 1289 0 1290 0 1291 0 1292 0 1293 0 1294 0 1295 0 1296 0 1297 0 1298 0 1299 0 1300 0 1301 0 1302 0 1303 0 1304 0 1305 0 1306 0 1307 0 1308 0 1309 0 1310 0 1311 0 1312 0 1313 0 1314 0 1315 0 1316 0 1317 0 1318 0 1319 0 1320 0 1321 0 1322 0 1323 0 1324 0 1325 0 1326 0 1327 0 1328 0 1329 0 1330 0 1331 0 1332 0 1333 0 1334 0 1335 0 1336 0 1337 0 1338 0 1339 0 1340 0 1341 0 1342 0 1343 0 1344 0 1345 0 1346 0 1347 0 1348 0 1349 0 1350 0 1351 0 1352 0 1353 0 1354 0 1355 0 1356 0 1357 0 1358 0 1359 0 1360 0 1361 0 1362 0 1363 0 1364 0 1365 0 1366 0 1367 0 1368 0 1369 0 1370 0 1371 0 1372 0 1373 0 1374 0 1375 0 1376 0 1377 0 1378 0 1379 0 1380 0 1381 0 1382 0 1383 0 1384 0 1385 0 1386 0 1387 0 1388 0 1389 0 1390 0 1391 0 1392 0 1393 0 1394 0 1395 0 1396 0 1397 0 1398 0 1399 0 1400 0 1401 0 1402 0 1403 0 1404 0 1405 0 1406 0 1407 0 1408 0 1409 0 1410 0 1411 0 1412 0 1413 0 1414 0 1415 0 1416 0 1417 0 1418 0 1419 0 1420 0 1421 0 1422 0 1423 0 1424 0 1425 0 1426 0 1427 0 1428 0 1429 0 1430 0 1431 0 1432 0 1433 0 1434 0 1435 0 1436 0 1437 0 1438 0 1439 0 1440 0 1441 0 1442 0 1443 0 1444 0 1445 0 1446 0 1447 0 1448 0 1449 0 1450 0 1451 0 1452 0 1453 0 1454 0 1455 0 1456 0 1457 0 1458 0 1459 0 1460 0 1461 0 1462 0 1463 0 1464 0 1465 0 1466 0 1467 0 1468 0 1469 0 1470 0 1471 0 1472 0 1473 0 1474 0 1475 0 1476 0 1477 0 1478 0 1479 0 1480 0 1481 0 1482 0 1483 0 1484 0 1485 0 1486 0 1487 0 1488 0 1489 0 1490 0 1491 0 1492 0 1493 0 1494 0 1495 0 1496 0 1497 0 1498 0 1499 0 1500 0 1501 0 1502 0 1503 0 1504 0 1505 0 1506 0 1507 0 1508 0 1509 0 1510 0 1511 0 1512 0 1513 0 1514 0 1515 0 1516 0 1517 0 1518 0 1519 0 1520 0 1521 0 1522 0 1523 0 1524 0 1525 0 1526 0 1527 0 1528 0 1529 0 1530 0 1531 0 1532 0 1533 0 1534 0 1535 0 1536 0 1537 0 1538 0 1539 0 1540 0 1541 0 1542 0 1543 0 1544 0 1545 0 1546 0 1547 0 1548 0 1549 0 1550 0 1551 0 1552 0 1553 0 1554 0 1555 0 1556 0 1557 0 1558 0 1559 0 1560 0 1561 0 1562 0 1563 0 1564 0 1565 0 1566 0 1567 0 1568 0 1569 0 1570 0 1571 0 1572 0 1573 0 1574 0 1575 0 1576 0 1577 0 1578 0 1579 0 1580 0 1581 0 1582 0 1583 0 1584 0 1585 0 1586 0 1587 0 1588 0 1589 0 1590 0 1591 0 1592 0 1593 0 1594 0 1595 0 1596 0 1597 0 1598 0 1599 0 1600 0 1601 0 1602 0 1603 0 1604 0 1605 0 1606 0 1607 0 1608 0 1609 0 1610 0 1611 0 1612 0 1613 0 1614 0 1615 0 1616 0 1617 0 1618 0 1619 0 1620 0 1621 0 1622 0 1623 0 1624 0 1625 0 1626 0 1627 0 1628 0 1629 0 1630 0 1631 0 1632 0 1633 0 1634 0 1635 0 1636 0 1637 0 1638 0 1639 0 1640 0 1641 0 1642 0 1643 0 1644 0 1645 0 1646 0 1647 0 1648 0 1649 0 1650 0 1651 0 1652 0 1653 0 1654 0 1655 0 1656 0 1657 0 1658 0 1659 0 1660 0 1661 0 1662 0 1663 0 1664 0 1665 0 1666 0 1667 0 1668 0 1669 0 1670 0 1671 0 1672 0 1673 0 1674 0 1675 0 1676 0 1677 0 1678 0 1679 0 1680 0 1681 0 1682 0 1683 0 1684 0 1685 0 1686 0 1687 0 1688 0 1689 0 1690 0 1691 0 1692 0 1693 0 1694 0 1695 0 1696 0 1697 0 1698 0 1699 0 1700 0 1701 0 1702 0 1703 0 1704 0 1705 0 1706 0 1707 0 1708 0 1709 0 1710 0 1711 0 1712 0 1713 0 1714 0 1715 0 1716 0 1717 0 1718 0 1719 0 1720 0 1721 0 1722 0 1723 0 1724 0 1725 0 1726 0 1727 0 1728 0 1729 0 1730 0 1731 0 1732 0 1733 0 1734 0 1735 0 1736 0 1737 0 1738 0 1739 0 1740 0 1741 0 1742 0 1743 0 1744 0 1745 0 1746 0 1747 0 1748 0 1749 0 1750 0 1751 0 1752 0 1753 0 1754 0 1755 0 1756 0 1757 0 1758 0 1759 0 1760 0 1761 0 1762 0 1763 0 1764 0 1765 0 1766 0 1767 0 1768 0 1769 0 1770 0 1771 0 1772 0 1773 0 1774 0 1775 0 1776 0 1777 0 1778 0 1779 0 1780 0 1781 0 1782 0 1783 0 1784 0 1785 0 1786 0 1787 0 1788 0 1789 0 1790 0 1791 0 1792 0 1793 0 1794 0 1795 0 1796 0 1797 0 1798 0 1799 0 1800 0 1801 0 1802 0 1803 0 1804 0 1805 0 1806 0 1807 0 1808 0 1809 0 1810 0 1811 0 1812 0 1813 0 1814 0 1815 0 1816 0 1817 0 1818 0 1819 0 1820 0 1821 0 1822 0 1823 0 1824 0 1825 0 1826 0 1827 0 1828 0 1829 0 1830 0 1831 0 1832 0 1833 0 1834 0 1835 0 1836 0 1837 0 1838 0 1839 0 1840 0 1841 0 1842 0 1843 0 1844 0 1845 0 1846 0 1847 0 1848 0 1849 0 1850 0 1851 0 1852 0 1853 0 1854 0 1855 0 1856 0 1857 0 1858 0 1859 0 1860 0 1861 0 1862 0 1863 0 1864 0 1865 0 1866 0 1867 0 1868 0 1869 0 1870 0 1871 0 1872 0 1873 0 1874 0 1875 0 1876 0 1877 0 1878 0 1879 0 1880 0 1881 0 1882 0 1883 0 1884 0 1885 0 1886 0 1887 0 1888 0 1889 0 1890 0 1891 0 1892 0 1893 0 1894 0 1895 0 1896 0 1897 0 1898 0 1899 0 1900 0 1901 0 1902 0 1903 0 1904 0 1905 0 1906 0 1907 0 1908 0 1909 0 1910 0 1911 0 1912 0 1913 0 1914 0 1915 0 1916 0 1917 0 1918 0 1919 0 1920 0 1921 0 1922 0 1923 0 1924 0 1925 0 1926 0 1927 0 1928 0 1929 0 1930 0 1931 0 1932 0 1933 0 1934 0 1935 0 1936 0 1937 0 1938 0 1939 0 1940 0 1941 0 1942 0 1943 0 1944 0 1945 0 1946 0 1947 0 1948 0 1949 0 1950 0 1951 0 1952 0 1953 0 1954 0 1955 0 1956 0 1957 0 1958 0 1959 0 1960 0 1961 0 1962 0 1963 0 1964 0 1965 0 1966 0 1967 0 1968 0 1969 0 1970 0 1971 0 1972 0 1973 0 1974 0 1975 0 1976 0 1977 0 1978 0 1979 0 1980 0 1981 0 1982 0 1983 0 1984 0 1985 0 1986 0 1987 0 1988 0 1989 0 1990 0 1991 0 1992 0 1993 0 1994 0 1995 0 1996 0 1997 0 1998 0 1999 0 2000 0 2001 0 2002 0 2003 0 2004 0 2005 0 2006 0 2007 0 2008 0 2009 0 2010 0 2011 0 2012 0 2013 0 2014 0 2015 0 2016 0 2017 0 2018 0 2019 0 2020 0 2021 0 2022 0 2023 0 2024 0 2025 0 2026 0 2027 0 2028 0 2029 0 2030 0 2031 0 2032 0 2033 0 2034 0 2035 0 2036 0 2037 0 2038 0 2039 0 2040 0 2041 0 2042 0 2043 0 2044 0 2045 0 2046 0 2047 0 2048 0 2049 0 2050 0 2051 0 2052 0 2053 0 2054 0 2055 0 2056 0 2057 0 2058 0 2059 0 2060 0 2061 0 2062 0 2063 0 2064 0 2065 0 2066 0 2067 0 2068 0 2069 0 2070 0 2071 0 2072 0 2073 0 2074 0 2075 0 2076 0 2077 0 2078 0 2079 0 2080 0 2081 0 2082 0 2083 0 2084 0 2085 0 2086 0 2087 0 2088 0 2089 0 2090 0 2091 0 2092 0 2093 0 2094 0 2095 0 2096 0 2097 0 2098 0 2099 0 2100 0 2101 0 2102 0 2103 0 2104 0 2105 0 2106 0 2107 0 2108 0 2109 0 2110 0 2111 0 2112 0 2113 0 2114 0 2115 0 2116 0 2117 0 2118 0 2119 0 2120 0 2121 0 2122 0 2123 0 2124 0 2125 0 2126 0 2127 0 2128 0 2129 0 2130 0 2131 0 2132 0 2133 0 2134 0 2135 0 2136 0 2137 0 2138 0 2139 0 2140 0 2141 0 2142 0 2143 0 2144 0 2145 0 2146 0 2147 0 2148 0 2149 0 2150 0 2151 0 2152 0 2153 0 2154 0 2155 0 2156 0 2157 0 2158 0 2159 0 2160 0 2161 0 2162 0 2163 0 2164 0 2165 0 2166 0 2167 0 2168 0 2169 0 2170 0 2171 0 2172 0 2173 0 2174 0 2175 0 2176 0 2177 0 2178 0 2179 0 2180 0 2181 0 2182 0 2183 0 2184 0 2185 0 2186 0 2187 0 2188 0 2189 0 2190 0 2191 0 2192 0 2193 0 2194 0 2195 0 2196 0 2197 0 2198 0 2199 0 2200 0 2201 0 2202 0 2203 0 2204 0 2205 0 2206 0 2207 0 2208 0 2209 0 2210 0 2211 0 2212 0 2213 0 2214 0 2215 0 2216 0 2217 0 2218 0 2219 0 2220 0 2221 0 2222 0 2223 0 2224 0 2225 0 2226 0 2227 0 2228 0 2229 0 2230 0 2231 0 2232 0 2233 0 2234 0 2235 0 2236 0 2237 0 2238 0 2239 0 2240 0 2241 0 2242 0 2243 0 2244 0 2245 0 2246 0 2247 0 2248 0 2249 0 2250 0 2251 0 2252 0 2253 0 2254 0 2255 0 2256 0 2257 0 2258 0 2259 0 2260 0 2261 0 2262 0 2263 0 2264 0 2265 0 2266 0 2267 0 2268 0 2269 0 2270 0 2271 0 2272 0 2273 0 2274 0 2275 0 2276 0 2277 0 2278 0 2279 0 2280 0 2281 0 2282 0 2283 0 2284 0 2285 0 2286 0 2287 0 2288 0 2289 0 2290 0 2291 0 2292 0 2293 0 2294 0 2295 0 2296 0 2297 0 2298 0 2299 0 2300 0 2301 0 2302 0 2303 0 2304 0 2305 0 2306 0 2307 0 2308 0 2309 0 2310 0 2311 0 2312 0 2313 0 2314 0 2315 0 2316 0 2317 0 2318 0 2319 0 2320 0 2321 1 2321 2 2321 3 2321 4 2321 5 2321 6 2321 7 2321 8 2321 9 2321 10 2321 11 2321 12 2321 13 2321 14 2321 15 2321 16 2321 17 2321 18 2321 19 2321 20 2321 21 2321 22 2321 23 2321 24 2321 25 2321 26 2321 27 2321 28 2321 29 2321 30 2321 31 2321 32 2321 33 2321 34 2321 35 2321 36 2321 37 2321 38 2321 39 2321 40 2321 41 2321 42 2321 43 2321 44 2321 45 2321 46 2321 47 2321 48 2321 49 2321 50 2321 51 2321 52 2321 53 2321 54 2321 55 2321 56 2321 57 2321 58 2321 59 2321 60 2321 61 2321 62 2321 63 2321 64 2321 65 2321 66 2321 67 2321 68 2321 69 2321 70 2321 71 2321 72 2321 73 2321 74 2321 75 2321 76 2321 77 2321 78 2321 79 2321 80 2321 81 2321 82 2321 83 2321 84 2321 85 2321 86 2321 87 2321 88 2321 89 2321 90 2321 91 2321 92 2321 93 2321 94 2321 95 2321 96 2321 97 2321 98 2321 99 2321 100 2321 101 2321 102 2321 103 2321 104 2321 105 2321 106 2321 107 2321 108 2321 109 2321 110 2321 111 2321 112 2321 113 2321 114 2321 115 2321 116 2321 117 2321 118 2321 119 2321 120 2321 121 2321 122 2321 123 2321 124 2321 125 2321 126 2321 127 2321 128 2321 129 2321 130 2321 131 2321 132 2321 133 2321 134 2321 135 2321 136 2321 137 2321 138 2321 139 2321 140 2321 141 2321 142 2321 143 2321 144 2321 145 2321 146 2321 147 2321 148 2321 149 2321 150 2321 151 2321 152 2321 153 2321 154 2321 155 2321 156 2321 157 2321 158 2321 159 2321 160 2321 161 2321 162 2321 163 2321 164 2321 165 2321 166 2321 167 2321 168 2321 169 2321 170 2321 171 2321 172 2321 173 2321 174 2321 175 2321 176 2321 177 2321 178 2321 179 2321 180 2321 181 2321 182 2321 183 2321 184 2321 185 2321 186 2321 187 2321 188 2321 189 2321 190 2321 191 2321 192 2321 193 2321 194 2321 195 2321 196 2321 197 2321 198 2321 199 2321 200 2321 201 2321 202 2321 203 2321 204 2321 205 2321 206 2321 207 2321 208 2321 209 2321 210 2321 211 2321 212 2321 213 2321 214 2321 215 2321 216 2321 217 2321 218 2321 219 2321 220 2321 221 2321 222 2321 223 2321 224 2321 225 2321 226 2321 227 2321 228 2321 229 2321 230 2321 231 2321 232 2321 233 2321 234 2321 235 2321 236 2321 237 2321 238 2321 239 2321 240 2321 241 2321 242 2321 243 2321 244 2321 245 2321 246 2321 247 2321 248 2321 249 2321 250 2321 251 2321 252 2321 253 2321 254 2321 255 2321 256 2321 257 2321 258 2321 259 2321 260 2321 261 2321 262 2321 263 2321 264 2321 265 2321 266 2321 267 2321 268 2321 269 2321 270 2321 271 2321 272 2321 273 2321 274 2321 275 2321 276 2321 277 2321 278 2321 279 2321 280 2321 281 2321 282 2321 283 2321 284 2321 285 2321 286 2321 287 2321 288 2321 289 2321 290 2321 291 2321 292 2321 293 2321 294 2321 295 2321 296 2321 297 2321 298 2321 299 2321 300 2321 301 2321 302 2321 303 2321 304 2321 305 2321 306 2321 307 2321 308 2321 309 2321 310 2321 311 2321 312 2321 313 2321 314 2321 315 2321 316 2321 317 2321 318 2321 319 2321 320 2321 321 2321 322 2321 323 2321 324 2321 325 2321 326 2321 327 2321 328 2321 329 2321 330 2321 331 2321 332 2321 333 2321 334 2321 335 2321 336 2321 337 2321 338 2321 339 2321 340 2321 341 2321 342 2321 343 2321 344 2321 345 2321 346 2321 347 2321 348 2321 349 2321 350 2321 351 2321 352 2321 353 2321 354 2321 355 2321 356 2321 357 2321 358 2321 359 2321 360 2321 361 2321 362 2321 363 2321 364 2321 365 2321 366 2321 367 2321 368 2321 369 2321 370 2321 371 2321 372 2321 373 2321 374 2321 375 2321 376 2321 377 2321 378 2321 379 2321 380 2321 381 2321 382 2321 383 2321 384 2321 385 2321 386 2321 387 2321 388 2321 389 2321 390 2321 391 2321 392 2321 393 2321 394 2321 395 2321 396 2321 397 2321 398 2321 399 2321 400 2321 401 2321 402 2321 403 2321 404 2321 405 2321 406 2321 407 2321 408 2321 409 2321 410 2321 411 2321 412 2321 413 2321 414 2321 415 2321 416 2321 417 2321 418 2321 419 2321 420 2321 421 2321 422 2321 423 2321 424 2321 425 2321 426 2321 427 2321 428 2321 429 2321 430 2321 431 2321 432 2321 433 2321 434 2321 435 2321 436 2321 437 2321 438 2321 439 2321 440 2321 441 2321 442 2321 443 2321 444 2321 445 2321 446 2321 447 2321 448 2321 449 2321 450 2321 451 2321 452 2321 453 2321 454 2321 455 2321 456 2321 457 2321 458 2321 459 2321 460 2321 461 2321 462 2321 463 2321 464 2321 465 2321 466 2321 467 2321 468 2321 469 2321 470 2321 471 2321 472 2321 473 2321 474 2321 475 2321 476 2321 477 2321 478 2321 479 2321 480 2321 481 2321 482 2321 483 2321 484 2321 485 2321 486 2321 487 2321 488 2321 489 2321 490 2321 491 2321 492 2321 493 2321 494 2321 495 2321 496 2321 497 2321 498 2321 499 2321 500 2321 501 2321 502 2321 503 2321 504 2321 505 2321 506 2321 507 2321 508 2321 509 2321 510 2321 511 2321 512 2321 513 2321 514 2321 515 2321 516 2321 517 2321 518 2321 519 2321 520 2321 521 2321 522 2321 523 2321 524 2321 525 2321 526 2321 527 2321 528 2321 529 2321 530 2321 531 2321 532 2321 533 2321 534 2321 535 2321 536 2321 537 2321 538 2321 539 2321 540 2321 541 2321 542 2321 543 2321 544 2321 545 2321 546 2321 547 2321 548 2321 549 2321 550 2321 551 2321 552 2321 553 2321 554 2321 555 2321 556 2321 557 2321 558 2321 559 2321 560 2321 561 2321 562 2321 563 2321 564 2321 565 2321 566 2321 567 2321 568 2321 569 2321 570 2321 571 2321 572 2321 573 2321 574 2321 575 2321 576 2321 577 2321 578 2321 579 2321 580 2321 581 2321 582 2321 583 2321 584 2321 585 2321 586 2321 587 2321 588 2321 589 2321 590 2321 591 2321 592 2321 593 2321 594 2321 595 2321 596 2321 597 2321 598 2321 599 2321 600 2321 601 2321 602 2321 603 2321 604 2321 605 2321 606 2321 607 2321 608 2321 609 2321 610 2321 611 2321 612 2321 613 2321 614 2321 615 2321 616 2321 617 2321 618 2321 619 2321 620 2321 621 2321 622 2321 623 2321 624 2321 625 2321 626 2321 627 2321 628 2321 629 2321 630 2321 631 2321 632 2321 633 2321 634 2321 635 2321 636 2321 637 2321 638 2321 639 2321 640 2321 641 2321 642 2321 643 2321 644 2321 645 2321 646 2321 647 2321 648 2321 649 2321 650 2321 651 2321 652 2321 653 2321 654 2321 655 2321 656 2321 657 2321 658 2321 659 2321 660 2321 661 2321 662 2321 663 2321 664 2321 665 2321 666 2321 667 2321 668 2321 669 2321 670 2321 671 2321 672 2321 673 2321 674 2321 675 2321 676 2321 677 2321 678 2321 679 2321 680 2321 681 2321 682 2321 683 2321 684 2321 685 2321 686 2321 687 2321 688 2321 689 2321 690 2321 691 2321 692 2321 693 2321 694 2321 695 2321 696 2321 697 2321 698 2321 699 2321 700 2321 701 2321 702 2321 703 2321 704 2321 705 2321 706 2321 707 2321 708 2321 709 2321 710 2321 711 2321 712 2321 713 2321 714 2321 715 2321 716 2321 717 2321 718 2321 719 2321 720 2321 721 2321 722 2321 723 2321 724 2321 725 2321 726 2321 727 2321 728 2321 729 2321 730 2321 731 2321 732 2321 733 2321 734 2321 735 2321 736 2321 737 2321 738 2321 739 2321 740 2321 741 2321 742 2321 743 2321 744 2321 745 2321 746 2321 747 2321 748 2321 749 2321 750 2321 751 2321 752 2321 753 2321 754 2321 755 2321 756 2321 757 2321 758 2321 759 2321 760 2321 761 2321 762 2321 763 2321 764 2321 765 2321 766 2321 767 2321 768 2321 769 2321 770 2321 771 2321 772 2321 773 2321 774 2321 775 2321 776 2321 777 2321 778 2321 779 2321 780 2321 781 2321 782 2321 783 2321 784 2321 785 2321 786 2321 787 2321 788 2321 789 2321 790 2321 791 2321 792 2321 793 2321 794 2321 795 2321 796 2321 797 2321 798 2321 799 2321 800 2321 801 2321 802 2321 803 2321 804 2321 805 2321 806 2321 807 2321 808 2321 809 2321 810 2321 811 2321 812 2321 813 2321 814 2321 815 2321 816 2321 817 2321 818 2321 819 2321 820 2321 821 2321 822 2321 823 2321 824 2321 825 2321 826 2321 827 2321 828 2321 829 2321 830 2321 831 2321 832 2321 833 2321 834 2321 835 2321 836 2321 837 2321 838 2321 839 2321 840 2321 841 2321 842 2321 843 2321 844 2321 845 2321 846 2321 847 2321 848 2321 849 2321 850 2321 851 2321 852 2321 853 2321 854 2321 855 2321 856 2321 857 2321 858 2321 859 2321 860 2321 861 2321 862 2321 863 2321 864 2321 865 2321 866 2321 867 2321 868 2321 869 2321 870 2321 871 2321 872 2321 873 2321 874 2321 875 2321 876 2321 877 2321 878 2321 879 2321 880 2321 881 2321 882 2321 883 2321 884 2321 885 2321 886 2321 887 2321 888 2321 889 2321 890 2321 891 2321 892 2321 893 2321 894 2321 895 2321 896 2321 897 2321 898 2321 899 2321 900 2321 901 2321 902 2321 903 2321 904 2321 905 2321 906 2321 907 2321 908 2321 909 2321 910 2321 911 2321 912 2321 913 2321 914 2321 915 2321 916 2321 917 2321 918 2321 919 2321 920 2321 921 2321 922 2321 923 2321 924 2321 925 2321 926 2321 927 2321 928 2321 929 2321 930 2321 931 2321 932 2321 933 2321 934 2321 935 2321 936 2321 937 2321 938 2321 939 2321 940 2321 941 2321 942 2321 943 2321 944 2321 945 2321 946 2321 947 2321 948 2321 949 2321 950 2321 951 2321 952 2321 953 2321 954 2321 955 2321 956 2321 957 2321 958 2321 959 2321 960 2321 961 2321 962 2321 963 2321 964 2321 965 2321 966 2321 967 2321 968 2321 969 2321 970 2321 971 2321 972 2321 973 2321 974 2321 975 2321 976 2321 977 2321 978 2321 979 2321 980 2321 981 2321 982 2321 983 2321 984 2321 985 2321 986 2321 987 2321 988 2321 989 2321 990 2321 991 2321 992 2321 993 2321 994 2321 995 2321 996 2321 997 2321 998 2321 999 2321 1000 2321 1001 2321 1002 2321 1003 2321 1004 2321 1005 2321 1006 2321 1007 2321 1008 2321 1009 2321 1010 2321 1011 2321 1012 2321 1013 2321 1014 2321 1015 2321 1016 2321 1017 2321 1018 2321 1019 2321 1020 2321 1021 2321 1022 2321 1023 2321 1024 2321 1025 2321 1026 2321 1027 2321 1028 2321 1029 2321 1030 2321 1031 2321 1032 2321 1033 2321 1034 2321 1035 2321 1036 2321 1037 2321 1038 2321 1039 2321 1040 2321 1041 2321 1042 2321 1043 2321 1044 2321 1045 2321 1046 2321 1047 2321 1048 2321 1049 2321 1050 2321 1051 2321 1052 2321 1053 2321 1054 2321 1055 2321 1056 2321 1057 2321 1058 2321 1059 2321 1060 2321 1061 2321 1062 2321 1063 2321 1064 2321 1065 2321 1066 2321 1067 2321 1068 2321 1069 2321 1070 2321 1071 2321 1072 2321 1073 2321 1074 2321 1075 2321 1076 2321 1077 2321 1078 2321 1079 2321 1080 2321 1081 2321 1082 2321 1083 2321 1084 2321 1085 2321 1086 2321 1087 2321 1088 2321 1089 2321 1090 2321 1091 2321 1092 2321 1093 2321 1094 2321 1095 2321 1096 2321 1097 2321 1098 2321 1099 2321 1100 2321 1101 2321 1102 2321 1103 2321 1104 2321 1105 2321 1106 2321 1107 2321 1108 2321 1109 2321 1110 2321 1111 2321 1112 2321 1113 2321 1114 2321 1115 2321 1116 2321 1117 2321 1118 2321 1119 2321 1120 2321 1121 2321 1122 2321 1123 2321 1124 2321 1125 2321 1126 2321 1127 2321 1128 2321 1129 2321 1130 2321 1131 2321 1132 2321 1133 2321 1134 2321 1135 2321 1136 2321 1137 2321 1138 2321 1139 2321 1140 2321 1141 2321 1142 2321 1143 2321 1144 2321 1145 2321 1146 2321 1147 2321 1148 2321 1149 2321 1150 2321 1151 2321 1152 2321 1153 2321 1154 2321 1155 2321 1156 2321 1157 2321 1158 2321 1159 2321 1160 2321 1161 2321 1162 2321 1163 2321 1164 2321 1165 2321 1166 2321 1167 2321 1168 2321 1169 2321 1170 2321 1171 2321 1172 2321 1173 2321 1174 2321 1175 2321 1176 2321 1177 2321 1178 2321 1179 2321 1180 2321 1181 2321 1182 2321 1183 2321 1184 2321 1185 2321 1186 2321 1187 2321 1188 2321 1189 2321 1190 2321 1191 2321 1192 2321 1193 2321 1194 2321 1195 2321 1196 2321 1197 2321 1198 2321 1199 2321 1200 2321 1201 2321 1202 2321 1203 2321 1204 2321 1205 2321 1206 2321 1207 2321 1208 2321 1209 2321 1210 2321 1211 2321 1212 2321 1213 2321 1214 2321 1215 2321 1216 2321 1217 2321 1218 2321 1219 2321 1220 2321 1221 2321 1222 2321 1223 2321 1224 2321 1225 2321 1226 2321 1227 2321 1228 2321 1229 2321 1230 2321 1231 2321 1232 2321 1233 2321 1234 2321 1235 2321 1236 2321 1237 2321 1238 2321 1239 2321 1240 2321 1241 2321 1242 2321 1243 2321 1244 2321 1245 2321 1246 2321 1247 2321 1248 2321 1249 2321 1250 2321 1251 2321 1252 2321 1253 2321 1254 2321 1255 2321 1256 2321 1257 2321 1258 2321 1259 2321 1260 2321 1261 2321 1262 2321 1263 2321 1264 2321 1265 2321 1266 2321 1267 2321 1268 2321 1269 2321 1270 2321 1271 2321 1272 2321 1273 2321 1274 2321 1275 2321 1276 2321 1277 2321 1278 2321 1279 2321 1280 2321 1281 2321 1282 2321 1283 2321 1284 2321 1285 2321 1286 2321 1287 2321 1288 2321 1289 2321 1290 2321 1291 2321 1292 2321 1293 2321 1294 2321 1295 2321 1296 2321 1297 2321 1298 2321 1299 2321 1300 2321 1301 2321 1302 2321 1303 2321 1304 2321 1305 2321 1306 2321 1307 2321 1308 2321 1309 2321 1310 2321 1311 2321 1312 2321 1313 2321 1314 2321 1315 2321 1316 2321 1317 2321 1318 2321 1319 2321 1320 2321 1321 2321 1322 2321 1323 2321 1324 2321 1325 2321 1326 2321 1327 2321 1328 2321 1329 2321 1330 2321 1331 2321 1332 2321 1333 2321 1334 2321 1335 2321 1336 2321 1337 2321 1338 2321 1339 2321 1340 2321 1341 2321 1342 2321 1343 2321 1344 2321 1345 2321 1346 2321 1347 2321 1348 2321 1349 2321 1350 2321 1351 2321 1352 2321 1353 2321 1354 2321 1355 2321 1356 2321 1357 2321 1358 2321 1359 2321 1360 2321 1361 2321 1362 2321 1363 2321 1364 2321 1365 2321 1366 2321 1367 2321 1368 2321 1369 2321 1370 2321 1371 2321 1372 2321 1373 2321 1374 2321 1375 2321 1376 2321 1377 2321 1378 2321 1379 2321 1380 2321 1381 2321 1382 2321 1383 2321 1384 2321 1385 2321 1386 2321 1387 2321 1388 2321 1389 2321 1390 2321 1391 2321 1392 2321 1393 2321 1394 2321 1395 2321 1396 2321 1397 2321 1398 2321 1399 2321 1400 2321 1401 2321 1402 2321 1403 2321 1404 2321 1405 2321 1406 2321 1407 2321 1408 2321 1409 2321 1410 2321 1411 2321 1412 2321 1413 2321 1414 2321 1415 2321 1416 2321 1417 2321 1418 2321 1419 2321 1420 2321 1421 2321 1422 2321 1423 2321 1424 2321 1425 2321 1426 2321 1427 2321 1428 2321 1429 2321 1430 2321 1431 2321 1432 2321 1433 2321 1434 2321 1435 2321 1436 2321 1437 2321 1438 2321 1439 2321 1440 2321 1441 2321 1442 2321 1443 2321 1444 2321 1445 2321 1446 2321 1447 2321 1448 2321 1449 2321 1450 2321 1451 2321 1452 2321 1453 2321 1454 2321 1455 2321 1456 2321 1457 2321 1458 2321 1459 2321 1460 2321 1461 2321 1462 2321 1463 2321 1464 2321 1465 2321 1466 2321 1467 2321 1468 2321 1469 2321 1470 2321 1471 2321 1472 2321 1473 2321 1474 2321 1475 2321 1476 2321 1477 2321 1478 2321 1479 2321 1480 2321 1481 2321 1482 2321 1483 2321 1484 2321 1485 2321 1486 2321 1487 2321 1488 2321 1489 2321 1490 2321 1491 2321 1492 2321 1493 2321 1494 2321 1495 2321 1496 2321 1497 2321 1498 2321 1499 2321 1500 2321 1501 2321 1502 2321 1503 2321 1504 2321 1505 2321 1506 2321 1507 2321 1508 2321 1509 2321 1510 2321 1511 2321 1512 2321 1513 2321 1514 2321 1515 2321 1516 2321 1517 2321 1518 2321 1519 2321 1520 2321 1521 2321 1522 2321 1523 2321 1524 2321 1525 2321 1526 2321 1527 2321 1528 2321 1529 2321 1530 2321 1531 2321 1532 2321 1533 2321 1534 2321 1535 2321 1536 2321 1537 2321 1538 2321 1539 2321 1540 2321 1541 2321 1542 2321 1543 2321 1544 2321 1545 2321 1546 2321 1547 2321 1548 2321 1549 2321 1550 2321 1551 2321 1552 2321 1553 2321 1554 2321 1555 2321 1556 2321 1557 2321 1558 2321 1559 2321 1560 2321 1561 2321 1562 2321 1563 2321 1564 2321 1565 2321 1566 2321 1567 2321 1568 2321 1569 2321 1570 2321 1571 2321 1572 2321 1573 2321 1574 2321 1575 2321 1576 2321 1577 2321 1578 2321 1579 2321 1580 2321 1581 2321 1582 2321 1583 2321 1584 2321 1585 2321 1586 2321 1587 2321 1588 2321 1589 2321 1590 2321 1591 2321 1592 2321 1593 2321 1594 2321 1595 2321 1596 2321 1597 2321 1598 2321 1599 2321 1600 2321 1601 2321 1602 2321 1603 2321 1604 2321 1605 2321 1606 2321 1607 2321 1608 2321 1609 2321 1610 2321 1611 2321 1612 2321 1613 2321 1614 2321 1615 2321 1616 2321 1617 2321 1618 2321 1619 2321 1620 2321 1621 2321 1622 2321 1623 2321 1624 2321 1625 2321 1626 2321 1627 2321 1628 2321 1629 2321 1630 2321 1631 2321 1632 2321 1633 2321 1634 2321 1635 2321 1636 2321 1637 2321 1638 2321 1639 2321 1640 2321 1641 2321 1642 2321 1643 2321 1644 2321 1645 2321 1646 2321 1647 2321 1648 2321 1649 2321 1650 2321 1651 2321 1652 2321 1653 2321 1654 2321 1655 2321 1656 2321 1657 2321 1658 2321 1659 2321 1660 2321 1661 2321 1662 2321 1663 2321 1664 2321 1665 2321 1666 2321 1667 2321 1668 2321 1669 2321 1670 2321 1671 2321 1672 2321 1673 2321 1674 2321 1675 2321 1676 2321 1677 2321 1678 2321 1679 2321 1680 2321 1681 2321 1682 2321 1683 2321 1684 2321 1685 2321 1686 2321 1687 2321 1688 2321 1689 2321 1690 2321 1691 2321 1692 2321 1693 2321 1694 2321 1695 2321 1696 2321 1697 2321 1698 2321 1699 2321 1700 2321 1701 2321 1702 2321 1703 2321 1704 2321 1705 2321 1706 2321 1707 2321 1708 2321 1709 2321 1710 2321 1711 2321 1712 2321 1713 2321 1714 2321 1715 2321 1716 2321 1717 2321 1718 2321 1719 2321 1720 2321 1721 2321 1722 2321 1723 2321 1724 2321 1725 2321 1726 2321 1727 2321 1728 2321 1729 2321 1730 2321 1731 2321 1732 2321 1733 2321 1734 2321 1735 2321 1736 2321 1737 2321 1738 2321 1739 2321 1740 2321 1741 2321 1741 2320 1741 2319 1741 2318 1741 2317 1741 2316 1741 2315 1741 2314 1741 2313 1741 2312 1741 2311 1741 2310 1741 2309 1741 2308 1741 2307 1741 2306 1741 2305 1741 2304 1741 2303 1741 2302 1741 2301 1741 2300 1741 2299 1741 2298 1741 2297 1741 2296 1741 2295 1741 2294 1741 2293 1741 2292 1741 2291 1741 2290 1741 2289 1741 2288 1741 2287 1741 2286 1741 2285 1741 2284 1741 2283 1741 2282 1741 2281 1741 2280 1741 2279 1741 2278 1741 2277 1741 2276 1741 2275 1741 2274 1741 2273 1741 2272 1741 2271 1741 2270 1741 2269 1741 2268 1741 2267 1741 2266 1741 2265 1741 2264 1741 2263 1741 2262 1741 2261 1741 2260 1741 2259 1741 2258 1741 2257 1741 2256 1741 2255 1741 2254 1741 2253 1741 2252 1741 2251 1741 2250 1741 2249 1741 2248 1741 2247 1741 2246 1741 2245 1741 2244 1741 2243 1741 2242 1741 2241 1741 2240 1741 2239 1741 2238 1741 2237 1741 2236 1741 2235 1741 2234 1741 2233 1741 2232 1741 2231 1741 2230 1741 2229 1741 2228 1741 2227 1741 2226 1741 2225 1741 2224 1741 2223 1741 2222 1741 2221 1741 2220 1741 2219 1741 2218 1741 2217 1741 2216 1741 2215 1741 2214 1741 2213 1741 2212 1741 2211 1741 2210 1741 2209 1741 2208 1741 2207 1741 2206 1741 2205 1741 2204 1741 2203 1741 2202 1741 2201 1741 2200 1741 2199 1741 2198 1741 2197 1741 2196 1741 2195 1741 2194 1741 2193 1741 2192 1741 2191 1741 2190 1741 2189 1741 2188 1741 2187 1741 2186 1741 2185 1741 2184 1741 2183 1741 2182 1741 2181 1741 2180 1741 2179 1741 2178 1741 2177 1741 2176 1741 2175 1741 2174 1741 2173 1741 2172 1741 2171 1741 2170 1741 2169 1741 2168 1741 2167 1741 2166 1741 2165 1741 2164 1741 2163 1741 2162 1741 2161 1741 2160 1741 2159 1741 2158 1741 2157 1741 2156 1741 2155 1741 2154 1741 2153 1741 2152 1741 2151 1741 2150 1741 2149 1741 2148 1741 2147 1741 2146 1741 2145 1741 2144 1741 2143 1741 2142 1741 2141 1741 2140 1741 2139 1741 2138 1741 2137 1741 2136 1741 2135 1741 2134 1741 2133 1741 2132 1741 2131 1741 2130 1741 2129 1741 2128 1741 2127 1741 2126 1741 2125 1741 2124 1741 2123 1741 2122 1741 2121 1741 2120 1741 2119 1741 2118 1741 2117 1741 2116 1741 2115 1741 2114 1741 2113 1741 2112 1741 2111 1741 2110 1741 2109 1741 2108 1741 2107 1741 2106 1741 2105 1741 2104 1741 2103 1741 2102 1741 2101 1741 2100 1741 2099 1741 2098 1741 2097 1741 2096 1741 2095 1741 2094 1741 2093 1741 2092 1741 2091 1741 2090 1741 2089 1741 2088 1741 2087 1741 2086 1741 2085 1741 2084 1741 2083 1741 2082 1741 2081 1741 2080 1741 2079 1741 2078 1741 2077 1741 2076 1741 2075 1741 2074 1741 2073 1741 2072 1741 2071 1741 2070 1741 2069 1741 2068 1741 2067 1741 2066 1741 2065 1741 2064 1741 2063 1741 2062 1741 2061 1741 2060 1741 2059 1741 2058 1741 2057 1741 2056 1741 2055 1741 2054 1741 2053 1741 2052 1741 2051 1741 2050 1741 2049 1741 2048 1741 2047 1741 2046 1741 2045 1741 2044 1741 2043 1741 2042 1741 2041 1741 2040 1741 2039 1741 2038 1741 2037 1741 2036 1741 2035 1741 2034 1741 2033 1741 2032 1741 2031 1741 2030 1741 2029 1741 2028 1741 2027 1741 2026 1741 2025 1741 2024 1741 2023 1741 2022 1741 2021 1741 2020 1741 2019 1741 2018 1741 2017 1741 2016 1741 2015 1741 2014 1741 2013 1741 2012 1741 2011 1741 2010 1741 2009 1741 2008 1741 2007 1741 2006 1741 2005 1741 2004 1741 2003 1741 2002 1741 2001 1741 2000 1741 1999 1741 1998 1741 1997 1741 1996 1741 1995 1741 1994 1741 1993 1741 1992 1741 1991 1741 1990 1741 1989 1741 1988 1741 1987 1741 1986 1741 1985 1741 1984 1741 1983 1741 1982 1741 1981 1741 1980 1741 1979 1741 1978 1741 1977 1741 1976 1741 1975 1741 1974 1741 1973 1741 1972 1741 1971 1741 1970 1741 1969 1741 1968 1741 1967 1741 1966 1741 1965 1741 1964 1741 1963 1741 1962 1741 1961 1741 1960 1741 1959 1741 1958 1741 1957 1741 1956 1741 1955 1741 1954 1741 1953 1741 1952 1741 1951 1741 1950 1741 1949 1741 1948 1741 1947 1741 1946 1741 1945 1741 1944 1741 1943 1741 1942 1741 1941 1741 1940 1741 1939 1741 1938 1741 1937 1741 1936 1741 1935 1741 1934 1741 1933 1741 1932 1741 1931 1741 1930 1741 1929 1741 1928 1741 1927 1741 1926 1741 1925 1741 1924 1741 1923 1741 1922 1741 1921 1741 1920 1741 1919 1741 1918 1741 1917 1741 1916 1741 1915 1741 1914 1741 1913 1741 1912 1741 1911 1741 1910 1741 1909 1741 1908 1741 1907 1741 1906 1741 1905 1741 1904 1741 1903 1741 1902 1741 1901 1741 1900 1741 1899 1741 1898 1741 1897 1741 1896 1741 1895 1741 1894 1741 1893 1741 1892 1741 1891 1741 1890 1741 1889 1741 1888 1741 1887 1741 1886 1741 1885 1741 1884 1741 1883 1741 1882 1741 1881 1741 1880 1741 1879 1741 1878 1741 1877 1741 1876 1741 1875 1741 1874 1741 1873 1741 1872 1741 1871 1741 1870 1741 1869 1741 1868 1741 1867 1741 1866 1741 1865 1741 1864 1741 1863 1741 1862 1741 1861 1741 1860 1741 1859 1741 1858 1741 1857 1741 1856 1741 1855 1741 1854 1741 1853 1741 1852 1741 1851 1741 1850 1741 1849 1741 1848 1741 1847 1741 1846 1741 1845 1741 1844 1741 1843 1741 1842 1741 1841 1741 1840 1741 1839 1741 1838 1741 1837 1741 1836 1741 1835 1741 1834 1741 1833 1741 1832 1741 1831 1741 1830 1741 1829 1741 1828 1741 1827 1741 1826 1741 1825 1741 1824 1741 1823 1741 1822 1741 1821 1741 1820 1741 1819 1741 1818 1741 1817 1741 1816 1741 1815 1741 1814 1741 1813 1741 1812 1741 1811 1741 1810 1741 1809 1741 1808 1741 1807 1741 1806 1741 1805 1741 1804 1741 1803 1741 1802 1741 1801 1741 1800 1741 1799 1741 1798 1741 1797 1741 1796 1741 1795 1741 1794 1741 1793 1741 1792 1741 1791 1741 1790 1741 1789 1741 1788 1741 1787 1741 1786 1741 1785 1741 1784 1741 1783 1741 1782 1741 1781 1741 1780 1741 1779 1741 1778 1741 1777 1741 1776 1741 1775 1741 1774 1741 1773 1741 1772 1741 1771 1741 1770 1741 1769 1741 1768 1741 1767 1741 1766 1741 1765 1741 1764 1741 1763 1741 1762 1741 1761 1741 1760 1741 1759 1741 1758 1741 1757 1741 1756 1741 1755 1741 1754 1741 1753 1741 1752 1741 1751 1741 1750 1741 1749 1741 1748 1741 1747 1741 1746 1741 1745 1741 1744 1741 1743 1741 1742 1741 1741 1741 1740 1741 1739 1741 1738 1741 1737 1741 1736 1741 1735 1741 1734 1741 1733 1741 1732 1741 1731 1741 1730 1741 1729 1741 1728 1741 1727 1741 1726 1741 1725 1741 1724 1741 1723 1741 1722 1741 1721 1741 1720 1741 1719 1741 1718 1741 1717 1741 1716 1741 1715 1741 1714 1741 1713 1741 1712 1741 1711 1741 1710 1741 1709 1741 1708 1741 1707 1741 1706 1741 1705 1741 1704 1741 1703 1741 1702 1741 1701 1741 1700 1741 1699 1741 1698 1741 1697 1741 1696 1741 1695 1741 1694 1741 1693 1741 1692 1741 1691 1741 1690 1741 1689 1741 1688 1741 1687 1741 1686 1741 1685 1741 1684 1741 1683 1741 1682 1741 1681 1741 1680 1741 1679 1741 1678 1741 1677 1741 1676 1741 1675 1741 1674 1741 1673 1741 1672 1741 1671 1741 1670 1741 1669 1741 1668 1741 1667 1741 1666 1741 1665 1741 1664 1741 1663 1741 1662 1741 1661 1741 1660 1741 1659 1741 1658 1741 1657 1741 1656 1741 1655 1741 1654 1741 1653 1741 1652 1741 1651 1741 1650 1741 1649 1741 1648 1741 1647 1741 1646 1741 1645 1741 1644 1741 1643 1741 1642 1741 1641 1741 1640 1741 1639 1741 1638 1741 1637 1741 1636 1741 1635 1741 1634 1741 1633 1741 1632 1741 1631 1741 1630 1741 1629 1741 1628 1741 1627 1741 1626 1741 1625 1741 1624 1741 1623 1741 1622 1741 1621 1741 1620 1741 1619 1741 1618 1741 1617 1741 1616 1741 1615 1741 1614 1741 1613 1741 1612 1741 1611 1741 1610 1741 1609 1741 1608 1741 1607 1741 1606 1741 1605 1741 1604 1741 1603 1741 1602 1741 1601 1741 1600 1741 1599 1741 1598 1741 1597 1741 1596 1741 1595 1741 1594 1741 1593 1741 1592 1741 1591 1741 1590 1741 1589 1741 1588 1741 1587 1741 1586 1741 1585 1741 1584 1741 1583 1741 1582 1741 1581 1741 1580 1741 1579 1741 1578 1741 1577 1741 1576 1741 1575 1741 1574 1741 1573 1741 1572 1741 1571 1741 1570 1741 1569 1741 1568 1741 1567 1741 1566 1741 1565 1741 1564 1741 1563 1741 1562 1741 1561 1741 1560 1741 1559 1741 1558 1741 1557 1741 1556 1741 1555 1741 1554 1741 1553 1741 1552 1741 1551 1741 1550 1741 1549 1741 1548 1741 1547 1741 1546 1741 1545 1741 1544 1741 1543 1741 1542 1741 1541 1741 1540 1741 1539 1741 1538 1741 1537 1741 1536 1741 1535 1741 1534 1741 1533 1741 1532 1741 1531 1741 1530 1741 1529 1741 1528 1741 1527 1741 1526 1741 1525 1741 1524 1741 1523 1741 1522 1741 1521 1741 1520 1741 1519 1741 1518 1741 1517 1741 1516 1741 1515 1741 1514 1741 1513 1741 1512 1741 1511 1741 1510 1741 1509 1741 1508 1741 1507 1741 1506 1741 1505 1741 1504 1741 1503 1741 1502 1741 1501 1741 1500 1741 1499 1741 1498 1741 1497 1741 1496 1741 1495 1741 1494 1741 1493 1741 1492 1741 1491 1741 1490 1741 1489 1741 1488 1741 1487 1741 1486 1741 1485 1741 1484 1741 1483 1741 1482 1741 1481 1741 1480 1741 1479 1741 1478 1741 1477 1741 1476 1741 1475 1741 1474 1741 1473 1741 1472 1741 1471 1741 1470 1741 1469 1741 1468 1741 1467 1741 1466 1741 1465 1741 1464 1741 1463 1741 1462 1741 1461 1741 1460 1741 1459 1741 1458 1741 1457 1741 1456 1741 1455 1741 1454 1741 1453 1741 1452 1741 1451 1741 1450 1741 1449 1741 1448 1741 1447 1741 1446 1741 1445 1741 1444 1741 1443 1741 1442 1741 1441 1741 1440 1741 1439 1741 1438 1741 1437 1741 1436 1741 1435 1741 1434 1741 1433 1741 1432 1741 1431 1741 1430 1741 1429 1741 1428 1741 1427 1741 1426 1741 1425 1741 1424 1741 1423 1741 1422 1741 1421 1741 1420 1741 1419 1741 1418 1741 1417 1741 1416 1741 1415 1741 1414 1741 1413 1741 1412 1741 1411 1741 1410 1741 1409 1741 1408 1741 1407 1741 1406 1741 1405 1741 1404 1741 1403 1741 1402 1741 1401 1741 1400 1741 1399 1741 1398 1741 1397 1741 1396 1741 1395 1741 1394 1741 1393 1741 1392 1741 1391 1741 1390 1741 1389 1741 1388 1741 1387 1741 1386 1741 1385 1741 1384 1741 1383 1741 1382 1741 1381 1741 1380 1741 1379 1741 1378 1741 1377 1741 1376 1741 1375 1741 1374 1741 1373 1741 1372 1741 1371 1741 1370 1741 1369 1741 1368 1741 1367 1741 1366 1741 1365 1741 1364 1741 1363 1741 1362 1741 1361 1741 1360 1741 1359 1741 1358 1741 1357 1741 1356 1741 1355 1741 1354 1741 1353 1741 1352 1741 1351 1741 1350 1741 1349 1741 1348 1741 1347 1741 1346 1741 1345 1741 1344 1741 1343 1741 1342 1741 1341 1741 1340 1741 1339 1741 1338 1741 1337 1741 1336 1741 1335 1741 1334 1741 1333 1741 1332 1741 1331 1741 1330 1741 1329 1741 1328 1741 1327 1741 1326 1741 1325 1741 1324 1741 1323 1741 1322 1741 1321 1741 1320 1741 1319 1741 1318 1741 1317 1741 1316 1741 1315 1741 1314 1741 1313 1741 1312 1741 1311 1741 1310 1741 1309 1741 1308 1741 1307 1741 1306 1741 1305 1741 1304 1741 1303 1741 1302 1741 1301 1741 1300 1741 1299 1741 1298 1741 1297 1741 1296 1741 1295 1741 1294 1741 1293 1741 1292 1741 1291 1741 1290 1741 1289 1741 1288 1741 1287 1741 1286 1741 1285 1741 1284 1741 1283 1741 1282 1741 1281 1741 1280 1741 1279 1741 1278 1741 1277 1741 1276 1741 1275 1741 1274 1741 1273 1741 1272 1741 1271 1741 1270 1741 1269 1741 1268 1741 1267 1741 1266 1741 1265 1741 1264 1741 1263 1741 1262 1741 1261 1741 1260 1741 1259 1741 1258 1741 1257 1741 1256 1741 1255 1741 1254 1741 1253 1741 1252 1741 1251 1741 1250 1741 1249 1741 1248 1741 1247 1741 1246 1741 1245 1741 1244 1741 1243 1741 1242 1741 1241 1741 1240 1741 1239 1741 1238 1741 1237 1741 1236 1741 1235 1741 1234 1741 1233 1741 1232 1741 1231 1741 1230 1741 1229 1741 1228 1741 1227 1741 1226 1741 1225 1741 1224 1741 1223 1741 1222 1741 1221 1741 1220 1741 1219 1741 1218 1741 1217 1741 1216 1741 1215 1741 1214 1741 1213 1741 1212 1741 1211 1741 1210 1741 1209 1741 1208 1741 1207 1741 1206 1741 1205 1741 1204 1741 1203 1741 1202 1741 1201 1741 1200 1741 1199 1741 1198 1741 1197 1741 1196 1741 1195 1741 1194 1741 1193 1741 1192 1741 1191 1741 1190 1741 1189 1741 1188 1741 1187 1741 1186 1741 1185 1741 1184 1741 1183 1741 1182 1741 1181 1741 1180 1741 1179 1741 1178 1741 1177 1741 1176 1741 1175 1741 1174 1741 1173 1741 1172 1741 1171 1741 1170 1741 1169 1741 1168 1741 1167 1741 1166 1741 1165 1741 1164 1741 1163 1741 1162 1741 1161 1741 1160 1741 1159 1741 1158 1741 1157 1741 1156 1741 1155 1741 1154 1741 1153 1741 1152 1741 1151 1741 1150 1741 1149 1741 1148 1741 1147 1741 1146 1741 1145 1741 1144 1741 1143 1741 1142 1741 1141 1741 1140 1741 1139 1741 1138 1741 1137 1741 1136 1741 1135 1741 1134 1741 1133 1741 1132 1741 1131 1741 1130 1741 1129 1741 1128 1741 1127 1741 1126 1741 1125 1741 1124 1741 1123 1741 1122 1741 1121 1741 1120 1741 1119 1741 1118 1741 1117 1741 1116 1741 1115 1741 1114 1741 1113 1741 1112 1741 1111 1741 1110 1741 1109 1741 1108 1741 1107 1741 1106 1741 1105 1741 1104 1741 1103 1741 1102 1741 1101 1741 1100 1741 1099 1741 1098 1741 1097 1741 1096 1741 1095 1741 1094 1741 1093 1741 1092 1741 1091 1741 1090 1741 1089 1741 1088 1741 1087 1741 1086 1741 1085 1741 1084 1741 1083 1741 1082 1741 1081 1741 1080 1741 1079 1741 1078 1741 1077 1741 1076 1741 1075 1741 1074 1741 1073 1741 1072 1741 1071 1741 1070 1741 1069 1741 1068 1741 1067 1741 1066 1741 1065 1741 1064 1741 1063 1741 1062 1741 1061 1741 1060 1741 1059 1741 1058 1741 1057 1741 1056 1741 1055 1741 1054 1741 1053 1741 1052 1741 1051 1741 1050 1741 1049 1741 1048 1741 1047 1741 1046 1741 1045 1741 1044 1741 1043 1741 1042 1741 1041 1741 1040 1741 1039 1741 1038 1741 1037 1741 1036 1741 1035 1741 1034 1741 1033 1741 1032 1741 1031 1741 1030 1741 1029 1741 1028 1741 1027 1741 1026 1741 1025 1741 1024 1741 1023 1741 1022 1741 1021 1741 1020 1741 1019 1741 1018 1741 1017 1741 1016 1741 1015 1741 1014 1741 1013 1741 1012 1741 1011 1741 1010 1741 1009 1741 1008 1741 1007 1741 1006 1741 1005 1741 1004 1741 1003 1741 1002 1741 1001 1741 1000 1741 999 1741 998 1741 997 1741 996 1741 995 1741 994 1741 993 1741 992 1741 991 1741 990 1741 989 1741 988 1741 987 1741 986 1741 985 1741 984 1741 983 1741 982 1741 981 1741 980 1741 979 1741 978 1741 977 1741 976 1741 975 1741 974 1741 973 1741 972 1741 971 1741 970 1741 969 1741 968 1741 967 1741 966 1741 965 1741 964 1741 963 1741 962 1741 961 1741 960 1741 959 1741 958 1741 957 1741 956 1741 955 1741 954 1741 953 1741 952 1741 951 1741 950 1741 949 1741 948 1741 947 1741 946 1741 945 1741 944 1741 943 1741 942 1741 941 1741 940 1741 939 1741 938 1741 937 1741 936 1741 935 1741 934 1741 933 1741 932 1741 931 1741 930 1741 929 1741 928 1741 927 1741 926 1741 925 1741 924 1741 923 1741 922 1741 921 1741 920 1741 919 1741 918 1741 917 1741 916 1741 915 1741 914 1741 913 1741 912 1741 911 1741 910 1741 909 1741 908 1741 907 1741 906 1741 905 1741 904 1741 903 1741 902 1741 901 1741 900 1741 899 1741 898 1741 897 1741 896 1741 895 1741 894 1741 893 1741 892 1741 891 1741 890 1741 889 1741 888 1741 887 1741 886 1741 885 1741 884 1741 883 1741 882 1741 881 1741 880 1741 879 1741 878 1741 877 1741 876 1741 875 1741 874 1741 873 1741 872 1741 871 1741 870 1741 869 1741 868 1741 867 1741 866 1741 865 1741 864 1741 863 1741 862 1741 861 1741 860 1741 859 1741 858 1741 857 1741 856 1741 855 1741 854 1741 853 1741 852 1741 851 1741 850 1741 849 1741 848 1741 847 1741 846 1741 845 1741 844 1741 843 1741 842 1741 841 1741 840 1741 839 1741 838 1741 837 1741 836 1741 835 1741 834 1741 833 1741 832 1741 831 1741 830 1741 829 1741 828 1741 827 1741 826 1741 825 1741 824 1741 823 1741 822 1741 821 1741 820 1741 819 1741 818 1741 817 1741 816 1741 815 1741 814 1741 813 1741 812 1741 811 1741 810 1741 809 1741 808 1741 807 1741 806 1741 805 1741 804 1741 803 1741 802 1741 801 1741 800 1741 799 1741 798 1741 797 1741 796 1741 795 1741 794 1741 793 1741 792 1741 791 1741 790 1741 789 1741 788 1741 787 1741 786 1741 785 1741 784 1741 783 1741 782 1741 781 1741 780 1741 779 1741 778 1741 777 1741 776 1741 775 1741 774 1741 773 1741 772 1741 771 1741 770 1741 769 1741 768 1741 767 1741 766 1741 765 1741 764 1741 763 1741 762 1741 761 1741 760 1741 759 1741 758 1741 757 1741 756 1741 755 1741 754 1741 753 1741 752 1741 751 1741 750 1741 749 1741 748 1741 747 1741 746 1741 745 1741 744 1741 743 1741 742 1741 741 1741 740 1741 739 1741 738 1741 737 1741 736 1741 735 1741 734 1741 733 1741 732 1741 731 1741 730 1741 729 1741 728 1741 727 1741 726 1741 725 1741 724 1741 723 1741 722 1741 721 1741 720 1741 719 1741 718 1741 717 1741 716 1741 715 1741 714 1741 713 1741 712 1741 711 1741 710 1741 709 1741 708 1741 707 1741 706 1741 705 1741 704 1741 703 1741 702 1741 701 1741 700 1741 699 1741 698 1741 697 1741 696 1741 695 1741 694 1741 693 1741 692 1741 691 1741 690 1741 689 1741 688 1741 687 1741 686 1741 685 1741 684 1741 683 1741 682 1741 681 1741 680 1741 679 1741 678 1741 677 1741 676 1741 675 1741 674 1741 673 1741 672 1741 671 1741 670 1741 669 1741 668 1741 667 1741 666 1741 665 1741 664 1741 663 1741 662 1741 661 1741 660 1741 659 1741 658 1741 657 1741 656 1741 655 1741 654 1741 653 1741 652 1741 651 1741 650 1741 649 1741 648 1741 647 1741 646 1741 645 1741 644 1741 643 1741 642 1741 641 1741 640 1741 639 1741 638 1741 637 1741 636 1741 635 1741 634 1741 633 1741 632 1741 631 1741 630 1741 629 1741 628 1741 627 1741 626 1741 625 1741 624 1741 623 1741 622 1741 621 1741 620 1741 619 1741 618 1741 617 1741 616 1741 615 1741 614 1741 613 1741 612 1741 611 1741 610 1741 609 1741 608 1741 607 1741 606 1741 605 1741 604 1741 603 1741 602 1741 601 1741 600 1741 599 1741 598 1741 597 1741 596 1741 595 1741 594 1741 593 1741 592 1741 591 1741 590 1741 589 1741 588 1741 587 1741 586 1741 585 1741 584 1741 583 1741 582 1741 581 1741 580 1741 579 1741 578 1741 577 1741 576 1741 575 1741 574 1741 573 1741 572 1741 571 1741 570 1741 569 1741 568 1741 567 1741 566 1741 565 1741 564 1741 563 1741 562 1741 561 1741 560 1741 559 1741 558 1741 557 1741 556 1741 555 1741 554 1741 553 1741 552 1741 551 1741 550 1741 549 1741 548 1741 547 1741 546 1741 545 1741 544 1741 543 1741 542 1741 541 1741 540 1741 539 1741 538 1741 537 1741 536 1741 535 1741 534 1741 533 1741 532 1741 531 1741 530 1741 529 1741 528 1741 527 1741 526 1741 525 1741 524 1741 523 1741 522 1741 521 1741 520 1741 519 1741 518 1741 517 1741 516 1741 515 1741 514 1741 513 1741 512 1741 511 1741 510 1741 509 1741 508 1741 507 1741 506 1741 505 1741 504 1741 503 1741 502 1741 501 1741 500 1741 499 1741 498 1741 497 1741 496 1741 495 1741 494 1741 493 1741 492 1741 491 1741 490 1741 489 1741 488 1741 487 1741 486 1741 485 1741 484 1741 483 1741 482 1741 481 1741 480 1741 479 1741 478 1741 477 1741 476 1741 475 1741 474 1741 473 1741 472 1741 471 1741 470 1741 469 1741 468 1741 467 1741 466 1741 465 1741 464 1741 463 1741 462 1741 461 1741 460 1741 459 1741 458 1741 457 1741 456 1741 455 1741 454 1741 453 1741 452 1741 451 1741 450 1741 449 1741 448 1741 447 1741 446 1741 445 1741 444 1741 443 1741 442 1741 441 1741 440 1741 439 1741 438 1741 437 1741 436 1741 435 1741 434 1741 433 1741 432 1741 431 1741 430 1741 429 1741 428 1741 427 1741 426 1741 425 1741 424 1741 423 1741 422 1741 421 1741 420 1741 419 1741 418 1741 417 1741 416 1741 415 1741 414 1741 413 1741 412 1741 411 1741 410 1741 409 1741 408 1741 407 1741 406 1741 405 1741 404 1741 403 1741 402 1741 401 1741 400 1741 399 1741 398 1741 397 1741 396 1741 395 1741 394 1741 393 1741 392 1741 391 1741 390 1741 389 1741 388 1741 387 1741 386 1741 385 1741 384 1741 383 1741 382 1741 381 1741 380 1741 379 1741 378 1741 377 1741 376 1741 375 1741 374 1741 373 1741 372 1741 371 1741 370 1741 369 1741 368 1741 367 1741 366 1741 365 1741 364 1741 363 1741 362 1741 361 1741 360 1741 359 1741 358 1741 357 1741 356 1741 355 1741 354 1741 353 1741 352 1741 351 1741 350 1741 349 1741 348 1741 347 1741 346 1741 345 1741 344 1741 343 1741 342 1741 341 1741 340 1741 339 1741 338 1741 337 1741 336 1741 335 1741 334 1741 333 1741 332 1741 331 1741 330 1741 329 1741 328 1741 327 1741 326 1741 325 1741 324 1741 323 1741 322 1741 321 1741 320 1741 319 1741 318 1741 317 1741 316 1741 315 1741 314 1741 313 1741 312 1741 311 1741 310 1741 309 1741 308 1741 307 1741 306 1741 305 1741 304 1741 303 1741 302 1741 301 1741 300 1741 299 1741 298 1741 297 1741 296 1741 295 1741 294 1741 293 1741 292 1741 291 1741 290 1741 289 1741 288 1741 287 1741 286 1741 285 1741 284 1741 283 1741 282 1741 281 1741 280 1741 279 1741 278 1741 277 1741 276 1741 275 1741 274 1741 273 1741 272 1741 271 1741 270 1741 269 1741 268 1741 267 1741 266 1741 265 1741 264 1741 263 1741 262 1741 261 1741 260 1741 259 1741 258 1741 257 1741 256 1741 255 1741 254 1741 253 1741 252 1741 251 1741 250 1741 249 1741 248 1741 247 1741 246 1741 245 1741 244 1741 243 1741 242 1741 241 1741 240 1741 239 1741 238 1741 237 1741 236 1741 235 1741 234 1741 233 1741 232 1741 231 1741 230 1741 229 1741 228 1741 227 1741 226 1741 225 1741 224 1741 223 1741 222 1741 221 1741 220 1741 219 1741 218 1741 217 1741 216 1741 215 1741 214 1741 213 1741 212 1741 211 1741 210 1741 209 1741 208 1741 207 1741 206 1741 205 1741 204 1741 203 1741 202 1741 201 1741 200 1741 199 1741 198 1741 197 1741 196 1741 195 1741 194 1741 193 1741 192 1741 191 1741 190 1741 189 1741 188 1741 187 1741 186 1741 185 1741 184 1741 183 1741 182 1741 181 1741 180 1741 179 1741 178 1741 177 1741 176 1741 175 1741 174 1741 173 1741 172 1741 171 1741 170 1741 169 1741 168 1741 167 1741 166 1741 165 1741 164 1741 163 1741 162 1741 161 1741 160 1741 159 1741 158 1741 157 1741 156 1741 155 1741 154 1741 153 1741 152 1741 151 1741 150 1741 149 1741 148 1741 147 1741 146 1741 145 1741 144 1741 143 1741 142 1741 141 1741 140 1741 139 1741 138 1741 137 1741 136 1741 135 1741 134 1741 133 1741 132 1741 131 1741 130 1741 129 1741 128 1741 127 1741 126 1741 125 1741 124 1741 123 1741 122 1741 121 1741 120 1741 119 1741 118 1741 117 1741 116 1741 115 1741 114 1741 113 1741 112 1741 111 1741 110 1741 109 1741 108 1741 107 1741 106 1741 105 1741 104 1741 103 1741 102 1741 101 1741 100 1741 99 1741 98 1741 97 1741 96 1741 95 1741 94 1741 93 1741 92 1741 91 1741 90 1741 89 1741 88 1741 87 1741 86 1741 85 1741 84 1741 83 1741 82 1741 81 1741 80 1741 79 1741 78 1741 77 1741 76 1741 75 1741 74 1741 73 1741 72 1741 71 1741 70 1741 69 1741 68 1741 67 1741 66 1741 65 1741 64 1741 63 1741 62 1741 61 1741 60 1741 59 1741 58 1741 57 1741 56 1741 55 1741 54 1741 53 1741 52 1741 51 1741 50 1741 49 1741 48 1741 47 1741 46 1741 45 1741 44 1741 43 1741 42 1741 41 1741 40 1741 39 1741 38 1741 37 1741 36 1741 35 1741 34 1741 33 1741 32 1741 31 1741 30 1741 29 1741 28 1741 27 1741 26 1741 25 1741 24 1741 23 1741 22 1741 21 1741 20 1741 19 1741 18 1741 17 1741 16 1741 15 1741 14 1741 13 1741 12 1741 11 1741 10 1741 9 1741 8 1741 7 1741 6 1741 5 1741 4 1741 3 1741 2 1741 1 1741 0 1740 0 1739 0 1738 0 1737 0 1736 0 1735 0 1734 0 1733 0 1732 0 1731 0 1730 0 1729 0 1728 0 1727 0 1726 0 1725 0 1724 0 1723 0 1722 0 1721 0 1720 0 1719 0 1718 0 1717 0 1716 0 1715 0 1714 0 1713 0 1712 0 1711 0 1710 0 1709 0 1708 0 1707 0 1706 0 1705 0 1704 0 1703 0 1702 0 1701 0 1700 0 1699 0 1698 0 1697 0 1696 0 1695 0 1694 0 1693 0 1692 0 1691 0 1690 0 1689 0 1688 0 1687 0 1686 0 1685 0 1684 0 1683 0 1682 0 1681 0 1680 0 1679 0 1678 0 1677 0 1676 0 1675 0 1674 0 1673 0 1672 0 1671 0 1670 0 1669 0 1668 0 1667 0 1666 0 1665 0 1664 0 1663 0 1662 0 1661 0 1660 0 1659 0 1658 0 1657 0 1656 0 1655 0 1654 0 1653 0 1652 0 1651 0 1650 0 1649 0 1648 0 1647 0 1646 0 1645 0 1644 0 1643 0 1642 0 1641 0 1640 0 1639 0 1638 0 1637 0 1636 0 1635 0 1634 0 1633 0 1632 0 1631 0 1630 0 1629 0 1628 0 1627 0 1626 0 1625 0 1624 0 1623 0 1622 0 1621 0 1620 0 1619 0 1618 0 1617 0 1616 0 1615 0 1614 0 1613 0 1612 0 1611 0 1610 0 1609 0 1608 0 1607 0 1606 0 1605 0 1604 0 1603 0 1602 0 1601 0 1600 0 1599 0 1598 0 1597 0 1596 0 1595 0 1594 0 1593 0 1592 0 1591 0 1590 0 1589 0 1588 0 1587 0 1586 0 1585 0 1584 0 1583 0 1582 0 1581 0 1580 0 1579 0 1578 0 1577 0 1576 0 1575 0 1574 0 1573 0 1572 0 1571 0 1570 0 1569 0 1568 0 1567 0 1566 0 1565 0 1564 0 1563 0 1562 0 1561 0 1560 0 1559 0 1558 0 1557 0 1556 0 1555 0 1554 0 1553 0 1552 0 1551 0 1550 0 1549 0 1548 0 1547 0 1546 0 1545 0 1544 0 1543 0 1542 0 1541 0 1540 0 1539 0 1538 0 1537 0 1536 0 1535 0 1534 0 1533 0 1532 0 1531 0 1530 0 1529 0 1528 0 1527 0 1526 0 1525 0 1524 0 1523 0 1522 0 1521 0 1520 0 1519 0 1518 0 1517 0 1516 0 1515 0 1514 0 1513 0 1512 0 1511 0 1510 0 1509 0 1508 0 1507 0 1506 0 1505 0 1504 0 1503 0 1502 0 1501 0 1500 0 1499 0 1498 0 1497 0 1496 0 1495 0 1494 0 1493 0 1492 0 1491 0 1490 0 1489 0 1488 0 1487 0 1486 0 1485 0 1484 0 1483 0 1482 0 1481 0 1480 0 1479 0 1478 0 1477 0 1476 0 1475 0 1474 0 1473 0 1472 0 1471 0 1470 0 1469 0 1468 0 1467 0 1466 0 1465 0 1464 0 1463 0 1462 0 1461 0 1460 0 1459 0 1458 0 1457 0 1456 0 1455 0 1454 0 1453 0 1452 0 1451 0 1450 0 1449 0 1448 0 1447 0 1446 0 1445 0 1444 0 1443 0 1442 0 1441 0 1440 0 1439 0 1438 0 1437 0 1436 0 1435 0 1434 0 1433 0 1432 0 1431 0 1430 0 1429 0 1428 0 1427 0 1426 0 1425 0 1424 0 1423 0 1422 0 1421 0 1420 0 1419 0 1418 0 1417 0 1416 0 1415 0 1414 0 1413 0 1412 0 1411 0 1410 0 1409 0 1408 0 1407 0 1406 0 1405 0 1404 0 1403 0 1402 0 1401 0 1400 0 1399 0 1398 0 1397 0 1396 0 1395 0 1394 0 1393 0 1392 0 1391 0 1390 0 1389 0 1388 0 1387 0 1386 0 1385 0 1384 0 1383 0 1382 0 1381 0 1380 0 1379 0 1378 0 1377 0 1376 0 1375 0 1374 0 1373 0 1372 0 1371 0 1370 0 1369 0 1368 0 1367 0 1366 0 1365 0 1364 0 1363 0 1362 0 1361 0 1360 0 1359 0 1358 0 1357 0 1356 0 1355 0 1354 0 1353 0 1352 0 1351 0 1350 0 1349 0 1348 0 1347 0 1346 0 1345 0 1344 0 1343 0 1342 0 1341 0 1340 0 1339 0 1338 0 1337 0 1336 0 1335 0 1334 0 1333 0 1332 0 1331 0 1330 0 1329 0 1328 0 1327 0 1326 0 1325 0 1324 0 1323 0 1322 0 1321 0 1320 0 1319 0 1318 0 1317 0 1316 0 1315 0 1314 0 1313 0 1312 0 1311 0 1310 0 1309 0 1308 0 1307 0 1306 0 1305 0 1304 0 1303 0 1302 0 1301 0 1300 0 1299 0 1298 0 1297 0 1296 0 1295 0 1294 0 1293 0 1292 0 1291 0 1290 0 1289 0 1288 0 1287 0 1286 0 1285 0 1284 0 1283 0 1282 0 1281 0 1280 0 1279 0 1278 0 1277 0 1276 0 1275 0 1274 0 1273 0 1272 0 1271 0 1270 0 1269 0 1268 0 1267 0 1266 0 1265 0 1264 0 1263 0 1262 0 1261 0 1260 0 1259 0 1258 0 1257 0 1256 0 1255 0 1254 0 1253 0 1252 0 1251 0 1250 0 1249 0 1248 0 1247 0 1246 0 1245 0 1244 0 1243 0 1242 0 1241 0 1240 0 1239 0 1238 0 1237 0 1236 0 1235 0 1234 0 1233 0 1232 0 1231 0 1230 0 1229 0 1228 0 1227 0 1226 0 1225 0 1224 0 1223 0 1222 0 1221 0 1220 0 1219 0 1218 0 1217 0 1216 0 1215 0 1214 0 1213 0 1212 0 1211 0 1210 0 1209 0 1208 0 1207 0 1206 0 1205 0 1204 0 1203 0 1202 0 1201 0 1200 0 1199 0 1198 0 1197 0 1196 0 1195 0 1194 0 1193 0 1192 0 1191 0 1190 0 1189 0 1188 0 1187 0 1186 0 1185 0 1184 0 1183 0 1182 0 1181 0 1180 0 1179 0 1178 0 1177 0 1176 0 1175 0 1174 0 1173 0 1172 0 1171 0 1170 0 1169 0 1168 0 1167 0 1166 0 1165 0 1164 0 1163 0 1162 0 1161 0 1160 0 1159 0 1158 0 1157 0 1156 0 1155 0 1154 0 1153 0 1152 0 1151 0 1150 0 1149 0 1148 0 1147 0 1146 0 1145 0 1144 0 1143 0 1142 0 1141 0 1140 0 1139 0 1138 0 1137 0 1136 0 1135 0 1134 0 1133 0 1132 0 1131 0 1130 0 1129 0 1128 0 1127 0 1126 0 1125 0 1124 0 1123 0 1122 0 1121 0 1120 0 1119 0 1118 0 1117 0 1116 0 1115 0 1114 0 1113 0 1112 0 1111 0 1110 0 1109 0 1108 0 1107 0 1106 0 1105 0 1104 0 1103 0 1102 0 1101 0 1100 0 1099 0 1098 0 1097 0 1096 0 1095 0 1094 0 1093 0 1092 0 1091 0 1090 0 1089 0 1088 0 1087 0 1086 0 1085 0 1084 0 1083 0 1082 0 1081 0 1080 0 1079 0 1078 0 1077 0 1076 0 1075 0 1074 0 1073 0 1072 0 1071 0 1070 0 1069 0 1068 0 1067 0 1066 0 1065 0 1064 0 1063 0 1062 0 1061 0 1060 0 1059 0 1058 0 1057 0 1056 0 1055 0 1054 0 1053 0 1052 0 1051 0 1050 0 1049 0 1048 0 1047 0 1046 0 1045 0 1044 0 1043 0 1042 0 1041 0 1040 0 1039 0 1038 0 1037 0 1036 0 1035 0 1034 0 1033 0 1032 0 1031 0 1030 0 1029 0 1028 0 1027 0 1026 0 1025 0 1024 0 1023 0 1022 0 1021 0 1020 0 1019 0 1018 0 1017 0 1016 0 1015 0 1014 0 1013 0 1012 0 1011 0 1010 0 1009 0 1008 0 1007 0 1006 0 1005 0 1004 0 1003 0 1002 0 1001 0 1000 0 999 0 998 0 997 0 996 0 995 0 994 0 993 0 992 0 991 0 990 0 989 0 988 0 987 0 986 0 985 0 984 0 983 0 982 0 981 0 980 0 979 0 978 0 977 0 976 0 975 0 974 0 973 0 972 0 971 0 970 0 969 0 968 0 967 0 966 0 965 0 964 0 963 0 962 0 961 0 960 0 959 0 958 0 957 0 956 0 955 0 954 0 953 0 952 0 951 0 950 0 949 0 948 0 947 0 946 0 945 0 944 0 943 0 942 0 941 0 940 0 939 0 938 0 937 0 936 0 935 0 934 0 933 0 932 0 931 0 930 0 929 0 928 0 927 0 926 0 925 0 924 0 923 0 922 0 921 0 920 0 919 0 918 0 917 0 916 0 915 0 914 0 913 0 912 0 911 0 910 0 909 0 908 0 907 0 906 0 905 0 904 0 903 0 902 0 901 0 900 0 899 0 898 0 897 0 896 0 895 0 894 0 893 0 892 0 891 0 890 0 889 0 888 0 887 0 886 0 885 0 884 0 883 0 882 0 881 0 880 0 879 0 878 0 877 0 876 0 875 0 874 0 873 0 872 0 871 0 870 0 869 0 868 0 867 0 866 0 865 0 864 0 863 0 862 0 861 0 860 0 859 0 858 0 857 0 856 0 855 0 854 0 853 0 852 0 851 0 850 0 849 0 848 0 847 0 846 0 845 0 844 0 843 0 842 0 841 0 840 0 839 0 838 0 837 0 836 0 835 0 834 0 833 0 832 0 831 0 830 0 829 0 828 0 827 0 826 0 825 0 824 0 823 0 822 0 821 0 820 0 819 0 818 0 817 0 816 0 815 0 814 0 813 0 812 0 811 0 810 0 809 0 808 0 807 0 806 0 805 0 804 0 803 0 802 0 801 0 800 0 799 0 798 0 797 0 796 0 795 0 794 0 793 0 792 0 791 0 790 0 789 0 788 0 787 0 786 0 785 0 784 0 783 0 782 0 781 0 780 0 779 0 778 0 777 0 776 0 775 0 774 0 773 0 772 0 771 0 770 0 769 0 768 0 767 0 766 0 765 0 764 0 763 0 762 0 761 0 760 0 759 0 758 0 757 0 756 0 755 0 754 0 753 0 752 0 751 0 750 0 749 0 748 0 747 0 746 0 745 0 744 0 743 0 742 0 741 0 740 0 739 0 738 0 737 0 736 0 735 0 734 0 733 0 732 0 731 0 730 0 729 0 728 0 727 0 726 0 725 0 724 0 723 0 722 0 721 0 720 0 719 0 718 0 717 0 716 0 715 0 714 0 713 0 712 0 711 0 710 0 709 0 708 0 707 0 706 0 705 0 704 0 703 0 702 0 701 0 700 0 699 0 698 0 697 0 696 0 695 0 694 0 693 0 692 0 691 0 690 0 689 0 688 0 687 0 686 0 685 0 684 0 683 0 682 0 681 0 680 0 679 0 678 0 677 0 676 0 675 0 674 0 673 0 672 0 671 0 670 0 669 0 668 0 667 0 666 0 665 0 664 0 663 0 662 0 661 0 660 0 659 0 658 0 657 0 656 0 655 0 654 0 653 0 652 0 651 0 650 0 649 0 648 0 647 0 646 0 645 0 644 0 643 0 642 0 641 0 640 0 639 0 638 0 637 0 636 0 635 0 634 0 633 0 632 0 631 0 630 0 629 0 628 0 627 0 626 0 625 0 624 0 623 0 622 0 621 0 620 0 619 0 618 0 617 0 616 0 615 0 614 0 613 0 612 0 611 0 610 0 609 0 608 0 607 0 606 0 605 0 604 0 603 0 602 0 601 0 600 0 599 0 598 0 597 0 596 0 595 0 594 0 593 0 592 0 591 0 590 0 589 0 588 0 587 0 586 0 585 0 584 0 583 0 582 0 581 0 580 0 579 0 578 0 577 0 576 0 575 0 574 0 573 0 572 0 571 0 570 0 569 0 568 0 567 0 566 0 565 0 564 0 563 0 562 0 561 0 560 0 559 0 558 0 557 0 556 0 555 0 554 0 553 0 552 0 551 0 550 0 549 0 548 0 547 0 546 0 545 0 544 0 543 0 542 0 541 0 540 0 539 0 538 0 537 0 536 0 535 0 534 0 533 0 532 0 531 0 530 0 529 0 528 0 527 0 526 0 525 0 524 0 523 0 522 0 521 0 520 0 519 0 518 0 517 0 516 0 515 0 514 0 513 0 512 0 511 0 510 0 509 0 508 0 507 0 506 0 505 0 504 0 503 0 502 0 501 0 500 0 499 0 498 0 497 0 496 0 495 0 494 0 493 0 492 0 491 0 490 0 489 0 488 0 487 0 486 0 485 0 484 0 483 0 482 0 481 0 480 0 479 0 478 0 477 0 476 0 475 0 474 0 473 0 472 0 471 0 470 0 469 0 468 0 467 0 466 0 465 0 464 0 463 0 462 0 461 0 460 0 459 0 458 0 457 0 456 0 455 0 454 0 453 0 452 0 451 0 450 0 449 0 448 0 447 0 446 0 445 0 444 0 443 0 442 0 441 0 440 0 439 0 438 0 437 0 436 0 435 0 434 0 433 0 432 0 431 0 430 0 429 0 428 0 427 0 426 0 425 0 424 0 423 0 422 0 421 0 420 0 419 0 418 0 417 0 416 0 415 0 414 0 413 0 412 0 411 0 410 0 409 0 408 0 407 0 406 0 405 0 404 0 403 0 402 0 401 0 400 0 399 0 398 0 397 0 396 0 395 0 394 0 393 0 392 0 391 0 390 0 389 0 388 0 387 0 386 0 385 0 384 0 383 0 382 0 381 0 380 0 379 0 378 0 377 0 376 0 375 0 374 0 373 0 372 0 371 0 370 0 369 0 368 0 367 0 366 0 365 0 364 0 363 0 362 0 361 0 360 0 359 0 358 0 357 0 356 0 355 0 354 0 353 0 352 0 351 0 350 0 349 0 348 0 347 0 346 0 345 0 344 0 343 0 342 0 341 0 340 0 339 0 338 0 337 0 336 0 335 0 334 0 333 0 332 0 331 0 330 0 329 0 328 0 327 0 326 0 325 0 324 0 323 0 322 0 321 0 320 0 319 0 318 0 317 0 316 0 315 0 314 0 313 0 312 0 311 0 310 0 309 0 308 0 307 0 306 0 305 0 304 0 303 0 302 0 301 0 300 0 299 0 298 0 297 0 296 0 295 0 294 0 293 0 292 0 291 0 290 0 289 0 288 0 287 0 286 0 285 0 284 0 283 0 282 0 281 0 280 0 279 0 278 0 277 0 276 0 275 0 274 0 273 0 272 0 271 0 270 0 269 0 268 0 267 0 266 0 265 0 264 0 263 0 262 0 261 0 260 0 259 0 258 0 257 0 256 0 255 0 254 0 253 0 252 0 251 0 250 0 249 0 248 0 247 0 246 0 245 0 244 0 243 0 242 0 241 0 240 0 239 0 238 0 237 0 236 0 235 0 234 0 233 0 232 0 231 0 230 0 229 0 228 0 227 0 226 0 225 0 224 0 223 0 222 0 221 0 220 0 219 0 218 0 217 0 216 0 215 0 214 0 213 0 212 0 211 0 210 0 209 0 208 0 207 0 206 0 205 0 204 0 203 0 202 0 201 0 200 0 199 0 198 0 197 0 196 0 195 0 194 0 193 0 192 0 191 0 190 0 189 0 188 0 187 0 186 0 185 0 184 0 183 0 182 0 181 0 180 0 179 0 178 0 177 0 176 0 175 0 174 0 173 0 172 0 171 0 170 0 169 0 168 0 167 0 166 0 165 0 164 0 163 0 162 0 161 0 160 0 159 0 158 0 157 0 156 0 155 0 154 0 153 0 152 0 151 0 150 0 149 0 148 0 147 0 146 0 145 0 144 0 143 0 142 0 141 0 140 0 139 0 138 0 137 0 136 0 135 0 134 0 133 0 132 0 131 0 130 0 129 0 128 0 127 0 126 0 125 0 124 0 123 0 122 0 121 0 120 0 119 0 118 0 117 0 116 0 115 0 114 0 113 0 112 0 111 0 110 0 109 0 108 0 107 0 106 0 105 0 104 0 103 0 102 0 101 0 100 0 99 0 98 0 97 0 96 0 95 0 94 0 93 0 92 0 91 0 90 0 89 0 88 0 87 0 86 0 85 0 84 0 83 0 82 0 81 0 80 0 79 0 78 0 77 0 76 0 75 0 74 0 73 0 72 0 71 0 70 0 69 0 68 0 67 0 66 0 65 0 64 0 63 0 62 0 61 0 60 0 59 0 58 0 57 0 56 0 55 0 54 0 53 0 52 0 51 0 50 0 49 0 48 0 47 0 46 0 45 0 44 0 43 0 42 0 41 0 40 0 39 0 38 0 37 0 36 0 35 0 34 0 33 0 32 0 31 0 30 0 29 0 28 0 27 0 26 0 25 0 24 0 23 0 22 0 21 0 20 0 19 0 18 0 17 0 16 0 15 0 14 0 13 0 12 0 11 0 10 0 9 0 8 0 7 0 6 0 5 0 4 0 3 0 2 0 1 0" style="fill:none; stroke:black; stroke-width:5"/>
</svg>