<svg width="1742" height="2322" xmlns="http://www.w3.org/2000/svg">
    <path d="M1439 1956 1388 2023 1349 2090 1345 2117 1383 2124 1483 2129 1524 2139 1548 2151 1557 2151 1559 2142 1555 2039 1519 2001 1471 1965 1451 1956 1440 1956" style="fill:none; stroke:black; stroke-width:5"/>
    <path d="M475 1484 382 1555 347 1593 325 1627 290 1706 278 1723 261 1790 259 1822 263 1831 268 1907 295 1973 331 2024 364 2051 449 2102 529 2133 459 2126 404 2135 246 2144 244 2156 253 2170 302 2218 358 2227 434 2224 545 2204 635 2197 640 2190 643 2152 584 2142 584 2135 863 2172 975 2170 1149 2149 1226 2122 1254 2018 1253 2008 1228 2001 1105 1987 970 1953 894 1904 811 1822 709 1743 666 1726 622 1720 583 1705 525 1654 505 1624 489 1581 492 1554 483 1484 476 1484" style="fill:none; stroke:black; stroke-width:5"/>
    <path d="M979 166 1005 166 1059 183 1094 206 1142 250 1170 296 1113 235 1076 205 1056 194 1025 189 957 191 922 203 883 239 854 282 839 337 839 398 872 502 890 531 909 551 1005 614 1020 627 1019 631 998 616 973 610 923 586 891 564 847 480 828 417 727 381 596 363 486 336 470 327 464 318 465 308 486 286 545 262 699 236 905 173 944 166 978 166" style="fill:none; stroke:black; stroke-width:5"/>
    <path d="M1042 120 827 132 736 130 599 138 521 146 362 179 320 193 265 220 230 292 230 345 240 377 258 407 329 446 436 494 506 519 627 551 776 581 849 583 951 636 1006 683 1052 754 1061 776 1064 835 1101 849 1060 850 1059 919 1016 1027 1028 1090 1099 1161 1147 1156 1239 1130 1247 1136 1243 1171 1205 1250 1222 1332 1231 1350 1235 1384 1237 1518 1229 1620 1218 1671 1193 1712 1133 1768 1104 1782 1066 1785 1035 1775 1036 1771 1091 1773 1140 1754 1172 1716 1189 1688 1201 1641 1212 1508 1208 1429 1190 1385 1131 1281 1077 1218 985 1128 743 914 590 789 533 764 503 757 487 758 443 790 423 831 416 915 417 1058 429 1186 484 1421 512 1576 533 1627 547 1639 634 1671 645 1670 616 1305 611 1178 614 1169 719 1388 793 1507 791 1511 705 1387 662 1314 654 1314 660 1355 656 1586 677 1586 741 1566 806 1529 893 1672 921 1703 910 1700 872 1667 809 1624 730 1610 699 1598 663 1601 673 1694 731 1717 802 1761 830 1783 930 1888 993 1931 1011 1932 1069 1921 1119 1902 1153 1882 1188 1856 1219 1783 1250 1684 1270 1596 1312 1328 1311 1274 1319 1250 1353 1198 1361 1159 1359 1123 1347 1092 1282 1027 1277 1017 1259 940 1236 881 1286 844 1330 831 1355 835 1389 876 1405 915 1416 1016 1406 1246 1364 1621 1341 1778 1308 1916 1262 2056 1236 2155 1238 2175 1321 2174 1341 2084 1402 1964 1454 1844 1484 1599 1525 1392 1526 1326 1552 972 1548 877 1531 802 1489 712 1475 692 1446 663 1378 628 1331 612 1310 592 1218 387 1181 318 1181 311 1213 351 1222 352 1235 308 1244 211 1221 156 1205 135 1196 130 1043 120" style="fill:none; stroke:black; stroke-width:5"/>
</svg>