<?xml version="1.0" encoding="iso-8859-1"?>
<!-- Uploaded to: SVG Repo, www.svgrepo.com, Generator: SVG Repo Mixer Tools -->
<!DOCTYPE svg PUBLIC "-//W3C//DTD SVG 1.1//EN" "http://www.w3.org/Graphics/SVG/1.1/DTD/svg11.dtd">
<svg fill="#000000" height="800px" width="800px" version="1.1" id="Capa_1" xmlns="http://www.w3.org/2000/svg" xmlns:xlink="http://www.w3.org/1999/xlink" 
	 viewBox="0 0 491.608 491.608" xml:space="preserve">
<path id="XMLID_157_" d="M0,0V491.608H491.608V0H0ZM458.834,458.834H357.536V424.828H424.827V66.78H325.017V99.554H392.053V231.537H357.53499999999997V134.07100000000003H134.071V357.53600000000006H248.53199999999998V324.76200000000006H166.84499999999997V166.845H258.222V200.612H200.61199999999997V290.996H290.996V258.222H233.38599999999997V233.385H290.996V166.84499999999997H324.763V324.76199999999994H288.14799999999997V357.53599999999994H357.537V264.3109999999999H392.05499999999995V392.05299999999994H99.55499999999995V334.5709999999999H66.78V424.8269999999999H324.76200000000006V458.83299999999986H32.774V157.075H66.78V299.053H99.553V99.554H290.86699999999996V66.78H66.78V124.301H32.774V32.774H458.833V458.834Z"/>
	
</svg>