<svg width="1764" height="2868" xmlns="http://www.w3.org/2000/svg">
    <path d="M0 0 0 1 0 2 0 3 0 4 0 5 0 6 0 7 0 8 0 9 0 10 0 11 0 12 0 13 0 14 0 15 0 16 0 17 0 18 0 19 0 20 0 21 0 22 0 23 0 24 0 25 0 26 0 27 0 28 0 29 0 30 0 31 0 32 0 33 0 34 0 35 0 36 0 37 0 38 0 39 0 40 0 41 0 42 0 43 0 44 0 45 0 46 0 47 0 48 0 49 0 50 0 51 0 52 0 53 0 54 0 55 0 56 0 57 0 58 0 59 0 60 0 61 0 62 0 63 0 64 0 65 0 66 0 67 0 68 0 69 0 70 0 71 0 72 0 73 0 74 0 75 0 76 0 77 0 78 0 79 0 80 0 81 0 82 0 83 0 84 0 85 0 86 0 87 0 88 0 89 0 90 0 91 0 92 0 93 0 94 0 95 0 96 0 97 0 98 0 99 0 100 0 101 0 102 0 103 0 104 0 105 0 106 0 107 0 108 0 109 0 110 0 111 0 112 0 113 0 114 0 115 0 116 0 117 0 118 0 119 0 120 0 121 0 122 0 123 0 124 0 125 0 126 0 127 0 128 0 129 0 130 0 131 0 132 0 133 0 134 0 135 0 136 0 137 0 138 0 139 0 140 0 141 0 142 0 143 0 144 0 145 0 146 0 147 0 148 0 149 0 150 0 151 0 152 0 153 0 154 0 155 0 156 0 157 0 158 0 159 0 160 0 161 0 162 0 163 0 164 0 165 0 166 0 167 0 168 0 169 0 170 0 171 0 172 0 173 0 174 0 175 0 176 0 177 0 178 0 179 0 180 0 181 0 182 0 183 0 184 0 185 0 186 0 187 0 188 0 189 0 190 0 191 0 192 0 193 0 194 0 195 0 196 0 197 0 198 0 199 0 200 0 201 0 202 0 203 0 204 0 205 0 206 0 207 0 208 0 209 0 210 0 211 0 212 0 213 0 214 0 215 0 216 0 217 0 218 0 219 0 220 0 221 0 222 0 223 0 224 0 225 0 226 0 227 0 228 0 229 0 230 0 231 0 232 0 233 0 234 0 235 0 236 0 237 0 238 0 239 0 240 0 241 0 242 0 243 0 244 0 245 0 246 0 247 0 248 0 249 0 250 0 251 0 252 0 253 0 254 0 255 0 256 0 257 0 258 0 259 0 260 0 261 0 262 0 263 0 264 0 265 0 266 0 267 0 268 0 269 0 270 0 271 0 272 0 273 0 274 0 275 0 276 0 277 0 278 0 279 0 280 0 281 0 282 0 283 0 284 0 285 0 286 0 287 0 288 0 289 0 290 0 291 0 292 0 293 0 294 0 295 0 296 0 297 0 298 0 299 0 300 0 301 0 302 0 303 0 304 0 305 0 306 0 307 0 308 0 309 0 310 0 311 0 312 0 313 0 314 0 315 0 316 0 317 0 318 0 319 0 320 0 321 0 322 0 323 0 324 0 325 0 326 0 327 0 328 0 329 0 330 0 331 0 332 0 333 0 334 0 335 0 336 0 337 0 338 0 339 0 340 0 341 0 342 0 343 0 344 0 345 0 346 0 347 0 348 0 349 0 350 0 351 0 352 0 353 0 354 0 355 0 356 0 357 0 358 0 359 0 360 0 361 0 362 0 363 0 364 0 365 0 366 0 367 0 368 0 369 0 370 0 371 0 372 0 373 0 374 0 375 0 376 0 377 0 378 0 379 0 380 0 381 0 382 0 383 0 384 0 385 0 386 0 387 0 388 0 389 0 390 0 391 0 392 0 393 0 394 0 395 0 396 0 397 0 398 0 399 0 400 0 401 0 402 0 403 0 404 0 405 0 406 0 407 0 408 0 409 0 410 0 411 0 412 0 413 0 414 0 415 0 416 0 417 0 418 0 419 0 420 0 421 0 422 0 423 0 424 0 425 0 426 0 427 0 428 0 429 0 430 0 431 0 432 0 433 0 434 0 435 0 436 0 437 0 438 0 439 0 440 0 441 0 442 0 443 0 444 0 445 0 446 0 447 0 448 0 449 0 450 0 451 0 452 0 453 0 454 0 455 0 456 0 457 0 458 0 459 0 460 0 461 0 462 0 463 0 464 0 465 0 466 0 467 0 468 0 469 0 470 0 471 0 472 0 473 0 474 0 475 0 476 0 477 0 478 0 479 0 480 0 481 0 482 0 483 0 484 0 485 0 486 0 487 0 488 0 489 0 490 0 491 0 492 0 493 0 494 0 495 0 496 0 497 0 498 0 499 0 500 0 501 0 502 0 503 0 504 0 505 0 506 0 507 0 508 0 509 0 510 0 511 0 512 0 513 0 514 0 515 0 516 0 517 0 518 0 519 0 520 0 521 0 522 0 523 0 524 0 525 0 526 0 527 0 528 0 529 0 530 0 531 0 532 0 533 0 534 0 535 0 536 0 537 0 538 0 539 0 540 0 541 0 542 0 543 0 544 0 545 0 546 0 547 0 548 0 549 0 550 0 551 0 552 0 553 0 554 0 555 0 556 0 557 0 558 0 559 0 560 0 561 0 562 0 563 0 564 0 565 0 566 0 567 0 568 0 569 0 570 0 571 0 572 0 573 0 574 0 575 0 576 0 577 0 578 0 579 0 580 0 581 0 582 0 583 0 584 0 585 0 586 0 587 0 588 0 589 0 590 0 591 0 592 0 593 0 594 0 595 0 596 0 597 0 598 0 599 0 600 0 601 0 602 0 603 0 604 0 605 0 606 0 607 0 608 0 609 0 610 0 611 0 612 0 613 0 614 0 615 0 616 0 617 0 618 0 619 0 620 0 621 0 622 0 623 0 624 0 625 0 626 0 627 0 628 0 629 0 630 0 631 0 632 0 633 0 634 0 635 0 636 0 637 0 638 0 639 0 640 0 641 0 642 0 643 0 644 0 645 0 646 0 647 0 648 0 649 0 650 0 651 0 652 0 653 0 654 0 655 0 656 0 657 0 658 0 659 0 660 0 661 0 662 0 663 0 664 0 665 0 666 0 667 0 668 0 669 0 670 0 671 0 672 0 673 0 674 0 675 0 676 0 677 0 678 0 679 0 680 0 681 0 682 0 683 0 684 0 685 0 686 0 687 0 688 0 689 0 690 0 691 0 692 0 693 0 694 0 695 0 696 0 697 0 698 0 699 0 700 0 701 0 702 0 703 0 704 0 705 0 706 0 707 0 708 0 709 0 710 0 711 0 712 0 713 0 714 0 715 0 716 0 717 0 718 0 719 0 720 0 721 0 722 0 723 0 724 0 725 0 726 0 727 0 728 0 729 0 730 0 731 0 732 0 733 0 734 0 735 0 736 0 737 0 738 0 739 0 740 0 741 0 742 0 743 0 744 0 745 0 746 0 747 0 748 0 749 0 750 0 751 0 752 0 753 0 754 0 755 0 756 0 757 0 758 0 759 0 760 0 761 0 762 0 763 0 764 0 765 0 766 0 767 0 768 0 769 0 770 0 771 0 772 0 773 0 774 0 775 0 776 0 777 0 778 0 779 0 780 0 781 0 782 0 783 0 784 0 785 0 786 0 787 0 788 0 789 0 790 0 791 0 792 0 793 0 794 0 795 0 796 0 797 0 798 0 799 0 800 0 801 0 802 0 803 0 804 0 805 0 806 0 807 0 808 0 809 0 810 0 811 0 812 0 813 0 814 0 815 0 816 0 817 0 818 0 819 0 820 0 821 0 822 0 823 0 824 0 825 0 826 0 827 0 828 0 829 0 830 0 831 0 832 0 833 0 834 0 835 0 836 0 837 0 838 0 839 0 840 0 841 0 842 0 843 0 844 0 845 0 846 0 847 0 848 0 849 0 850 0 851 0 852 0 853 0 854 0 855 0 856 0 857 0 858 0 859 0 860 0 861 0 862 0 863 0 864 0 865 0 866 0 867 0 868 0 869 0 870 0 871 0 872 0 873 0 874 0 875 0 876 0 877 0 878 0 879 0 880 0 881 0 882 0 883 0 884 0 885 0 886 0 887 0 888 0 889 0 890 0 891 0 892 0 893 0 894 0 895 0 896 0 897 0 898 0 899 0 900 0 901 0 902 0 903 0 904 0 905 0 906 0 907 0 908 0 909 0 910 0 911 0 912 0 913 0 914 0 915 0 916 0 917 0 918 0 919 0 920 0 921 0 922 0 923 0 924 0 925 0 926 0 927 0 928 0 929 0 930 0 931 0 932 0 933 0 934 0 935 0 936 0 937 0 938 0 939 0 940 0 941 0 942 0 943 0 944 0 945 0 946 0 947 0 948 0 949 0 950 0 951 0 952 0 953 0 954 0 955 0 956 0 957 0 958 0 959 0 960 0 961 0 962 0 963 0 964 0 965 0 966 0 967 0 968 0 969 0 970 0 971 0 972 0 973 0 974 0 975 0 976 0 977 0 978 0 979 0 980 0 981 0 982 0 983 0 984 0 985 0 986 0 987 0 988 0 989 0 990 0 991 0 992 0 993 0 994 0 995 0 996 0 997 0 998 0 999 0 1000 0 1001 0 1002 0 1003 0 1004 0 1005 0 1006 0 1007 0 1008 0 1009 0 1010 0 1011 0 1012 0 1013 0 1014 0 1015 0 1016 0 1017 0 1018 0 1019 0 1020 0 1021 0 1022 0 1023 0 1024 0 1025 0 1026 0 1027 0 1028 0 1029 0 1030 0 1031 0 1032 0 1033 0 1034 0 1035 0 1036 0 1037 0 1038 0 1039 0 1040 0 1041 0 1042 0 1043 0 1044 0 1045 0 1046 0 1047 0 1048 0 1049 0 1050 0 1051 0 1052 0 1053 0 1054 0 1055 0 1056 0 1057 0 1058 0 1059 0 1060 0 1061 0 1062 0 1063 0 1064 0 1065 0 1066 0 1067 0 1068 0 1069 0 1070 0 1071 0 1072 0 1073 0 1074 0 1075 0 1076 0 1077 0 1078 0 1079 0 1080 0 1081 0 1082 0 1083 0 1084 0 1085 0 1086 0 1087 0 1088 0 1089 0 1090 0 1091 0 1092 0 1093 0 1094 0 1095 0 1096 0 1097 0 1098 0 1099 0 1100 0 1101 0 1102 0 1103 0 1104 0 1105 0 1106 0 1107 0 1108 0 1109 0 1110 0 1111 0 1112 0 1113 0 1114 0 1115 0 1116 0 1117 0 1118 0 1119 0 1120 0 1121 0 1122 0 1123 0 1124 0 1125 0 1126 0 1127 0 1128 0 1129 0 1130 0 1131 0 1132 0 1133 0 1134 0 1135 0 1136 0 1137 0 1138 0 1139 0 1140 0 1141 0 1142 0 1143 0 1144 0 1145 0 1146 0 1147 0 1148 0 1149 0 1150 0 1151 0 1152 0 1153 0 1154 0 1155 0 1156 0 1157 0 1158 0 1159 0 1160 0 1161 0 1162 0 1163 0 1164 0 1165 0 1166 0 1167 0 1168 0 1169 0 1170 0 1171 0 1172 0 1173 0 1174 0 1175 0 1176 0 1177 0 1178 0 1179 0 1180 0 1181 0 1182 0 1183 0 1184 0 1185 0 1186 0 1187 0 1188 0 1189 0 1190 0 1191 0 1192 0 1193 0 1194 0 1195 0 1196 0 1197 0 1198 0 1199 0 1200 0 1201 0 1202 0 1203 0 1204 0 1205 0 1206 0 1207 0 1208 0 1209 0 1210 0 1211 0 1212 0 1213 0 1214 0 1215 0 1216 0 1217 0 1218 0 1219 0 1220 0 1221 0 1222 0 1223 0 1224 0 1225 0 1226 0 1227 0 1228 0 1229 0 1230 0 1231 0 1232 0 1233 0 1234 0 1235 0 1236 0 1237 0 1238 0 1239 0 1240 0 1241 0 1242 0 1243 0 1244 0 1245 0 1246 0 1247 0 1248 0 1249 0 1250 0 1251 0 1252 0 1253 0 1254 0 1255 0 1256 0 1257 0 1258 0 1259 0 1260 0 1261 0 1262 0 1263 0 1264 0 1265 0 1266 0 1267 0 1268 0 1269 0 1270 0 1271 0 1272 0 1273 0 1274 0 1275 0 1276 0 1277 0 1278 0 1279 0 1280 0 1281 0 1282 0 1283 0 1284 0 1285 0 1286 0 1287 0 1288 0 1289 0 1290 0 1291 0 1292 0 1293 0 1294 0 1295 0 1296 0 1297 0 1298 0 1299 0 1300 0 1301 0 1302 0 1303 0 1304 0 1305 0 1306 0 1307 0 1308 0 1309 0 1310 0 1311 0 1312 0 1313 0 1314 0 1315 0 1316 0 1317 0 1318 0 1319 0 1320 0 1321 0 1322 0 1323 0 1324 0 1325 0 1326 0 1327 0 1328 0 1329 0 1330 0 1331 0 1332 0 1333 0 1334 0 1335 0 1336 0 1337 0 1338 0 1339 0 1340 0 1341 0 1342 0 1343 0 1344 0 1345 0 1346 0 1347 0 1348 0 1349 0 1350 0 1351 0 1352 0 1353 0 1354 0 1355 0 1356 0 1357 0 1358 0 1359 0 1360 0 1361 0 1362 0 1363 0 1364 0 1365 0 1366 0 1367 0 1368 0 1369 0 1370 0 1371 0 1372 0 1373 0 1374 0 1375 0 1376 0 1377 0 1378 0 1379 0 1380 0 1381 0 1382 0 1383 0 1384 0 1385 0 1386 0 1387 0 1388 0 1389 0 1390 0 1391 0 1392 0 1393 0 1394 0 1395 0 1396 0 1397 0 1398 0 1399 0 1400 0 1401 0 1402 0 1403 0 1404 0 1405 0 1406 0 1407 0 1408 0 1409 0 1410 0 1411 0 1412 0 1413 0 1414 0 1415 0 1416 0 1417 0 1418 0 1419 0 1420 0 1421 0 1422 0 1423 0 1424 0 1425 0 1426 0 1427 0 1428 0 1429 0 1430 0 1431 0 1432 0 1433 0 1434 0 1435 0 1436 0 1437 0 1438 0 1439 0 1440 0 1441 0 1442 0 1443 0 1444 0 1445 0 1446 0 1447 0 1448 0 1449 0 1450 0 1451 0 1452 0 1453 0 1454 0 1455 0 1456 0 1457 0 1458 0 1459 0 1460 0 1461 0 1462 0 1463 0 1464 0 1465 0 1466 0 1467 0 1468 0 1469 0 1470 0 1471 0 1472 0 1473 0 1474 0 1475 0 1476 0 1477 0 1478 0 1479 0 1480 0 1481 0 1482 0 1483 0 1484 0 1485 0 1486 0 1487 0 1488 0 1489 0 1490 0 1491 0 1492 0 1493 0 1494 0 1495 0 1496 0 1497 0 1498 0 1499 0 1500 0 1501 0 1502 0 1503 0 1504 0 1505 0 1506 0 1507 0 1508 0 1509 0 1510 0 1511 0 1512 0 1513 0 1514 0 1515 0 1516 0 1517 0 1518 0 1519 0 1520 0 1521 0 1522 0 1523 0 1524 0 1525 0 1526 0 1527 0 1528 0 1529 0 1530 0 1531 0 1532 0 1533 0 1534 0 1535 0 1536 0 1537 0 1538 0 1539 0 1540 0 1541 0 1542 0 1543 0 1544 0 1545 0 1546 0 1547 0 1548 0 1549 0 1550 0 1551 0 1552 0 1553 0 1554 0 1555 0 1556 0 1557 0 1558 0 1559 0 1560 0 1561 0 1562 0 1563 0 1564 0 1565 0 1566 0 1567 0 1568 0 1569 0 1570 0 1571 0 1572 0 1573 0 1574 0 1575 0 1576 0 1577 0 1578 0 1579 0 1580 0 1581 0 1582 0 1583 0 1584 0 1585 0 1586 0 1587 0 1588 0 1589 0 1590 0 1591 0 1592 0 1593 0 1594 0 1595 0 1596 0 1597 0 1598 0 1599 0 1600 0 1601 0 1602 0 1603 0 1604 0 1605 0 1606 0 1607 0 1608 0 1609 0 1610 0 1611 0 1612 0 1613 0 1614 0 1615 0 1616 0 1617 0 1618 0 1619 0 1620 0 1621 0 1622 0 1623 0 1624 0 1625 0 1626 0 1627 0 1628 0 1629 0 1630 0 1631 0 1632 0 1633 0 1634 0 1635 0 1636 0 1637 0 1638 0 1639 0 1640 0 1641 0 1642 0 1643 0 1644 0 1645 0 1646 0 1647 0 1648 0 1649 0 1650 0 1651 0 1652 0 1653 0 1654 0 1655 0 1656 0 1657 0 1658 0 1659 0 1660 0 1661 0 1662 0 1663 0 1664 0 1665 0 1666 0 1667 0 1668 0 1669 0 1670 0 1671 0 1672 0 1673 0 1674 0 1675 0 1676 0 1677 0 1678 0 1679 0 1680 0 1681 0 1682 0 1683 0 1684 0 1685 0 1686 0 1687 0 1688 0 1689 0 1690 0 1691 0 1692 0 1693 0 1694 0 1695 0 1696 0 1697 0 1698 0 1699 0 1700 0 1701 0 1702 0 1703 0 1704 0 1705 0 1706 0 1707 0 1708 0 1709 0 1710 0 1711 0 1712 0 1713 0 1714 0 1715 0 1716 0 1717 0 1718 0 1719 0 1720 0 1721 0 1722 0 1723 0 1724 0 1725 0 1726 0 1727 0 1728 0 1729 0 1730 0 1731 0 1732 0 1733 0 1734 0 1735 0 1736 0 1737 0 1738 0 1739 0 1740 0 1741 0 1742 0 1743 0 1744 0 1745 0 1746 0 1747 0 1748 0 1749 0 1750 0 1751 0 1752 0 1753 0 1754 0 1755 0 1756 0 1757 0 1758 0 1759 0 1760 0 1761 0 1762 0 1763 0 1764 0 1765 0 1766 0 1767 0 1768 0 1769 0 1770 0 1771 0 1772 0 1773 0 1774 0 1775 0 1776 0 1777 0 1778 0 1779 0 1780 0 1781 0 1782 0 1783 0 1784 0 1785 0 1786 0 1787 0 1788 0 1789 0 1790 0 1791 0 1792 0 1793 0 1794 0 1795 0 1796 0 1797 0 1798 0 1799 0 1800 0 1801 0 1802 0 1803 0 1804 0 1805 0 1806 0 1807 0 1808 0 1809 0 1810 0 1811 0 1812 0 1813 0 1814 0 1815 0 1816 0 1817 0 1818 0 1819 0 1820 0 1821 0 1822 0 1823 0 1824 0 1825 0 1826 0 1827 0 1828 0 1829 0 1830 0 1831 0 1832 0 1833 0 1834 0 1835 0 1836 0 1837 0 1838 0 1839 0 1840 0 1841 0 1842 0 1843 0 1844 0 1845 0 1846 0 1847 0 1848 0 1849 0 1850 0 1851 0 1852 0 1853 0 1854 0 1855 0 1856 0 1857 0 1858 0 1859 0 1860 0 1861 0 1862 0 1863 0 1864 0 1865 0 1866 0 1867 0 1868 0 1869 0 1870 0 1871 0 1872 0 1873 0 1874 0 1875 0 1876 0 1877 0 1878 0 1879 0 1880 0 1881 0 1882 0 1883 0 1884 0 1885 0 1886 0 1887 0 1888 0 1889 0 1890 0 1891 0 1892 0 1893 0 1894 0 1895 0 1896 0 1897 0 1898 0 1899 0 1900 0 1901 0 1902 0 1903 0 1904 0 1905 0 1906 0 1907 0 1908 0 1909 0 1910 0 1911 0 1912 0 1913 0 1914 0 1915 0 1916 0 1917 0 1918 0 1919 0 1920 0 1921 0 1922 0 1923 0 1924 0 1925 0 1926 0 1927 0 1928 0 1929 0 1930 0 1931 0 1932 0 1933 0 1934 0 1935 0 1936 0 1937 0 1938 0 1939 0 1940 0 1941 0 1942 0 1943 0 1944 0 1945 0 1946 0 1947 0 1948 0 1949 0 1950 0 1951 0 1952 0 1953 0 1954 0 1955 0 1956 0 1957 0 1958 0 1959 0 1960 0 1961 0 1962 0 1963 0 1964 0 1965 0 1966 0 1967 0 1968 0 1969 0 1970 0 1971 0 1972 0 1973 0 1974 0 1975 0 1976 0 1977 0 1978 0 1979 0 1980 0 1981 0 1982 0 1983 0 1984 0 1985 0 1986 0 1987 0 1988 0 1989 0 1990 0 1991 0 1992 0 1993 0 1994 0 1995 0 1996 0 1997 0 1998 0 1999 0 2000 0 2001 0 2002 0 2003 0 2004 0 2005 0 2006 0 2007 0 2008 0 2009 0 2010 0 2011 0 2012 0 2013 0 2014 0 2015 0 2016 0 2017 0 2018 0 2019 0 2020 0 2021 0 2022 0 2023 0 2024 0 2025 0 2026 0 2027 0 2028 0 2029 0 2030 0 2031 0 2032 0 2033 0 2034 0 2035 0 2036 0 2037 0 2038 0 2039 0 2040 0 2041 0 2042 0 2043 0 2044 0 2045 0 2046 0 2047 0 2048 0 2049 0 2050 0 2051 0 2052 0 2053 0 2054 0 2055 0 2056 0 2057 0 2058 0 2059 0 2060 0 2061 0 2062 0 2063 0 2064 0 2065 0 2066 0 2067 0 2068 0 2069 0 2070 0 2071 0 2072 0 2073 0 2074 0 2075 0 2076 0 2077 0 2078 0 2079 0 2080 0 2081 0 2082 0 2083 0 2084 0 2085 0 2086 0 2087 0 2088 0 2089 0 2090 0 2091 0 2092 0 2093 0 2094 0 2095 0 2096 0 2097 0 2098 0 2099 0 2100 0 2101 0 2102 0 2103 0 2104 0 2105 0 2106 0 2107 0 2108 0 2109 0 2110 0 2111 0 2112 0 2113 0 2114 0 2115 0 2116 0 2117 0 2118 0 2119 0 2120 0 2121 0 2122 0 2123 0 2124 0 2125 0 2126 0 2127 0 2128 0 2129 0 2130 0 2131 0 2132 0 2133 0 2134 0 2135 0 2136 0 2137 0 2138 0 2139 0 2140 0 2141 0 2142 0 2143 0 2144 0 2145 0 2146 0 2147 0 2148 0 2149 0 2150 0 2151 0 2152 0 2153 0 2154 0 2155 0 2156 0 2157 0 2158 0 2159 0 2160 0 2161 0 2162 0 2163 0 2164 0 2165 0 2166 0 2167 0 2168 0 2169 0 2170 0 2171 0 2172 0 2173 0 2174 0 2175 0 2176 0 2177 0 2178 0 2179 0 2180 0 2181 0 2182 0 2183 0 2184 0 2185 0 2186 0 2187 0 2188 0 2189 0 2190 0 2191 0 2192 0 2193 0 2194 0 2195 0 2196 0 2197 0 2198 0 2199 0 2200 0 2201 0 2202 0 2203 0 2204 0 2205 0 2206 0 2207 0 2208 0 2209 0 2210 0 2211 0 2212 0 2213 0 2214 0 2215 0 2216 0 2217 0 2218 0 2219 0 2220 0 2221 0 2222 0 2223 0 2224 0 2225 0 2226 0 2227 0 2228 0 2229 0 2230 0 2231 0 2232 0 2233 0 2234 0 2235 0 2236 0 2237 0 2238 0 2239 0 2240 0 2241 0 2242 0 2243 0 2244 0 2245 0 2246 0 2247 0 2248 0 2249 0 2250 0 2251 0 2252 0 2253 0 2254 0 2255 0 2256 0 2257 0 2258 0 2259 0 2260 0 2261 0 2262 0 2263 0 2264 0 2265 0 2266 0 2267 0 2268 0 2269 0 2270 0 2271 0 2272 0 2273 0 2274 0 2275 0 2276 0 2277 0 2278 0 2279 0 2280 0 2281 0 2282 0 2283 0 2284 0 2285 0 2286 0 2287 0 2288 0 2289 0 2290 0 2291 0 2292 0 2293 0 2294 0 2295 0 2296 0 2297 0 2298 0 2299 0 2300 0 2301 0 2302 0 2303 0 2304 0 2305 0 2306 0 2307 0 2308 0 2309 0 2310 0 2311 0 2312 0 2313 0 2314 0 2315 0 2316 0 2317 0 2318 0 2319 0 2320 0 2321 0 2322 0 2323 0 2324 0 2325 0 2326 0 2327 0 2328 0 2329 0 2330 0 2331 0 2332 0 2333 0 2334 0 2335 0 2336 0 2337 0 2338 0 2339 0 2340 0 2341 0 2342 0 2343 0 2344 0 2345 0 2346 0 2347 0 2348 0 2349 0 2350 0 2351 0 2352 0 2353 0 2354 0 2355 0 2356 0 2357 0 2358 0 2359 0 2360 0 2361 0 2362 0 2363 0 2364 0 2365 0 2366 0 2367 0 2368 0 2369 0 2370 0 2371 0 2372 0 2373 0 2374 0 2375 0 2376 0 2377 0 2378 0 2379 0 2380 0 2381 0 2382 0 2383 0 2384 0 2385 0 2386 0 2387 0 2388 0 2389 0 2390 0 2391 0 2392 0 2393 0 2394 0 2395 0 2396 0 2397 0 2398 0 2399 0 2400 0 2401 0 2402 0 2403 0 2404 0 2405 0 2406 0 2407 0 2408 0 2409 0 2410 0 2411 0 2412 0 2413 0 2414 0 2415 0 2416 0 2417 0 2418 0 2419 0 2420 0 2421 0 2422 0 2423 0 2424 0 2425 0 2426 0 2427 0 2428 0 2429 0 2430 0 2431 0 2432 0 2433 0 2434 0 2435 0 2436 0 2437 0 2438 0 2439 0 2440 0 2441 0 2442 0 2443 0 2444 0 2445 0 2446 0 2447 0 2448 0 2449 0 2450 0 2451 0 2452 0 2453 0 2454 0 2455 0 2456 0 2457 0 2458 0 2459 0 2460 0 2461 0 2462 0 2463 0 2464 0 2465 0 2466 0 2467 0 2468 0 2469 0 2470 0 2471 0 2472 0 2473 0 2474 0 2475 0 2476 0 2477 0 2478 0 2479 0 2480 0 2481 0 2482 0 2483 0 2484 0 2485 0 2486 0 2487 0 2488 0 2489 0 2490 0 2491 0 2492 0 2493 0 2494 0 2495 0 2496 0 2497 0 2498 0 2499 0 2500 0 2501 0 2502 0 2503 0 2504 0 2505 0 2506 0 2507 0 2508 0 2509 0 2510 0 2511 0 2512 0 2513 0 2514 0 2515 0 2516 0 2517 0 2518 0 2519 0 2520 0 2521 0 2522 0 2523 0 2524 0 2525 0 2526 0 2527 0 2528 0 2529 0 2530 0 2531 0 2532 0 2533 0 2534 0 2535 0 2536 0 2537 0 2538 0 2539 0 2540 0 2541 0 2542 0 2543 0 2544 0 2545 0 2546 0 2547 0 2548 0 2549 0 2550 0 2551 0 2552 0 2553 0 2554 0 2555 0 2556 0 2557 0 2558 0 2559 0 2560 0 2561 0 2562 0 2563 0 2564 0 2565 0 2566 0 2567 0 2568 0 2569 0 2570 0 2571 0 2572 0 2573 0 2574 0 2575 0 2576 0 2577 0 2578 0 2579 0 2580 0 2581 0 2582 0 2583 0 2584 0 2585 0 2586 0 2587 0 2588 0 2589 0 2590 0 2591 0 2592 0 2593 0 2594 0 2595 0 2596 0 2597 0 2598 0 2599 0 2600 0 2601 0 2602 0 2603 0 2604 0 2605 0 2606 0 2607 0 2608 0 2609 0 2610 0 2611 0 2612 0 2613 0 2614 0 2615 0 2616 0 2617 0 2618 0 2619 0 2620 0 2621 0 2622 0 2623 0 2624 0 2625 0 2626 0 2627 0 2628 0 2629 0 2630 0 2631 0 2632 0 2633 0 2634 0 2635 0 2636 0 2637 0 2638 0 2639 0 2640 0 2641 0 2642 0 2643 0 2644 0 2645 0 2646 0 2647 0 2648 0 2649 0 2650 0 2651 0 2652 0 2653 0 2654 0 2655 0 2656 0 2657 0 2658 0 2659 0 2660 0 2661 0 2662 0 2663 0 2664 0 2665 0 2666 0 2667 0 2668 0 2669 0 2670 0 2671 0 2672 0 2673 0 2674 0 2675 0 2676 0 2677 0 2678 0 2679 0 2680 0 2681 0 2682 0 2683 0 2684 0 2685 0 2686 0 2687 0 2688 0 2689 0 2690 0 2691 0 2692 0 2693 0 2694 0 2695 0 2696 0 2697 0 2698 0 2699 0 2700 0 2701 0 2702 0 2703 0 2704 0 2705 0 2706 0 2707 0 2708 0 2709 0 2710 0 2711 0 2712 0 2713 0 2714 0 2715 0 2716 0 2717 0 2718 0 2719 0 2720 0 2721 0 2722 0 2723 0 2724 0 2725 0 2726 0 2727 0 2728 0 2729 0 2730 0 2731 0 2732 0 2733 0 2734 0 2735 0 2736 0 2737 0 2738 0 2739 0 2740 0 2741 0 2742 0 2743 0 2744 0 2745 0 2746 0 2747 0 2748 0 2749 0 2750 0 2751 0 2752 0 2753 0 2754 0 2755 0 2756 0 2757 0 2758 0 2759 0 2760 0 2761 0 2762 0 2763 0 2764 0 2765 0 2766 0 2767 0 2768 0 2769 0 2770 0 2771 0 2772 0 2773 0 2774 0 2775 0 2776 0 2777 0 2778 0 2779 0 2780 0 2781 0 2782 0 2783 0 2784 0 2785 0 2786 0 2787 0 2788 0 2789 0 2790 0 2791 0 2792 0 2793 0 2794 0 2795 0 2796 0 2797 0 2798 0 2799 0 2800 0 2801 0 2802 0 2803 0 2804 0 2805 0 2806 0 2807 0 2808 0 2809 0 2810 0 2811 0 2812 0 2813 0 2814 0 2815 0 2816 0 2817 0 2818 0 2819 0 2820 0 2821 0 2822 0 2823 0 2824 0 2825 0 2826 0 2827 0 2828 0 2829 0 2830 0 2831 0 2832 0 2833 0 2834 0 2835 0 2836 0 2837 0 2838 0 2839 0 2840 0 2841 0 2842 0 2843 0 2844 0 2845 0 2846 0 2847 0 2848 0 2849 0 2850 0 2851 0 2852 0 2853 0 2854 0 2855 0 2856 0 2857 0 2858 0 2859 0 2860 0 2861 0 2862 0 2863 0 2864 0 2865 0 2866 0 2867 1 2867 2 2867 3 2867 4 2867 5 2867 6 2867 7 2867 8 2867 9 2867 10 2867 11 2867 12 2867 13 2867 14 2867 15 2867 16 2867 17 2867 18 2867 19 2867 20 2867 21 2867 22 2867 23 2867 24 2867 25 2867 26 2867 27 2867 28 2867 29 2867 30 2867 31 2867 32 2867 33 2867 34 2867 35 2867 36 2867 37 2867 38 2867 39 2867 40 2867 41 2867 42 2867 43 2867 44 2867 45 2867 46 2867 47 2867 48 2867 49 2867 50 2867 51 2867 52 2867 53 2867 54 2867 55 2867 56 2867 57 2867 58 2867 59 2867 60 2867 61 2867 62 2867 63 2867 64 2867 65 2867 66 2867 67 2867 68 2867 69 2867 70 2867 71 2867 72 2867 73 2867 74 2867 75 2867 76 2867 77 2867 78 2867 79 2867 80 2867 81 2867 82 2867 83 2867 84 2867 85 2867 86 2867 87 2867 88 2867 89 2867 90 2867 91 2867 92 2867 93 2867 94 2867 95 2867 96 2867 97 2867 98 2867 99 2867 100 2867 101 2867 102 2867 103 2867 104 2867 105 2867 106 2867 107 2867 108 2867 109 2867 110 2867 111 2867 112 2867 113 2867 114 2867 115 2867 116 2867 117 2867 118 2867 119 2867 120 2867 121 2867 122 2867 123 2867 124 2867 125 2867 126 2867 127 2867 128 2867 129 2867 130 2867 131 2867 132 2867 133 2867 134 2867 135 2867 136 2867 137 2867 138 2867 139 2867 140 2867 141 2867 142 2867 143 2867 144 2867 145 2867 146 2867 147 2867 148 2867 149 2867 150 2867 151 2867 152 2867 153 2867 154 2867 155 2867 156 2867 157 2867 158 2867 159 2867 160 2867 161 2867 162 2867 163 2867 164 2867 165 2867 166 2867 167 2867 168 2867 169 2867 170 2867 171 2867 172 2867 173 2867 174 2867 175 2867 176 2867 177 2867 178 2867 179 2867 180 2867 181 2867 182 2867 183 2867 184 2867 185 2867 186 2867 187 2867 188 2867 189 2867 190 2867 191 2867 192 2867 193 2867 194 2867 195 2867 196 2867 197 2867 198 2867 199 2867 200 2867 201 2867 202 2867 203 2867 204 2867 205 2867 206 2867 207 2867 208 2867 209 2867 210 2867 211 2867 212 2867 213 2867 214 2867 215 2867 216 2867 217 2867 218 2867 219 2867 220 2867 221 2867 222 2867 223 2867 224 2867 225 2867 226 2867 227 2867 228 2867 229 2867 230 2867 231 2867 232 2867 233 2867 234 2867 235 2867 236 2867 237 2867 238 2867 239 2867 240 2867 241 2867 242 2867 243 2867 244 2867 245 2867 246 2867 247 2867 248 2867 249 2867 250 2867 251 2867 252 2867 253 2867 254 2867 255 2867 256 2867 257 2867 258 2867 259 2867 260 2867 261 2867 262 2867 263 2867 264 2867 265 2867 266 2867 267 2867 268 2867 269 2867 270 2867 271 2867 272 2867 273 2867 274 2867 275 2867 276 2867 277 2867 278 2867 279 2867 280 2867 281 2867 282 2867 283 2867 284 2867 285 2867 286 2867 287 2867 288 2867 289 2867 290 2867 291 2867 292 2867 293 2867 294 2867 295 2867 296 2867 297 2867 298 2867 299 2867 300 2867 301 2867 302 2867 303 2867 304 2867 305 2867 306 2867 307 2867 308 2867 309 2867 310 2867 311 2867 312 2867 313 2867 314 2867 315 2867 316 2867 317 2867 318 2867 319 2867 320 2867 321 2867 322 2867 323 2867 324 2867 325 2867 326 2867 327 2867 328 2867 329 2867 330 2867 331 2867 332 2867 333 2867 334 2867 335 2867 336 2867 337 2867 338 2867 339 2867 340 2867 341 2867 342 2867 343 2867 344 2867 345 2867 346 2867 347 2867 348 2867 349 2867 350 2867 351 2867 352 2867 353 2867 354 2867 355 2867 356 2867 357 2867 358 2867 359 2867 360 2867 361 2867 362 2867 363 2867 364 2867 365 2867 366 2867 367 2867 368 2867 369 2867 370 2867 371 2867 372 2867 373 2867 374 2867 375 2867 376 2867 377 2867 378 2867 379 2867 380 2867 381 2867 382 2867 383 2867 384 2867 385 2867 386 2867 387 2867 388 2867 389 2867 390 2867 391 2867 392 2867 393 2867 394 2867 395 2867 396 2867 397 2867 398 2867 399 2867 400 2867 401 2867 402 2867 403 2867 404 2867 405 2867 406 2867 407 2867 408 2867 409 2867 410 2867 411 2867 412 2867 413 2867 414 2867 415 2867 416 2867 417 2867 418 2867 419 2867 420 2867 421 2867 422 2867 423 2867 424 2867 425 2867 426 2867 427 2867 428 2867 429 2867 430 2867 431 2867 432 2867 433 2867 434 2867 435 2867 436 2867 437 2867 438 2867 439 2867 440 2867 441 2867 442 2867 443 2867 444 2867 445 2867 446 2867 447 2867 448 2867 449 2867 450 2867 451 2867 452 2867 453 2867 454 2867 455 2867 456 2867 457 2867 458 2867 459 2867 460 2867 461 2867 462 2867 463 2867 464 2867 465 2867 466 2867 467 2867 468 2867 469 2867 470 2867 471 2867 472 2867 473 2867 474 2867 475 2867 476 2867 477 2867 478 2867 479 2867 480 2867 481 2867 482 2867 483 2867 484 2867 485 2867 486 2867 487 2867 488 2867 489 2867 490 2867 491 2867 492 2867 493 2867 494 2867 495 2867 496 2867 497 2867 498 2867 499 2867 500 2867 501 2867 502 2867 503 2867 504 2867 505 2867 506 2867 507 2867 508 2867 509 2867 510 2867 511 2867 512 2867 513 2867 514 2867 515 2867 516 2867 517 2867 518 2867 519 2867 520 2867 521 2867 522 2867 523 2867 524 2867 525 2867 526 2867 527 2867 528 2867 529 2867 530 2867 531 2867 532 2867 533 2867 534 2867 535 2867 536 2867 537 2867 538 2867 539 2867 540 2867 541 2867 542 2867 543 2867 544 2867 545 2867 546 2867 547 2867 548 2867 549 2867 550 2867 551 2867 552 2867 553 2867 554 2867 555 2867 556 2867 557 2867 558 2867 559 2867 560 2867 561 2867 562 2867 563 2867 564 2867 565 2867 566 2867 567 2867 568 2867 569 2867 570 2867 571 2867 572 2867 573 2867 574 2867 575 2867 576 2867 577 2867 578 2867 579 2867 580 2867 581 2867 582 2867 583 2867 584 2867 585 2867 586 2867 587 2867 588 2867 589 2867 590 2867 591 2867 592 2867 593 2867 594 2867 595 2867 596 2867 597 2867 598 2867 599 2867 600 2867 601 2867 602 2867 603 2867 604 2867 605 2867 606 2867 607 2867 608 2867 609 2867 610 2867 611 2867 612 2867 613 2867 614 2867 615 2867 616 2867 617 2867 618 2867 619 2867 620 2867 621 2867 622 2867 623 2867 624 2867 625 2867 626 2867 627 2867 628 2867 629 2867 630 2867 631 2867 632 2867 633 2867 634 2867 635 2867 636 2867 637 2867 638 2867 639 2867 640 2867 641 2867 642 2867 643 2867 644 2867 645 2867 646 2867 647 2867 648 2867 649 2867 650 2867 651 2867 652 2867 653 2867 654 2867 655 2867 656 2867 657 2867 658 2867 659 2867 660 2867 661 2867 662 2867 663 2867 664 2867 665 2867 666 2867 667 2867 668 2867 669 2867 670 2867 671 2867 672 2867 673 2867 674 2867 675 2867 676 2867 677 2867 678 2867 679 2867 680 2867 681 2867 682 2867 683 2867 684 2867 685 2867 686 2867 687 2867 688 2867 689 2867 690 2867 691 2867 692 2867 693 2867 694 2867 695 2867 696 2867 697 2867 698 2867 699 2867 700 2867 701 2867 702 2867 703 2867 704 2867 705 2867 706 2867 707 2867 708 2867 709 2867 710 2867 711 2867 712 2867 713 2867 714 2867 715 2867 716 2867 717 2867 718 2867 719 2867 720 2867 721 2867 722 2867 723 2867 724 2867 725 2867 726 2867 727 2867 728 2867 729 2867 730 2867 731 2867 732 2867 733 2867 734 2867 735 2867 736 2867 737 2867 738 2867 739 2867 740 2867 741 2867 742 2867 743 2867 744 2867 745 2867 746 2867 747 2867 748 2867 749 2867 750 2867 751 2867 752 2867 753 2867 754 2867 755 2867 756 2867 757 2867 758 2867 759 2867 760 2867 761 2867 762 2867 763 2867 764 2867 765 2867 766 2867 767 2867 768 2867 769 2867 770 2867 771 2867 772 2867 773 2867 774 2867 775 2867 776 2867 777 2867 778 2867 779 2867 780 2867 781 2867 782 2867 783 2867 784 2867 785 2867 786 2867 787 2867 788 2867 789 2867 790 2867 791 2867 792 2867 793 2867 794 2867 795 2867 796 2867 797 2867 798 2867 799 2867 800 2867 801 2867 802 2867 803 2867 804 2867 805 2867 806 2867 807 2867 808 2867 809 2867 810 2867 811 2867 812 2867 813 2867 814 2867 815 2867 816 2867 817 2867 818 2867 819 2867 820 2867 821 2867 822 2867 823 2867 824 2867 825 2867 826 2867 827 2867 828 2867 829 2867 830 2867 831 2867 832 2867 833 2867 834 2867 835 2867 836 2867 837 2867 838 2867 839 2867 840 2867 841 2867 842 2867 843 2867 844 2867 845 2867 846 2867 847 2867 848 2867 849 2867 850 2867 851 2867 852 2867 853 2867 854 2867 855 2867 856 2867 857 2867 858 2867 859 2867 860 2867 861 2867 862 2867 863 2867 864 2867 865 2867 866 2867 867 2867 868 2867 869 2867 870 2867 871 2867 872 2867 873 2867 874 2867 875 2867 876 2867 877 2867 878 2867 879 2867 880 2867 881 2867 882 2867 883 2867 884 2867 885 2867 886 2867 887 2867 888 2867 889 2867 890 2867 891 2867 892 2867 893 2867 894 2867 895 2867 896 2867 897 2867 898 2867 899 2867 900 2867 901 2867 902 2867 903 2867 904 2867 905 2867 906 2867 907 2867 908 2867 909 2867 910 2867 911 2867 912 2867 913 2867 914 2867 915 2867 916 2867 917 2867 918 2867 919 2867 920 2867 921 2867 922 2867 923 2867 924 2867 925 2867 926 2867 927 2867 928 2867 929 2867 930 2867 931 2867 932 2867 933 2867 934 2867 935 2867 936 2867 937 2867 938 2867 939 2867 940 2867 941 2867 942 2867 943 2867 944 2867 945 2867 946 2867 947 2867 948 2867 949 2867 950 2867 951 2867 952 2867 953 2867 954 2867 955 2867 956 2867 957 2867 958 2867 959 2867 960 2867 961 2867 962 2867 963 2867 964 2867 965 2867 966 2867 967 2867 968 2867 969 2867 970 2867 971 2867 972 2867 973 2867 974 2867 975 2867 976 2867 977 2867 978 2867 979 2867 980 2867 981 2867 982 2867 983 2867 984 2867 985 2867 986 2867 987 2867 988 2867 989 2867 990 2867 991 2867 992 2867 993 2867 994 2867 995 2867 996 2867 997 2867 998 2867 999 2867 1000 2867 1001 2867 1002 2867 1003 2867 1004 2867 1005 2867 1006 2867 1007 2867 1008 2867 1009 2867 1010 2867 1011 2867 1012 2867 1013 2867 1014 2867 1015 2867 1016 2867 1017 2867 1018 2867 1019 2867 1020 2867 1021 2867 1022 2867 1023 2867 1024 2867 1025 2867 1026 2867 1027 2867 1028 2867 1029 2867 1030 2867 1031 2867 1032 2867 1033 2867 1034 2867 1035 2867 1036 2867 1037 2867 1038 2867 1039 2867 1040 2867 1041 2867 1042 2867 1043 2867 1044 2867 1045 2867 1046 2867 1047 2867 1048 2867 1049 2867 1050 2867 1051 2867 1052 2867 1053 2867 1054 2867 1055 2867 1056 2867 1057 2867 1058 2867 1059 2867 1060 2867 1061 2867 1062 2867 1063 2867 1064 2867 1065 2867 1066 2867 1067 2867 1068 2867 1069 2867 1070 2867 1071 2867 1072 2867 1073 2867 1074 2867 1075 2867 1076 2867 1077 2867 1078 2867 1079 2867 1080 2867 1081 2867 1082 2867 1083 2867 1084 2867 1085 2867 1086 2867 1087 2867 1088 2867 1089 2867 1090 2867 1091 2867 1092 2867 1093 2867 1094 2867 1095 2867 1096 2867 1097 2867 1098 2867 1099 2867 1100 2867 1101 2867 1102 2867 1103 2867 1104 2867 1105 2867 1106 2867 1107 2867 1108 2867 1109 2867 1110 2867 1111 2867 1112 2867 1113 2867 1114 2867 1115 2867 1116 2867 1117 2867 1118 2867 1119 2867 1120 2867 1121 2867 1122 2867 1123 2867 1124 2867 1125 2867 1126 2867 1127 2867 1128 2867 1129 2867 1130 2867 1131 2867 1132 2867 1133 2867 1134 2867 1135 2867 1136 2867 1137 2867 1138 2867 1139 2867 1140 2867 1141 2867 1142 2867 1143 2867 1144 2867 1145 2867 1146 2867 1147 2867 1148 2867 1149 2867 1150 2867 1151 2867 1152 2867 1153 2867 1154 2867 1155 2867 1156 2867 1157 2867 1158 2867 1159 2867 1160 2867 1161 2867 1162 2867 1163 2867 1164 2867 1165 2867 1166 2867 1167 2867 1168 2867 1169 2867 1170 2867 1171 2867 1172 2867 1173 2867 1174 2867 1175 2867 1176 2867 1177 2867 1178 2867 1179 2867 1180 2867 1181 2867 1182 2867 1183 2867 1184 2867 1185 2867 1186 2867 1187 2867 1188 2867 1189 2867 1190 2867 1191 2867 1192 2867 1193 2867 1194 2867 1195 2867 1196 2867 1197 2867 1198 2867 1199 2867 1200 2867 1201 2867 1202 2867 1203 2867 1204 2867 1205 2867 1206 2867 1207 2867 1208 2867 1209 2867 1210 2867 1211 2867 1212 2867 1213 2867 1214 2867 1215 2867 1216 2867 1217 2867 1218 2867 1219 2867 1220 2867 1221 2867 1222 2867 1223 2867 1224 2867 1225 2867 1226 2867 1227 2867 1228 2867 1229 2867 1230 2867 1231 2867 1232 2867 1233 2867 1234 2867 1235 2867 1236 2867 1237 2867 1238 2867 1239 2867 1240 2867 1241 2867 1242 2867 1243 2867 1244 2867 1245 2867 1246 2867 1247 2867 1248 2867 1249 2867 1250 2867 1251 2867 1252 2867 1253 2867 1254 2867 1255 2867 1256 2867 1257 2867 1258 2867 1259 2867 1260 2867 1261 2867 1262 2867 1263 2867 1264 2867 1265 2867 1266 2867 1267 2867 1268 2867 1269 2867 1270 2867 1271 2867 1272 2867 1273 2867 1274 2867 1275 2867 1276 2867 1277 2867 1278 2867 1279 2867 1280 2867 1281 2867 1282 2867 1283 2867 1284 2867 1285 2867 1286 2867 1287 2867 1288 2867 1289 2867 1290 2867 1291 2867 1292 2867 1293 2867 1294 2867 1295 2867 1296 2867 1297 2867 1298 2867 1299 2867 1300 2867 1301 2867 1302 2867 1303 2867 1304 2867 1305 2867 1306 2867 1307 2867 1308 2867 1309 2867 1310 2867 1311 2867 1312 2867 1313 2867 1314 2867 1315 2867 1316 2867 1317 2867 1318 2867 1319 2867 1320 2867 1321 2867 1322 2867 1323 2867 1324 2867 1325 2867 1326 2867 1327 2867 1328 2867 1329 2867 1330 2867 1331 2867 1332 2867 1333 2867 1334 2867 1335 2867 1336 2867 1337 2867 1338 2867 1339 2867 1340 2867 1341 2867 1342 2867 1343 2867 1344 2867 1345 2867 1346 2867 1347 2867 1348 2867 1349 2867 1350 2867 1351 2867 1352 2867 1353 2867 1354 2867 1355 2867 1356 2867 1357 2867 1358 2867 1359 2867 1360 2867 1361 2867 1362 2867 1363 2867 1364 2867 1365 2867 1366 2867 1367 2867 1368 2867 1369 2867 1370 2867 1371 2867 1372 2867 1373 2867 1374 2867 1375 2867 1376 2867 1377 2867 1378 2867 1379 2867 1380 2867 1381 2867 1382 2867 1383 2867 1384 2867 1385 2867 1386 2867 1387 2867 1388 2867 1389 2867 1390 2867 1391 2867 1392 2867 1393 2867 1394 2867 1395 2867 1396 2867 1397 2867 1398 2867 1399 2867 1400 2867 1401 2867 1402 2867 1403 2867 1404 2867 1405 2867 1406 2867 1407 2867 1408 2867 1409 2867 1410 2867 1411 2867 1412 2867 1413 2867 1414 2867 1415 2867 1416 2867 1417 2867 1418 2867 1419 2867 1420 2867 1421 2867 1422 2867 1423 2867 1424 2867 1425 2867 1426 2867 1427 2867 1428 2867 1429 2867 1430 2867 1431 2867 1432 2867 1433 2867 1434 2867 1435 2867 1436 2867 1437 2867 1438 2867 1439 2867 1440 2867 1441 2867 1442 2867 1443 2867 1444 2867 1445 2867 1446 2867 1447 2867 1448 2867 1449 2867 1450 2867 1451 2867 1452 2867 1453 2867 1454 2867 1455 2867 1456 2867 1457 2867 1458 2867 1459 2867 1460 2867 1461 2867 1462 2867 1463 2867 1464 2867 1465 2867 1466 2867 1467 2867 1468 2867 1469 2867 1470 2867 1471 2867 1472 2867 1473 2867 1474 2867 1475 2867 1476 2867 1477 2867 1478 2867 1479 2867 1480 2867 1481 2867 1482 2867 1483 2867 1484 2867 1485 2867 1486 2867 1487 2867 1488 2867 1489 2867 1490 2867 1491 2867 1492 2867 1493 2867 1494 2867 1495 2867 1496 2867 1497 2867 1498 2867 1499 2867 1500 2867 1501 2867 1502 2867 1503 2867 1504 2867 1505 2867 1506 2867 1507 2867 1508 2867 1509 2867 1510 2867 1511 2867 1512 2867 1513 2867 1514 2867 1515 2867 1516 2867 1517 2867 1518 2867 1519 2867 1520 2867 1521 2867 1522 2867 1523 2867 1524 2867 1525 2867 1526 2867 1527 2867 1528 2867 1529 2867 1530 2867 1531 2867 1532 2867 1533 2867 1534 2867 1535 2867 1536 2867 1537 2867 1538 2867 1539 2867 1540 2867 1541 2867 1542 2867 1543 2867 1544 2867 1545 2867 1546 2867 1547 2867 1548 2867 1549 2867 1550 2867 1551 2867 1552 2867 1553 2867 1554 2867 1555 2867 1556 2867 1557 2867 1558 2867 1559 2867 1560 2867 1561 2867 1562 2867 1563 2867 1564 2867 1565 2867 1566 2867 1567 2867 1568 2867 1569 2867 1570 2867 1571 2867 1572 2867 1573 2867 1574 2867 1575 2867 1576 2867 1577 2867 1578 2867 1579 2867 1580 2867 1581 2867 1582 2867 1583 2867 1584 2867 1585 2867 1586 2867 1587 2867 1588 2867 1589 2867 1590 2867 1591 2867 1592 2867 1593 2867 1594 2867 1595 2867 1596 2867 1597 2867 1598 2867 1599 2867 1600 2867 1601 2867 1602 2867 1603 2867 1604 2867 1605 2867 1606 2867 1607 2867 1608 2867 1609 2867 1610 2867 1611 2867 1612 2867 1613 2867 1614 2867 1615 2867 1616 2867 1617 2867 1618 2867 1619 2867 1620 2867 1621 2867 1622 2867 1623 2867 1624 2867 1625 2867 1626 2867 1627 2867 1628 2867 1629 2867 1630 2867 1631 2867 1632 2867 1633 2867 1634 2867 1635 2867 1636 2867 1637 2867 1638 2867 1639 2867 1640 2867 1641 2867 1642 2867 1643 2867 1644 2867 1645 2867 1646 2867 1647 2867 1648 2867 1649 2867 1650 2867 1651 2867 1652 2867 1653 2867 1654 2867 1655 2867 1656 2867 1657 2867 1658 2867 1659 2867 1660 2867 1661 2867 1662 2867 1663 2867 1664 2867 1665 2867 1666 2867 1667 2867 1668 2867 1669 2867 1670 2867 1671 2867 1672 2867 1673 2867 1674 2867 1675 2867 1676 2867 1677 2867 1678 2867 1679 2867 1680 2867 1681 2867 1682 2867 1683 2867 1684 2867 1685 2867 1686 2867 1687 2867 1688 2867 1689 2867 1690 2867 1691 2867 1692 2867 1693 2867 1694 2867 1695 2867 1696 2867 1697 2867 1698 2867 1699 2867 1700 2867 1701 2867 1702 2867 1703 2867 1704 2867 1705 2867 1706 2867 1707 2867 1708 2867 1709 2867 1710 2867 1711 2867 1712 2867 1713 2867 1714 2867 1715 2867 1716 2867 1717 2867 1718 2867 1719 2867 1720 2867 1721 2867 1722 2867 1723 2867 1724 2867 1725 2867 1726 2867 1727 2867 1728 2867 1729 2867 1730 2867 1731 2867 1732 2867 1733 2867 1734 2867 1735 2867 1736 2867 1737 2867 1738 2867 1739 2867 1740 2867 1741 2867 1742 2867 1743 2867 1744 2867 1745 2867 1746 2867 1747 2867 1748 2867 1749 2867 1750 2867 1751 2867 1752 2867 1753 2867 1754 2867 1755 2867 1756 2867 1757 2867 1758 2867 1759 2867 1760 2867 1761 2867 1762 2867 1763 2867 1763 2866 1763 2865 1763 2864 1763 2863 1763 2862 1763 2861 1763 2860 1763 2859 1763 2858 1763 2857 1763 2856 1763 2855 1763 2854 1763 2853 1763 2852 1763 2851 1763 2850 1763 2849 1763 2848 1763 2847 1763 2846 1763 2845 1763 2844 1763 2843 1763 2842 1763 2841 1763 2840 1763 2839 1763 2838 1763 2837 1763 2836 1763 2835 1763 2834 1763 2833 1763 2832 1763 2831 1763 2830 1763 2829 1763 2828 1763 2827 1763 2826 1763 2825 1763 2824 1763 2823 1763 2822 1763 2821 1763 2820 1763 2819 1763 2818 1763 2817 1763 2816 1763 2815 1763 2814 1763 2813 1763 2812 1763 2811 1763 2810 1763 2809 1763 2808 1763 2807 1763 2806 1763 2805 1763 2804 1763 2803 1763 2802 1763 2801 1763 2800 1763 2799 1763 2798 1763 2797 1763 2796 1763 2795 1763 2794 1763 2793 1763 2792 1763 2791 1763 2790 1763 2789 1763 2788 1763 2787 1763 2786 1763 2785 1763 2784 1763 2783 1763 2782 1763 2781 1763 2780 1763 2779 1763 2778 1763 2777 1763 2776 1763 2775 1763 2774 1763 2773 1763 2772 1763 2771 1763 2770 1763 2769 1763 2768 1763 2767 1763 2766 1763 2765 1763 2764 1763 2763 1763 2762 1763 2761 1763 2760 1763 2759 1763 2758 1763 2757 1763 2756 1763 2755 1763 2754 1763 2753 1763 2752 1763 2751 1763 2750 1763 2749 1763 2748 1763 2747 1763 2746 1763 2745 1763 2744 1763 2743 1763 2742 1763 2741 1763 2740 1763 2739 1763 2738 1763 2737 1763 2736 1763 2735 1763 2734 1763 2733 1763 2732 1763 2731 1763 2730 1763 2729 1763 2728 1763 2727 1763 2726 1763 2725 1763 2724 1763 2723 1763 2722 1763 2721 1763 2720 1763 2719 1763 2718 1763 2717 1763 2716 1763 2715 1763 2714 1763 2713 1763 2712 1763 2711 1763 2710 1763 2709 1763 2708 1763 2707 1763 2706 1763 2705 1763 2704 1763 2703 1763 2702 1763 2701 1763 2700 1763 2699 1763 2698 1763 2697 1763 2696 1763 2695 1763 2694 1763 2693 1763 2692 1763 2691 1763 2690 1763 2689 1763 2688 1763 2687 1763 2686 1763 2685 1763 2684 1763 2683 1763 2682 1763 2681 1763 2680 1763 2679 1763 2678 1763 2677 1763 2676 1763 2675 1763 2674 1763 2673 1763 2672 1763 2671 1763 2670 1763 2669 1763 2668 1763 2667 1763 2666 1763 2665 1763 2664 1763 2663 1763 2662 1763 2661 1763 2660 1763 2659 1763 2658 1763 2657 1763 2656 1763 2655 1763 2654 1763 2653 1763 2652 1763 2651 1763 2650 1763 2649 1763 2648 1763 2647 1763 2646 1763 2645 1763 2644 1763 2643 1763 2642 1763 2641 1763 2640 1763 2639 1763 2638 1763 2637 1763 2636 1763 2635 1763 2634 1763 2633 1763 2632 1763 2631 1763 2630 1763 2629 1763 2628 1763 2627 1763 2626 1763 2625 1763 2624 1763 2623 1763 2622 1763 2621 1763 2620 1763 2619 1763 2618 1763 2617 1763 2616 1763 2615 1763 2614 1763 2613 1763 2612 1763 2611 1763 2610 1763 2609 1763 2608 1763 2607 1763 2606 1763 2605 1763 2604 1763 2603 1763 2602 1763 2601 1763 2600 1763 2599 1763 2598 1763 2597 1763 2596 1763 2595 1763 2594 1763 2593 1763 2592 1763 2591 1763 2590 1763 2589 1763 2588 1763 2587 1763 2586 1763 2585 1763 2584 1763 2583 1763 2582 1763 2581 1763 2580 1763 2579 1763 2578 1763 2577 1763 2576 1763 2575 1763 2574 1763 2573 1763 2572 1763 2571 1763 2570 1763 2569 1763 2568 1763 2567 1763 2566 1763 2565 1763 2564 1763 2563 1763 2562 1763 2561 1763 2560 1763 2559 1763 2558 1763 2557 1763 2556 1763 2555 1763 2554 1763 2553 1763 2552 1763 2551 1763 2550 1763 2549 1763 2548 1763 2547 1763 2546 1763 2545 1763 2544 1763 2543 1763 2542 1763 2541 1763 2540 1763 2539 1763 2538 1763 2537 1763 2536 1763 2535 1763 2534 1763 2533 1763 2532 1763 2531 1763 2530 1763 2529 1763 2528 1763 2527 1763 2526 1763 2525 1763 2524 1763 2523 1763 2522 1763 2521 1763 2520 1763 2519 1763 2518 1763 2517 1763 2516 1763 2515 1763 2514 1763 2513 1763 2512 1763 2511 1763 2510 1763 2509 1763 2508 1763 2507 1763 2506 1763 2505 1763 2504 1763 2503 1763 2502 1763 2501 1763 2500 1763 2499 1763 2498 1763 2497 1763 2496 1763 2495 1763 2494 1763 2493 1763 2492 1763 2491 1763 2490 1763 2489 1763 2488 1763 2487 1763 2486 1763 2485 1763 2484 1763 2483 1763 2482 1763 2481 1763 2480 1763 2479 1763 2478 1763 2477 1763 2476 1763 2475 1763 2474 1763 2473 1763 2472 1763 2471 1763 2470 1763 2469 1763 2468 1763 2467 1763 2466 1763 2465 1763 2464 1763 2463 1763 2462 1763 2461 1763 2460 1763 2459 1763 2458 1763 2457 1763 2456 1763 2455 1763 2454 1763 2453 1763 2452 1763 2451 1763 2450 1763 2449 1763 2448 1763 2447 1763 2446 1763 2445 1763 2444 1763 2443 1763 2442 1763 2441 1763 2440 1763 2439 1763 2438 1763 2437 1763 2436 1763 2435 1763 2434 1763 2433 1763 2432 1763 2431 1763 2430 1763 2429 1763 2428 1763 2427 1763 2426 1763 2425 1763 2424 1763 2423 1763 2422 1763 2421 1763 2420 1763 2419 1763 2418 1763 2417 1763 2416 1763 2415 1763 2414 1763 2413 1763 2412 1763 2411 1763 2410 1763 2409 1763 2408 1763 2407 1763 2406 1763 2405 1763 2404 1763 2403 1763 2402 1763 2401 1763 2400 1763 2399 1763 2398 1763 2397 1763 2396 1763 2395 1763 2394 1763 2393 1763 2392 1763 2391 1763 2390 1763 2389 1763 2388 1763 2387 1763 2386 1763 2385 1763 2384 1763 2383 1763 2382 1763 2381 1763 2380 1763 2379 1763 2378 1763 2377 1763 2376 1763 2375 1763 2374 1763 2373 1763 2372 1763 2371 1763 2370 1763 2369 1763 2368 1763 2367 1763 2366 1763 2365 1763 2364 1763 2363 1763 2362 1763 2361 1763 2360 1763 2359 1763 2358 1763 2357 1763 2356 1763 2355 1763 2354 1763 2353 1763 2352 1763 2351 1763 2350 1763 2349 1763 2348 1763 2347 1763 2346 1763 2345 1763 2344 1763 2343 1763 2342 1763 2341 1763 2340 1763 2339 1763 2338 1763 2337 1763 2336 1763 2335 1763 2334 1763 2333 1763 2332 1763 2331 1763 2330 1763 2329 1763 2328 1763 2327 1763 2326 1763 2325 1763 2324 1763 2323 1763 2322 1763 2321 1763 2320 1763 2319 1763 2318 1763 2317 1763 2316 1763 2315 1763 2314 1763 2313 1763 2312 1763 2311 1763 2310 1763 2309 1763 2308 1763 2307 1763 2306 1763 2305 1763 2304 1763 2303 1763 2302 1763 2301 1763 2300 1763 2299 1763 2298 1763 2297 1763 2296 1763 2295 1763 2294 1763 2293 1763 2292 1763 2291 1763 2290 1763 2289 1763 2288 1763 2287 1763 2286 1763 2285 1763 2284 1763 2283 1763 2282 1763 2281 1763 2280 1763 2279 1763 2278 1763 2277 1763 2276 1763 2275 1763 2274 1763 2273 1763 2272 1763 2271 1763 2270 1763 2269 1763 2268 1763 2267 1763 2266 1763 2265 1763 2264 1763 2263 1763 2262 1763 2261 1763 2260 1763 2259 1763 2258 1763 2257 1763 2256 1763 2255 1763 2254 1763 2253 1763 2252 1763 2251 1763 2250 1763 2249 1763 2248 1763 2247 1763 2246 1763 2245 1763 2244 1763 2243 1763 2242 1763 2241 1763 2240 1763 2239 1763 2238 1763 2237 1763 2236 1763 2235 1763 2234 1763 2233 1763 2232 1763 2231 1763 2230 1763 2229 1763 2228 1763 2227 1763 2226 1763 2225 1763 2224 1763 2223 1763 2222 1763 2221 1763 2220 1763 2219 1763 2218 1763 2217 1763 2216 1763 2215 1763 2214 1763 2213 1763 2212 1763 2211 1763 2210 1763 2209 1763 2208 1763 2207 1763 2206 1763 2205 1763 2204 1763 2203 1763 2202 1763 2201 1763 2200 1763 2199 1763 2198 1763 2197 1763 2196 1763 2195 1763 2194 1763 2193 1763 2192 1763 2191 1763 2190 1763 2189 1763 2188 1763 2187 1763 2186 1763 2185 1763 2184 1763 2183 1763 2182 1763 2181 1763 2180 1763 2179 1763 2178 1763 2177 1763 2176 1763 2175 1763 2174 1763 2173 1763 2172 1763 2171 1763 2170 1763 2169 1763 2168 1763 2167 1763 2166 1763 2165 1763 2164 1763 2163 1763 2162 1763 2161 1763 2160 1763 2159 1763 2158 1763 2157 1763 2156 1763 2155 1763 2154 1763 2153 1763 2152 1763 2151 1763 2150 1763 2149 1763 2148 1763 2147 1763 2146 1763 2145 1763 2144 1763 2143 1763 2142 1763 2141 1763 2140 1763 2139 1763 2138 1763 2137 1763 2136 1763 2135 1763 2134 1763 2133 1763 2132 1763 2131 1763 2130 1763 2129 1763 2128 1763 2127 1763 2126 1763 2125 1763 2124 1763 2123 1763 2122 1763 2121 1763 2120 1763 2119 1763 2118 1763 2117 1763 2116 1763 2115 1763 2114 1763 2113 1763 2112 1763 2111 1763 2110 1763 2109 1763 2108 1763 2107 1763 2106 1763 2105 1763 2104 1763 2103 1763 2102 1763 2101 1763 2100 1763 2099 1763 2098 1763 2097 1763 2096 1763 2095 1763 2094 1763 2093 1763 2092 1763 2091 1763 2090 1763 2089 1763 2088 1763 2087 1763 2086 1763 2085 1763 2084 1763 2083 1763 2082 1763 2081 1763 2080 1763 2079 1763 2078 1763 2077 1763 2076 1763 2075 1763 2074 1763 2073 1763 2072 1763 2071 1763 2070 1763 2069 1763 2068 1763 2067 1763 2066 1763 2065 1763 2064 1763 2063 1763 2062 1763 2061 1763 2060 1763 2059 1763 2058 1763 2057 1763 2056 1763 2055 1763 2054 1763 2053 1763 2052 1763 2051 1763 2050 1763 2049 1763 2048 1763 2047 1763 2046 1763 2045 1763 2044 1763 2043 1763 2042 1763 2041 1763 2040 1763 2039 1763 2038 1763 2037 1763 2036 1763 2035 1763 2034 1763 2033 1763 2032 1763 2031 1763 2030 1763 2029 1763 2028 1763 2027 1763 2026 1763 2025 1763 2024 1763 2023 1763 2022 1763 2021 1763 2020 1763 2019 1763 2018 1763 2017 1763 2016 1763 2015 1763 2014 1763 2013 1763 2012 1763 2011 1763 2010 1763 2009 1763 2008 1763 2007 1763 2006 1763 2005 1763 2004 1763 2003 1763 2002 1763 2001 1763 2000 1763 1999 1763 1998 1763 1997 1763 1996 1763 1995 1763 1994 1763 1993 1763 1992 1763 1991 1763 1990 1763 1989 1763 1988 1763 1987 1763 1986 1763 1985 1763 1984 1763 1983 1763 1982 1763 1981 1763 1980 1763 1979 1763 1978 1763 1977 1763 1976 1763 1975 1763 1974 1763 1973 1763 1972 1763 1971 1763 1970 1763 1969 1763 1968 1763 1967 1763 1966 1763 1965 1763 1964 1763 1963 1763 1962 1763 1961 1763 1960 1763 1959 1763 1958 1763 1957 1763 1956 1763 1955 1763 1954 1763 1953 1763 1952 1763 1951 1763 1950 1763 1949 1763 1948 1763 1947 1763 1946 1763 1945 1763 1944 1763 1943 1763 1942 1763 1941 1763 1940 1763 1939 1763 1938 1763 1937 1763 1936 1763 1935 1763 1934 1763 1933 1763 1932 1763 1931 1763 1930 1763 1929 1763 1928 1763 1927 1763 1926 1763 1925 1763 1924 1763 1923 1763 1922 1763 1921 1763 1920 1763 1919 1763 1918 1763 1917 1763 1916 1763 1915 1763 1914 1763 1913 1763 1912 1763 1911 1763 1910 1763 1909 1763 1908 1763 1907 1763 1906 1763 1905 1763 1904 1763 1903 1763 1902 1763 1901 1763 1900 1763 1899 1763 1898 1763 1897 1763 1896 1763 1895 1763 1894 1763 1893 1763 1892 1763 1891 1763 1890 1763 1889 1763 1888 1763 1887 1763 1886 1763 1885 1763 1884 1763 1883 1763 1882 1763 1881 1763 1880 1763 1879 1763 1878 1763 1877 1763 1876 1763 1875 1763 1874 1763 1873 1763 1872 1763 1871 1763 1870 1763 1869 1763 1868 1763 1867 1763 1866 1763 1865 1763 1864 1763 1863 1763 1862 1763 1861 1763 1860 1763 1859 1763 1858 1763 1857 1763 1856 1763 1855 1763 1854 1763 1853 1763 1852 1763 1851 1763 1850 1763 1849 1763 1848 1763 1847 1763 1846 1763 1845 1763 1844 1763 1843 1763 1842 1763 1841 1763 1840 1763 1839 1763 1838 1763 1837 1763 1836 1763 1835 1763 1834 1763 1833 1763 1832 1763 1831 1763 1830 1763 1829 1763 1828 1763 1827 1763 1826 1763 1825 1763 1824 1763 1823 1763 1822 1763 1821 1763 1820 1763 1819 1763 1818 1763 1817 1763 1816 1763 1815 1763 1814 1763 1813 1763 1812 1763 1811 1763 1810 1763 1809 1763 1808 1763 1807 1763 1806 1763 1805 1763 1804 1763 1803 1763 1802 1763 1801 1763 1800 1763 1799 1763 1798 1763 1797 1763 1796 1763 1795 1763 1794 1763 1793 1763 1792 1763 1791 1763 1790 1763 1789 1763 1788 1763 1787 1763 1786 1763 1785 1763 1784 1763 1783 1763 1782 1763 1781 1763 1780 1763 1779 1763 1778 1763 1777 1763 1776 1763 1775 1763 1774 1763 1773 1763 1772 1763 1771 1763 1770 1763 1769 1763 1768 1763 1767 1763 1766 1763 1765 1763 1764 1763 1763 1763 1762 1763 1761 1763 1760 1763 1759 1763 1758 1763 1757 1763 1756 1763 1755 1763 1754 1763 1753 1763 1752 1763 1751 1763 1750 1763 1749 1763 1748 1763 1747 1763 1746 1763 1745 1763 1744 1763 1743 1763 1742 1763 1741 1763 1740 1763 1739 1763 1738 1763 1737 1763 1736 1763 1735 1763 1734 1763 1733 1763 1732 1763 1731 1763 1730 1763 1729 1763 1728 1763 1727 1763 1726 1763 1725 1763 1724 1763 1723 1763 1722 1763 1721 1763 1720 1763 1719 1763 1718 1763 1717 1763 1716 1763 1715 1763 1714 1763 1713 1763 1712 1763 1711 1763 1710 1763 1709 1763 1708 1763 1707 1763 1706 1763 1705 1763 1704 1763 1703 1763 1702 1763 1701 1763 1700 1763 1699 1763 1698 1763 1697 1763 1696 1763 1695 1763 1694 1763 1693 1763 1692 1763 1691 1763 1690 1763 1689 1763 1688 1763 1687 1763 1686 1763 1685 1763 1684 1763 1683 1763 1682 1763 1681 1763 1680 1763 1679 1763 1678 1763 1677 1763 1676 1763 1675 1763 1674 1763 1673 1763 1672 1763 1671 1763 1670 1763 1669 1763 1668 1763 1667 1763 1666 1763 1665 1763 1664 1763 1663 1763 1662 1763 1661 1763 1660 1763 1659 1763 1658 1763 1657 1763 1656 1763 1655 1763 1654 1763 1653 1763 1652 1763 1651 1763 1650 1763 1649 1763 1648 1763 1647 1763 1646 1763 1645 1763 1644 1763 1643 1763 1642 1763 1641 1763 1640 1763 1639 1763 1638 1763 1637 1763 1636 1763 1635 1763 1634 1763 1633 1763 1632 1763 1631 1763 1630 1763 1629 1763 1628 1763 1627 1763 1626 1763 1625 1763 1624 1763 1623 1763 1622 1763 1621 1763 1620 1763 1619 1763 1618 1763 1617 1763 1616 1763 1615 1763 1614 1763 1613 1763 1612 1763 1611 1763 1610 1763 1609 1763 1608 1763 1607 1763 1606 1763 1605 1763 1604 1763 1603 1763 1602 1763 1601 1763 1600 1763 1599 1763 1598 1763 1597 1763 1596 1763 1595 1763 1594 1763 1593 1763 1592 1763 1591 1763 1590 1763 1589 1763 1588 1763 1587 1763 1586 1763 1585 1763 1584 1763 1583 1763 1582 1763 1581 1763 1580 1763 1579 1763 1578 1763 1577 1763 1576 1763 1575 1763 1574 1763 1573 1763 1572 1763 1571 1763 1570 1763 1569 1763 1568 1763 1567 1763 1566 1763 1565 1763 1564 1763 1563 1763 1562 1763 1561 1763 1560 1763 1559 1763 1558 1763 1557 1763 1556 1763 1555 1763 1554 1763 1553 1763 1552 1763 1551 1763 1550 1763 1549 1763 1548 1763 1547 1763 1546 1763 1545 1763 1544 1763 1543 1763 1542 1763 1541 1763 1540 1763 1539 1763 1538 1763 1537 1763 1536 1763 1535 1763 1534 1763 1533 1763 1532 1763 1531 1763 1530 1763 1529 1763 1528 1763 1527 1763 1526 1763 1525 1763 1524 1763 1523 1763 1522 1763 1521 1763 1520 1763 1519 1763 1518 1763 1517 1763 1516 1763 1515 1763 1514 1763 1513 1763 1512 1763 1511 1763 1510 1763 1509 1763 1508 1763 1507 1763 1506 1763 1505 1763 1504 1763 1503 1763 1502 1763 1501 1763 1500 1763 1499 1763 1498 1763 1497 1763 1496 1763 1495 1763 1494 1763 1493 1763 1492 1763 1491 1763 1490 1763 1489 1763 1488 1763 1487 1763 1486 1763 1485 1763 1484 1763 1483 1763 1482 1763 1481 1763 1480 1763 1479 1763 1478 1763 1477 1763 1476 1763 1475 1763 1474 1763 1473 1763 1472 1763 1471 1763 1470 1763 1469 1763 1468 1763 1467 1763 1466 1763 1465 1763 1464 1763 1463 1763 1462 1763 1461 1763 1460 1763 1459 1763 1458 1763 1457 1763 1456 1763 1455 1763 1454 1763 1453 1763 1452 1763 1451 1763 1450 1763 1449 1763 1448 1763 1447 1763 1446 1763 1445 1763 1444 1763 1443 1763 1442 1763 1441 1763 1440 1763 1439 1763 1438 1763 1437 1763 1436 1763 1435 1763 1434 1763 1433 1763 1432 1763 1431 1763 1430 1763 1429 1763 1428 1763 1427 1763 1426 1763 1425 1763 1424 1763 1423 1763 1422 1763 1421 1763 1420 1763 1419 1763 1418 1763 1417 1763 1416 1763 1415 1763 1414 1763 1413 1763 1412 1763 1411 1763 1410 1763 1409 1763 1408 1763 1407 1763 1406 1763 1405 1763 1404 1763 1403 1763 1402 1763 1401 1763 1400 1763 1399 1763 1398 1763 1397 1763 1396 1763 1395 1763 1394 1763 1393 1763 1392 1763 1391 1763 1390 1763 1389 1763 1388 1763 1387 1763 1386 1763 1385 1763 1384 1763 1383 1763 1382 1763 1381 1763 1380 1763 1379 1763 1378 1763 1377 1763 1376 1763 1375 1763 1374 1763 1373 1763 1372 1763 1371 1763 1370 1763 1369 1763 1368 1763 1367 1763 1366 1763 1365 1763 1364 1763 1363 1763 1362 1763 1361 1763 1360 1763 1359 1763 1358 1763 1357 1763 1356 1763 1355 1763 1354 1763 1353 1763 1352 1763 1351 1763 1350 1763 1349 1763 1348 1763 1347 1763 1346 1763 1345 1763 1344 1763 1343 1763 1342 1763 1341 1763 1340 1763 1339 1763 1338 1763 1337 1763 1336 1763 1335 1763 1334 1763 1333 1763 1332 1763 1331 1763 1330 1763 1329 1763 1328 1763 1327 1763 1326 1763 1325 1763 1324 1763 1323 1763 1322 1763 1321 1763 1320 1763 1319 1763 1318 1763 1317 1763 1316 1763 1315 1763 1314 1763 1313 1763 1312 1763 1311 1763 1310 1763 1309 1763 1308 1763 1307 1763 1306 1763 1305 1763 1304 1763 1303 1763 1302 1763 1301 1763 1300 1763 1299 1763 1298 1763 1297 1763 1296 1763 1295 1763 1294 1763 1293 1763 1292 1763 1291 1763 1290 1763 1289 1763 1288 1763 1287 1763 1286 1763 1285 1763 1284 1763 1283 1763 1282 1763 1281 1763 1280 1763 1279 1763 1278 1763 1277 1763 1276 1763 1275 1763 1274 1763 1273 1763 1272 1763 1271 1763 1270 1763 1269 1763 1268 1763 1267 1763 1266 1763 1265 1763 1264 1763 1263 1763 1262 1763 1261 1763 1260 1763 1259 1763 1258 1763 1257 1763 1256 1763 1255 1763 1254 1763 1253 1763 1252 1763 1251 1763 1250 1763 1249 1763 1248 1763 1247 1763 1246 1763 1245 1763 1244 1763 1243 1763 1242 1763 1241 1763 1240 1763 1239 1763 1238 1763 1237 1763 1236 1763 1235 1763 1234 1763 1233 1763 1232 1763 1231 1763 1230 1763 1229 1763 1228 1763 1227 1763 1226 1763 1225 1763 1224 1763 1223 1763 1222 1763 1221 1763 1220 1763 1219 1763 1218 1763 1217 1763 1216 1763 1215 1763 1214 1763 1213 1763 1212 1763 1211 1763 1210 1763 1209 1763 1208 1763 1207 1763 1206 1763 1205 1763 1204 1763 1203 1763 1202 1763 1201 1763 1200 1763 1199 1763 1198 1763 1197 1763 1196 1763 1195 1763 1194 1763 1193 1763 1192 1763 1191 1763 1190 1763 1189 1763 1188 1763 1187 1763 1186 1763 1185 1763 1184 1763 1183 1763 1182 1763 1181 1763 1180 1763 1179 1763 1178 1763 1177 1763 1176 1763 1175 1763 1174 1763 1173 1763 1172 1763 1171 1763 1170 1763 1169 1763 1168 1763 1167 1763 1166 1763 1165 1763 1164 1763 1163 1763 1162 1763 1161 1763 1160 1763 1159 1763 1158 1763 1157 1763 1156 1763 1155 1763 1154 1763 1153 1763 1152 1763 1151 1763 1150 1763 1149 1763 1148 1763 1147 1763 1146 1763 1145 1763 1144 1763 1143 1763 1142 1763 1141 1763 1140 1763 1139 1763 1138 1763 1137 1763 1136 1763 1135 1763 1134 1763 1133 1763 1132 1763 1131 1763 1130 1763 1129 1763 1128 1763 1127 1763 1126 1763 1125 1763 1124 1763 1123 1763 1122 1763 1121 1763 1120 1763 1119 1763 1118 1763 1117 1763 1116 1763 1115 1763 1114 1763 1113 1763 1112 1763 1111 1763 1110 1763 1109 1763 1108 1763 1107 1763 1106 1763 1105 1763 1104 1763 1103 1763 1102 1763 1101 1763 1100 1763 1099 1763 1098 1763 1097 1763 1096 1763 1095 1763 1094 1763 1093 1763 1092 1763 1091 1763 1090 1763 1089 1763 1088 1763 1087 1763 1086 1763 1085 1763 1084 1763 1083 1763 1082 1763 1081 1763 1080 1763 1079 1763 1078 1763 1077 1763 1076 1763 1075 1763 1074 1763 1073 1763 1072 1763 1071 1763 1070 1763 1069 1763 1068 1763 1067 1763 1066 1763 1065 1763 1064 1763 1063 1763 1062 1763 1061 1763 1060 1763 1059 1763 1058 1763 1057 1763 1056 1763 1055 1763 1054 1763 1053 1763 1052 1763 1051 1763 1050 1763 1049 1763 1048 1763 1047 1763 1046 1763 1045 1763 1044 1763 1043 1763 1042 1763 1041 1763 1040 1763 1039 1763 1038 1763 1037 1763 1036 1763 1035 1763 1034 1763 1033 1763 1032 1763 1031 1763 1030 1763 1029 1763 1028 1763 1027 1763 1026 1763 1025 1763 1024 1763 1023 1763 1022 1763 1021 1763 1020 1763 1019 1763 1018 1763 1017 1763 1016 1763 1015 1763 1014 1763 1013 1763 1012 1763 1011 1763 1010 1763 1009 1763 1008 1763 1007 1763 1006 1763 1005 1763 1004 1763 1003 1763 1002 1763 1001 1763 1000 1763 999 1763 998 1763 997 1763 996 1763 995 1763 994 1763 993 1763 992 1763 991 1763 990 1763 989 1763 988 1763 987 1763 986 1763 985 1763 984 1763 983 1763 982 1763 981 1763 980 1763 979 1763 978 1763 977 1763 976 1763 975 1763 974 1763 973 1763 972 1763 971 1763 970 1763 969 1763 968 1763 967 1763 966 1763 965 1763 964 1763 963 1763 962 1763 961 1763 960 1763 959 1763 958 1763 957 1763 956 1763 955 1763 954 1763 953 1763 952 1763 951 1763 950 1763 949 1763 948 1763 947 1763 946 1763 945 1763 944 1763 943 1763 942 1763 941 1763 940 1763 939 1763 938 1763 937 1763 936 1763 935 1763 934 1763 933 1763 932 1763 931 1763 930 1763 929 1763 928 1763 927 1763 926 1763 925 1763 924 1763 923 1763 922 1763 921 1763 920 1763 919 1763 918 1763 917 1763 916 1763 915 1763 914 1763 913 1763 912 1763 911 1763 910 1763 909 1763 908 1763 907 1763 906 1763 905 1763 904 1763 903 1763 902 1763 901 1763 900 1763 899 1763 898 1763 897 1763 896 1763 895 1763 894 1763 893 1763 892 1763 891 1763 890 1763 889 1763 888 1763 887 1763 886 1763 885 1763 884 1763 883 1763 882 1763 881 1763 880 1763 879 1763 878 1763 877 1763 876 1763 875 1763 874 1763 873 1763 872 1763 871 1763 870 1763 869 1763 868 1763 867 1763 866 1763 865 1763 864 1763 863 1763 862 1763 861 1763 860 1763 859 1763 858 1763 857 1763 856 1763 855 1763 854 1763 853 1763 852 1763 851 1763 850 1763 849 1763 848 1763 847 1763 846 1763 845 1763 844 1763 843 1763 842 1763 841 1763 840 1763 839 1763 838 1763 837 1763 836 1763 835 1763 834 1763 833 1763 832 1763 831 1763 830 1763 829 1763 828 1763 827 1763 826 1763 825 1763 824 1763 823 1763 822 1763 821 1763 820 1763 819 1763 818 1763 817 1763 816 1763 815 1763 814 1763 813 1763 812 1763 811 1763 810 1763 809 1763 808 1763 807 1763 806 1763 805 1763 804 1763 803 1763 802 1763 801 1763 800 1763 799 1763 798 1763 797 1763 796 1763 795 1763 794 1763 793 1763 792 1763 791 1763 790 1763 789 1763 788 1763 787 1763 786 1763 785 1763 784 1763 783 1763 782 1763 781 1763 780 1763 779 1763 778 1763 777 1763 776 1763 775 1763 774 1763 773 1763 772 1763 771 1763 770 1763 769 1763 768 1763 767 1763 766 1763 765 1763 764 1763 763 1763 762 1763 761 1763 760 1763 759 1763 758 1763 757 1763 756 1763 755 1763 754 1763 753 1763 752 1763 751 1763 750 1763 749 1763 748 1763 747 1763 746 1763 745 1763 744 1763 743 1763 742 1763 741 1763 740 1763 739 1763 738 1763 737 1763 736 1763 735 1763 734 1763 733 1763 732 1763 731 1763 730 1763 729 1763 728 1763 727 1763 726 1763 725 1763 724 1763 723 1763 722 1763 721 1763 720 1763 719 1763 718 1763 717 1763 716 1763 715 1763 714 1763 713 1763 712 1763 711 1763 710 1763 709 1763 708 1763 707 1763 706 1763 705 1763 704 1763 703 1763 702 1763 701 1763 700 1763 699 1763 698 1763 697 1763 696 1763 695 1763 694 1763 693 1763 692 1763 691 1763 690 1763 689 1763 688 1763 687 1763 686 1763 685 1763 684 1763 683 1763 682 1763 681 1763 680 1763 679 1763 678 1763 677 1763 676 1763 675 1763 674 1763 673 1763 672 1763 671 1763 670 1763 669 1763 668 1763 667 1763 666 1763 665 1763 664 1763 663 1763 662 1763 661 1763 660 1763 659 1763 658 1763 657 1763 656 1763 655 1763 654 1763 653 1763 652 1763 651 1763 650 1763 649 1763 648 1763 647 1763 646 1763 645 1763 644 1763 643 1763 642 1763 641 1763 640 1763 639 1763 638 1763 637 1763 636 1763 635 1763 634 1763 633 1763 632 1763 631 1763 630 1763 629 1763 628 1763 627 1763 626 1763 625 1763 624 1763 623 1763 622 1763 621 1763 620 1763 619 1763 618 1763 617 1763 616 1763 615 1763 614 1763 613 1763 612 1763 611 1763 610 1763 609 1763 608 1763 607 1763 606 1763 605 1763 604 1763 603 1763 602 1763 601 1763 600 1763 599 1763 598 1763 597 1763 596 1763 595 1763 594 1763 593 1763 592 1763 591 1763 590 1763 589 1763 588 1763 587 1763 586 1763 585 1763 584 1763 583 1763 582 1763 581 1763 580 1763 579 1763 578 1763 577 1763 576 1763 575 1763 574 1763 573 1763 572 1763 571 1763 570 1763 569 1763 568 1763 567 1763 566 1763 565 1763 564 1763 563 1763 562 1763 561 1763 560 1763 559 1763 558 1763 557 1763 556 1763 555 1763 554 1763 553 1763 552 1763 551 1763 550 1763 549 1763 548 1763 547 1763 546 1763 545 1763 544 1763 543 1763 542 1763 541 1763 540 1763 539 1763 538 1763 537 1763 536 1763 535 1763 534 1763 533 1763 532 1763 531 1763 530 1763 529 1763 528 1763 527 1763 526 1763 525 1763 524 1763 523 1763 522 1763 521 1763 520 1763 519 1763 518 1763 517 1763 516 1763 515 1763 514 1763 513 1763 512 1763 511 1763 510 1763 509 1763 508 1763 507 1763 506 1763 505 1763 504 1763 503 1763 502 1763 501 1763 500 1763 499 1763 498 1763 497 1763 496 1763 495 1763 494 1763 493 1763 492 1763 491 1763 490 1763 489 1763 488 1763 487 1763 486 1763 485 1763 484 1763 483 1763 482 1763 481 1763 480 1763 479 1763 478 1763 477 1763 476 1763 475 1763 474 1763 473 1763 472 1763 471 1763 470 1763 469 1763 468 1763 467 1763 466 1763 465 1763 464 1763 463 1763 462 1763 461 1763 460 1763 459 1763 458 1763 457 1763 456 1763 455 1763 454 1763 453 1763 452 1763 451 1763 450 1763 449 1763 448 1763 447 1763 446 1763 445 1763 444 1763 443 1763 442 1763 441 1763 440 1763 439 1763 438 1763 437 1763 436 1763 435 1763 434 1763 433 1763 432 1763 431 1763 430 1763 429 1763 428 1763 427 1763 426 1763 425 1763 424 1763 423 1763 422 1763 421 1763 420 1763 419 1763 418 1763 417 1763 416 1763 415 1763 414 1763 413 1763 412 1763 411 1763 410 1763 409 1763 408 1763 407 1763 406 1763 405 1763 404 1763 403 1763 402 1763 401 1763 400 1763 399 1763 398 1763 397 1763 396 1763 395 1763 394 1763 393 1763 392 1763 391 1763 390 1763 389 1763 388 1763 387 1763 386 1763 385 1763 384 1763 383 1763 382 1763 381 1763 380 1763 379 1763 378 1763 377 1763 376 1763 375 1763 374 1763 373 1763 372 1763 371 1763 370 1763 369 1763 368 1763 367 1763 366 1763 365 1763 364 1763 363 1763 362 1763 361 1763 360 1763 359 1763 358 1763 357 1763 356 1763 355 1763 354 1763 353 1763 352 1763 351 1763 350 1763 349 1763 348 1763 347 1763 346 1763 345 1763 344 1763 343 1763 342 1763 341 1763 340 1763 339 1763 338 1763 337 1763 336 1763 335 1763 334 1763 333 1763 332 1763 331 1763 330 1763 329 1763 328 1763 327 1763 326 1763 325 1763 324 1763 323 1763 322 1763 321 1763 320 1763 319 1763 318 1763 317 1763 316 1763 315 1763 314 1763 313 1763 312 1763 311 1763 310 1763 309 1763 308 1763 307 1763 306 1763 305 1763 304 1763 303 1763 302 1763 301 1763 300 1763 299 1763 298 1763 297 1763 296 1763 295 1763 294 1763 293 1763 292 1763 291 1763 290 1763 289 1763 288 1763 287 1763 286 1763 285 1763 284 1763 283 1763 282 1763 281 1763 280 1763 279 1763 278 1763 277 1763 276 1763 275 1763 274 1763 273 1763 272 1763 271 1763 270 1763 269 1763 268 1763 267 1763 266 1763 265 1763 264 1763 263 1763 262 1763 261 1763 260 1763 259 1763 258 1763 257 1763 256 1763 255 1763 254 1763 253 1763 252 1763 251 1763 250 1763 249 1763 248 1763 247 1763 246 1763 245 1763 244 1763 243 1763 242 1763 241 1763 240 1763 239 1763 238 1763 237 1763 236 1763 235 1763 234 1763 233 1763 232 1763 231 1763 230 1763 229 1763 228 1763 227 1763 226 1763 225 1763 224 1763 223 1763 222 1763 221 1763 220 1763 219 1763 218 1763 217 1763 216 1763 215 1763 214 1763 213 1763 212 1763 211 1763 210 1763 209 1763 208 1763 207 1763 206 1763 205 1763 204 1763 203 1763 202 1763 201 1763 200 1763 199 1763 198 1763 197 1763 196 1763 195 1763 194 1763 193 1763 192 1763 191 1763 190 1763 189 1763 188 1763 187 1763 186 1763 185 1763 184 1763 183 1763 182 1763 181 1763 180 1763 179 1763 178 1763 177 1763 176 1763 175 1763 174 1763 173 1763 172 1763 171 1763 170 1763 169 1763 168 1763 167 1763 166 1763 165 1763 164 1763 163 1763 162 1763 161 1763 160 1763 159 1763 158 1763 157 1763 156 1763 155 1763 154 1763 153 1763 152 1763 151 1763 150 1763 149 1763 148 1763 147 1763 146 1763 145 1763 144 1763 143 1763 142 1763 141 1763 140 1763 139 1763 138 1763 137 1763 136 1763 135 1763 134 1763 133 1763 132 1763 131 1763 130 1763 129 1763 128 1763 127 1763 126 1763 125 1763 124 1763 123 1763 122 1763 121 1763 120 1763 119 1763 118 1763 117 1763 116 1763 115 1763 114 1763 113 1763 112 1763 111 1763 110 1763 109 1763 108 1763 107 1763 106 1763 105 1763 104 1763 103 1763 102 1763 101 1763 100 1763 99 1763 98 1763 97 1763 96 1763 95 1763 94 1763 93 1763 92 1763 91 1763 90 1763 89 1763 88 1763 87 1763 86 1763 85 1763 84 1763 83 1763 82 1763 81 1763 80 1763 79 1763 78 1763 77 1763 76 1763 75 1763 74 1763 73 1763 72 1763 71 1763 70 1763 69 1763 68 1763 67 1763 66 1763 65 1763 64 1763 63 1763 62 1763 61 1763 60 1763 59 1763 58 1763 57 1763 56 1763 55 1763 54 1763 53 1763 52 1763 51 1763 50 1763 49 1763 48 1763 47 1763 46 1763 45 1763 44 1763 43 1763 42 1763 41 1763 40 1763 39 1763 38 1763 37 1763 36 1763 35 1763 34 1763 33 1763 32 1763 31 1763 30 1763 29 1763 28 1763 27 1763 26 1763 25 1763 24 1763 23 1763 22 1763 21 1763 20 1763 19 1763 18 1763 17 1763 16 1763 15 1763 14 1763 13 1763 12 1763 11 1763 10 1763 9 1763 8 1763 7 1763 6 1763 5 1763 4 1763 3 1763 2 1763 1 1763 0 1762 0 1761 0 1760 0 1759 0 1758 0 1757 0 1756 0 1755 0 1754 0 1753 0 1752 0 1751 0 1750 0 1749 0 1748 0 1747 0 1746 0 1745 0 1744 0 1743 0 1742 0 1741 0 1740 0 1739 0 1738 0 1737 0 1736 0 1735 0 1734 0 1733 0 1732 0 1731 0 1730 0 1729 0 1728 0 1727 0 1726 0 1725 0 1724 0 1723 0 1722 0 1721 0 1720 0 1719 0 1718 0 1717 0 1716 0 1715 0 1714 0 1713 0 1712 0 1711 0 1710 0 1709 0 1708 0 1707 0 1706 0 1705 0 1704 0 1703 0 1702 0 1701 0 1700 0 1699 0 1698 0 1697 0 1696 0 1695 0 1694 0 1693 0 1692 0 1691 0 1690 0 1689 0 1688 0 1687 0 1686 0 1685 0 1684 0 1683 0 1682 0 1681 0 1680 0 1679 0 1678 0 1677 0 1676 0 1675 0 1674 0 1673 0 1672 0 1671 0 1670 0 1669 0 1668 0 1667 0 1666 0 1665 0 1664 0 1663 0 1662 0 1661 0 1660 0 1659 0 1658 0 1657 0 1656 0 1655 0 1654 0 1653 0 1652 0 1651 0 1650 0 1649 0 1648 0 1647 0 1646 0 1645 0 1644 0 1643 0 1642 0 1641 0 1640 0 1639 0 1638 0 1637 0 1636 0 1635 0 1634 0 1633 0 1632 0 1631 0 1630 0 1629 0 1628 0 1627 0 1626 0 1625 0 1624 0 1623 0 1622 0 1621 0 1620 0 1619 0 1618 0 1617 0 1616 0 1615 0 1614 0 1613 0 1612 0 1611 0 1610 0 1609 0 1608 0 1607 0 1606 0 1605 0 1604 0 1603 0 1602 0 1601 0 1600 0 1599 0 1598 0 1597 0 1596 0 1595 0 1594 0 1593 0 1592 0 1591 0 1590 0 1589 0 1588 0 1587 0 1586 0 1585 0 1584 0 1583 0 1582 0 1581 0 1580 0 1579 0 1578 0 1577 0 1576 0 1575 0 1574 0 1573 0 1572 0 1571 0 1570 0 1569 0 1568 0 1567 0 1566 0 1565 0 1564 0 1563 0 1562 0 1561 0 1560 0 1559 0 1558 0 1557 0 1556 0 1555 0 1554 0 1553 0 1552 0 1551 0 1550 0 1549 0 1548 0 1547 0 1546 0 1545 0 1544 0 1543 0 1542 0 1541 0 1540 0 1539 0 1538 0 1537 0 1536 0 1535 0 1534 0 1533 0 1532 0 1531 0 1530 0 1529 0 1528 0 1527 0 1526 0 1525 0 1524 0 1523 0 1522 0 1521 0 1520 0 1519 0 1518 0 1517 0 1516 0 1515 0 1514 0 1513 0 1512 0 1511 0 1510 0 1509 0 1508 0 1507 0 1506 0 1505 0 1504 0 1503 0 1502 0 1501 0 1500 0 1499 0 1498 0 1497 0 1496 0 1495 0 1494 0 1493 0 1492 0 1491 0 1490 0 1489 0 1488 0 1487 0 1486 0 1485 0 1484 0 1483 0 1482 0 1481 0 1480 0 1479 0 1478 0 1477 0 1476 0 1475 0 1474 0 1473 0 1472 0 1471 0 1470 0 1469 0 1468 0 1467 0 1466 0 1465 0 1464 0 1463 0 1462 0 1461 0 1460 0 1459 0 1458 0 1457 0 1456 0 1455 0 1454 0 1453 0 1452 0 1451 0 1450 0 1449 0 1448 0 1447 0 1446 0 1445 0 1444 0 1443 0 1442 0 1441 0 1440 0 1439 0 1438 0 1437 0 1436 0 1435 0 1434 0 1433 0 1432 0 1431 0 1430 0 1429 0 1428 0 1427 0 1426 0 1425 0 1424 0 1423 0 1422 0 1421 0 1420 0 1419 0 1418 0 1417 0 1416 0 1415 0 1414 0 1413 0 1412 0 1411 0 1410 0 1409 0 1408 0 1407 0 1406 0 1405 0 1404 0 1403 0 1402 0 1401 0 1400 0 1399 0 1398 0 1397 0 1396 0 1395 0 1394 0 1393 0 1392 0 1391 0 1390 0 1389 0 1388 0 1387 0 1386 0 1385 0 1384 0 1383 0 1382 0 1381 0 1380 0 1379 0 1378 0 1377 0 1376 0 1375 0 1374 0 1373 0 1372 0 1371 0 1370 0 1369 0 1368 0 1367 0 1366 0 1365 0 1364 0 1363 0 1362 0 1361 0 1360 0 1359 0 1358 0 1357 0 1356 0 1355 0 1354 0 1353 0 1352 0 1351 0 1350 0 1349 0 1348 0 1347 0 1346 0 1345 0 1344 0 1343 0 1342 0 1341 0 1340 0 1339 0 1338 0 1337 0 1336 0 1335 0 1334 0 1333 0 1332 0 1331 0 1330 0 1329 0 1328 0 1327 0 1326 0 1325 0 1324 0 1323 0 1322 0 1321 0 1320 0 1319 0 1318 0 1317 0 1316 0 1315 0 1314 0 1313 0 1312 0 1311 0 1310 0 1309 0 1308 0 1307 0 1306 0 1305 0 1304 0 1303 0 1302 0 1301 0 1300 0 1299 0 1298 0 1297 0 1296 0 1295 0 1294 0 1293 0 1292 0 1291 0 1290 0 1289 0 1288 0 1287 0 1286 0 1285 0 1284 0 1283 0 1282 0 1281 0 1280 0 1279 0 1278 0 1277 0 1276 0 1275 0 1274 0 1273 0 1272 0 1271 0 1270 0 1269 0 1268 0 1267 0 1266 0 1265 0 1264 0 1263 0 1262 0 1261 0 1260 0 1259 0 1258 0 1257 0 1256 0 1255 0 1254 0 1253 0 1252 0 1251 0 1250 0 1249 0 1248 0 1247 0 1246 0 1245 0 1244 0 1243 0 1242 0 1241 0 1240 0 1239 0 1238 0 1237 0 1236 0 1235 0 1234 0 1233 0 1232 0 1231 0 1230 0 1229 0 1228 0 1227 0 1226 0 1225 0 1224 0 1223 0 1222 0 1221 0 1220 0 1219 0 1218 0 1217 0 1216 0 1215 0 1214 0 1213 0 1212 0 1211 0 1210 0 1209 0 1208 0 1207 0 1206 0 1205 0 1204 0 1203 0 1202 0 1201 0 1200 0 1199 0 1198 0 1197 0 1196 0 1195 0 1194 0 1193 0 1192 0 1191 0 1190 0 1189 0 1188 0 1187 0 1186 0 1185 0 1184 0 1183 0 1182 0 1181 0 1180 0 1179 0 1178 0 1177 0 1176 0 1175 0 1174 0 1173 0 1172 0 1171 0 1170 0 1169 0 1168 0 1167 0 1166 0 1165 0 1164 0 1163 0 1162 0 1161 0 1160 0 1159 0 1158 0 1157 0 1156 0 1155 0 1154 0 1153 0 1152 0 1151 0 1150 0 1149 0 1148 0 1147 0 1146 0 1145 0 1144 0 1143 0 1142 0 1141 0 1140 0 1139 0 1138 0 1137 0 1136 0 1135 0 1134 0 1133 0 1132 0 1131 0 1130 0 1129 0 1128 0 1127 0 1126 0 1125 0 1124 0 1123 0 1122 0 1121 0 1120 0 1119 0 1118 0 1117 0 1116 0 1115 0 1114 0 1113 0 1112 0 1111 0 1110 0 1109 0 1108 0 1107 0 1106 0 1105 0 1104 0 1103 0 1102 0 1101 0 1100 0 1099 0 1098 0 1097 0 1096 0 1095 0 1094 0 1093 0 1092 0 1091 0 1090 0 1089 0 1088 0 1087 0 1086 0 1085 0 1084 0 1083 0 1082 0 1081 0 1080 0 1079 0 1078 0 1077 0 1076 0 1075 0 1074 0 1073 0 1072 0 1071 0 1070 0 1069 0 1068 0 1067 0 1066 0 1065 0 1064 0 1063 0 1062 0 1061 0 1060 0 1059 0 1058 0 1057 0 1056 0 1055 0 1054 0 1053 0 1052 0 1051 0 1050 0 1049 0 1048 0 1047 0 1046 0 1045 0 1044 0 1043 0 1042 0 1041 0 1040 0 1039 0 1038 0 1037 0 1036 0 1035 0 1034 0 1033 0 1032 0 1031 0 1030 0 1029 0 1028 0 1027 0 1026 0 1025 0 1024 0 1023 0 1022 0 1021 0 1020 0 1019 0 1018 0 1017 0 1016 0 1015 0 1014 0 1013 0 1012 0 1011 0 1010 0 1009 0 1008 0 1007 0 1006 0 1005 0 1004 0 1003 0 1002 0 1001 0 1000 0 999 0 998 0 997 0 996 0 995 0 994 0 993 0 992 0 991 0 990 0 989 0 988 0 987 0 986 0 985 0 984 0 983 0 982 0 981 0 980 0 979 0 978 0 977 0 976 0 975 0 974 0 973 0 972 0 971 0 970 0 969 0 968 0 967 0 966 0 965 0 964 0 963 0 962 0 961 0 960 0 959 0 958 0 957 0 956 0 955 0 954 0 953 0 952 0 951 0 950 0 949 0 948 0 947 0 946 0 945 0 944 0 943 0 942 0 941 0 940 0 939 0 938 0 937 0 936 0 935 0 934 0 933 0 932 0 931 0 930 0 929 0 928 0 927 0 926 0 925 0 924 0 923 0 922 0 921 0 920 0 919 0 918 0 917 0 916 0 915 0 914 0 913 0 912 0 911 0 910 0 909 0 908 0 907 0 906 0 905 0 904 0 903 0 902 0 901 0 900 0 899 0 898 0 897 0 896 0 895 0 894 0 893 0 892 0 891 0 890 0 889 0 888 0 887 0 886 0 885 0 884 0 883 0 882 0 881 0 880 0 879 0 878 0 877 0 876 0 875 0 874 0 873 0 872 0 871 0 870 0 869 0 868 0 867 0 866 0 865 0 864 0 863 0 862 0 861 0 860 0 859 0 858 0 857 0 856 0 855 0 854 0 853 0 852 0 851 0 850 0 849 0 848 0 847 0 846 0 845 0 844 0 843 0 842 0 841 0 840 0 839 0 838 0 837 0 836 0 835 0 834 0 833 0 832 0 831 0 830 0 829 0 828 0 827 0 826 0 825 0 824 0 823 0 822 0 821 0 820 0 819 0 818 0 817 0 816 0 815 0 814 0 813 0 812 0 811 0 810 0 809 0 808 0 807 0 806 0 805 0 804 0 803 0 802 0 801 0 800 0 799 0 798 0 797 0 796 0 795 0 794 0 793 0 792 0 791 0 790 0 789 0 788 0 787 0 786 0 785 0 784 0 783 0 782 0 781 0 780 0 779 0 778 0 777 0 776 0 775 0 774 0 773 0 772 0 771 0 770 0 769 0 768 0 767 0 766 0 765 0 764 0 763 0 762 0 761 0 760 0 759 0 758 0 757 0 756 0 755 0 754 0 753 0 752 0 751 0 750 0 749 0 748 0 747 0 746 0 745 0 744 0 743 0 742 0 741 0 740 0 739 0 738 0 737 0 736 0 735 0 734 0 733 0 732 0 731 0 730 0 729 0 728 0 727 0 726 0 725 0 724 0 723 0 722 0 721 0 720 0 719 0 718 0 717 0 716 0 715 0 714 0 713 0 712 0 711 0 710 0 709 0 708 0 707 0 706 0 705 0 704 0 703 0 702 0 701 0 700 0 699 0 698 0 697 0 696 0 695 0 694 0 693 0 692 0 691 0 690 0 689 0 688 0 687 0 686 0 685 0 684 0 683 0 682 0 681 0 680 0 679 0 678 0 677 0 676 0 675 0 674 0 673 0 672 0 671 0 670 0 669 0 668 0 667 0 666 0 665 0 664 0 663 0 662 0 661 0 660 0 659 0 658 0 657 0 656 0 655 0 654 0 653 0 652 0 651 0 650 0 649 0 648 0 647 0 646 0 645 0 644 0 643 0 642 0 641 0 640 0 639 0 638 0 637 0 636 0 635 0 634 0 633 0 632 0 631 0 630 0 629 0 628 0 627 0 626 0 625 0 624 0 623 0 622 0 621 0 620 0 619 0 618 0 617 0 616 0 615 0 614 0 613 0 612 0 611 0 610 0 609 0 608 0 607 0 606 0 605 0 604 0 603 0 602 0 601 0 600 0 599 0 598 0 597 0 596 0 595 0 594 0 593 0 592 0 591 0 590 0 589 0 588 0 587 0 586 0 585 0 584 0 583 0 582 0 581 0 580 0 579 0 578 0 577 0 576 0 575 0 574 0 573 0 572 0 571 0 570 0 569 0 568 0 567 0 566 0 565 0 564 0 563 0 562 0 561 0 560 0 559 0 558 0 557 0 556 0 555 0 554 0 553 0 552 0 551 0 550 0 549 0 548 0 547 0 546 0 545 0 544 0 543 0 542 0 541 0 540 0 539 0 538 0 537 0 536 0 535 0 534 0 533 0 532 0 531 0 530 0 529 0 528 0 527 0 526 0 525 0 524 0 523 0 522 0 521 0 520 0 519 0 518 0 517 0 516 0 515 0 514 0 513 0 512 0 511 0 510 0 509 0 508 0 507 0 506 0 505 0 504 0 503 0 502 0 501 0 500 0 499 0 498 0 497 0 496 0 495 0 494 0 493 0 492 0 491 0 490 0 489 0 488 0 487 0 486 0 485 0 484 0 483 0 482 0 481 0 480 0 479 0 478 0 477 0 476 0 475 0 474 0 473 0 472 0 471 0 470 0 469 0 468 0 467 0 466 0 465 0 464 0 463 0 462 0 461 0 460 0 459 0 458 0 457 0 456 0 455 0 454 0 453 0 452 0 451 0 450 0 449 0 448 0 447 0 446 0 445 0 444 0 443 0 442 0 441 0 440 0 439 0 438 0 437 0 436 0 435 0 434 0 433 0 432 0 431 0 430 0 429 0 428 0 427 0 426 0 425 0 424 0 423 0 422 0 421 0 420 0 419 0 418 0 417 0 416 0 415 0 414 0 413 0 412 0 411 0 410 0 409 0 408 0 407 0 406 0 405 0 404 0 403 0 402 0 401 0 400 0 399 0 398 0 397 0 396 0 395 0 394 0 393 0 392 0 391 0 390 0 389 0 388 0 387 0 386 0 385 0 384 0 383 0 382 0 381 0 380 0 379 0 378 0 377 0 376 0 375 0 374 0 373 0 372 0 371 0 370 0 369 0 368 0 367 0 366 0 365 0 364 0 363 0 362 0 361 0 360 0 359 0 358 0 357 0 356 0 355 0 354 0 353 0 352 0 351 0 350 0 349 0 348 0 347 0 346 0 345 0 344 0 343 0 342 0 341 0 340 0 339 0 338 0 337 0 336 0 335 0 334 0 333 0 332 0 331 0 330 0 329 0 328 0 327 0 326 0 325 0 324 0 323 0 322 0 321 0 320 0 319 0 318 0 317 0 316 0 315 0 314 0 313 0 312 0 311 0 310 0 309 0 308 0 307 0 306 0 305 0 304 0 303 0 302 0 301 0 300 0 299 0 298 0 297 0 296 0 295 0 294 0 293 0 292 0 291 0 290 0 289 0 288 0 287 0 286 0 285 0 284 0 283 0 282 0 281 0 280 0 279 0 278 0 277 0 276 0 275 0 274 0 273 0 272 0 271 0 270 0 269 0 268 0 267 0 266 0 265 0 264 0 263 0 262 0 261 0 260 0 259 0 258 0 257 0 256 0 255 0 254 0 253 0 252 0 251 0 250 0 249 0 248 0 247 0 246 0 245 0 244 0 243 0 242 0 241 0 240 0 239 0 238 0 237 0 236 0 235 0 234 0 233 0 232 0 231 0 230 0 229 0 228 0 227 0 226 0 225 0 224 0 223 0 222 0 221 0 220 0 219 0 218 0 217 0 216 0 215 0 214 0 213 0 212 0 211 0 210 0 209 0 208 0 207 0 206 0 205 0 204 0 203 0 202 0 201 0 200 0 199 0 198 0 197 0 196 0 195 0 194 0 193 0 192 0 191 0 190 0 189 0 188 0 187 0 186 0 185 0 184 0 183 0 182 0 181 0 180 0 179 0 178 0 177 0 176 0 175 0 174 0 173 0 172 0 171 0 170 0 169 0 168 0 167 0 166 0 165 0 164 0 163 0 162 0 161 0 160 0 159 0 158 0 157 0 156 0 155 0 154 0 153 0 152 0 151 0 150 0 149 0 148 0 147 0 146 0 145 0 144 0 143 0 142 0 141 0 140 0 139 0 138 0 137 0 136 0 135 0 134 0 133 0 132 0 131 0 130 0 129 0 128 0 127 0 126 0 125 0 124 0 123 0 122 0 121 0 120 0 119 0 118 0 117 0 116 0 115 0 114 0 113 0 112 0 111 0 110 0 109 0 108 0 107 0 106 0 105 0 104 0 103 0 102 0 101 0 100 0 99 0 98 0 97 0 96 0 95 0 94 0 93 0 92 0 91 0 90 0 89 0 88 0 87 0 86 0 85 0 84 0 83 0 82 0 81 0 80 0 79 0 78 0 77 0 76 0 75 0 74 0 73 0 72 0 71 0 70 0 69 0 68 0 67 0 66 0 65 0 64 0 63 0 62 0 61 0 60 0 59 0 58 0 57 0 56 0 55 0 54 0 53 0 52 0 51 0 50 0 49 0 48 0 47 0 46 0 45 0 44 0 43 0 42 0 41 0 40 0 39 0 38 0 37 0 36 0 35 0 34 0 33 0 32 0 31 0 30 0 29 0 28 0 27 0 26 0 25 0 24 0 23 0 22 0 21 0 20 0 19 0 18 0 17 0 16 0 15 0 14 0 13 0 12 0 11 0 10 0 9 0 8 0 7 0 6 0 5 0 4 0 3 0 2 0 1 0" style="fill:none; stroke:black; stroke-width:5"/>
</svg>