<svg width="699" height="1000" xmlns="http://www.w3.org/2000/svg">
    <path d="M550 511 571 512 538 780 518 846 429 835 430 814 476 791 494 758 549 515" style="fill:none; stroke:black; stroke-width:5"/>
    <path d="M479 497 500 498 491 576 470 575 432 523 433 502 475 498" style="fill:none; stroke:black; stroke-width:5"/>
    <path d="M526 372 551 373 568 397 572 507 551 507 515 438 507 386 520 375" style="fill:none; stroke:black; stroke-width:5"/>
    <path d="M335 108 356 109 337 193 198 167 208 140 332 109" style="fill:none; stroke:black; stroke-width:5"/>
    <path d="M419 79 174 96 114 115 92 146 99 190 139 215 376 283 412 316 431 362 413 486 393 486 234 350 196 340 175 356 166 458 194 635 136 682 102 764 115 833 161 877 161 899 101 910 139 939 245 928 264 909 379 917 499 903 527 918 545 897 633 896 627 857 579 829 619 594 623 363 599 314 526 262 493 189 495 96 423 79" style="fill:none; stroke:black; stroke-width:5"/>
</svg>