<svg width="1713" height="2449" xmlns="http://www.w3.org/2000/svg">
    <path d="M0 0 0 1 0 2 0 3 0 4 0 5 0 6 0 7 0 8 0 9 0 10 0 11 0 12 0 13 0 14 0 15 0 16 0 17 0 18 0 19 0 20 0 21 0 22 0 23 0 24 0 25 0 26 0 27 0 28 0 29 0 30 0 31 0 32 0 33 0 34 0 35 0 36 0 37 0 38 0 39 0 40 0 41 0 42 0 43 0 44 0 45 0 46 0 47 0 48 0 49 0 50 0 51 0 52 0 53 0 54 0 55 0 56 0 57 0 58 0 59 0 60 0 61 0 62 0 63 0 64 0 65 0 66 0 67 0 68 0 69 0 70 0 71 0 72 0 73 0 74 0 75 0 76 0 77 0 78 0 79 0 80 0 81 0 82 0 83 0 84 0 85 0 86 0 87 0 88 0 89 0 90 0 91 0 92 0 93 0 94 0 95 0 96 0 97 0 98 0 99 0 100 0 101 0 102 0 103 0 104 0 105 0 106 0 107 0 108 0 109 0 110 0 111 0 112 0 113 0 114 0 115 0 116 0 117 0 118 0 119 0 120 0 121 0 122 0 123 0 124 0 125 0 126 0 127 0 128 0 129 0 130 0 131 0 132 0 133 0 134 0 135 0 136 0 137 0 138 0 139 0 140 0 141 0 142 0 143 0 144 0 145 0 146 0 147 0 148 0 149 0 150 0 151 0 152 0 153 0 154 0 155 0 156 0 157 0 158 0 159 0 160 0 161 0 162 0 163 0 164 0 165 0 166 0 167 0 168 0 169 0 170 0 171 0 172 0 173 0 174 0 175 0 176 0 177 0 178 0 179 0 180 0 181 0 182 0 183 0 184 0 185 0 186 0 187 0 188 0 189 0 190 0 191 0 192 0 193 0 194 0 195 0 196 0 197 0 198 0 199 0 200 0 201 0 202 0 203 0 204 0 205 0 206 0 207 0 208 0 209 0 210 0 211 0 212 0 213 0 214 0 215 0 216 0 217 0 218 0 219 0 220 0 221 0 222 0 223 0 224 0 225 0 226 0 227 0 228 0 229 0 230 0 231 0 232 0 233 0 234 0 235 0 236 0 237 0 238 0 239 0 240 0 241 0 242 0 243 0 244 0 245 0 246 0 247 0 248 0 249 0 250 0 251 0 252 0 253 0 254 0 255 0 256 0 257 0 258 0 259 0 260 0 261 0 262 0 263 0 264 0 265 0 266 0 267 0 268 0 269 0 270 0 271 0 272 0 273 0 274 0 275 0 276 0 277 0 278 0 279 0 280 0 281 0 282 0 283 0 284 0 285 0 286 0 287 0 288 0 289 0 290 0 291 0 292 0 293 0 294 0 295 0 296 0 297 0 298 0 299 0 300 0 301 0 302 0 303 0 304 0 305 0 306 0 307 0 308 0 309 0 310 0 311 0 312 0 313 0 314 0 315 0 316 0 317 0 318 0 319 0 320 0 321 0 322 0 323 0 324 0 325 0 326 0 327 0 328 0 329 0 330 0 331 0 332 0 333 0 334 0 335 0 336 0 337 0 338 0 339 0 340 0 341 0 342 0 343 0 344 0 345 0 346 0 347 0 348 0 349 0 350 0 351 0 352 0 353 0 354 0 355 0 356 0 357 0 358 0 359 0 360 0 361 0 362 0 363 0 364 0 365 0 366 0 367 0 368 0 369 0 370 0 371 0 372 0 373 0 374 0 375 0 376 0 377 0 378 0 379 0 380 0 381 0 382 0 383 0 384 0 385 0 386 0 387 0 388 0 389 0 390 0 391 0 392 0 393 0 394 0 395 0 396 0 397 0 398 0 399 0 400 0 401 0 402 0 403 0 404 0 405 0 406 0 407 0 408 0 409 0 410 0 411 0 412 0 413 0 414 0 415 0 416 0 417 0 418 0 419 0 420 0 421 0 422 0 423 0 424 0 425 0 426 0 427 0 428 0 429 0 430 0 431 0 432 0 433 0 434 0 435 0 436 0 437 0 438 0 439 0 440 0 441 0 442 0 443 0 444 0 445 0 446 0 447 0 448 0 449 0 450 0 451 0 452 0 453 0 454 0 455 0 456 0 457 0 458 0 459 0 460 0 461 0 462 0 463 0 464 0 465 0 466 0 467 0 468 0 469 0 470 0 471 0 472 0 473 0 474 0 475 0 476 0 477 0 478 0 479 0 480 0 481 0 482 0 483 0 484 0 485 0 486 0 487 0 488 0 489 0 490 0 491 0 492 0 493 0 494 0 495 0 496 0 497 0 498 0 499 0 500 0 501 0 502 0 503 0 504 0 505 0 506 0 507 0 508 0 509 0 510 0 511 0 512 0 513 0 514 0 515 0 516 0 517 0 518 0 519 0 520 0 521 0 522 0 523 0 524 0 525 0 526 0 527 0 528 0 529 0 530 0 531 0 532 0 533 0 534 0 535 0 536 0 537 0 538 0 539 0 540 0 541 0 542 0 543 0 544 0 545 0 546 0 547 0 548 0 549 0 550 0 551 0 552 0 553 0 554 0 555 0 556 0 557 0 558 0 559 0 560 0 561 0 562 0 563 0 564 0 565 0 566 0 567 0 568 0 569 0 570 0 571 0 572 0 573 0 574 0 575 0 576 0 577 0 578 0 579 0 580 0 581 0 582 0 583 0 584 0 585 0 586 0 587 0 588 0 589 0 590 0 591 0 592 0 593 0 594 0 595 0 596 0 597 0 598 0 599 0 600 0 601 0 602 0 603 0 604 0 605 0 606 0 607 0 608 0 609 0 610 0 611 0 612 0 613 0 614 0 615 0 616 0 617 0 618 0 619 0 620 0 621 0 622 0 623 0 624 0 625 0 626 0 627 0 628 0 629 0 630 0 631 0 632 0 633 0 634 0 635 0 636 0 637 0 638 0 639 0 640 0 641 0 642 0 643 0 644 0 645 0 646 0 647 0 648 0 649 0 650 0 651 0 652 0 653 0 654 0 655 0 656 0 657 0 658 0 659 0 660 0 661 0 662 0 663 0 664 0 665 0 666 0 667 0 668 0 669 0 670 0 671 0 672 0 673 0 674 0 675 0 676 0 677 0 678 0 679 0 680 0 681 0 682 0 683 0 684 0 685 0 686 0 687 0 688 0 689 0 690 0 691 0 692 0 693 0 694 0 695 0 696 0 697 0 698 0 699 0 700 0 701 0 702 0 703 0 704 0 705 0 706 0 707 0 708 0 709 0 710 0 711 0 712 0 713 0 714 0 715 0 716 0 717 0 718 0 719 0 720 0 721 0 722 0 723 0 724 0 725 0 726 0 727 0 728 0 729 0 730 0 731 0 732 0 733 0 734 0 735 0 736 0 737 0 738 0 739 0 740 0 741 0 742 0 743 0 744 0 745 0 746 0 747 0 748 0 749 0 750 0 751 0 752 0 753 0 754 0 755 0 756 0 757 0 758 0 759 0 760 0 761 0 762 0 763 0 764 0 765 0 766 0 767 0 768 0 769 0 770 0 771 0 772 0 773 0 774 0 775 0 776 0 777 0 778 0 779 0 780 0 781 0 782 0 783 0 784 0 785 0 786 0 787 0 788 0 789 0 790 0 791 0 792 0 793 0 794 0 795 0 796 0 797 0 798 0 799 0 800 0 801 0 802 0 803 0 804 0 805 0 806 0 807 0 808 0 809 0 810 0 811 0 812 0 813 0 814 0 815 0 816 0 817 0 818 0 819 0 820 0 821 0 822 0 823 0 824 0 825 0 826 0 827 0 828 0 829 0 830 0 831 0 832 0 833 0 834 0 835 0 836 0 837 0 838 0 839 0 840 0 841 0 842 0 843 0 844 0 845 0 846 0 847 0 848 0 849 0 850 0 851 0 852 0 853 0 854 0 855 0 856 0 857 0 858 0 859 0 860 0 861 0 862 0 863 0 864 0 865 0 866 0 867 0 868 0 869 0 870 0 871 0 872 0 873 0 874 0 875 0 876 0 877 0 878 0 879 0 880 0 881 0 882 0 883 0 884 0 885 0 886 0 887 0 888 0 889 0 890 0 891 0 892 0 893 0 894 0 895 0 896 0 897 0 898 0 899 0 900 0 901 0 902 0 903 0 904 0 905 0 906 0 907 0 908 0 909 0 910 0 911 0 912 0 913 0 914 0 915 0 916 0 917 0 918 0 919 0 920 0 921 0 922 0 923 0 924 0 925 0 926 0 927 0 928 0 929 0 930 0 931 0 932 0 933 0 934 0 935 0 936 0 937 0 938 0 939 0 940 0 941 0 942 0 943 0 944 0 945 0 946 0 947 0 948 0 949 0 950 0 951 0 952 0 953 0 954 0 955 0 956 0 957 0 958 0 959 0 960 0 961 0 962 0 963 0 964 0 965 0 966 0 967 0 968 0 969 0 970 0 971 0 972 0 973 0 974 0 975 0 976 0 977 0 978 0 979 0 980 0 981 0 982 0 983 0 984 0 985 0 986 0 987 0 988 0 989 0 990 0 991 0 992 0 993 0 994 0 995 0 996 0 997 0 998 0 999 0 1000 0 1001 0 1002 0 1003 0 1004 0 1005 0 1006 0 1007 0 1008 0 1009 0 1010 0 1011 0 1012 0 1013 0 1014 0 1015 0 1016 0 1017 0 1018 0 1019 0 1020 0 1021 0 1022 0 1023 0 1024 0 1025 0 1026 0 1027 0 1028 0 1029 0 1030 0 1031 0 1032 0 1033 0 1034 0 1035 0 1036 0 1037 0 1038 0 1039 0 1040 0 1041 0 1042 0 1043 0 1044 0 1045 0 1046 0 1047 0 1048 0 1049 0 1050 0 1051 0 1052 0 1053 0 1054 0 1055 0 1056 0 1057 0 1058 0 1059 0 1060 0 1061 0 1062 0 1063 0 1064 0 1065 0 1066 0 1067 0 1068 0 1069 0 1070 0 1071 0 1072 0 1073 0 1074 0 1075 0 1076 0 1077 0 1078 0 1079 0 1080 0 1081 0 1082 0 1083 0 1084 0 1085 0 1086 0 1087 0 1088 0 1089 0 1090 0 1091 0 1092 0 1093 0 1094 0 1095 0 1096 0 1097 0 1098 0 1099 0 1100 0 1101 0 1102 0 1103 0 1104 0 1105 0 1106 0 1107 0 1108 0 1109 0 1110 0 1111 0 1112 0 1113 0 1114 0 1115 0 1116 0 1117 0 1118 0 1119 0 1120 0 1121 0 1122 0 1123 0 1124 0 1125 0 1126 0 1127 0 1128 0 1129 0 1130 0 1131 0 1132 0 1133 0 1134 0 1135 0 1136 0 1137 0 1138 0 1139 0 1140 0 1141 0 1142 0 1143 0 1144 0 1145 0 1146 0 1147 0 1148 0 1149 0 1150 0 1151 0 1152 0 1153 0 1154 0 1155 0 1156 0 1157 0 1158 0 1159 0 1160 0 1161 0 1162 0 1163 0 1164 0 1165 0 1166 0 1167 0 1168 0 1169 0 1170 0 1171 0 1172 0 1173 0 1174 0 1175 0 1176 0 1177 0 1178 0 1179 0 1180 0 1181 0 1182 0 1183 0 1184 0 1185 0 1186 0 1187 0 1188 0 1189 0 1190 0 1191 0 1192 0 1193 0 1194 0 1195 0 1196 0 1197 0 1198 0 1199 0 1200 0 1201 0 1202 0 1203 0 1204 0 1205 0 1206 0 1207 0 1208 0 1209 0 1210 0 1211 0 1212 0 1213 0 1214 0 1215 0 1216 0 1217 0 1218 0 1219 0 1220 0 1221 0 1222 0 1223 0 1224 0 1225 0 1226 0 1227 0 1228 0 1229 0 1230 0 1231 0 1232 0 1233 0 1234 0 1235 0 1236 0 1237 0 1238 0 1239 0 1240 0 1241 0 1242 0 1243 0 1244 0 1245 0 1246 0 1247 0 1248 0 1249 0 1250 0 1251 0 1252 0 1253 0 1254 0 1255 0 1256 0 1257 0 1258 0 1259 0 1260 0 1261 0 1262 0 1263 0 1264 0 1265 0 1266 0 1267 0 1268 0 1269 0 1270 0 1271 0 1272 0 1273 0 1274 0 1275 0 1276 0 1277 0 1278 0 1279 0 1280 0 1281 0 1282 0 1283 0 1284 0 1285 0 1286 0 1287 0 1288 0 1289 0 1290 0 1291 0 1292 0 1293 0 1294 0 1295 0 1296 0 1297 0 1298 0 1299 0 1300 0 1301 0 1302 0 1303 0 1304 0 1305 0 1306 0 1307 0 1308 0 1309 0 1310 0 1311 0 1312 0 1313 0 1314 0 1315 0 1316 0 1317 0 1318 0 1319 0 1320 0 1321 0 1322 0 1323 0 1324 0 1325 0 1326 0 1327 0 1328 0 1329 0 1330 0 1331 0 1332 0 1333 0 1334 0 1335 0 1336 0 1337 0 1338 0 1339 0 1340 0 1341 0 1342 0 1343 0 1344 0 1345 0 1346 0 1347 0 1348 0 1349 0 1350 0 1351 0 1352 0 1353 0 1354 0 1355 0 1356 0 1357 0 1358 0 1359 0 1360 0 1361 0 1362 0 1363 0 1364 0 1365 0 1366 0 1367 0 1368 0 1369 0 1370 0 1371 0 1372 0 1373 0 1374 0 1375 0 1376 0 1377 0 1378 0 1379 0 1380 0 1381 0 1382 0 1383 0 1384 0 1385 0 1386 0 1387 0 1388 0 1389 0 1390 0 1391 0 1392 0 1393 0 1394 0 1395 0 1396 0 1397 0 1398 0 1399 0 1400 0 1401 0 1402 0 1403 0 1404 0 1405 0 1406 0 1407 0 1408 0 1409 0 1410 0 1411 0 1412 0 1413 0 1414 0 1415 0 1416 0 1417 0 1418 0 1419 0 1420 0 1421 0 1422 0 1423 0 1424 0 1425 0 1426 0 1427 0 1428 0 1429 0 1430 0 1431 0 1432 0 1433 0 1434 0 1435 0 1436 0 1437 0 1438 0 1439 0 1440 0 1441 0 1442 0 1443 0 1444 0 1445 0 1446 0 1447 0 1448 0 1449 0 1450 0 1451 0 1452 0 1453 0 1454 0 1455 0 1456 0 1457 0 1458 0 1459 0 1460 0 1461 0 1462 0 1463 0 1464 0 1465 0 1466 0 1467 0 1468 0 1469 0 1470 0 1471 0 1472 0 1473 0 1474 0 1475 0 1476 0 1477 0 1478 0 1479 0 1480 0 1481 0 1482 0 1483 0 1484 0 1485 0 1486 0 1487 0 1488 0 1489 0 1490 0 1491 0 1492 0 1493 0 1494 0 1495 0 1496 0 1497 0 1498 0 1499 0 1500 0 1501 0 1502 0 1503 0 1504 0 1505 0 1506 0 1507 0 1508 0 1509 0 1510 0 1511 0 1512 0 1513 0 1514 0 1515 0 1516 0 1517 0 1518 0 1519 0 1520 0 1521 0 1522 0 1523 0 1524 0 1525 0 1526 0 1527 0 1528 0 1529 0 1530 0 1531 0 1532 0 1533 0 1534 0 1535 0 1536 0 1537 0 1538 0 1539 0 1540 0 1541 0 1542 0 1543 0 1544 0 1545 0 1546 0 1547 0 1548 0 1549 0 1550 0 1551 0 1552 0 1553 0 1554 0 1555 0 1556 0 1557 0 1558 0 1559 0 1560 0 1561 0 1562 0 1563 0 1564 0 1565 0 1566 0 1567 0 1568 0 1569 0 1570 0 1571 0 1572 0 1573 0 1574 0 1575 0 1576 0 1577 0 1578 0 1579 0 1580 0 1581 0 1582 0 1583 0 1584 0 1585 0 1586 0 1587 0 1588 0 1589 0 1590 0 1591 0 1592 0 1593 0 1594 0 1595 0 1596 0 1597 0 1598 0 1599 0 1600 0 1601 0 1602 0 1603 0 1604 0 1605 0 1606 0 1607 0 1608 0 1609 0 1610 0 1611 0 1612 0 1613 0 1614 0 1615 0 1616 0 1617 0 1618 0 1619 0 1620 0 1621 0 1622 0 1623 0 1624 0 1625 0 1626 0 1627 0 1628 0 1629 0 1630 0 1631 0 1632 0 1633 0 1634 0 1635 0 1636 0 1637 0 1638 0 1639 0 1640 0 1641 0 1642 0 1643 0 1644 0 1645 0 1646 0 1647 0 1648 0 1649 0 1650 0 1651 0 1652 0 1653 0 1654 0 1655 0 1656 0 1657 0 1658 0 1659 0 1660 0 1661 0 1662 0 1663 0 1664 0 1665 0 1666 0 1667 0 1668 0 1669 0 1670 0 1671 0 1672 0 1673 0 1674 0 1675 0 1676 0 1677 0 1678 0 1679 0 1680 0 1681 0 1682 0 1683 0 1684 0 1685 0 1686 0 1687 0 1688 0 1689 0 1690 0 1691 0 1692 0 1693 0 1694 0 1695 0 1696 0 1697 0 1698 0 1699 0 1700 0 1701 0 1702 0 1703 0 1704 0 1705 0 1706 0 1707 0 1708 0 1709 0 1710 0 1711 0 1712 0 1713 0 1714 0 1715 0 1716 0 1717 0 1718 0 1719 0 1720 0 1721 0 1722 0 1723 0 1724 0 1725 0 1726 0 1727 0 1728 0 1729 0 1730 0 1731 0 1732 0 1733 0 1734 0 1735 0 1736 0 1737 0 1738 0 1739 0 1740 0 1741 0 1742 0 1743 0 1744 0 1745 0 1746 0 1747 0 1748 0 1749 0 1750 0 1751 0 1752 0 1753 0 1754 0 1755 0 1756 0 1757 0 1758 0 1759 0 1760 0 1761 0 1762 0 1763 0 1764 0 1765 0 1766 0 1767 0 1768 0 1769 0 1770 0 1771 0 1772 0 1773 0 1774 0 1775 0 1776 0 1777 0 1778 0 1779 0 1780 0 1781 0 1782 0 1783 0 1784 0 1785 0 1786 0 1787 0 1788 0 1789 0 1790 0 1791 0 1792 0 1793 0 1794 0 1795 0 1796 0 1797 0 1798 0 1799 0 1800 0 1801 0 1802 0 1803 0 1804 0 1805 0 1806 0 1807 0 1808 0 1809 0 1810 0 1811 0 1812 0 1813 0 1814 0 1815 0 1816 0 1817 0 1818 0 1819 0 1820 0 1821 0 1822 0 1823 0 1824 0 1825 0 1826 0 1827 0 1828 0 1829 0 1830 0 1831 0 1832 0 1833 0 1834 0 1835 0 1836 0 1837 0 1838 0 1839 0 1840 0 1841 0 1842 0 1843 0 1844 0 1845 0 1846 0 1847 0 1848 0 1849 0 1850 0 1851 0 1852 0 1853 0 1854 0 1855 0 1856 0 1857 0 1858 0 1859 0 1860 0 1861 0 1862 0 1863 0 1864 0 1865 0 1866 0 1867 0 1868 0 1869 0 1870 0 1871 0 1872 0 1873 0 1874 0 1875 0 1876 0 1877 0 1878 0 1879 0 1880 0 1881 0 1882 0 1883 0 1884 0 1885 0 1886 0 1887 0 1888 0 1889 0 1890 0 1891 0 1892 0 1893 0 1894 0 1895 0 1896 0 1897 0 1898 0 1899 0 1900 0 1901 0 1902 0 1903 0 1904 0 1905 0 1906 0 1907 0 1908 0 1909 0 1910 0 1911 0 1912 0 1913 0 1914 0 1915 0 1916 0 1917 0 1918 0 1919 0 1920 0 1921 0 1922 0 1923 0 1924 0 1925 0 1926 0 1927 0 1928 0 1929 0 1930 0 1931 0 1932 0 1933 0 1934 0 1935 0 1936 0 1937 0 1938 0 1939 0 1940 0 1941 0 1942 0 1943 0 1944 0 1945 0 1946 0 1947 0 1948 0 1949 0 1950 0 1951 0 1952 0 1953 0 1954 0 1955 0 1956 0 1957 0 1958 0 1959 0 1960 0 1961 0 1962 0 1963 0 1964 0 1965 0 1966 0 1967 0 1968 0 1969 0 1970 0 1971 0 1972 0 1973 0 1974 0 1975 0 1976 0 1977 0 1978 0 1979 0 1980 0 1981 0 1982 0 1983 0 1984 0 1985 0 1986 0 1987 0 1988 0 1989 0 1990 0 1991 0 1992 0 1993 0 1994 0 1995 0 1996 0 1997 0 1998 0 1999 0 2000 0 2001 0 2002 0 2003 0 2004 0 2005 0 2006 0 2007 0 2008 0 2009 0 2010 0 2011 0 2012 0 2013 0 2014 0 2015 0 2016 0 2017 0 2018 0 2019 0 2020 0 2021 0 2022 0 2023 0 2024 0 2025 0 2026 0 2027 0 2028 0 2029 0 2030 0 2031 0 2032 0 2033 0 2034 0 2035 0 2036 0 2037 0 2038 0 2039 0 2040 0 2041 0 2042 0 2043 0 2044 0 2045 0 2046 0 2047 0 2048 0 2049 0 2050 0 2051 0 2052 0 2053 0 2054 0 2055 0 2056 0 2057 0 2058 0 2059 0 2060 0 2061 0 2062 0 2063 0 2064 0 2065 0 2066 0 2067 0 2068 0 2069 0 2070 0 2071 0 2072 0 2073 0 2074 0 2075 0 2076 0 2077 0 2078 0 2079 0 2080 0 2081 0 2082 0 2083 0 2084 0 2085 0 2086 0 2087 0 2088 0 2089 0 2090 0 2091 0 2092 0 2093 0 2094 0 2095 0 2096 0 2097 0 2098 0 2099 0 2100 0 2101 0 2102 0 2103 0 2104 0 2105 0 2106 0 2107 0 2108 0 2109 0 2110 0 2111 0 2112 0 2113 0 2114 0 2115 0 2116 0 2117 0 2118 0 2119 0 2120 0 2121 0 2122 0 2123 0 2124 0 2125 0 2126 0 2127 0 2128 0 2129 0 2130 0 2131 0 2132 0 2133 0 2134 0 2135 0 2136 0 2137 0 2138 0 2139 0 2140 0 2141 0 2142 0 2143 0 2144 0 2145 0 2146 0 2147 0 2148 0 2149 0 2150 0 2151 0 2152 0 2153 0 2154 0 2155 0 2156 0 2157 0 2158 0 2159 0 2160 0 2161 0 2162 0 2163 0 2164 0 2165 0 2166 0 2167 0 2168 0 2169 0 2170 0 2171 0 2172 0 2173 0 2174 0 2175 0 2176 0 2177 0 2178 0 2179 0 2180 0 2181 0 2182 0 2183 0 2184 0 2185 0 2186 0 2187 0 2188 0 2189 0 2190 0 2191 0 2192 0 2193 0 2194 0 2195 0 2196 0 2197 0 2198 0 2199 0 2200 0 2201 0 2202 0 2203 0 2204 0 2205 0 2206 0 2207 0 2208 0 2209 0 2210 0 2211 0 2212 0 2213 0 2214 0 2215 0 2216 0 2217 0 2218 0 2219 0 2220 0 2221 0 2222 0 2223 0 2224 0 2225 0 2226 0 2227 0 2228 0 2229 0 2230 0 2231 0 2232 0 2233 0 2234 0 2235 0 2236 0 2237 0 2238 0 2239 0 2240 0 2241 0 2242 0 2243 0 2244 0 2245 0 2246 0 2247 0 2248 0 2249 0 2250 0 2251 0 2252 0 2253 0 2254 0 2255 0 2256 0 2257 0 2258 0 2259 0 2260 0 2261 0 2262 0 2263 0 2264 0 2265 0 2266 0 2267 0 2268 0 2269 0 2270 0 2271 0 2272 0 2273 0 2274 0 2275 0 2276 0 2277 0 2278 0 2279 0 2280 0 2281 0 2282 0 2283 0 2284 0 2285 0 2286 0 2287 0 2288 0 2289 0 2290 0 2291 0 2292 0 2293 0 2294 0 2295 0 2296 0 2297 0 2298 0 2299 0 2300 0 2301 0 2302 0 2303 0 2304 0 2305 0 2306 0 2307 0 2308 0 2309 0 2310 0 2311 0 2312 0 2313 0 2314 0 2315 0 2316 0 2317 0 2318 0 2319 0 2320 0 2321 0 2322 0 2323 0 2324 0 2325 0 2326 0 2327 0 2328 0 2329 0 2330 0 2331 0 2332 0 2333 0 2334 0 2335 0 2336 0 2337 0 2338 0 2339 0 2340 0 2341 0 2342 0 2343 0 2344 0 2345 0 2346 0 2347 0 2348 0 2349 0 2350 0 2351 0 2352 0 2353 0 2354 0 2355 0 2356 0 2357 0 2358 0 2359 0 2360 0 2361 0 2362 0 2363 0 2364 0 2365 0 2366 0 2367 0 2368 0 2369 0 2370 0 2371 0 2372 0 2373 0 2374 0 2375 0 2376 0 2377 0 2378 0 2379 0 2380 0 2381 0 2382 0 2383 0 2384 0 2385 0 2386 0 2387 0 2388 0 2389 0 2390 0 2391 0 2392 0 2393 0 2394 0 2395 0 2396 0 2397 0 2398 0 2399 0 2400 0 2401 0 2402 0 2403 0 2404 0 2405 0 2406 0 2407 0 2408 0 2409 0 2410 0 2411 0 2412 0 2413 0 2414 0 2415 0 2416 0 2417 0 2418 0 2419 0 2420 0 2421 0 2422 0 2423 0 2424 0 2425 0 2426 0 2427 0 2428 0 2429 0 2430 0 2431 0 2432 0 2433 0 2434 0 2435 0 2436 0 2437 0 2438 0 2439 0 2440 0 2441 0 2442 0 2443 0 2444 0 2445 0 2446 0 2447 0 2448 1 2448 2 2448 3 2448 4 2448 5 2448 6 2448 7 2448 8 2448 9 2448 10 2448 11 2448 12 2448 13 2448 14 2448 15 2448 16 2448 17 2448 18 2448 19 2448 20 2448 21 2448 22 2448 23 2448 24 2448 25 2448 26 2448 27 2448 28 2448 29 2448 30 2448 31 2448 32 2448 33 2448 34 2448 35 2448 36 2448 37 2448 38 2448 39 2448 40 2448 41 2448 42 2448 43 2448 44 2448 45 2448 46 2448 47 2448 48 2448 49 2448 50 2448 51 2448 52 2448 53 2448 54 2448 55 2448 56 2448 57 2448 58 2448 59 2448 60 2448 61 2448 62 2448 63 2448 64 2448 65 2448 66 2448 67 2448 68 2448 69 2448 70 2448 71 2448 72 2448 73 2448 74 2448 75 2448 76 2448 77 2448 78 2448 79 2448 80 2448 81 2448 82 2448 83 2448 84 2448 85 2448 86 2448 87 2448 88 2448 89 2448 90 2448 91 2448 92 2448 93 2448 94 2448 95 2448 96 2448 97 2448 98 2448 99 2448 100 2448 101 2448 102 2448 103 2448 104 2448 105 2448 106 2448 107 2448 108 2448 109 2448 110 2448 111 2448 112 2448 113 2448 114 2448 115 2448 116 2448 117 2448 118 2448 119 2448 120 2448 121 2448 122 2448 123 2448 124 2448 125 2448 126 2448 127 2448 128 2448 129 2448 130 2448 131 2448 132 2448 133 2448 134 2448 135 2448 136 2448 137 2448 138 2448 139 2448 140 2448 141 2448 142 2448 143 2448 144 2448 145 2448 146 2448 147 2448 148 2448 149 2448 150 2448 151 2448 152 2448 153 2448 154 2448 155 2448 156 2448 157 2448 158 2448 159 2448 160 2448 161 2448 162 2448 163 2448 164 2448 165 2448 166 2448 167 2448 168 2448 169 2448 170 2448 171 2448 172 2448 173 2448 174 2448 175 2448 176 2448 177 2448 178 2448 179 2448 180 2448 181 2448 182 2448 183 2448 184 2448 185 2448 186 2448 187 2448 188 2448 189 2448 190 2448 191 2448 192 2448 193 2448 194 2448 195 2448 196 2448 197 2448 198 2448 199 2448 200 2448 201 2448 202 2448 203 2448 204 2448 205 2448 206 2448 207 2448 208 2448 209 2448 210 2448 211 2448 212 2448 213 2448 214 2448 215 2448 216 2448 217 2448 218 2448 219 2448 220 2448 221 2448 222 2448 223 2448 224 2448 225 2448 226 2448 227 2448 228 2448 229 2448 230 2448 231 2448 232 2448 233 2448 234 2448 235 2448 236 2448 237 2448 238 2448 239 2448 240 2448 241 2448 242 2448 243 2448 244 2448 245 2448 246 2448 247 2448 248 2448 249 2448 250 2448 251 2448 252 2448 253 2448 254 2448 255 2448 256 2448 257 2448 258 2448 259 2448 260 2448 261 2448 262 2448 263 2448 264 2448 265 2448 266 2448 267 2448 268 2448 269 2448 270 2448 271 2448 272 2448 273 2448 274 2448 275 2448 276 2448 277 2448 278 2448 279 2448 280 2448 281 2448 282 2448 283 2448 284 2448 285 2448 286 2448 287 2448 288 2448 289 2448 290 2448 291 2448 292 2448 293 2448 294 2448 295 2448 296 2448 297 2448 298 2448 299 2448 300 2448 301 2448 302 2448 303 2448 304 2448 305 2448 306 2448 307 2448 308 2448 309 2448 310 2448 311 2448 312 2448 313 2448 314 2448 315 2448 316 2448 317 2448 318 2448 319 2448 320 2448 321 2448 322 2448 323 2448 324 2448 325 2448 326 2448 327 2448 328 2448 329 2448 330 2448 331 2448 332 2448 333 2448 334 2448 335 2448 336 2448 337 2448 338 2448 339 2448 340 2448 341 2448 342 2448 343 2448 344 2448 345 2448 346 2448 347 2448 348 2448 349 2448 350 2448 351 2448 352 2448 353 2448 354 2448 355 2448 356 2448 357 2448 358 2448 359 2448 360 2448 361 2448 362 2448 363 2448 364 2448 365 2448 366 2448 367 2448 368 2448 369 2448 370 2448 371 2448 372 2448 373 2448 374 2448 375 2448 376 2448 377 2448 378 2448 379 2448 380 2448 381 2448 382 2448 383 2448 384 2448 385 2448 386 2448 387 2448 388 2448 389 2448 390 2448 391 2448 392 2448 393 2448 394 2448 395 2448 396 2448 397 2448 398 2448 399 2448 400 2448 401 2448 402 2448 403 2448 404 2448 405 2448 406 2448 407 2448 408 2448 409 2448 410 2448 411 2448 412 2448 413 2448 414 2448 415 2448 416 2448 417 2448 418 2448 419 2448 420 2448 421 2448 422 2448 423 2448 424 2448 425 2448 426 2448 427 2448 428 2448 429 2448 430 2448 431 2448 432 2448 433 2448 434 2448 435 2448 436 2448 437 2448 438 2448 439 2448 440 2448 441 2448 442 2448 443 2448 444 2448 445 2448 446 2448 447 2448 448 2448 449 2448 450 2448 451 2448 452 2448 453 2448 454 2448 455 2448 456 2448 457 2448 458 2448 459 2448 460 2448 461 2448 462 2448 463 2448 464 2448 465 2448 466 2448 467 2448 468 2448 469 2448 470 2448 471 2448 472 2448 473 2448 474 2448 475 2448 476 2448 477 2448 478 2448 479 2448 480 2448 481 2448 482 2448 483 2448 484 2448 485 2448 486 2448 487 2448 488 2448 489 2448 490 2448 491 2448 492 2448 493 2448 494 2448 495 2448 496 2448 497 2448 498 2448 499 2448 500 2448 501 2448 502 2448 503 2448 504 2448 505 2448 506 2448 507 2448 508 2448 509 2448 510 2448 511 2448 512 2448 513 2448 514 2448 515 2448 516 2448 517 2448 518 2448 519 2448 520 2448 521 2448 522 2448 523 2448 524 2448 525 2448 526 2448 527 2448 528 2448 529 2448 530 2448 531 2448 532 2448 533 2448 534 2448 535 2448 536 2448 537 2448 538 2448 539 2448 540 2448 541 2448 542 2448 543 2448 544 2448 545 2448 546 2448 547 2448 548 2448 549 2448 550 2448 551 2448 552 2448 553 2448 554 2448 555 2448 556 2448 557 2448 558 2448 559 2448 560 2448 561 2448 562 2448 563 2448 564 2448 565 2448 566 2448 567 2448 568 2448 569 2448 570 2448 571 2448 572 2448 573 2448 574 2448 575 2448 576 2448 577 2448 578 2448 579 2448 580 2448 581 2448 582 2448 583 2448 584 2448 585 2448 586 2448 587 2448 588 2448 589 2448 590 2448 591 2448 592 2448 593 2448 594 2448 595 2448 596 2448 597 2448 598 2448 599 2448 600 2448 601 2448 602 2448 603 2448 604 2448 605 2448 606 2448 607 2448 608 2448 609 2448 610 2448 611 2448 612 2448 613 2448 614 2448 615 2448 616 2448 617 2448 618 2448 619 2448 620 2448 621 2448 622 2448 623 2448 624 2448 625 2448 626 2448 627 2448 628 2448 629 2448 630 2448 631 2448 632 2448 633 2448 634 2448 635 2448 636 2448 637 2448 638 2448 639 2448 640 2448 641 2448 642 2448 643 2448 644 2448 645 2448 646 2448 647 2448 648 2448 649 2448 650 2448 651 2448 652 2448 653 2448 654 2448 655 2448 656 2448 657 2448 658 2448 659 2448 660 2448 661 2448 662 2448 663 2448 664 2448 665 2448 666 2448 667 2448 668 2448 669 2448 670 2448 671 2448 672 2448 673 2448 674 2448 675 2448 676 2448 677 2448 678 2448 679 2448 680 2448 681 2448 682 2448 683 2448 684 2448 685 2448 686 2448 687 2448 688 2448 689 2448 690 2448 691 2448 692 2448 693 2448 694 2448 695 2448 696 2448 697 2448 698 2448 699 2448 700 2448 701 2448 702 2448 703 2448 704 2448 705 2448 706 2448 707 2448 708 2448 709 2448 710 2448 711 2448 712 2448 713 2448 714 2448 715 2448 716 2448 717 2448 718 2448 719 2448 720 2448 721 2448 722 2448 723 2448 724 2448 725 2448 726 2448 727 2448 728 2448 729 2448 730 2448 731 2448 732 2448 733 2448 734 2448 735 2448 736 2448 737 2448 738 2448 739 2448 740 2448 741 2448 742 2448 743 2448 744 2448 745 2448 746 2448 747 2448 748 2448 749 2448 750 2448 751 2448 752 2448 753 2448 754 2448 755 2448 756 2448 757 2448 758 2448 759 2448 760 2448 761 2448 762 2448 763 2448 764 2448 765 2448 766 2448 767 2448 768 2448 769 2448 770 2448 771 2448 772 2448 773 2448 774 2448 775 2448 776 2448 777 2448 778 2448 779 2448 780 2448 781 2448 782 2448 783 2448 784 2448 785 2448 786 2448 787 2448 788 2448 789 2448 790 2448 791 2448 792 2448 793 2448 794 2448 795 2448 796 2448 797 2448 798 2448 799 2448 800 2448 801 2448 802 2448 803 2448 804 2448 805 2448 806 2448 807 2448 808 2448 809 2448 810 2448 811 2448 812 2448 813 2448 814 2448 815 2448 816 2448 817 2448 818 2448 819 2448 820 2448 821 2448 822 2448 823 2448 824 2448 825 2448 826 2448 827 2448 828 2448 829 2448 830 2448 831 2448 832 2448 833 2448 834 2448 835 2448 836 2448 837 2448 838 2448 839 2448 840 2448 841 2448 842 2448 843 2448 844 2448 845 2448 846 2448 847 2448 848 2448 849 2448 850 2448 851 2448 852 2448 853 2448 854 2448 855 2448 856 2448 857 2448 858 2448 859 2448 860 2448 861 2448 862 2448 863 2448 864 2448 865 2448 866 2448 867 2448 868 2448 869 2448 870 2448 871 2448 872 2448 873 2448 874 2448 875 2448 876 2448 877 2448 878 2448 879 2448 880 2448 881 2448 882 2448 883 2448 884 2448 885 2448 886 2448 887 2448 888 2448 889 2448 890 2448 891 2448 892 2448 893 2448 894 2448 895 2448 896 2448 897 2448 898 2448 899 2448 900 2448 901 2448 902 2448 903 2448 904 2448 905 2448 906 2448 907 2448 908 2448 909 2448 910 2448 911 2448 912 2448 913 2448 914 2448 915 2448 916 2448 917 2448 918 2448 919 2448 920 2448 921 2448 922 2448 923 2448 924 2448 925 2448 926 2448 927 2448 928 2448 929 2448 930 2448 931 2448 932 2448 933 2448 934 2448 935 2448 936 2448 937 2448 938 2448 939 2448 940 2448 941 2448 942 2448 943 2448 944 2448 945 2448 946 2448 947 2448 948 2448 949 2448 950 2448 951 2448 952 2448 953 2448 954 2448 955 2448 956 2448 957 2448 958 2448 959 2448 960 2448 961 2448 962 2448 963 2448 964 2448 965 2448 966 2448 967 2448 968 2448 969 2448 970 2448 971 2448 972 2448 973 2448 974 2448 975 2448 976 2448 977 2448 978 2448 979 2448 980 2448 981 2448 982 2448 983 2448 984 2448 985 2448 986 2448 987 2448 988 2448 989 2448 990 2448 991 2448 992 2448 993 2448 994 2448 995 2448 996 2448 997 2448 998 2448 999 2448 1000 2448 1001 2448 1002 2448 1003 2448 1004 2448 1005 2448 1006 2448 1007 2448 1008 2448 1009 2448 1010 2448 1011 2448 1012 2448 1013 2448 1014 2448 1015 2448 1016 2448 1017 2448 1018 2448 1019 2448 1020 2448 1021 2448 1022 2448 1023 2448 1024 2448 1025 2448 1026 2448 1027 2448 1028 2448 1029 2448 1030 2448 1031 2448 1032 2448 1033 2448 1034 2448 1035 2448 1036 2448 1037 2448 1038 2448 1039 2448 1040 2448 1041 2448 1042 2448 1043 2448 1044 2448 1045 2448 1046 2448 1047 2448 1048 2448 1049 2448 1050 2448 1051 2448 1052 2448 1053 2448 1054 2448 1055 2448 1056 2448 1057 2448 1058 2448 1059 2448 1060 2448 1061 2448 1062 2448 1063 2448 1064 2448 1065 2448 1066 2448 1067 2448 1068 2448 1069 2448 1070 2448 1071 2448 1072 2448 1073 2448 1074 2448 1075 2448 1076 2448 1077 2448 1078 2448 1079 2448 1080 2448 1081 2448 1082 2448 1083 2448 1084 2448 1085 2448 1086 2448 1087 2448 1088 2448 1089 2448 1090 2448 1091 2448 1092 2448 1093 2448 1094 2448 1095 2448 1096 2448 1097 2448 1098 2448 1099 2448 1100 2448 1101 2448 1102 2448 1103 2448 1104 2448 1105 2448 1106 2448 1107 2448 1108 2448 1109 2448 1110 2448 1111 2448 1112 2448 1113 2448 1114 2448 1115 2448 1116 2448 1117 2448 1118 2448 1119 2448 1120 2448 1121 2448 1122 2448 1123 2448 1124 2448 1125 2448 1126 2448 1127 2448 1128 2448 1129 2448 1130 2448 1131 2448 1132 2448 1133 2448 1134 2448 1135 2448 1136 2448 1137 2448 1138 2448 1139 2448 1140 2448 1141 2448 1142 2448 1143 2448 1144 2448 1145 2448 1146 2448 1147 2448 1148 2448 1149 2448 1150 2448 1151 2448 1152 2448 1153 2448 1154 2448 1155 2448 1156 2448 1157 2448 1158 2448 1159 2448 1160 2448 1161 2448 1162 2448 1163 2448 1164 2448 1165 2448 1166 2448 1167 2448 1168 2448 1169 2448 1170 2448 1171 2448 1172 2448 1173 2448 1174 2448 1175 2448 1176 2448 1177 2448 1178 2448 1179 2448 1180 2448 1181 2448 1182 2448 1183 2448 1184 2448 1185 2448 1186 2448 1187 2448 1188 2448 1189 2448 1190 2448 1191 2448 1192 2448 1193 2448 1194 2448 1195 2448 1196 2448 1197 2448 1198 2448 1199 2448 1200 2448 1201 2448 1202 2448 1203 2448 1204 2448 1205 2448 1206 2448 1207 2448 1208 2448 1209 2448 1210 2448 1211 2448 1212 2448 1213 2448 1214 2448 1215 2448 1216 2448 1217 2448 1218 2448 1219 2448 1220 2448 1221 2448 1222 2448 1223 2448 1224 2448 1225 2448 1226 2448 1227 2448 1228 2448 1229 2448 1230 2448 1231 2448 1232 2448 1233 2448 1234 2448 1235 2448 1236 2448 1237 2448 1238 2448 1239 2448 1240 2448 1241 2448 1242 2448 1243 2448 1244 2448 1245 2448 1246 2448 1247 2448 1248 2448 1249 2448 1250 2448 1251 2448 1252 2448 1253 2448 1254 2448 1255 2448 1256 2448 1257 2448 1258 2448 1259 2448 1260 2448 1261 2448 1262 2448 1263 2448 1264 2448 1265 2448 1266 2448 1267 2448 1268 2448 1269 2448 1270 2448 1271 2448 1272 2448 1273 2448 1274 2448 1275 2448 1276 2448 1277 2448 1278 2448 1279 2448 1280 2448 1281 2448 1282 2448 1283 2448 1284 2448 1285 2448 1286 2448 1287 2448 1288 2448 1289 2448 1290 2448 1291 2448 1292 2448 1293 2448 1294 2448 1295 2448 1296 2448 1297 2448 1298 2448 1299 2448 1300 2448 1301 2448 1302 2448 1303 2448 1304 2448 1305 2448 1306 2448 1307 2448 1308 2448 1309 2448 1310 2448 1311 2448 1312 2448 1313 2448 1314 2448 1315 2448 1316 2448 1317 2448 1318 2448 1319 2448 1320 2448 1321 2448 1322 2448 1323 2448 1324 2448 1325 2448 1326 2448 1327 2448 1328 2448 1329 2448 1330 2448 1331 2448 1332 2448 1333 2448 1334 2448 1335 2448 1336 2448 1337 2448 1338 2448 1339 2448 1340 2448 1341 2448 1342 2448 1343 2448 1344 2448 1345 2448 1346 2448 1347 2448 1348 2448 1349 2448 1350 2448 1351 2448 1352 2448 1353 2448 1354 2448 1355 2448 1356 2448 1357 2448 1358 2448 1359 2448 1360 2448 1361 2448 1362 2448 1363 2448 1364 2448 1365 2448 1366 2448 1367 2448 1368 2448 1369 2448 1370 2448 1371 2448 1372 2448 1373 2448 1374 2448 1375 2448 1376 2448 1377 2448 1378 2448 1379 2448 1380 2448 1381 2448 1382 2448 1383 2448 1384 2448 1385 2448 1386 2448 1387 2448 1388 2448 1389 2448 1390 2448 1391 2448 1392 2448 1393 2448 1394 2448 1395 2448 1396 2448 1397 2448 1398 2448 1399 2448 1400 2448 1401 2448 1402 2448 1403 2448 1404 2448 1405 2448 1406 2448 1407 2448 1408 2448 1409 2448 1410 2448 1411 2448 1412 2448 1413 2448 1414 2448 1415 2448 1416 2448 1417 2448 1418 2448 1419 2448 1420 2448 1421 2448 1422 2448 1423 2448 1424 2448 1425 2448 1426 2448 1427 2448 1428 2448 1429 2448 1430 2448 1431 2448 1432 2448 1433 2448 1434 2448 1435 2448 1436 2448 1437 2448 1438 2448 1439 2448 1440 2448 1441 2448 1442 2448 1443 2448 1444 2448 1445 2448 1446 2448 1447 2448 1448 2448 1449 2448 1450 2448 1451 2448 1452 2448 1453 2448 1454 2448 1455 2448 1456 2448 1457 2448 1458 2448 1459 2448 1460 2448 1461 2448 1462 2448 1463 2448 1464 2448 1465 2448 1466 2448 1467 2448 1468 2448 1469 2448 1470 2448 1471 2448 1472 2448 1473 2448 1474 2448 1475 2448 1476 2448 1477 2448 1478 2448 1479 2448 1480 2448 1481 2448 1482 2448 1483 2448 1484 2448 1485 2448 1486 2448 1487 2448 1488 2448 1489 2448 1490 2448 1491 2448 1492 2448 1493 2448 1494 2448 1495 2448 1496 2448 1497 2448 1498 2448 1499 2448 1500 2448 1501 2448 1502 2448 1503 2448 1504 2448 1505 2448 1506 2448 1507 2448 1508 2448 1509 2448 1510 2448 1511 2448 1512 2448 1513 2448 1514 2448 1515 2448 1516 2448 1517 2448 1518 2448 1519 2448 1520 2448 1521 2448 1522 2448 1523 2448 1524 2448 1525 2448 1526 2448 1527 2448 1528 2448 1529 2448 1530 2448 1531 2448 1532 2448 1533 2448 1534 2448 1535 2448 1536 2448 1537 2448 1538 2448 1539 2448 1540 2448 1541 2448 1542 2448 1543 2448 1544 2448 1545 2448 1546 2448 1547 2448 1548 2448 1549 2448 1550 2448 1551 2448 1552 2448 1553 2448 1554 2448 1555 2448 1556 2448 1557 2448 1558 2448 1559 2448 1560 2448 1561 2448 1562 2448 1563 2448 1564 2448 1565 2448 1566 2448 1567 2448 1568 2448 1569 2448 1570 2448 1571 2448 1572 2448 1573 2448 1574 2448 1575 2448 1576 2448 1577 2448 1578 2448 1579 2448 1580 2448 1581 2448 1582 2448 1583 2448 1584 2448 1585 2448 1586 2448 1587 2448 1588 2448 1589 2448 1590 2448 1591 2448 1592 2448 1593 2448 1594 2448 1595 2448 1596 2448 1597 2448 1598 2448 1599 2448 1600 2448 1601 2448 1602 2448 1603 2448 1604 2448 1605 2448 1606 2448 1607 2448 1608 2448 1609 2448 1610 2448 1611 2448 1612 2448 1613 2448 1614 2448 1615 2448 1616 2448 1617 2448 1618 2448 1619 2448 1620 2448 1621 2448 1622 2448 1623 2448 1624 2448 1625 2448 1626 2448 1627 2448 1628 2448 1629 2448 1630 2448 1631 2448 1632 2448 1633 2448 1634 2448 1635 2448 1636 2448 1637 2448 1638 2448 1639 2448 1640 2448 1641 2448 1642 2448 1643 2448 1644 2448 1645 2448 1646 2448 1647 2448 1648 2448 1649 2448 1650 2448 1651 2448 1652 2448 1653 2448 1654 2448 1655 2448 1656 2448 1657 2448 1658 2448 1659 2448 1660 2448 1661 2448 1662 2448 1663 2448 1664 2448 1665 2448 1666 2448 1667 2448 1668 2448 1669 2448 1670 2448 1671 2448 1672 2448 1673 2448 1674 2448 1675 2448 1676 2448 1677 2448 1678 2448 1679 2448 1680 2448 1681 2448 1682 2448 1683 2448 1684 2448 1685 2448 1686 2448 1687 2448 1688 2448 1689 2448 1690 2448 1691 2448 1692 2448 1693 2448 1694 2448 1695 2448 1696 2448 1697 2448 1698 2448 1699 2448 1700 2448 1701 2448 1702 2448 1703 2448 1704 2448 1705 2448 1706 2448 1707 2448 1708 2448 1709 2448 1710 2448 1711 2448 1712 2448 1712 2447 1712 2446 1712 2445 1712 2444 1712 2443 1712 2442 1712 2441 1712 2440 1712 2439 1712 2438 1712 2437 1712 2436 1712 2435 1712 2434 1712 2433 1712 2432 1712 2431 1712 2430 1712 2429 1712 2428 1712 2427 1712 2426 1712 2425 1712 2424 1712 2423 1712 2422 1712 2421 1712 2420 1712 2419 1712 2418 1712 2417 1712 2416 1712 2415 1712 2414 1712 2413 1712 2412 1712 2411 1712 2410 1712 2409 1712 2408 1712 2407 1712 2406 1712 2405 1712 2404 1712 2403 1712 2402 1712 2401 1712 2400 1712 2399 1712 2398 1712 2397 1712 2396 1712 2395 1712 2394 1712 2393 1712 2392 1712 2391 1712 2390 1712 2389 1712 2388 1712 2387 1712 2386 1712 2385 1712 2384 1712 2383 1712 2382 1712 2381 1712 2380 1712 2379 1712 2378 1712 2377 1712 2376 1712 2375 1712 2374 1712 2373 1712 2372 1712 2371 1712 2370 1712 2369 1712 2368 1712 2367 1712 2366 1712 2365 1712 2364 1712 2363 1712 2362 1712 2361 1712 2360 1712 2359 1712 2358 1712 2357 1712 2356 1712 2355 1712 2354 1712 2353 1712 2352 1712 2351 1712 2350 1712 2349 1712 2348 1712 2347 1712 2346 1712 2345 1712 2344 1712 2343 1712 2342 1712 2341 1712 2340 1712 2339 1712 2338 1712 2337 1712 2336 1712 2335 1712 2334 1712 2333 1712 2332 1712 2331 1712 2330 1712 2329 1712 2328 1712 2327 1712 2326 1712 2325 1712 2324 1712 2323 1712 2322 1712 2321 1712 2320 1712 2319 1712 2318 1712 2317 1712 2316 1712 2315 1712 2314 1712 2313 1712 2312 1712 2311 1712 2310 1712 2309 1712 2308 1712 2307 1712 2306 1712 2305 1712 2304 1712 2303 1712 2302 1712 2301 1712 2300 1712 2299 1712 2298 1712 2297 1712 2296 1712 2295 1712 2294 1712 2293 1712 2292 1712 2291 1712 2290 1712 2289 1712 2288 1712 2287 1712 2286 1712 2285 1712 2284 1712 2283 1712 2282 1712 2281 1712 2280 1712 2279 1712 2278 1712 2277 1712 2276 1712 2275 1712 2274 1712 2273 1712 2272 1712 2271 1712 2270 1712 2269 1712 2268 1712 2267 1712 2266 1712 2265 1712 2264 1712 2263 1712 2262 1712 2261 1712 2260 1712 2259 1712 2258 1712 2257 1712 2256 1712 2255 1712 2254 1712 2253 1712 2252 1712 2251 1712 2250 1712 2249 1712 2248 1712 2247 1712 2246 1712 2245 1712 2244 1712 2243 1712 2242 1712 2241 1712 2240 1712 2239 1712 2238 1712 2237 1712 2236 1712 2235 1712 2234 1712 2233 1712 2232 1712 2231 1712 2230 1712 2229 1712 2228 1712 2227 1712 2226 1712 2225 1712 2224 1712 2223 1712 2222 1712 2221 1712 2220 1712 2219 1712 2218 1712 2217 1712 2216 1712 2215 1712 2214 1712 2213 1712 2212 1712 2211 1712 2210 1712 2209 1712 2208 1712 2207 1712 2206 1712 2205 1712 2204 1712 2203 1712 2202 1712 2201 1712 2200 1712 2199 1712 2198 1712 2197 1712 2196 1712 2195 1712 2194 1712 2193 1712 2192 1712 2191 1712 2190 1712 2189 1712 2188 1712 2187 1712 2186 1712 2185 1712 2184 1712 2183 1712 2182 1712 2181 1712 2180 1712 2179 1712 2178 1712 2177 1712 2176 1712 2175 1712 2174 1712 2173 1712 2172 1712 2171 1712 2170 1712 2169 1712 2168 1712 2167 1712 2166 1712 2165 1712 2164 1712 2163 1712 2162 1712 2161 1712 2160 1712 2159 1712 2158 1712 2157 1712 2156 1712 2155 1712 2154 1712 2153 1712 2152 1712 2151 1712 2150 1712 2149 1712 2148 1712 2147 1712 2146 1712 2145 1712 2144 1712 2143 1712 2142 1712 2141 1712 2140 1712 2139 1712 2138 1712 2137 1712 2136 1712 2135 1712 2134 1712 2133 1712 2132 1712 2131 1712 2130 1712 2129 1712 2128 1712 2127 1712 2126 1712 2125 1712 2124 1712 2123 1712 2122 1712 2121 1712 2120 1712 2119 1712 2118 1712 2117 1712 2116 1712 2115 1712 2114 1712 2113 1712 2112 1712 2111 1712 2110 1712 2109 1712 2108 1712 2107 1712 2106 1712 2105 1712 2104 1712 2103 1712 2102 1712 2101 1712 2100 1712 2099 1712 2098 1712 2097 1712 2096 1712 2095 1712 2094 1712 2093 1712 2092 1712 2091 1712 2090 1712 2089 1712 2088 1712 2087 1712 2086 1712 2085 1712 2084 1712 2083 1712 2082 1712 2081 1712 2080 1712 2079 1712 2078 1712 2077 1712 2076 1712 2075 1712 2074 1712 2073 1712 2072 1712 2071 1712 2070 1712 2069 1712 2068 1712 2067 1712 2066 1712 2065 1712 2064 1712 2063 1712 2062 1712 2061 1712 2060 1712 2059 1712 2058 1712 2057 1712 2056 1712 2055 1712 2054 1712 2053 1712 2052 1712 2051 1712 2050 1712 2049 1712 2048 1712 2047 1712 2046 1712 2045 1712 2044 1712 2043 1712 2042 1712 2041 1712 2040 1712 2039 1712 2038 1712 2037 1712 2036 1712 2035 1712 2034 1712 2033 1712 2032 1712 2031 1712 2030 1712 2029 1712 2028 1712 2027 1712 2026 1712 2025 1712 2024 1712 2023 1712 2022 1712 2021 1712 2020 1712 2019 1712 2018 1712 2017 1712 2016 1712 2015 1712 2014 1712 2013 1712 2012 1712 2011 1712 2010 1712 2009 1712 2008 1712 2007 1712 2006 1712 2005 1712 2004 1712 2003 1712 2002 1712 2001 1712 2000 1712 1999 1712 1998 1712 1997 1712 1996 1712 1995 1712 1994 1712 1993 1712 1992 1712 1991 1712 1990 1712 1989 1712 1988 1712 1987 1712 1986 1712 1985 1712 1984 1712 1983 1712 1982 1712 1981 1712 1980 1712 1979 1712 1978 1712 1977 1712 1976 1712 1975 1712 1974 1712 1973 1712 1972 1712 1971 1712 1970 1712 1969 1712 1968 1712 1967 1712 1966 1712 1965 1712 1964 1712 1963 1712 1962 1712 1961 1712 1960 1712 1959 1712 1958 1712 1957 1712 1956 1712 1955 1712 1954 1712 1953 1712 1952 1712 1951 1712 1950 1712 1949 1712 1948 1712 1947 1712 1946 1712 1945 1712 1944 1712 1943 1712 1942 1712 1941 1712 1940 1712 1939 1712 1938 1712 1937 1712 1936 1712 1935 1712 1934 1712 1933 1712 1932 1712 1931 1712 1930 1712 1929 1712 1928 1712 1927 1712 1926 1712 1925 1712 1924 1712 1923 1712 1922 1712 1921 1712 1920 1712 1919 1712 1918 1712 1917 1712 1916 1712 1915 1712 1914 1712 1913 1712 1912 1712 1911 1712 1910 1712 1909 1712 1908 1712 1907 1712 1906 1712 1905 1712 1904 1712 1903 1712 1902 1712 1901 1712 1900 1712 1899 1712 1898 1712 1897 1712 1896 1712 1895 1712 1894 1712 1893 1712 1892 1712 1891 1712 1890 1712 1889 1712 1888 1712 1887 1712 1886 1712 1885 1712 1884 1712 1883 1712 1882 1712 1881 1712 1880 1712 1879 1712 1878 1712 1877 1712 1876 1712 1875 1712 1874 1712 1873 1712 1872 1712 1871 1712 1870 1712 1869 1712 1868 1712 1867 1712 1866 1712 1865 1712 1864 1712 1863 1712 1862 1712 1861 1712 1860 1712 1859 1712 1858 1712 1857 1712 1856 1712 1855 1712 1854 1712 1853 1712 1852 1712 1851 1712 1850 1712 1849 1712 1848 1712 1847 1712 1846 1712 1845 1712 1844 1712 1843 1712 1842 1712 1841 1712 1840 1712 1839 1712 1838 1712 1837 1712 1836 1712 1835 1712 1834 1712 1833 1712 1832 1712 1831 1712 1830 1712 1829 1712 1828 1712 1827 1712 1826 1712 1825 1712 1824 1712 1823 1712 1822 1712 1821 1712 1820 1712 1819 1712 1818 1712 1817 1712 1816 1712 1815 1712 1814 1712 1813 1712 1812 1712 1811 1712 1810 1712 1809 1712 1808 1712 1807 1712 1806 1712 1805 1712 1804 1712 1803 1712 1802 1712 1801 1712 1800 1712 1799 1712 1798 1712 1797 1712 1796 1712 1795 1712 1794 1712 1793 1712 1792 1712 1791 1712 1790 1712 1789 1712 1788 1712 1787 1712 1786 1712 1785 1712 1784 1712 1783 1712 1782 1712 1781 1712 1780 1712 1779 1712 1778 1712 1777 1712 1776 1712 1775 1712 1774 1712 1773 1712 1772 1712 1771 1712 1770 1712 1769 1712 1768 1712 1767 1712 1766 1712 1765 1712 1764 1712 1763 1712 1762 1712 1761 1712 1760 1712 1759 1712 1758 1712 1757 1712 1756 1712 1755 1712 1754 1712 1753 1712 1752 1712 1751 1712 1750 1712 1749 1712 1748 1712 1747 1712 1746 1712 1745 1712 1744 1712 1743 1712 1742 1712 1741 1712 1740 1712 1739 1712 1738 1712 1737 1712 1736 1712 1735 1712 1734 1712 1733 1712 1732 1712 1731 1712 1730 1712 1729 1712 1728 1712 1727 1712 1726 1712 1725 1712 1724 1712 1723 1712 1722 1712 1721 1712 1720 1712 1719 1712 1718 1712 1717 1712 1716 1712 1715 1712 1714 1712 1713 1712 1712 1712 1711 1712 1710 1712 1709 1712 1708 1712 1707 1712 1706 1712 1705 1712 1704 1712 1703 1712 1702 1712 1701 1712 1700 1712 1699 1712 1698 1712 1697 1712 1696 1712 1695 1712 1694 1712 1693 1712 1692 1712 1691 1712 1690 1712 1689 1712 1688 1712 1687 1712 1686 1712 1685 1712 1684 1712 1683 1712 1682 1712 1681 1712 1680 1712 1679 1712 1678 1712 1677 1712 1676 1712 1675 1712 1674 1712 1673 1712 1672 1712 1671 1712 1670 1712 1669 1712 1668 1712 1667 1712 1666 1712 1665 1712 1664 1712 1663 1712 1662 1712 1661 1712 1660 1712 1659 1712 1658 1712 1657 1712 1656 1712 1655 1712 1654 1712 1653 1712 1652 1712 1651 1712 1650 1712 1649 1712 1648 1712 1647 1712 1646 1712 1645 1712 1644 1712 1643 1712 1642 1712 1641 1712 1640 1712 1639 1712 1638 1712 1637 1712 1636 1712 1635 1712 1634 1712 1633 1712 1632 1712 1631 1712 1630 1712 1629 1712 1628 1712 1627 1712 1626 1712 1625 1712 1624 1712 1623 1712 1622 1712 1621 1712 1620 1712 1619 1712 1618 1712 1617 1712 1616 1712 1615 1712 1614 1712 1613 1712 1612 1712 1611 1712 1610 1712 1609 1712 1608 1712 1607 1712 1606 1712 1605 1712 1604 1712 1603 1712 1602 1712 1601 1712 1600 1712 1599 1712 1598 1712 1597 1712 1596 1712 1595 1712 1594 1712 1593 1712 1592 1712 1591 1712 1590 1712 1589 1712 1588 1712 1587 1712 1586 1712 1585 1712 1584 1712 1583 1712 1582 1712 1581 1712 1580 1712 1579 1712 1578 1712 1577 1712 1576 1712 1575 1712 1574 1712 1573 1712 1572 1712 1571 1712 1570 1712 1569 1712 1568 1712 1567 1712 1566 1712 1565 1712 1564 1712 1563 1712 1562 1712 1561 1712 1560 1712 1559 1712 1558 1712 1557 1712 1556 1712 1555 1712 1554 1712 1553 1712 1552 1712 1551 1712 1550 1712 1549 1712 1548 1712 1547 1712 1546 1712 1545 1712 1544 1712 1543 1712 1542 1712 1541 1712 1540 1712 1539 1712 1538 1712 1537 1712 1536 1712 1535 1712 1534 1712 1533 1712 1532 1712 1531 1712 1530 1712 1529 1712 1528 1712 1527 1712 1526 1712 1525 1712 1524 1712 1523 1712 1522 1712 1521 1712 1520 1712 1519 1712 1518 1712 1517 1712 1516 1712 1515 1712 1514 1712 1513 1712 1512 1712 1511 1712 1510 1712 1509 1712 1508 1712 1507 1712 1506 1712 1505 1712 1504 1712 1503 1712 1502 1712 1501 1712 1500 1712 1499 1712 1498 1712 1497 1712 1496 1712 1495 1712 1494 1712 1493 1712 1492 1712 1491 1712 1490 1712 1489 1712 1488 1712 1487 1712 1486 1712 1485 1712 1484 1712 1483 1712 1482 1712 1481 1712 1480 1712 1479 1712 1478 1712 1477 1712 1476 1712 1475 1712 1474 1712 1473 1712 1472 1712 1471 1712 1470 1712 1469 1712 1468 1712 1467 1712 1466 1712 1465 1712 1464 1712 1463 1712 1462 1712 1461 1712 1460 1712 1459 1712 1458 1712 1457 1712 1456 1712 1455 1712 1454 1712 1453 1712 1452 1712 1451 1712 1450 1712 1449 1712 1448 1712 1447 1712 1446 1712 1445 1712 1444 1712 1443 1712 1442 1712 1441 1712 1440 1712 1439 1712 1438 1712 1437 1712 1436 1712 1435 1712 1434 1712 1433 1712 1432 1712 1431 1712 1430 1712 1429 1712 1428 1712 1427 1712 1426 1712 1425 1712 1424 1712 1423 1712 1422 1712 1421 1712 1420 1712 1419 1712 1418 1712 1417 1712 1416 1712 1415 1712 1414 1712 1413 1712 1412 1712 1411 1712 1410 1712 1409 1712 1408 1712 1407 1712 1406 1712 1405 1712 1404 1712 1403 1712 1402 1712 1401 1712 1400 1712 1399 1712 1398 1712 1397 1712 1396 1712 1395 1712 1394 1712 1393 1712 1392 1712 1391 1712 1390 1712 1389 1712 1388 1712 1387 1712 1386 1712 1385 1712 1384 1712 1383 1712 1382 1712 1381 1712 1380 1712 1379 1712 1378 1712 1377 1712 1376 1712 1375 1712 1374 1712 1373 1712 1372 1712 1371 1712 1370 1712 1369 1712 1368 1712 1367 1712 1366 1712 1365 1712 1364 1712 1363 1712 1362 1712 1361 1712 1360 1712 1359 1712 1358 1712 1357 1712 1356 1712 1355 1712 1354 1712 1353 1712 1352 1712 1351 1712 1350 1712 1349 1712 1348 1712 1347 1712 1346 1712 1345 1712 1344 1712 1343 1712 1342 1712 1341 1712 1340 1712 1339 1712 1338 1712 1337 1712 1336 1712 1335 1712 1334 1712 1333 1712 1332 1712 1331 1712 1330 1712 1329 1712 1328 1712 1327 1712 1326 1712 1325 1712 1324 1712 1323 1712 1322 1712 1321 1712 1320 1712 1319 1712 1318 1712 1317 1712 1316 1712 1315 1712 1314 1712 1313 1712 1312 1712 1311 1712 1310 1712 1309 1712 1308 1712 1307 1712 1306 1712 1305 1712 1304 1712 1303 1712 1302 1712 1301 1712 1300 1712 1299 1712 1298 1712 1297 1712 1296 1712 1295 1712 1294 1712 1293 1712 1292 1712 1291 1712 1290 1712 1289 1712 1288 1712 1287 1712 1286 1712 1285 1712 1284 1712 1283 1712 1282 1712 1281 1712 1280 1712 1279 1712 1278 1712 1277 1712 1276 1712 1275 1712 1274 1712 1273 1712 1272 1712 1271 1712 1270 1712 1269 1712 1268 1712 1267 1712 1266 1712 1265 1712 1264 1712 1263 1712 1262 1712 1261 1712 1260 1712 1259 1712 1258 1712 1257 1712 1256 1712 1255 1712 1254 1712 1253 1712 1252 1712 1251 1712 1250 1712 1249 1712 1248 1712 1247 1712 1246 1712 1245 1712 1244 1712 1243 1712 1242 1712 1241 1712 1240 1712 1239 1712 1238 1712 1237 1712 1236 1712 1235 1712 1234 1712 1233 1712 1232 1712 1231 1712 1230 1712 1229 1712 1228 1712 1227 1712 1226 1712 1225 1712 1224 1712 1223 1712 1222 1712 1221 1712 1220 1712 1219 1712 1218 1712 1217 1712 1216 1712 1215 1712 1214 1712 1213 1712 1212 1712 1211 1712 1210 1712 1209 1712 1208 1712 1207 1712 1206 1712 1205 1712 1204 1712 1203 1712 1202 1712 1201 1712 1200 1712 1199 1712 1198 1712 1197 1712 1196 1712 1195 1712 1194 1712 1193 1712 1192 1712 1191 1712 1190 1712 1189 1712 1188 1712 1187 1712 1186 1712 1185 1712 1184 1712 1183 1712 1182 1712 1181 1712 1180 1712 1179 1712 1178 1712 1177 1712 1176 1712 1175 1712 1174 1712 1173 1712 1172 1712 1171 1712 1170 1712 1169 1712 1168 1712 1167 1712 1166 1712 1165 1712 1164 1712 1163 1712 1162 1712 1161 1712 1160 1712 1159 1712 1158 1712 1157 1712 1156 1712 1155 1712 1154 1712 1153 1712 1152 1712 1151 1712 1150 1712 1149 1712 1148 1712 1147 1712 1146 1712 1145 1712 1144 1712 1143 1712 1142 1712 1141 1712 1140 1712 1139 1712 1138 1712 1137 1712 1136 1712 1135 1712 1134 1712 1133 1712 1132 1712 1131 1712 1130 1712 1129 1712 1128 1712 1127 1712 1126 1712 1125 1712 1124 1712 1123 1712 1122 1712 1121 1712 1120 1712 1119 1712 1118 1712 1117 1712 1116 1712 1115 1712 1114 1712 1113 1712 1112 1712 1111 1712 1110 1712 1109 1712 1108 1712 1107 1712 1106 1712 1105 1712 1104 1712 1103 1712 1102 1712 1101 1712 1100 1712 1099 1712 1098 1712 1097 1712 1096 1712 1095 1712 1094 1712 1093 1712 1092 1712 1091 1712 1090 1712 1089 1712 1088 1712 1087 1712 1086 1712 1085 1712 1084 1712 1083 1712 1082 1712 1081 1712 1080 1712 1079 1712 1078 1712 1077 1712 1076 1712 1075 1712 1074 1712 1073 1712 1072 1712 1071 1712 1070 1712 1069 1712 1068 1712 1067 1712 1066 1712 1065 1712 1064 1712 1063 1712 1062 1712 1061 1712 1060 1712 1059 1712 1058 1712 1057 1712 1056 1712 1055 1712 1054 1712 1053 1712 1052 1712 1051 1712 1050 1712 1049 1712 1048 1712 1047 1712 1046 1712 1045 1712 1044 1712 1043 1712 1042 1712 1041 1712 1040 1712 1039 1712 1038 1712 1037 1712 1036 1712 1035 1712 1034 1712 1033 1712 1032 1712 1031 1712 1030 1712 1029 1712 1028 1712 1027 1712 1026 1712 1025 1712 1024 1712 1023 1712 1022 1712 1021 1712 1020 1712 1019 1712 1018 1712 1017 1712 1016 1712 1015 1712 1014 1712 1013 1712 1012 1712 1011 1712 1010 1712 1009 1712 1008 1712 1007 1712 1006 1712 1005 1712 1004 1712 1003 1712 1002 1712 1001 1712 1000 1712 999 1712 998 1712 997 1712 996 1712 995 1712 994 1712 993 1712 992 1712 991 1712 990 1712 989 1712 988 1712 987 1712 986 1712 985 1712 984 1712 983 1712 982 1712 981 1712 980 1712 979 1712 978 1712 977 1712 976 1712 975 1712 974 1712 973 1712 972 1712 971 1712 970 1712 969 1712 968 1712 967 1712 966 1712 965 1712 964 1712 963 1712 962 1712 961 1712 960 1712 959 1712 958 1712 957 1712 956 1712 955 1712 954 1712 953 1712 952 1712 951 1712 950 1712 949 1712 948 1712 947 1712 946 1712 945 1712 944 1712 943 1712 942 1712 941 1712 940 1712 939 1712 938 1712 937 1712 936 1712 935 1712 934 1712 933 1712 932 1712 931 1712 930 1712 929 1712 928 1712 927 1712 926 1712 925 1712 924 1712 923 1712 922 1712 921 1712 920 1712 919 1712 918 1712 917 1712 916 1712 915 1712 914 1712 913 1712 912 1712 911 1712 910 1712 909 1712 908 1712 907 1712 906 1712 905 1712 904 1712 903 1712 902 1712 901 1712 900 1712 899 1712 898 1712 897 1712 896 1712 895 1712 894 1712 893 1712 892 1712 891 1712 890 1712 889 1712 888 1712 887 1712 886 1712 885 1712 884 1712 883 1712 882 1712 881 1712 880 1712 879 1712 878 1712 877 1712 876 1712 875 1712 874 1712 873 1712 872 1712 871 1712 870 1712 869 1712 868 1712 867 1712 866 1712 865 1712 864 1712 863 1712 862 1712 861 1712 860 1712 859 1712 858 1712 857 1712 856 1712 855 1712 854 1712 853 1712 852 1712 851 1712 850 1712 849 1712 848 1712 847 1712 846 1712 845 1712 844 1712 843 1712 842 1712 841 1712 840 1712 839 1712 838 1712 837 1712 836 1712 835 1712 834 1712 833 1712 832 1712 831 1712 830 1712 829 1712 828 1712 827 1712 826 1712 825 1712 824 1712 823 1712 822 1712 821 1712 820 1712 819 1712 818 1712 817 1712 816 1712 815 1712 814 1712 813 1712 812 1712 811 1712 810 1712 809 1712 808 1712 807 1712 806 1712 805 1712 804 1712 803 1712 802 1712 801 1712 800 1712 799 1712 798 1712 797 1712 796 1712 795 1712 794 1712 793 1712 792 1712 791 1712 790 1712 789 1712 788 1712 787 1712 786 1712 785 1712 784 1712 783 1712 782 1712 781 1712 780 1712 779 1712 778 1712 777 1712 776 1712 775 1712 774 1712 773 1712 772 1712 771 1712 770 1712 769 1712 768 1712 767 1712 766 1712 765 1712 764 1712 763 1712 762 1712 761 1712 760 1712 759 1712 758 1712 757 1712 756 1712 755 1712 754 1712 753 1712 752 1712 751 1712 750 1712 749 1712 748 1712 747 1712 746 1712 745 1712 744 1712 743 1712 742 1712 741 1712 740 1712 739 1712 738 1712 737 1712 736 1712 735 1712 734 1712 733 1712 732 1712 731 1712 730 1712 729 1712 728 1712 727 1712 726 1712 725 1712 724 1712 723 1712 722 1712 721 1712 720 1712 719 1712 718 1712 717 1712 716 1712 715 1712 714 1712 713 1712 712 1712 711 1712 710 1712 709 1712 708 1712 707 1712 706 1712 705 1712 704 1712 703 1712 702 1712 701 1712 700 1712 699 1712 698 1712 697 1712 696 1712 695 1712 694 1712 693 1712 692 1712 691 1712 690 1712 689 1712 688 1712 687 1712 686 1712 685 1712 684 1712 683 1712 682 1712 681 1712 680 1712 679 1712 678 1712 677 1712 676 1712 675 1712 674 1712 673 1712 672 1712 671 1712 670 1712 669 1712 668 1712 667 1712 666 1712 665 1712 664 1712 663 1712 662 1712 661 1712 660 1712 659 1712 658 1712 657 1712 656 1712 655 1712 654 1712 653 1712 652 1712 651 1712 650 1712 649 1712 648 1712 647 1712 646 1712 645 1712 644 1712 643 1712 642 1712 641 1712 640 1712 639 1712 638 1712 637 1712 636 1712 635 1712 634 1712 633 1712 632 1712 631 1712 630 1712 629 1712 628 1712 627 1712 626 1712 625 1712 624 1712 623 1712 622 1712 621 1712 620 1712 619 1712 618 1712 617 1712 616 1712 615 1712 614 1712 613 1712 612 1712 611 1712 610 1712 609 1712 608 1712 607 1712 606 1712 605 1712 604 1712 603 1712 602 1712 601 1712 600 1712 599 1712 598 1712 597 1712 596 1712 595 1712 594 1712 593 1712 592 1712 591 1712 590 1712 589 1712 588 1712 587 1712 586 1712 585 1712 584 1712 583 1712 582 1712 581 1712 580 1712 579 1712 578 1712 577 1712 576 1712 575 1712 574 1712 573 1712 572 1712 571 1712 570 1712 569 1712 568 1712 567 1712 566 1712 565 1712 564 1712 563 1712 562 1712 561 1712 560 1712 559 1712 558 1712 557 1712 556 1712 555 1712 554 1712 553 1712 552 1712 551 1712 550 1712 549 1712 548 1712 547 1712 546 1712 545 1712 544 1712 543 1712 542 1712 541 1712 540 1712 539 1712 538 1712 537 1712 536 1712 535 1712 534 1712 533 1712 532 1712 531 1712 530 1712 529 1712 528 1712 527 1712 526 1712 525 1712 524 1712 523 1712 522 1712 521 1712 520 1712 519 1712 518 1712 517 1712 516 1712 515 1712 514 1712 513 1712 512 1712 511 1712 510 1712 509 1712 508 1712 507 1712 506 1712 505 1712 504 1712 503 1712 502 1712 501 1712 500 1712 499 1712 498 1712 497 1712 496 1712 495 1712 494 1712 493 1712 492 1712 491 1712 490 1712 489 1712 488 1712 487 1712 486 1712 485 1712 484 1712 483 1712 482 1712 481 1712 480 1712 479 1712 478 1712 477 1712 476 1712 475 1712 474 1712 473 1712 472 1712 471 1712 470 1712 469 1712 468 1712 467 1712 466 1712 465 1712 464 1712 463 1712 462 1712 461 1712 460 1712 459 1712 458 1712 457 1712 456 1712 455 1712 454 1712 453 1712 452 1712 451 1712 450 1712 449 1712 448 1712 447 1712 446 1712 445 1712 444 1712 443 1712 442 1712 441 1712 440 1712 439 1712 438 1712 437 1712 436 1712 435 1712 434 1712 433 1712 432 1712 431 1712 430 1712 429 1712 428 1712 427 1712 426 1712 425 1712 424 1712 423 1712 422 1712 421 1712 420 1712 419 1712 418 1712 417 1712 416 1712 415 1712 414 1712 413 1712 412 1712 411 1712 410 1712 409 1712 408 1712 407 1712 406 1712 405 1712 404 1712 403 1712 402 1712 401 1712 400 1712 399 1712 398 1712 397 1712 396 1712 395 1712 394 1712 393 1712 392 1712 391 1712 390 1712 389 1712 388 1712 387 1712 386 1712 385 1712 384 1712 383 1712 382 1712 381 1712 380 1712 379 1712 378 1712 377 1712 376 1712 375 1712 374 1712 373 1712 372 1712 371 1712 370 1712 369 1712 368 1712 367 1712 366 1712 365 1712 364 1712 363 1712 362 1712 361 1712 360 1712 359 1712 358 1712 357 1712 356 1712 355 1712 354 1712 353 1712 352 1712 351 1712 350 1712 349 1712 348 1712 347 1712 346 1712 345 1712 344 1712 343 1712 342 1712 341 1712 340 1712 339 1712 338 1712 337 1712 336 1712 335 1712 334 1712 333 1712 332 1712 331 1712 330 1712 329 1712 328 1712 327 1712 326 1712 325 1712 324 1712 323 1712 322 1712 321 1712 320 1712 319 1712 318 1712 317 1712 316 1712 315 1712 314 1712 313 1712 312 1712 311 1712 310 1712 309 1712 308 1712 307 1712 306 1712 305 1712 304 1712 303 1712 302 1712 301 1712 300 1712 299 1712 298 1712 297 1712 296 1712 295 1712 294 1712 293 1712 292 1712 291 1712 290 1712 289 1712 288 1712 287 1712 286 1712 285 1712 284 1712 283 1712 282 1712 281 1712 280 1712 279 1712 278 1712 277 1712 276 1712 275 1712 274 1712 273 1712 272 1712 271 1712 270 1712 269 1712 268 1712 267 1712 266 1712 265 1712 264 1712 263 1712 262 1712 261 1712 260 1712 259 1712 258 1712 257 1712 256 1712 255 1712 254 1712 253 1712 252 1712 251 1712 250 1712 249 1712 248 1712 247 1712 246 1712 245 1712 244 1712 243 1712 242 1712 241 1712 240 1712 239 1712 238 1712 237 1712 236 1712 235 1712 234 1712 233 1712 232 1712 231 1712 230 1712 229 1712 228 1712 227 1712 226 1712 225 1712 224 1712 223 1712 222 1712 221 1712 220 1712 219 1712 218 1712 217 1712 216 1712 215 1712 214 1712 213 1712 212 1712 211 1712 210 1712 209 1712 208 1712 207 1712 206 1712 205 1712 204 1712 203 1712 202 1712 201 1712 200 1712 199 1712 198 1712 197 1712 196 1712 195 1712 194 1712 193 1712 192 1712 191 1712 190 1712 189 1712 188 1712 187 1712 186 1712 185 1712 184 1712 183 1712 182 1712 181 1712 180 1712 179 1712 178 1712 177 1712 176 1712 175 1712 174 1712 173 1712 172 1712 171 1712 170 1712 169 1712 168 1712 167 1712 166 1712 165 1712 164 1712 163 1712 162 1712 161 1712 160 1712 159 1712 158 1712 157 1712 156 1712 155 1712 154 1712 153 1712 152 1712 151 1712 150 1712 149 1712 148 1712 147 1712 146 1712 145 1712 144 1712 143 1712 142 1712 141 1712 140 1712 139 1712 138 1712 137 1712 136 1712 135 1712 134 1712 133 1712 132 1712 131 1712 130 1712 129 1712 128 1712 127 1712 126 1712 125 1712 124 1712 123 1712 122 1712 121 1712 120 1712 119 1712 118 1712 117 1712 116 1712 115 1712 114 1712 113 1712 112 1712 111 1712 110 1712 109 1712 108 1712 107 1712 106 1712 105 1712 104 1712 103 1712 102 1712 101 1712 100 1712 99 1712 98 1712 97 1712 96 1712 95 1712 94 1712 93 1712 92 1712 91 1712 90 1712 89 1712 88 1712 87 1712 86 1712 85 1712 84 1712 83 1712 82 1712 81 1712 80 1712 79 1712 78 1712 77 1712 76 1712 75 1712 74 1712 73 1712 72 1712 71 1712 70 1712 69 1712 68 1712 67 1712 66 1712 65 1712 64 1712 63 1712 62 1712 61 1712 60 1712 59 1712 58 1712 57 1712 56 1712 55 1712 54 1712 53 1712 52 1712 51 1712 50 1712 49 1712 48 1712 47 1712 46 1712 45 1712 44 1712 43 1712 42 1712 41 1712 40 1712 39 1712 38 1712 37 1712 36 1712 35 1712 34 1712 33 1712 32 1712 31 1712 30 1712 29 1712 28 1712 27 1712 26 1712 25 1712 24 1712 23 1712 22 1712 21 1712 20 1712 19 1712 18 1712 17 1712 16 1712 15 1712 14 1712 13 1712 12 1712 11 1712 10 1712 9 1712 8 1712 7 1712 6 1712 5 1712 4 1712 3 1712 2 1712 1 1712 0 1711 0 1710 0 1709 0 1708 0 1707 0 1706 0 1705 0 1704 0 1703 0 1702 0 1701 0 1700 0 1699 0 1698 0 1697 0 1696 0 1695 0 1694 0 1693 0 1692 0 1691 0 1690 0 1689 0 1688 0 1687 0 1686 0 1685 0 1684 0 1683 0 1682 0 1681 0 1680 0 1679 0 1678 0 1677 0 1676 0 1675 0 1674 0 1673 0 1672 0 1671 0 1670 0 1669 0 1668 0 1667 0 1666 0 1665 0 1664 0 1663 0 1662 0 1661 0 1660 0 1659 0 1658 0 1657 0 1656 0 1655 0 1654 0 1653 0 1652 0 1651 0 1650 0 1649 0 1648 0 1647 0 1646 0 1645 0 1644 0 1643 0 1642 0 1641 0 1640 0 1639 0 1638 0 1637 0 1636 0 1635 0 1634 0 1633 0 1632 0 1631 0 1630 0 1629 0 1628 0 1627 0 1626 0 1625 0 1624 0 1623 0 1622 0 1621 0 1620 0 1619 0 1618 0 1617 0 1616 0 1615 0 1614 0 1613 0 1612 0 1611 0 1610 0 1609 0 1608 0 1607 0 1606 0 1605 0 1604 0 1603 0 1602 0 1601 0 1600 0 1599 0 1598 0 1597 0 1596 0 1595 0 1594 0 1593 0 1592 0 1591 0 1590 0 1589 0 1588 0 1587 0 1586 0 1585 0 1584 0 1583 0 1582 0 1581 0 1580 0 1579 0 1578 0 1577 0 1576 0 1575 0 1574 0 1573 0 1572 0 1571 0 1570 0 1569 0 1568 0 1567 0 1566 0 1565 0 1564 0 1563 0 1562 0 1561 0 1560 0 1559 0 1558 0 1557 0 1556 0 1555 0 1554 0 1553 0 1552 0 1551 0 1550 0 1549 0 1548 0 1547 0 1546 0 1545 0 1544 0 1543 0 1542 0 1541 0 1540 0 1539 0 1538 0 1537 0 1536 0 1535 0 1534 0 1533 0 1532 0 1531 0 1530 0 1529 0 1528 0 1527 0 1526 0 1525 0 1524 0 1523 0 1522 0 1521 0 1520 0 1519 0 1518 0 1517 0 1516 0 1515 0 1514 0 1513 0 1512 0 1511 0 1510 0 1509 0 1508 0 1507 0 1506 0 1505 0 1504 0 1503 0 1502 0 1501 0 1500 0 1499 0 1498 0 1497 0 1496 0 1495 0 1494 0 1493 0 1492 0 1491 0 1490 0 1489 0 1488 0 1487 0 1486 0 1485 0 1484 0 1483 0 1482 0 1481 0 1480 0 1479 0 1478 0 1477 0 1476 0 1475 0 1474 0 1473 0 1472 0 1471 0 1470 0 1469 0 1468 0 1467 0 1466 0 1465 0 1464 0 1463 0 1462 0 1461 0 1460 0 1459 0 1458 0 1457 0 1456 0 1455 0 1454 0 1453 0 1452 0 1451 0 1450 0 1449 0 1448 0 1447 0 1446 0 1445 0 1444 0 1443 0 1442 0 1441 0 1440 0 1439 0 1438 0 1437 0 1436 0 1435 0 1434 0 1433 0 1432 0 1431 0 1430 0 1429 0 1428 0 1427 0 1426 0 1425 0 1424 0 1423 0 1422 0 1421 0 1420 0 1419 0 1418 0 1417 0 1416 0 1415 0 1414 0 1413 0 1412 0 1411 0 1410 0 1409 0 1408 0 1407 0 1406 0 1405 0 1404 0 1403 0 1402 0 1401 0 1400 0 1399 0 1398 0 1397 0 1396 0 1395 0 1394 0 1393 0 1392 0 1391 0 1390 0 1389 0 1388 0 1387 0 1386 0 1385 0 1384 0 1383 0 1382 0 1381 0 1380 0 1379 0 1378 0 1377 0 1376 0 1375 0 1374 0 1373 0 1372 0 1371 0 1370 0 1369 0 1368 0 1367 0 1366 0 1365 0 1364 0 1363 0 1362 0 1361 0 1360 0 1359 0 1358 0 1357 0 1356 0 1355 0 1354 0 1353 0 1352 0 1351 0 1350 0 1349 0 1348 0 1347 0 1346 0 1345 0 1344 0 1343 0 1342 0 1341 0 1340 0 1339 0 1338 0 1337 0 1336 0 1335 0 1334 0 1333 0 1332 0 1331 0 1330 0 1329 0 1328 0 1327 0 1326 0 1325 0 1324 0 1323 0 1322 0 1321 0 1320 0 1319 0 1318 0 1317 0 1316 0 1315 0 1314 0 1313 0 1312 0 1311 0 1310 0 1309 0 1308 0 1307 0 1306 0 1305 0 1304 0 1303 0 1302 0 1301 0 1300 0 1299 0 1298 0 1297 0 1296 0 1295 0 1294 0 1293 0 1292 0 1291 0 1290 0 1289 0 1288 0 1287 0 1286 0 1285 0 1284 0 1283 0 1282 0 1281 0 1280 0 1279 0 1278 0 1277 0 1276 0 1275 0 1274 0 1273 0 1272 0 1271 0 1270 0 1269 0 1268 0 1267 0 1266 0 1265 0 1264 0 1263 0 1262 0 1261 0 1260 0 1259 0 1258 0 1257 0 1256 0 1255 0 1254 0 1253 0 1252 0 1251 0 1250 0 1249 0 1248 0 1247 0 1246 0 1245 0 1244 0 1243 0 1242 0 1241 0 1240 0 1239 0 1238 0 1237 0 1236 0 1235 0 1234 0 1233 0 1232 0 1231 0 1230 0 1229 0 1228 0 1227 0 1226 0 1225 0 1224 0 1223 0 1222 0 1221 0 1220 0 1219 0 1218 0 1217 0 1216 0 1215 0 1214 0 1213 0 1212 0 1211 0 1210 0 1209 0 1208 0 1207 0 1206 0 1205 0 1204 0 1203 0 1202 0 1201 0 1200 0 1199 0 1198 0 1197 0 1196 0 1195 0 1194 0 1193 0 1192 0 1191 0 1190 0 1189 0 1188 0 1187 0 1186 0 1185 0 1184 0 1183 0 1182 0 1181 0 1180 0 1179 0 1178 0 1177 0 1176 0 1175 0 1174 0 1173 0 1172 0 1171 0 1170 0 1169 0 1168 0 1167 0 1166 0 1165 0 1164 0 1163 0 1162 0 1161 0 1160 0 1159 0 1158 0 1157 0 1156 0 1155 0 1154 0 1153 0 1152 0 1151 0 1150 0 1149 0 1148 0 1147 0 1146 0 1145 0 1144 0 1143 0 1142 0 1141 0 1140 0 1139 0 1138 0 1137 0 1136 0 1135 0 1134 0 1133 0 1132 0 1131 0 1130 0 1129 0 1128 0 1127 0 1126 0 1125 0 1124 0 1123 0 1122 0 1121 0 1120 0 1119 0 1118 0 1117 0 1116 0 1115 0 1114 0 1113 0 1112 0 1111 0 1110 0 1109 0 1108 0 1107 0 1106 0 1105 0 1104 0 1103 0 1102 0 1101 0 1100 0 1099 0 1098 0 1097 0 1096 0 1095 0 1094 0 1093 0 1092 0 1091 0 1090 0 1089 0 1088 0 1087 0 1086 0 1085 0 1084 0 1083 0 1082 0 1081 0 1080 0 1079 0 1078 0 1077 0 1076 0 1075 0 1074 0 1073 0 1072 0 1071 0 1070 0 1069 0 1068 0 1067 0 1066 0 1065 0 1064 0 1063 0 1062 0 1061 0 1060 0 1059 0 1058 0 1057 0 1056 0 1055 0 1054 0 1053 0 1052 0 1051 0 1050 0 1049 0 1048 0 1047 0 1046 0 1045 0 1044 0 1043 0 1042 0 1041 0 1040 0 1039 0 1038 0 1037 0 1036 0 1035 0 1034 0 1033 0 1032 0 1031 0 1030 0 1029 0 1028 0 1027 0 1026 0 1025 0 1024 0 1023 0 1022 0 1021 0 1020 0 1019 0 1018 0 1017 0 1016 0 1015 0 1014 0 1013 0 1012 0 1011 0 1010 0 1009 0 1008 0 1007 0 1006 0 1005 0 1004 0 1003 0 1002 0 1001 0 1000 0 999 0 998 0 997 0 996 0 995 0 994 0 993 0 992 0 991 0 990 0 989 0 988 0 987 0 986 0 985 0 984 0 983 0 982 0 981 0 980 0 979 0 978 0 977 0 976 0 975 0 974 0 973 0 972 0 971 0 970 0 969 0 968 0 967 0 966 0 965 0 964 0 963 0 962 0 961 0 960 0 959 0 958 0 957 0 956 0 955 0 954 0 953 0 952 0 951 0 950 0 949 0 948 0 947 0 946 0 945 0 944 0 943 0 942 0 941 0 940 0 939 0 938 0 937 0 936 0 935 0 934 0 933 0 932 0 931 0 930 0 929 0 928 0 927 0 926 0 925 0 924 0 923 0 922 0 921 0 920 0 919 0 918 0 917 0 916 0 915 0 914 0 913 0 912 0 911 0 910 0 909 0 908 0 907 0 906 0 905 0 904 0 903 0 902 0 901 0 900 0 899 0 898 0 897 0 896 0 895 0 894 0 893 0 892 0 891 0 890 0 889 0 888 0 887 0 886 0 885 0 884 0 883 0 882 0 881 0 880 0 879 0 878 0 877 0 876 0 875 0 874 0 873 0 872 0 871 0 870 0 869 0 868 0 867 0 866 0 865 0 864 0 863 0 862 0 861 0 860 0 859 0 858 0 857 0 856 0 855 0 854 0 853 0 852 0 851 0 850 0 849 0 848 0 847 0 846 0 845 0 844 0 843 0 842 0 841 0 840 0 839 0 838 0 837 0 836 0 835 0 834 0 833 0 832 0 831 0 830 0 829 0 828 0 827 0 826 0 825 0 824 0 823 0 822 0 821 0 820 0 819 0 818 0 817 0 816 0 815 0 814 0 813 0 812 0 811 0 810 0 809 0 808 0 807 0 806 0 805 0 804 0 803 0 802 0 801 0 800 0 799 0 798 0 797 0 796 0 795 0 794 0 793 0 792 0 791 0 790 0 789 0 788 0 787 0 786 0 785 0 784 0 783 0 782 0 781 0 780 0 779 0 778 0 777 0 776 0 775 0 774 0 773 0 772 0 771 0 770 0 769 0 768 0 767 0 766 0 765 0 764 0 763 0 762 0 761 0 760 0 759 0 758 0 757 0 756 0 755 0 754 0 753 0 752 0 751 0 750 0 749 0 748 0 747 0 746 0 745 0 744 0 743 0 742 0 741 0 740 0 739 0 738 0 737 0 736 0 735 0 734 0 733 0 732 0 731 0 730 0 729 0 728 0 727 0 726 0 725 0 724 0 723 0 722 0 721 0 720 0 719 0 718 0 717 0 716 0 715 0 714 0 713 0 712 0 711 0 710 0 709 0 708 0 707 0 706 0 705 0 704 0 703 0 702 0 701 0 700 0 699 0 698 0 697 0 696 0 695 0 694 0 693 0 692 0 691 0 690 0 689 0 688 0 687 0 686 0 685 0 684 0 683 0 682 0 681 0 680 0 679 0 678 0 677 0 676 0 675 0 674 0 673 0 672 0 671 0 670 0 669 0 668 0 667 0 666 0 665 0 664 0 663 0 662 0 661 0 660 0 659 0 658 0 657 0 656 0 655 0 654 0 653 0 652 0 651 0 650 0 649 0 648 0 647 0 646 0 645 0 644 0 643 0 642 0 641 0 640 0 639 0 638 0 637 0 636 0 635 0 634 0 633 0 632 0 631 0 630 0 629 0 628 0 627 0 626 0 625 0 624 0 623 0 622 0 621 0 620 0 619 0 618 0 617 0 616 0 615 0 614 0 613 0 612 0 611 0 610 0 609 0 608 0 607 0 606 0 605 0 604 0 603 0 602 0 601 0 600 0 599 0 598 0 597 0 596 0 595 0 594 0 593 0 592 0 591 0 590 0 589 0 588 0 587 0 586 0 585 0 584 0 583 0 582 0 581 0 580 0 579 0 578 0 577 0 576 0 575 0 574 0 573 0 572 0 571 0 570 0 569 0 568 0 567 0 566 0 565 0 564 0 563 0 562 0 561 0 560 0 559 0 558 0 557 0 556 0 555 0 554 0 553 0 552 0 551 0 550 0 549 0 548 0 547 0 546 0 545 0 544 0 543 0 542 0 541 0 540 0 539 0 538 0 537 0 536 0 535 0 534 0 533 0 532 0 531 0 530 0 529 0 528 0 527 0 526 0 525 0 524 0 523 0 522 0 521 0 520 0 519 0 518 0 517 0 516 0 515 0 514 0 513 0 512 0 511 0 510 0 509 0 508 0 507 0 506 0 505 0 504 0 503 0 502 0 501 0 500 0 499 0 498 0 497 0 496 0 495 0 494 0 493 0 492 0 491 0 490 0 489 0 488 0 487 0 486 0 485 0 484 0 483 0 482 0 481 0 480 0 479 0 478 0 477 0 476 0 475 0 474 0 473 0 472 0 471 0 470 0 469 0 468 0 467 0 466 0 465 0 464 0 463 0 462 0 461 0 460 0 459 0 458 0 457 0 456 0 455 0 454 0 453 0 452 0 451 0 450 0 449 0 448 0 447 0 446 0 445 0 444 0 443 0 442 0 441 0 440 0 439 0 438 0 437 0 436 0 435 0 434 0 433 0 432 0 431 0 430 0 429 0 428 0 427 0 426 0 425 0 424 0 423 0 422 0 421 0 420 0 419 0 418 0 417 0 416 0 415 0 414 0 413 0 412 0 411 0 410 0 409 0 408 0 407 0 406 0 405 0 404 0 403 0 402 0 401 0 400 0 399 0 398 0 397 0 396 0 395 0 394 0 393 0 392 0 391 0 390 0 389 0 388 0 387 0 386 0 385 0 384 0 383 0 382 0 381 0 380 0 379 0 378 0 377 0 376 0 375 0 374 0 373 0 372 0 371 0 370 0 369 0 368 0 367 0 366 0 365 0 364 0 363 0 362 0 361 0 360 0 359 0 358 0 357 0 356 0 355 0 354 0 353 0 352 0 351 0 350 0 349 0 348 0 347 0 346 0 345 0 344 0 343 0 342 0 341 0 340 0 339 0 338 0 337 0 336 0 335 0 334 0 333 0 332 0 331 0 330 0 329 0 328 0 327 0 326 0 325 0 324 0 323 0 322 0 321 0 320 0 319 0 318 0 317 0 316 0 315 0 314 0 313 0 312 0 311 0 310 0 309 0 308 0 307 0 306 0 305 0 304 0 303 0 302 0 301 0 300 0 299 0 298 0 297 0 296 0 295 0 294 0 293 0 292 0 291 0 290 0 289 0 288 0 287 0 286 0 285 0 284 0 283 0 282 0 281 0 280 0 279 0 278 0 277 0 276 0 275 0 274 0 273 0 272 0 271 0 270 0 269 0 268 0 267 0 266 0 265 0 264 0 263 0 262 0 261 0 260 0 259 0 258 0 257 0 256 0 255 0 254 0 253 0 252 0 251 0 250 0 249 0 248 0 247 0 246 0 245 0 244 0 243 0 242 0 241 0 240 0 239 0 238 0 237 0 236 0 235 0 234 0 233 0 232 0 231 0 230 0 229 0 228 0 227 0 226 0 225 0 224 0 223 0 222 0 221 0 220 0 219 0 218 0 217 0 216 0 215 0 214 0 213 0 212 0 211 0 210 0 209 0 208 0 207 0 206 0 205 0 204 0 203 0 202 0 201 0 200 0 199 0 198 0 197 0 196 0 195 0 194 0 193 0 192 0 191 0 190 0 189 0 188 0 187 0 186 0 185 0 184 0 183 0 182 0 181 0 180 0 179 0 178 0 177 0 176 0 175 0 174 0 173 0 172 0 171 0 170 0 169 0 168 0 167 0 166 0 165 0 164 0 163 0 162 0 161 0 160 0 159 0 158 0 157 0 156 0 155 0 154 0 153 0 152 0 151 0 150 0 149 0 148 0 147 0 146 0 145 0 144 0 143 0 142 0 141 0 140 0 139 0 138 0 137 0 136 0 135 0 134 0 133 0 132 0 131 0 130 0 129 0 128 0 127 0 126 0 125 0 124 0 123 0 122 0 121 0 120 0 119 0 118 0 117 0 116 0 115 0 114 0 113 0 112 0 111 0 110 0 109 0 108 0 107 0 106 0 105 0 104 0 103 0 102 0 101 0 100 0 99 0 98 0 97 0 96 0 95 0 94 0 93 0 92 0 91 0 90 0 89 0 88 0 87 0 86 0 85 0 84 0 83 0 82 0 81 0 80 0 79 0 78 0 77 0 76 0 75 0 74 0 73 0 72 0 71 0 70 0 69 0 68 0 67 0 66 0 65 0 64 0 63 0 62 0 61 0 60 0 59 0 58 0 57 0 56 0 55 0 54 0 53 0 52 0 51 0 50 0 49 0 48 0 47 0 46 0 45 0 44 0 43 0 42 0 41 0 40 0 39 0 38 0 37 0 36 0 35 0 34 0 33 0 32 0 31 0 30 0 29 0 28 0 27 0 26 0 25 0 24 0 23 0 22 0 21 0 20 0 19 0 18 0 17 0 16 0 15 0 14 0 13 0 12 0 11 0 10 0 9 0 8 0 7 0 6 0 5 0 4 0 3 0 2 0 1 0" style="fill:none; stroke:black; stroke-width:5"/>
</svg>