<svg width="1713" height="2449" xmlns="http://www.w3.org/2000/svg">
    <path d="M788 1610 675 1664 799 1695 872 1742 877 1736 809 1623 789 1610" style="fill:none; stroke:black; stroke-width:5"/>
    <path d="M460 1563 472 1563 483 1576 484 1655 502 1701 520 1727 567 1769 593 1784 705 1816 795 1886 872 1963 965 2024 1092 2057 1225 2074 1243 2086 1245 2102 1219 2191 1201 2205 1135 2225 963 2245 868 2247 646 2222 636 2232 631 2261 615 2273 381 2302 299 2294 279 2281 239 2234 240 2223 256 2213 411 2204 462 2192 337 2112 288 2050 257 1974 250 1873 268 1799 338 1665 371 1629 459 1563" style="fill:none; stroke:black; stroke-width:5"/>
    <path d="M959 239 866 255 659 317 544 334 482 359 461 383 469 401 491 411 594 436 721 454 812 487 827 505 842 554 882 633 906 653 956 675 960 668 903 626 865 584 834 496 829 433 846 354 903 284 947 264 1036 259 1013 244 960 239" style="fill:none; stroke:black; stroke-width:5"/>
    <path d="M1022 194 1174 201 1196 210 1213 230 1233 273 1236 306 1224 392 1200 437 1293 645 1320 681 1428 730 1467 765 1518 861 1540 943 1545 1048 1518 1464 1470 1720 1450 1904 1354 2128 1415 2046 1433 2030 1450 2030 1505 2067 1546 2110 1552 2128 1552 2209 1544 2220 1530 2221 1471 2204 1334 2191 1316 2238 1298 2251 1238 2248 1227 2225 1314 1926 1355 1688 1405 1195 1405 1061 1396 990 1381 951 1351 914 1314 906 1274 921 1233 960 1269 1086 1338 1164 1351 1195 1354 1227 1344 1273 1305 1343 1304 1406 1263 1668 1210 1862 1182 1925 1145 1956 1058 1996 1005 2006 979 2002 912 1954 800 1841 742 1803 677 1775 663 1759 654 1695 663 1666 648 1648 648 1403 661 1398 695 1437 616 1268 606 1278 638 1729 628 1742 601 1738 539 1713 520 1693 485 1578 477 1506 419 1255 406 1045 415 901 440 857 479 831 524 836 577 858 721 974 966 1190 1104 1329 1186 1464 1202 1508 1205 1586 1195 1706 1171 1791 1204 1753 1220 1684 1228 1583 1225 1447 1198 1322 1229 1257 1236 1219 1220 1208 1131 1231 1094 1233 1019 1160 1008 1098 1051 985 1050 939 1058 918 1051 851 998 759 948 714 840 658 764 654 630 627 426 567 257 484 238 463 221 413 223 361 254 299 286 277 356 251 510 219 606 209 1021 194" style="fill:none; stroke:black; stroke-width:5"/>
    <path d="M0 0 0 2448 1712 2448 1712 0 1 0" style="fill:none; stroke:black; stroke-width:5"/>
</svg>